M48
; DRILL file {KiCad 8.0.0} date 2024-03-30T14:37:00+0100
; FORMAT={-:-/ absolute / metric / decimal}
; #@! TF.CreationDate,2024-03-30T14:37:00+01:00
; #@! TF.GenerationSoftware,Kicad,Pcbnew,8.0.0
; #@! TF.FileFunction,Plated,1,2,PTH
FMAT,2
METRIC
; #@! TA.AperFunction,Plated,PTH,ViaDrill
T1C0.300
; #@! TA.AperFunction,Plated,PTH,ViaDrill
T2C0.400
; #@! TA.AperFunction,Plated,PTH,ViaDrill
T3C0.600
; #@! TA.AperFunction,Plated,PTH,ViaDrill
T4C0.800
; #@! TA.AperFunction,Plated,PTH,ComponentDrill
T5C1.000
; #@! TA.AperFunction,Plated,PTH,ComponentDrill
T6C1.520
; #@! TA.AperFunction,Plated,PTH,ComponentDrill
T7C1.800
; #@! TA.AperFunction,Plated,PTH,ComponentDrill
T8C1.900
%
G90
G05
T1
X110.1Y-87.5
X111.1Y-88.1
X112.1Y-88.7
X113.0Y-89.2
X113.85Y-89.6
X114.766Y-89.466
X118.6Y-105.6
X119.514Y-83.414
X124.6Y-105.8
X125.743Y-40.257
X127.1Y-82.5
X127.9Y-93.5
X128.25Y-39.9
X131.2Y-92.9
X132.45Y-91.5
X134.8Y-90.9
X140.8Y-100.8
X148.2Y-57.7
X150.8Y-101.9
X152.6Y-100.8
X155.5Y-85.7
X161.8Y-67.9
X162.438Y-57.6
X163.8Y-64.3
X165.9Y-84.7
T2
X98.0Y-31.5
X98.0Y-32.5
X98.0Y-33.5
X98.0Y-34.5
X98.0Y-35.5
X98.0Y-36.5
X99.5Y-31.5
X99.5Y-32.5
X99.5Y-33.5
X99.5Y-34.5
X99.5Y-35.5
X99.5Y-36.5
X101.0Y-27.0
X101.0Y-28.0
X101.0Y-29.0
X102.0Y-27.0
X102.0Y-28.0
X102.0Y-29.0
X112.0Y-91.65
X112.0Y-92.65
X112.0Y-93.55
X112.9Y-91.65
X112.9Y-92.65
X112.9Y-93.55
X115.407Y-84.107
X116.5Y-40.0
X116.5Y-41.0
X116.5Y-42.0
X116.5Y-45.5
X116.5Y-46.5
X116.5Y-47.5
X117.5Y-40.0
X117.5Y-41.0
X117.5Y-42.0
X117.5Y-44.5
X117.5Y-45.5
X117.5Y-46.5
X117.5Y-47.5
X118.5Y-40.0
X118.5Y-41.0
X118.5Y-42.0
X118.5Y-44.5
X118.5Y-45.5
X118.5Y-46.5
X118.5Y-47.5
X119.5Y-40.0
X119.5Y-41.0
X119.7Y-43.6
X120.7Y-42.6
X122.0Y-44.0
X122.0Y-45.0
X123.0Y-43.0
X123.0Y-44.0
X123.0Y-45.0
X124.0Y-44.0
X124.0Y-45.0
X125.3Y-85.1
X126.3Y-34.9
X126.3Y-35.9
X126.3Y-111.9
X127.1Y-45.5
X127.1Y-46.5
X127.3Y-111.9
X128.1Y-79.3
X131.2Y-82.4
X131.5Y-80.8
X131.8Y-108.5
X132.8Y-107.5
X143.8Y-107.4
X156.6Y-57.7
X158.2Y-77.5
X159.6Y-87.8
X161.9Y-51.5
X165.05Y-51.75
T3
X117.8Y-86.3
X117.9Y-88.0
X118.0Y-89.7
X119.4Y-86.3
X119.5Y-88.0
X119.6Y-89.7
X121.0Y-86.4
X121.1Y-88.1
X121.2Y-89.8
X132.8Y-111.0
X149.5Y-40.5
X149.6Y-31.7
X156.0Y-28.0
T4
X92.6Y-40.9
X93.2Y-17.4
X93.2Y-23.5
X93.3Y-20.6
X94.6Y-40.9
X95.2Y-17.4
X95.2Y-23.5
X95.3Y-20.6
X95.6Y-56.0
X95.6Y-58.0
X95.6Y-60.0
X95.6Y-62.0
X95.6Y-64.0
X96.6Y-40.9
X97.2Y-23.5
X97.3Y-110.9
X98.6Y-40.9
X99.2Y-23.5
X99.6Y-110.9
X100.7Y-80.4
X101.2Y-23.5
X101.9Y-110.9
X102.4Y-82.1
X102.4Y-85.5
X103.4Y-17.4
X104.3Y-88.5
X104.4Y-85.5
X105.15Y-38.75
X105.4Y-17.4
X106.3Y-88.5
X107.4Y-17.4
X108.1Y-103.7
X109.4Y-17.4
X110.4Y-103.7
X111.4Y-17.4
X112.5Y-76.0
X112.5Y-78.0
X112.7Y-103.7
X113.4Y-17.4
X115.4Y-17.4
X117.4Y-17.4
X119.9Y-17.4
X120.9Y-29.2
X121.5Y-71.5
X121.5Y-73.5
X121.5Y-98.5
X121.5Y-100.7
X121.6Y-102.8
X121.9Y-17.4
X122.0Y-57.3
X123.2Y-63.4
X123.4Y-70.5
X123.4Y-72.5
X123.8Y-29.2
X123.8Y-57.3
X123.8Y-100.7
X123.9Y-17.4
X123.9Y-102.8
X125.2Y-63.4
X125.6Y-57.3
X125.9Y-17.4
X126.2Y-102.8
X126.8Y-27.7
X127.2Y-63.4
X127.5Y-57.3
X127.9Y-17.4
X128.6Y-97.2
X129.7Y-27.7
X130.3Y-106.8
X130.4Y-99.3
X130.5Y-17.5
X132.0Y-97.4
X132.5Y-17.5
X132.9Y-27.7
X133.9Y-61.8
X133.9Y-63.8
X133.9Y-65.8
X134.0Y-99.4
X134.5Y-17.5
X135.8Y-27.7
X135.8Y-97.5
X135.9Y-61.8
X135.9Y-63.8
X135.9Y-65.8
X136.5Y-17.5
X137.5Y-99.4
X137.9Y-61.8
X137.9Y-63.8
X137.9Y-65.8
X138.5Y-17.5
X139.0Y-27.7
X140.018Y-86.598
X141.0Y-59.9
X142.6Y-80.1
X142.6Y-80.1
X143.5Y-55.1
X143.5Y-57.1
X144.175Y-78.525
X145.4Y-76.9
X145.5Y-55.1
X145.5Y-57.1
X145.6Y-97.2
X147.1Y-75.2
X148.2Y-97.2
X148.6Y-73.9
X150.1Y-72.6
X152.8Y-88.7
X155.4Y-88.7
X156.0Y-105.4
X156.3Y-66.0
X157.1Y-109.9
X157.1Y-111.9
X157.1Y-113.9
X157.2Y-39.9
X157.2Y-41.9
X158.1Y-64.4
X158.5Y-27.4
X159.1Y-109.9
X159.1Y-111.9
X159.1Y-113.9
X159.2Y-55.9
X159.9Y-62.6
X160.5Y-105.8
X162.5Y-105.8
X163.4Y-71.4
X164.5Y-105.8
X165.8Y-109.8
X165.8Y-111.8
X165.8Y-113.8
X166.14Y-58.193
X166.4Y-72.7
X166.9Y-41.2
X166.9Y-43.2
X166.9Y-45.2
X167.8Y-109.8
X167.8Y-111.8
X167.8Y-113.8
X168.9Y-41.2
X168.9Y-43.2
X168.9Y-45.2
X170.9Y-41.2
X170.9Y-43.2
X170.9Y-45.2
X172.9Y-41.1
X172.9Y-43.1
X172.9Y-45.1
X174.4Y-96.6
X174.4Y-99.2
X174.9Y-41.1
X174.9Y-43.1
X174.9Y-45.1
X176.4Y-96.6
X176.4Y-99.2
X176.9Y-41.1
X176.9Y-43.1
X176.9Y-45.1
X178.4Y-96.6
X178.4Y-99.2
X180.4Y-96.6
X180.4Y-99.2
X180.5Y-17.5
X182.4Y-96.6
X182.4Y-99.2
X182.5Y-17.5
X182.9Y-57.1
X182.9Y-59.1
X182.9Y-61.1
X182.9Y-63.1
X182.9Y-65.1
X184.5Y-17.5
X184.5Y-67.0
X184.5Y-69.0
X184.5Y-71.0
X184.5Y-73.0
X184.5Y-75.0
X186.5Y-17.5
X188.5Y-17.5
X188.5Y-51.4
X188.5Y-53.4
X188.5Y-55.4
X188.5Y-57.4
X188.5Y-59.4
X188.5Y-75.8
X188.5Y-77.8
X188.7Y-90.1
X188.7Y-92.1
X188.7Y-94.1
X188.7Y-96.5
X188.7Y-98.5
X188.7Y-100.5
X188.7Y-102.8
X188.7Y-104.8
X188.7Y-106.8
X188.7Y-109.1
X188.7Y-111.1
X188.7Y-113.1
T5
X94.0Y-45.5
X96.2Y-75.0
X99.0Y-45.5
X100.9Y-90.4
X100.9Y-94.6
X101.2Y-75.0
X102.2Y-98.6
X106.2Y-101.1
X113.2Y-30.9
X118.2Y-30.9
X156.4Y-100.0
X161.4Y-100.0
X164.5Y-34.5
T6
X135.38Y-109.8
X146.62Y-109.8
T7
X104.775Y-107.0
X105.0Y-53.0
X105.0Y-67.8
X110.275Y-107.0
X110.5Y-53.0
X110.5Y-67.8
X170.725Y-36.0
X170.725Y-51.6
X170.725Y-55.8
X170.725Y-60.0
X170.725Y-64.2
X170.725Y-68.4
X170.725Y-86.0
X176.225Y-36.0
X176.225Y-51.6
X176.225Y-55.8
X176.225Y-60.0
X176.225Y-64.2
X176.225Y-68.4
X176.225Y-86.0
X176.687Y-103.584
X176.687Y-107.784
X176.687Y-111.984
T8
X135.38Y-113.8
X146.62Y-113.8
M30
