%TF.GenerationSoftware,KiCad,Pcbnew,8.0.0*%
%TF.CreationDate,2024-03-12T16:14:46+01:00*%
%TF.ProjectId,schematic-main,73636865-6d61-4746-9963-2d6d61696e2e,rev?*%
%TF.SameCoordinates,Original*%
%TF.FileFunction,Copper,L2,Bot*%
%TF.FilePolarity,Positive*%
%FSLAX46Y46*%
G04 Gerber Fmt 4.6, Leading zero omitted, Abs format (unit mm)*
G04 Created by KiCad (PCBNEW 8.0.0) date 2024-03-12 16:14:46*
%MOMM*%
%LPD*%
G01*
G04 APERTURE LIST*
G04 Aperture macros list*
%AMRoundRect*
0 Rectangle with rounded corners*
0 $1 Rounding radius*
0 $2 $3 $4 $5 $6 $7 $8 $9 X,Y pos of 4 corners*
0 Add a 4 corners polygon primitive as box body*
4,1,4,$2,$3,$4,$5,$6,$7,$8,$9,$2,$3,0*
0 Add four circle primitives for the rounded corners*
1,1,$1+$1,$2,$3*
1,1,$1+$1,$4,$5*
1,1,$1+$1,$6,$7*
1,1,$1+$1,$8,$9*
0 Add four rect primitives between the rounded corners*
20,1,$1+$1,$2,$3,$4,$5,0*
20,1,$1+$1,$4,$5,$6,$7,0*
20,1,$1+$1,$6,$7,$8,$9,0*
20,1,$1+$1,$8,$9,$2,$3,0*%
G04 Aperture macros list end*
%TA.AperFunction,Conductor*%
%ADD10C,0.200000*%
%TD*%
%TA.AperFunction,ComponentPad*%
%ADD11R,1.700000X1.700000*%
%TD*%
%TA.AperFunction,ComponentPad*%
%ADD12RoundRect,0.250001X1.599999X-1.099999X1.599999X1.099999X-1.599999X1.099999X-1.599999X-1.099999X0*%
%TD*%
%TA.AperFunction,ComponentPad*%
%ADD13O,3.700000X2.700000*%
%TD*%
%TA.AperFunction,ComponentPad*%
%ADD14RoundRect,0.250001X-1.599999X1.099999X-1.599999X-1.099999X1.599999X-1.099999X1.599999X1.099999X0*%
%TD*%
%TA.AperFunction,ComponentPad*%
%ADD15C,2.280000*%
%TD*%
%TA.AperFunction,ComponentPad*%
%ADD16C,2.850000*%
%TD*%
%TA.AperFunction,ComponentPad*%
%ADD17R,2.300000X2.300000*%
%TD*%
%TA.AperFunction,ComponentPad*%
%ADD18C,2.800000*%
%TD*%
%TA.AperFunction,ViaPad*%
%ADD19C,0.800000*%
%TD*%
%TA.AperFunction,ViaPad*%
%ADD20C,1.600000*%
%TD*%
%TA.AperFunction,ViaPad*%
%ADD21C,1.200000*%
%TD*%
%TA.AperFunction,ViaPad*%
%ADD22C,0.600000*%
%TD*%
%TA.AperFunction,Conductor*%
%ADD23C,5.000000*%
%TD*%
%TA.AperFunction,Conductor*%
%ADD24C,1.000000*%
%TD*%
%TA.AperFunction,Conductor*%
%ADD25C,0.800000*%
%TD*%
%TA.AperFunction,Conductor*%
%ADD26C,4.000000*%
%TD*%
%TA.AperFunction,Conductor*%
%ADD27C,6.000000*%
%TD*%
%TA.AperFunction,Conductor*%
%ADD28C,3.000000*%
%TD*%
%TA.AperFunction,Conductor*%
%ADD29C,2.000000*%
%TD*%
%TA.AperFunction,Conductor*%
%ADD30C,1.500000*%
%TD*%
%TA.AperFunction,Conductor*%
%ADD31C,0.400000*%
%TD*%
%TA.AperFunction,Conductor*%
%ADD32C,0.300000*%
%TD*%
%TA.AperFunction,Conductor*%
%ADD33C,0.500000*%
%TD*%
G04 APERTURE END LIST*
D10*
%TO.N,Net-(U2-SW)*%
X132500000Y-50500000D02*
X120000000Y-50500000D01*
X120000000Y-45000000D01*
X122500000Y-42500000D01*
X123000000Y-42000000D01*
X124000000Y-41000000D01*
X132500000Y-41000000D01*
X132500000Y-50500000D01*
%TA.AperFunction,Conductor*%
G36*
X132500000Y-50500000D02*
G01*
X120000000Y-50500000D01*
X120000000Y-45000000D01*
X122500000Y-42500000D01*
X123000000Y-42000000D01*
X124000000Y-41000000D01*
X132500000Y-41000000D01*
X132500000Y-50500000D01*
G37*
%TD.AperFunction*%
%TO.N,Net-(U2-VIN)*%
X125000000Y-37400000D02*
X120600000Y-41100000D01*
X118400000Y-43000000D01*
X114100000Y-43000000D01*
X114100000Y-33700000D01*
X125000000Y-33700000D01*
X125000000Y-37400000D01*
%TA.AperFunction,Conductor*%
G36*
X125000000Y-37400000D02*
G01*
X120600000Y-41100000D01*
X118400000Y-43000000D01*
X114100000Y-43000000D01*
X114100000Y-33700000D01*
X125000000Y-33700000D01*
X125000000Y-37400000D01*
G37*
%TD.AperFunction*%
%TD*%
D11*
%TO.P,TP9,1,1*%
%TO.N,+3.3V*%
X156400000Y-100000000D03*
%TD*%
D12*
%TO.P,J2,1,Pin_1*%
%TO.N,+3.3V*%
X104775000Y-107000000D03*
D13*
%TO.P,J2,2,Pin_2*%
%TO.N,/IO/A_Input*%
X110275000Y-107000000D03*
%TD*%
D11*
%TO.P,TP7,1,1*%
%TO.N,+5V*%
X94000000Y-45500000D03*
%TD*%
D14*
%TO.P,J1,1,Pin_1*%
%TO.N,/Power /Vin*%
X176225000Y-36000000D03*
D13*
%TO.P,J1,2,Pin_2*%
%TO.N,GND*%
X170725000Y-36000000D03*
%TD*%
D11*
%TO.P,TP1,1,1*%
%TO.N,Net-(R25-Pad1)*%
X100900000Y-90400000D03*
%TD*%
D12*
%TO.P,J4,1,Pin_1*%
%TO.N,+12V*%
X105000000Y-53000000D03*
D13*
%TO.P,J4,2,Pin_2*%
%TO.N,GND*%
X110500000Y-53000000D03*
%TD*%
D11*
%TO.P,TP8,1,1*%
%TO.N,+3.3V*%
X161400000Y-100000000D03*
%TD*%
%TO.P,TP6,1,1*%
%TO.N,+5V*%
X99000000Y-45500000D03*
%TD*%
%TO.P,TP13,1,1*%
%TO.N,Net-(R28-Pad1)*%
X106200000Y-101100000D03*
%TD*%
%TO.P,TP5,1,1*%
%TO.N,+12V*%
X113200000Y-30900000D03*
%TD*%
%TO.P,TP1,1,1*%
%TO.N,/IO/FC_V*%
X164500000Y-34500000D03*
%TD*%
D14*
%TO.P,J5,1,Pin_1*%
%TO.N,+12V*%
X176225000Y-86000000D03*
D13*
%TO.P,J5,2,Pin_2*%
%TO.N,/IO/PURGE_VALVE*%
X170725000Y-86000000D03*
%TD*%
D11*
%TO.P,TP4,1,1*%
%TO.N,+12V*%
X118200000Y-30900000D03*
%TD*%
D12*
%TO.P,J6,1,Pin_1*%
%TO.N,+12V*%
X105000000Y-67800000D03*
D13*
%TO.P,J6,2,Pin_2*%
%TO.N,/IO/Main_Valve*%
X110500000Y-67800000D03*
%TD*%
D11*
%TO.P,TP3,1,1*%
%TO.N,GND*%
X101200000Y-75000000D03*
%TD*%
D15*
%TO.P,P1,A1,GND*%
%TO.N,GND*%
X135380000Y-109800000D03*
D16*
X135380000Y-113800000D03*
D15*
X146620000Y-109800000D03*
D16*
X146620000Y-113800000D03*
%TD*%
D17*
%TO.P,J3,1,Pin_1*%
%TO.N,/IO/CANH*%
X176687100Y-103584250D03*
D18*
%TO.P,J3,2,Pin_2*%
%TO.N,/IO/CANL*%
X176687100Y-107784250D03*
%TO.P,J3,3,Pin_3*%
%TO.N,GND*%
X176687100Y-111984250D03*
%TD*%
D14*
%TO.P,J7,1,Pin_1*%
%TO.N,+12V*%
X176225000Y-51600000D03*
D13*
%TO.P,J7,2,Pin_2*%
%TO.N,/IO/FAN_IN_PWM*%
X176225000Y-55800000D03*
%TO.P,J7,3,Pin_3*%
%TO.N,/IO/FAN_1_TACHO*%
X176225000Y-60000000D03*
%TO.P,J7,4,Pin_4*%
%TO.N,/IO/FAN_GND*%
X176225000Y-64200000D03*
%TO.P,J7,5,Pin_5*%
%TO.N,/IO/Temp_sensor*%
X176225000Y-68400000D03*
%TO.P,J7,6,Pin_6*%
%TO.N,+12V*%
X170725000Y-51600000D03*
%TO.P,J7,7,Pin_7*%
%TO.N,/IO/FAN_IN_PWM*%
X170725000Y-55800000D03*
%TO.P,J7,8,Pin_8*%
%TO.N,/IO/FAN_2_TACHO*%
X170725000Y-60000000D03*
%TO.P,J7,9,Pin_9*%
%TO.N,/IO/FAN_GND*%
X170725000Y-64200000D03*
%TO.P,J7,10,Pin_10*%
%TO.N,+3.3V*%
X170725000Y-68400000D03*
%TD*%
D11*
%TO.P,TP2,1,1*%
%TO.N,Net-(R26-Pad1)*%
X100900000Y-94600000D03*
%TD*%
%TO.P,TP2,1,1*%
%TO.N,GND*%
X96200000Y-75000000D03*
%TD*%
%TO.P,TP12,1,1*%
%TO.N,Net-(R27-Pad1)*%
X102200000Y-98600000D03*
%TD*%
D19*
%TO.N,GND*%
X119700000Y-43600000D03*
X112000000Y-91650000D03*
D20*
X112700000Y-103700000D03*
X115400000Y-17400000D03*
X166900000Y-45200000D03*
X159100000Y-109900000D03*
X136500000Y-17500000D03*
X125900000Y-17400000D03*
X184500000Y-17500000D03*
X182400000Y-96600000D03*
X134000000Y-99400000D03*
X121500000Y-98500000D03*
D21*
X117800000Y-86300000D03*
D20*
X157100000Y-109900000D03*
X111400000Y-17400000D03*
X142600000Y-80100000D03*
X107400000Y-17400000D03*
X93200000Y-23500000D03*
X166900000Y-41200000D03*
X159100000Y-113900000D03*
X182500000Y-17500000D03*
X157200000Y-41900000D03*
X103400000Y-17400000D03*
X182900000Y-61100000D03*
X138500000Y-17500000D03*
X145500000Y-57100000D03*
X94600000Y-40900000D03*
X180500000Y-17500000D03*
X95200000Y-17400000D03*
D19*
X126300000Y-35900000D03*
D20*
X167800000Y-109800000D03*
X180400000Y-99200000D03*
X174900000Y-41100000D03*
X127900000Y-17400000D03*
X143500000Y-55100000D03*
X95600000Y-64000000D03*
X133900000Y-65800000D03*
X112500000Y-76000000D03*
X126200000Y-102800000D03*
X130400000Y-99300000D03*
X105400000Y-17400000D03*
X174400000Y-99200000D03*
X132500000Y-17500000D03*
D19*
X132800000Y-107500000D03*
D20*
X95200000Y-23500000D03*
X148600000Y-73900000D03*
X148200000Y-97200000D03*
X112500000Y-78000000D03*
D19*
X118500000Y-47500000D03*
D20*
X121500000Y-73500000D03*
X188700000Y-96500000D03*
X92600000Y-40900000D03*
X135900000Y-63800000D03*
X188700000Y-109100000D03*
X188700000Y-102800000D03*
X132000000Y-97400000D03*
X123900000Y-102800000D03*
X140018019Y-86597919D03*
X135900000Y-65800000D03*
X178400000Y-96600000D03*
X159200000Y-55900000D03*
X104400000Y-85500000D03*
X137900000Y-63800000D03*
D21*
X121000000Y-86400000D03*
D20*
X188700000Y-94100000D03*
X162500000Y-105800000D03*
D19*
X101000000Y-29000000D03*
D20*
X95600000Y-56000000D03*
X188700000Y-106800000D03*
D19*
X112000000Y-93550000D03*
D20*
X170900000Y-41200000D03*
D19*
X117500000Y-45500000D03*
D20*
X106300000Y-88500000D03*
X133900000Y-61800000D03*
X188700000Y-100500000D03*
X176400000Y-99200000D03*
X170900000Y-43200000D03*
X135900000Y-61800000D03*
X93300000Y-20600000D03*
X121500000Y-100700000D03*
X101900000Y-110900000D03*
X97300000Y-110900000D03*
X160500000Y-105800000D03*
D21*
X121100000Y-88100000D03*
D20*
X121600000Y-102800000D03*
X147100000Y-75200000D03*
D19*
X118500000Y-44500000D03*
D20*
X182900000Y-59100000D03*
X180400000Y-96600000D03*
D21*
X118000000Y-89700000D03*
X119600000Y-89700000D03*
D20*
X165800000Y-113800000D03*
X157200000Y-39900000D03*
X165800000Y-111800000D03*
X113400000Y-17400000D03*
X158100000Y-64400000D03*
X135800000Y-97500000D03*
X104300000Y-88500000D03*
X142600000Y-80100000D03*
X172900000Y-41100000D03*
X123200000Y-63400000D03*
X97200000Y-17400000D03*
D19*
X117500000Y-46500000D03*
D20*
X127200000Y-63400000D03*
X188700000Y-113100000D03*
X176900000Y-41100000D03*
X95300000Y-20600000D03*
D21*
X119400000Y-86300000D03*
D20*
X155400000Y-88700000D03*
X98600000Y-40900000D03*
X188700000Y-90100000D03*
D19*
X126300000Y-111900000D03*
X131800000Y-108500000D03*
D20*
X125200000Y-63400000D03*
X134500000Y-17500000D03*
X174900000Y-45100000D03*
D19*
X102000000Y-27000000D03*
D20*
X123800000Y-100700000D03*
X109400000Y-17400000D03*
X101400000Y-17400000D03*
X184500000Y-75000000D03*
X95600000Y-60000000D03*
X182900000Y-65100000D03*
X158500000Y-27400000D03*
X121500000Y-71500000D03*
X145600000Y-97200000D03*
X165800000Y-109800000D03*
X143900000Y-78400000D03*
X188700000Y-111100000D03*
X186500000Y-17500000D03*
X188700000Y-104800000D03*
X157100000Y-111900000D03*
X137900000Y-65800000D03*
D19*
X118500000Y-45500000D03*
D20*
X184500000Y-71000000D03*
D21*
X121200000Y-89800000D03*
D20*
X172900000Y-43100000D03*
D19*
X120700000Y-42600000D03*
X117500000Y-44500000D03*
D20*
X123900000Y-17400000D03*
D19*
X101000000Y-28000000D03*
X116500000Y-45500000D03*
D20*
X182400000Y-99200000D03*
X123400000Y-72500000D03*
X182900000Y-57100000D03*
X188700000Y-98500000D03*
X168900000Y-45200000D03*
X176900000Y-43100000D03*
D19*
X112900000Y-92650000D03*
D20*
X176400000Y-96600000D03*
X170900000Y-45200000D03*
X128600000Y-97200000D03*
X143500000Y-57100000D03*
D21*
X117900000Y-88000000D03*
D20*
X145500000Y-55100000D03*
X188700000Y-92100000D03*
X123400000Y-70500000D03*
D19*
X101000000Y-27000000D03*
D20*
X102400000Y-85500000D03*
X167800000Y-111800000D03*
D19*
X112900000Y-91650000D03*
D21*
X119500000Y-88000000D03*
D20*
X182900000Y-63100000D03*
X159900000Y-62600000D03*
X101200000Y-23500000D03*
D19*
X102000000Y-29000000D03*
D20*
X168900000Y-41200000D03*
X99400000Y-17400000D03*
D19*
X117500000Y-47500000D03*
D20*
X130500000Y-17500000D03*
X184500000Y-73000000D03*
X110400000Y-103700000D03*
D19*
X116500000Y-47500000D03*
D20*
X145400000Y-76900000D03*
D19*
X112000000Y-92650000D03*
D20*
X96600000Y-40900000D03*
X150100000Y-72600000D03*
X137900000Y-61800000D03*
D19*
X127300000Y-111900000D03*
D20*
X178400000Y-99200000D03*
D19*
X112900000Y-93550000D03*
D20*
X172900000Y-45100000D03*
D19*
X118500000Y-46500000D03*
X102000000Y-28000000D03*
D20*
X174400000Y-96600000D03*
X99200000Y-23500000D03*
X119900000Y-17400000D03*
X121900000Y-17400000D03*
X166900000Y-43200000D03*
X152800000Y-88700000D03*
X159100000Y-111900000D03*
X157100000Y-113900000D03*
X184500000Y-67000000D03*
X117400000Y-17400000D03*
X168900000Y-43200000D03*
X95600000Y-58000000D03*
D19*
X126300000Y-34900000D03*
D20*
X99600000Y-110900000D03*
X137500000Y-99400000D03*
X97200000Y-23500000D03*
X133900000Y-63800000D03*
X108100000Y-103700000D03*
D19*
X116500000Y-46500000D03*
D20*
X156300000Y-66000000D03*
X167800000Y-113800000D03*
X184500000Y-69000000D03*
X188500000Y-17500000D03*
X93200000Y-17400000D03*
X174900000Y-43100000D03*
X164500000Y-105800000D03*
X176900000Y-45100000D03*
X95600000Y-62000000D03*
%TO.N,+12V*%
X188500000Y-75800000D03*
X188500000Y-77800000D03*
X188500000Y-57400000D03*
X135800000Y-27700000D03*
X188500000Y-55400000D03*
X139000000Y-27700000D03*
X129700000Y-27700000D03*
X123800000Y-29200000D03*
X188500000Y-59400000D03*
X188500000Y-53400000D03*
X188500000Y-51400000D03*
X132900000Y-27700000D03*
X126800000Y-27700000D03*
X120900000Y-29200000D03*
D19*
%TO.N,/Power /Vreg*%
X99500000Y-34500000D03*
X99500000Y-35500000D03*
X99500000Y-31500000D03*
X99500000Y-36500000D03*
X98000000Y-33500000D03*
X98000000Y-31500000D03*
X98000000Y-32500000D03*
X98000000Y-36500000D03*
X99500000Y-33500000D03*
X98000000Y-34500000D03*
X99500000Y-32500000D03*
X98000000Y-35500000D03*
D20*
%TO.N,+3.3V*%
X166140105Y-58193309D03*
D19*
X115407107Y-84107107D03*
D20*
X163400000Y-71400000D03*
X141000000Y-59900000D03*
D22*
X140800000Y-100800000D03*
D20*
X125600000Y-57300000D03*
X122000000Y-57300000D03*
D22*
X152600000Y-100800000D03*
D20*
X127500000Y-57300000D03*
X130300000Y-106800000D03*
X102400000Y-82100000D03*
D19*
X128100000Y-79300000D03*
D20*
X123800000Y-57300000D03*
X100700000Y-80400000D03*
X156000000Y-105400000D03*
D19*
%TO.N,/IO/PURGE_VALVE_MCU*%
X159600000Y-87800000D03*
D22*
X127900000Y-93500000D03*
%TO.N,/MCU/BOOT*%
X111100000Y-88100000D03*
X124600000Y-105800000D03*
%TO.N,/MCU/RESET*%
X118600000Y-105600000D03*
X110100000Y-87500000D03*
D19*
%TO.N,Net-(U2-VIN)*%
X117500000Y-42000000D03*
X117500000Y-41000000D03*
X118500000Y-41000000D03*
X119500000Y-40000000D03*
X116500000Y-42000000D03*
X117500000Y-40000000D03*
X116500000Y-41000000D03*
X119500000Y-41000000D03*
X116500000Y-40000000D03*
X118500000Y-40000000D03*
X118500000Y-42000000D03*
%TO.N,Net-(U2-SW)*%
X123000000Y-45000000D03*
X122000000Y-45000000D03*
X122000000Y-44000000D03*
X127100000Y-46500000D03*
X127100000Y-45500000D03*
X123000000Y-44000000D03*
X123000000Y-43000000D03*
X124000000Y-45000000D03*
X124000000Y-44000000D03*
D22*
%TO.N,Net-(U2-SS)*%
X128250000Y-39900000D03*
X125743108Y-40256892D03*
D21*
%TO.N,Net-(D2-K)*%
X149500000Y-40500000D03*
X156000000Y-28000000D03*
D22*
%TO.N,/MCU/MCU_TEST*%
X112100000Y-88700000D03*
X150800000Y-101900000D03*
%TO.N,/IO/FAN_IN_PWM*%
X119514320Y-83414320D03*
X127100000Y-82500000D03*
D19*
X131500000Y-80800000D03*
D22*
%TO.N,/IO/FAN_ON_MCU*%
X131200000Y-92900000D03*
D19*
X158200000Y-77500000D03*
%TO.N,/IO/A_Input*%
X165050000Y-51750000D03*
D22*
%TO.N,/IO/Temp_MCU*%
X113000000Y-89200000D03*
X162438000Y-57600000D03*
%TO.N,/IO/Analog_MCU*%
X113850000Y-89600000D03*
D19*
X161900000Y-51500000D03*
D22*
%TO.N,/IO/FC_Voltage_MCU*%
X114765774Y-89465774D03*
D19*
X156600000Y-57700000D03*
D20*
%TO.N,/IO/FAN_GND*%
X166400000Y-72700000D03*
D19*
%TO.N,/IO/Main_Valve_MCU*%
X125300000Y-85100000D03*
X131200000Y-82400000D03*
D22*
%TO.N,/IO/FAN_1_TACHO*%
X132450000Y-91500000D03*
X161800000Y-67900000D03*
%TO.N,/IO/FAN_2_TACHO*%
X134800000Y-90900000D03*
X163800000Y-64300000D03*
%TO.N,Net-(Q1-G)*%
X155500000Y-85700000D03*
X165900000Y-84700000D03*
%TO.N,/IO/FC_V*%
X148200000Y-57700000D03*
D19*
%TO.N,+5V*%
X143800000Y-107400000D03*
D21*
X132800000Y-111000000D03*
D20*
X105150000Y-38750000D03*
%TD*%
D23*
%TO.N,GND*%
X121200000Y-89800000D02*
X121200000Y-86600000D01*
D24*
X112900000Y-93550000D02*
X112000000Y-93550000D01*
D25*
X145872792Y-108600000D02*
X136127208Y-108600000D01*
D24*
X112000000Y-93550000D02*
X112000000Y-91650000D01*
D23*
X170725000Y-43025000D02*
X170900000Y-43200000D01*
X121200000Y-89800000D02*
X128415938Y-89800000D01*
X117050252Y-93800000D02*
X114200000Y-93800000D01*
X117800000Y-86300000D02*
X118000000Y-86500000D01*
X159900000Y-62800000D02*
X159900000Y-62600000D01*
X119500000Y-88000000D02*
X119500000Y-91350252D01*
X118000000Y-86500000D02*
X118000000Y-89700000D01*
D24*
X112900000Y-92650000D02*
X112900000Y-93550000D01*
D23*
X131957969Y-86257969D02*
X132297919Y-86597919D01*
X131957969Y-86257969D02*
X135215938Y-83000000D01*
X170725000Y-36000000D02*
X170725000Y-43025000D01*
X139700000Y-83000000D02*
X159900000Y-62800000D01*
D25*
X146620000Y-109347208D02*
X145872792Y-108600000D01*
D23*
X135215938Y-83000000D02*
X139700000Y-83000000D01*
X128415938Y-89800000D02*
X131957969Y-86257969D01*
D25*
X136127208Y-108600000D02*
X135380000Y-109347208D01*
X135380000Y-109347208D02*
X135380000Y-113800000D01*
D24*
X112000000Y-92650000D02*
X112900000Y-92650000D01*
D25*
X146620000Y-113800000D02*
X146620000Y-109347208D01*
D23*
X119500000Y-91350252D02*
X117050252Y-93800000D01*
D24*
X112900000Y-93550000D02*
X112900000Y-91650000D01*
D26*
X132297919Y-86597919D02*
X140018019Y-86597919D01*
D23*
%TO.N,+12V*%
X187800000Y-58200000D02*
X187700000Y-58300000D01*
X147600000Y-18500000D02*
X174100000Y-18500000D01*
X110400000Y-31700000D02*
X110700000Y-31400000D01*
X112600000Y-29600000D02*
X113700000Y-29600000D01*
D27*
X117800000Y-29200000D02*
X120900000Y-29200000D01*
X105000000Y-53000000D02*
X104300000Y-53700000D01*
X123800000Y-29200000D02*
X125450000Y-27550000D01*
X114200000Y-29200000D02*
X117800000Y-29200000D01*
D23*
X113700000Y-29600000D02*
X113800000Y-29700000D01*
D27*
X125450000Y-27550000D02*
X138550000Y-27550000D01*
X110700000Y-31400000D02*
X112900000Y-29200000D01*
D23*
X174100000Y-18500000D02*
X187800000Y-32200000D01*
X127200000Y-27550000D02*
X138550000Y-27550000D01*
X138550000Y-27550000D02*
X147600000Y-18500000D01*
D28*
X188500000Y-59400000D02*
X188500000Y-75800000D01*
D27*
X110000000Y-32100000D02*
X110400000Y-31700000D01*
D23*
X113800000Y-29700000D02*
X113900000Y-29600000D01*
D28*
X188500000Y-75800000D02*
X188500000Y-77800000D01*
D23*
X187800000Y-32200000D02*
X187800000Y-58200000D01*
D27*
X105000000Y-45900000D02*
X110000000Y-40900000D01*
X104300000Y-53700000D02*
X104300000Y-67100000D01*
X110000000Y-40900000D02*
X110000000Y-32100000D01*
X120900000Y-29200000D02*
X123800000Y-29200000D01*
X105000000Y-53000000D02*
X105000000Y-45900000D01*
X104300000Y-67100000D02*
X104369491Y-67169491D01*
D29*
%TO.N,+3.3V*%
X127200000Y-109900000D02*
X107675000Y-109900000D01*
D25*
X116999894Y-82514320D02*
X115407107Y-84107107D01*
D29*
X107675000Y-109900000D02*
X104775000Y-107000000D01*
D23*
X100700000Y-80400000D02*
X100700000Y-79700000D01*
X106100000Y-77200000D02*
X103600000Y-79700000D01*
D25*
X141300000Y-100300000D02*
X152100000Y-100300000D01*
X128100000Y-79300000D02*
X128100000Y-79500000D01*
D28*
X141000000Y-59900000D02*
X138400000Y-57300000D01*
X138400000Y-57300000D02*
X122000000Y-57300000D01*
D25*
X152100000Y-100300000D02*
X152600000Y-100800000D01*
D23*
X103900000Y-107000000D02*
X104775000Y-107000000D01*
X109350000Y-71850000D02*
X106100000Y-75100000D01*
X96400000Y-84000000D02*
X96400000Y-99500000D01*
D25*
X128100000Y-79500000D02*
X125085680Y-82514320D01*
D23*
X122000000Y-57300000D02*
X121000000Y-57300000D01*
X117500000Y-67400000D02*
X113050000Y-71850000D01*
D30*
X166140105Y-58193309D02*
X166140105Y-64259895D01*
D29*
X130300000Y-106800000D02*
X130400000Y-106800000D01*
X155900000Y-105300000D02*
X156000000Y-105400000D01*
X131900000Y-105300000D02*
X155900000Y-105300000D01*
D30*
X164200000Y-66200000D02*
X164200000Y-70600000D01*
D23*
X100700000Y-79700000D02*
X96400000Y-84000000D01*
X103600000Y-79700000D02*
X100700000Y-79700000D01*
D29*
X130400000Y-106800000D02*
X131900000Y-105300000D01*
D30*
X164200000Y-70600000D02*
X163400000Y-71400000D01*
D23*
X117500000Y-60800000D02*
X117500000Y-67400000D01*
X106100000Y-75100000D02*
X106100000Y-77200000D01*
D30*
X166140105Y-64259895D02*
X164200000Y-66200000D01*
D29*
X130300000Y-106800000D02*
X127200000Y-109900000D01*
D23*
X96400000Y-99500000D02*
X103900000Y-107000000D01*
X113050000Y-71850000D02*
X109350000Y-71850000D01*
D25*
X140800000Y-100800000D02*
X141300000Y-100300000D01*
D23*
X127500000Y-57300000D02*
X122000000Y-57300000D01*
X121000000Y-57300000D02*
X117500000Y-60800000D01*
D28*
X100700000Y-80400000D02*
X102400000Y-82100000D01*
D25*
X125085680Y-82514320D02*
X116999894Y-82514320D01*
%TO.N,/IO/PURGE_VALVE_MCU*%
X128600000Y-94200000D02*
X127900000Y-93500000D01*
X154400000Y-94200000D02*
X128600000Y-94200000D01*
X159600000Y-89000000D02*
X154400000Y-94200000D01*
X159600000Y-87800000D02*
X159600000Y-89000000D01*
D31*
%TO.N,/MCU/BOOT*%
X120000000Y-105800000D02*
X124600000Y-105800000D01*
X110851472Y-88100000D02*
X109100000Y-89851472D01*
X109100000Y-89851472D02*
X109100000Y-94900000D01*
X111100000Y-88100000D02*
X110851472Y-88100000D01*
X109100000Y-94900000D02*
X120000000Y-105800000D01*
%TO.N,/MCU/RESET*%
X108000000Y-95000000D02*
X118600000Y-105600000D01*
X108000000Y-89600000D02*
X108000000Y-95000000D01*
X110100000Y-87500000D02*
X108000000Y-89600000D01*
D32*
%TO.N,Net-(U2-SS)*%
X125743108Y-40256892D02*
X127893108Y-40256892D01*
X127893108Y-40256892D02*
X128250000Y-39900000D01*
D24*
%TO.N,Net-(D2-K)*%
X156000000Y-28000000D02*
X156000000Y-34000000D01*
X156000000Y-34000000D02*
X149500000Y-40500000D01*
D31*
%TO.N,/MCU/MCU_TEST*%
X110200000Y-90600000D02*
X112100000Y-88700000D01*
X110200000Y-94800000D02*
X110200000Y-90600000D01*
X127000000Y-105000000D02*
X120400000Y-105000000D01*
X150800000Y-101900000D02*
X130100000Y-101900000D01*
X130100000Y-101900000D02*
X127000000Y-105000000D01*
X120400000Y-105000000D02*
X110200000Y-94800000D01*
%TO.N,/IO/FAN_IN_PWM*%
X119528640Y-83400000D02*
X119514320Y-83414320D01*
D25*
X137600000Y-79800000D02*
X132500000Y-79800000D01*
X170725000Y-55800000D02*
X166052214Y-55800000D01*
X162852213Y-59000001D02*
X158399999Y-59000001D01*
D29*
X176225000Y-55800000D02*
X170725000Y-55800000D01*
D25*
X158399999Y-59000001D02*
X137600000Y-79800000D01*
D31*
X127100000Y-82500000D02*
X126200000Y-83400000D01*
D25*
X132500000Y-79800000D02*
X131500000Y-80800000D01*
X166052214Y-55800000D02*
X162852213Y-59000001D01*
D31*
X126200000Y-83400000D02*
X119528640Y-83400000D01*
D25*
%TO.N,/IO/FAN_ON_MCU*%
X131200000Y-92900000D02*
X142800000Y-92900000D01*
X142800000Y-92900000D02*
X158200000Y-77500000D01*
%TO.N,/IO/A_Input*%
X167400000Y-82300000D02*
X167400000Y-100300000D01*
X167400000Y-100300000D02*
X164700000Y-103000000D01*
X165050000Y-51750000D02*
X167600000Y-49200000D01*
X178600000Y-49200000D02*
X180000000Y-50600000D01*
X180000000Y-50600000D02*
X180000000Y-69893019D01*
X164700000Y-103000000D02*
X131100000Y-103000000D01*
X131100000Y-103000000D02*
X127100000Y-107000000D01*
X179806981Y-69893019D02*
X167400000Y-82300000D01*
X167600000Y-49200000D02*
X178600000Y-49200000D01*
X180000000Y-69893019D02*
X179806981Y-69893019D01*
X127100000Y-107000000D02*
X110275000Y-107000000D01*
D31*
%TO.N,/IO/Temp_MCU*%
X111500000Y-86831371D02*
X112968629Y-88300000D01*
D25*
X116300000Y-77700000D02*
X111500000Y-82500000D01*
X162900000Y-57138000D02*
X162900000Y-50300000D01*
D31*
X111500000Y-86500000D02*
X111500000Y-86831371D01*
D25*
X124200000Y-75200000D02*
X121700000Y-77700000D01*
X162900000Y-50300000D02*
X158000000Y-50300000D01*
X111500000Y-82500000D02*
X111500000Y-86500000D01*
X162438000Y-57600000D02*
X162900000Y-57138000D01*
X158000000Y-50300000D02*
X133100000Y-75200000D01*
X121700000Y-77700000D02*
X116300000Y-77700000D01*
D31*
X112968629Y-88300000D02*
X113000000Y-88300000D01*
X113000000Y-88300000D02*
X113000000Y-89200000D01*
D25*
X133100000Y-75200000D02*
X124200000Y-75200000D01*
%TO.N,/IO/Analog_MCU*%
X122600000Y-79300000D02*
X125200000Y-76700000D01*
D33*
X113850000Y-87950000D02*
X113850000Y-89600000D01*
D25*
X112800000Y-83300000D02*
X116800000Y-79300000D01*
D33*
X112800000Y-86385786D02*
X112800000Y-86900000D01*
D25*
X160000000Y-51500000D02*
X161900000Y-51500000D01*
X112800000Y-86385786D02*
X112800000Y-83300000D01*
X116800000Y-79300000D02*
X122600000Y-79300000D01*
X134800000Y-76700000D02*
X160000000Y-51500000D01*
D33*
X112800000Y-86900000D02*
X113850000Y-87950000D01*
D25*
X125200000Y-76700000D02*
X134800000Y-76700000D01*
D31*
%TO.N,/IO/FC_Voltage_MCU*%
X114765774Y-89465774D02*
X114700000Y-89400000D01*
X114700000Y-89400000D02*
X114700000Y-87000000D01*
D25*
X114200000Y-86500000D02*
X114700000Y-87000000D01*
X136400000Y-78100000D02*
X126400000Y-78100000D01*
X117200000Y-80900000D02*
X114200000Y-83900000D01*
X156600000Y-57700000D02*
X156600000Y-57900000D01*
X156600000Y-57900000D02*
X136400000Y-78100000D01*
X123600000Y-80900000D02*
X117200000Y-80900000D01*
X114200000Y-83900000D02*
X114200000Y-86500000D01*
X126400000Y-78100000D02*
X123600000Y-80900000D01*
D28*
%TO.N,/IO/FAN_GND*%
X169900000Y-64200000D02*
X167175000Y-66925000D01*
X176225000Y-64200000D02*
X170725000Y-64200000D01*
X167175000Y-66925000D02*
X167175000Y-71925000D01*
X170725000Y-64200000D02*
X169900000Y-64200000D01*
X167175000Y-71925000D02*
X166400000Y-72700000D01*
D25*
%TO.N,/IO/Main_Valve_MCU*%
X128500000Y-85100000D02*
X125300000Y-85100000D01*
X131200000Y-82400000D02*
X128500000Y-85100000D01*
%TO.N,/IO/FAN_1_TACHO*%
X134350000Y-89600000D02*
X141400000Y-89600000D01*
X161800000Y-69200000D02*
X161800000Y-67900000D01*
X132450000Y-91500000D02*
X134350000Y-89600000D01*
X141400000Y-89600000D02*
X161800000Y-69200000D01*
%TO.N,/IO/FAN_2_TACHO*%
X141920101Y-90900000D02*
X162800001Y-70020100D01*
X162800001Y-70020100D02*
X162800001Y-65299999D01*
X162800001Y-65299999D02*
X163800000Y-64300000D01*
X134800000Y-90900000D02*
X141920101Y-90900000D01*
D24*
%TO.N,Net-(Q1-G)*%
X164900000Y-85700000D02*
X165900000Y-84700000D01*
X155500000Y-85700000D02*
X164900000Y-85700000D01*
D25*
%TO.N,/IO/FC_V*%
X148200000Y-57700000D02*
X149100000Y-56800000D01*
X164500000Y-38300000D02*
X164500000Y-34500000D01*
X149100000Y-56800000D02*
X149100000Y-53700000D01*
X149100000Y-53700000D02*
X164500000Y-38300000D01*
D29*
%TO.N,+5V*%
X92000000Y-46600000D02*
X92900000Y-46600000D01*
X92000000Y-111000000D02*
X92000000Y-46600000D01*
X95000000Y-114000000D02*
X92000000Y-111000000D01*
X94600000Y-44000000D02*
X92000000Y-46600000D01*
X99900000Y-44000000D02*
X94600000Y-44000000D01*
X92900000Y-46600000D02*
X94000000Y-45500000D01*
D25*
X135319268Y-107400000D02*
X143800000Y-107400000D01*
D29*
X132800000Y-111000000D02*
X129800000Y-114000000D01*
X129800000Y-114000000D02*
X95000000Y-114000000D01*
D25*
X132800000Y-109919268D02*
X135319268Y-107400000D01*
D29*
X105150000Y-38750000D02*
X99900000Y-44000000D01*
X94000000Y-45500000D02*
X99000000Y-45500000D01*
D25*
X132800000Y-111000000D02*
X132800000Y-109919268D01*
%TD*%
%TA.AperFunction,Conductor*%
%TO.N,/IO/FC_Voltage_MCU*%
G36*
X114899591Y-88882284D02*
G01*
X114902516Y-88887167D01*
X115039876Y-89340856D01*
X115038994Y-89349767D01*
X115033189Y-89355042D01*
X114767956Y-89465862D01*
X114763406Y-89466766D01*
X114478134Y-89465815D01*
X114469872Y-89462361D01*
X114466473Y-89454076D01*
X114466492Y-89453456D01*
X114499357Y-88889874D01*
X114503260Y-88881816D01*
X114511037Y-88878857D01*
X114891318Y-88878857D01*
X114899591Y-88882284D01*
G37*
%TD.AperFunction*%
%TD*%
%TA.AperFunction,Conductor*%
%TO.N,/MCU/BOOT*%
G36*
X110895054Y-87895006D02*
G01*
X111099029Y-88097626D01*
X111101606Y-88101483D01*
X111209667Y-88364652D01*
X111209640Y-88373607D01*
X111203288Y-88379919D01*
X111201683Y-88380446D01*
X110744257Y-88494877D01*
X110735400Y-88493561D01*
X110733145Y-88491800D01*
X110464509Y-88223164D01*
X110461082Y-88214891D01*
X110464509Y-88206618D01*
X110465735Y-88205552D01*
X110879775Y-87893958D01*
X110888444Y-87891722D01*
X110895054Y-87895006D01*
G37*
%TD.AperFunction*%
%TD*%
%TA.AperFunction,Conductor*%
%TO.N,/IO/Analog_MCU*%
G36*
X114097507Y-89003427D02*
G01*
X114100894Y-89010728D01*
X114148947Y-89587370D01*
X114146219Y-89595900D01*
X114138259Y-89600002D01*
X114137326Y-89600042D01*
X113850039Y-89600999D01*
X113849961Y-89600999D01*
X113562673Y-89600042D01*
X113554411Y-89596588D01*
X113551012Y-89588303D01*
X113551052Y-89587370D01*
X113599106Y-89010728D01*
X113603208Y-89002768D01*
X113610766Y-89000000D01*
X114089234Y-89000000D01*
X114097507Y-89003427D01*
G37*
%TD.AperFunction*%
%TD*%
%TA.AperFunction,Conductor*%
%TO.N,/MCU/RESET*%
G36*
X109896187Y-87296348D02*
G01*
X109897633Y-87297568D01*
X110100707Y-87499293D01*
X110100762Y-87499348D01*
X110302431Y-87702366D01*
X110305830Y-87710651D01*
X110302376Y-87718913D01*
X110300930Y-87720133D01*
X109825222Y-88059924D01*
X109816499Y-88061944D01*
X109810149Y-88058676D01*
X109541323Y-87789850D01*
X109537896Y-87781577D01*
X109540074Y-87774778D01*
X109879868Y-87299067D01*
X109887464Y-87294328D01*
X109896187Y-87296348D01*
G37*
%TD.AperFunction*%
%TD*%
%TA.AperFunction,Conductor*%
%TO.N,/MCU/MCU_TEST*%
G36*
X111896187Y-88496348D02*
G01*
X111897633Y-88497568D01*
X112100707Y-88699293D01*
X112100762Y-88699348D01*
X112302431Y-88902366D01*
X112305830Y-88910651D01*
X112302376Y-88918913D01*
X112300930Y-88920133D01*
X111825222Y-89259924D01*
X111816499Y-89261944D01*
X111810149Y-89258676D01*
X111541323Y-88989850D01*
X111537896Y-88981577D01*
X111540074Y-88974778D01*
X111879868Y-88499067D01*
X111887464Y-88494328D01*
X111896187Y-88496348D01*
G37*
%TD.AperFunction*%
%TD*%
%TA.AperFunction,Conductor*%
%TO.N,GND*%
G36*
X134438682Y-111151114D02*
G01*
X134466842Y-111163853D01*
X134633153Y-111265769D01*
X134633156Y-111265771D01*
X134871644Y-111364555D01*
X135122650Y-111424816D01*
X135380000Y-111445070D01*
X135637349Y-111424816D01*
X135846553Y-111374591D01*
X135916335Y-111378082D01*
X135973153Y-111418746D01*
X135998966Y-111483672D01*
X135999500Y-111495165D01*
X135999500Y-111810868D01*
X135979815Y-111877907D01*
X135927011Y-111923662D01*
X135857853Y-111933606D01*
X135849142Y-111932034D01*
X135654661Y-111889727D01*
X135380001Y-111870083D01*
X135379999Y-111870083D01*
X135105338Y-111889727D01*
X134836288Y-111948255D01*
X134578277Y-112044488D01*
X134336613Y-112176447D01*
X134207015Y-112273462D01*
X134907027Y-112973474D01*
X134774410Y-113062087D01*
X134642087Y-113194410D01*
X134553474Y-113327027D01*
X133853462Y-112627015D01*
X133756447Y-112756613D01*
X133624488Y-112998277D01*
X133528255Y-113256288D01*
X133469727Y-113525338D01*
X133450083Y-113799998D01*
X133450083Y-113800001D01*
X133469727Y-114074661D01*
X133528255Y-114343711D01*
X133624488Y-114601722D01*
X133741533Y-114816073D01*
X133756385Y-114884346D01*
X133731968Y-114949811D01*
X133676034Y-114991682D01*
X133632701Y-114999500D01*
X131221889Y-114999500D01*
X131154850Y-114979815D01*
X131109095Y-114927011D01*
X131099151Y-114857853D01*
X131128176Y-114794297D01*
X131134208Y-114787819D01*
X132429101Y-113492926D01*
X133944518Y-111977510D01*
X134083343Y-111786433D01*
X134190568Y-111575992D01*
X134263553Y-111351368D01*
X134279579Y-111250182D01*
X134309508Y-111187048D01*
X134368819Y-111150116D01*
X134438682Y-111151114D01*
G37*
%TD.AperFunction*%
%TA.AperFunction,Conductor*%
G36*
X172872829Y-21520185D02*
G01*
X172893471Y-21536819D01*
X184763181Y-33406528D01*
X184796666Y-33467851D01*
X184799500Y-33494209D01*
X184799500Y-34520054D01*
X184779815Y-34587093D01*
X184727011Y-34632848D01*
X184657853Y-34642792D01*
X184600014Y-34618430D01*
X184499616Y-34541392D01*
X184499615Y-34541391D01*
X184499612Y-34541389D01*
X184300888Y-34426656D01*
X184300876Y-34426650D01*
X184088887Y-34338842D01*
X184082860Y-34337227D01*
X183867238Y-34279452D01*
X183829215Y-34274446D01*
X183639741Y-34249500D01*
X183639734Y-34249500D01*
X183410266Y-34249500D01*
X183410258Y-34249500D01*
X183193715Y-34278009D01*
X183182762Y-34279452D01*
X183136570Y-34291829D01*
X182961112Y-34338842D01*
X182749123Y-34426650D01*
X182749109Y-34426657D01*
X182550382Y-34541392D01*
X182368338Y-34681081D01*
X182206081Y-34843338D01*
X182066392Y-35025382D01*
X181951657Y-35224109D01*
X181951650Y-35224123D01*
X181863842Y-35436112D01*
X181804453Y-35657759D01*
X181804451Y-35657770D01*
X181774500Y-35885258D01*
X181774500Y-36114741D01*
X181792308Y-36250000D01*
X181804452Y-36342238D01*
X181826979Y-36426310D01*
X181863842Y-36563887D01*
X181951650Y-36775876D01*
X181951657Y-36775890D01*
X182066392Y-36974617D01*
X182206081Y-37156661D01*
X182206089Y-37156670D01*
X182368330Y-37318911D01*
X182368338Y-37318918D01*
X182550382Y-37458607D01*
X182550385Y-37458608D01*
X182550388Y-37458611D01*
X182749112Y-37573344D01*
X182749117Y-37573346D01*
X182749123Y-37573349D01*
X182826707Y-37605485D01*
X182961113Y-37661158D01*
X183182762Y-37720548D01*
X183410266Y-37750500D01*
X183410273Y-37750500D01*
X183639727Y-37750500D01*
X183639734Y-37750500D01*
X183867238Y-37720548D01*
X184088887Y-37661158D01*
X184300888Y-37573344D01*
X184499612Y-37458611D01*
X184600013Y-37381569D01*
X184665182Y-37356375D01*
X184733627Y-37370413D01*
X184783617Y-37419227D01*
X184799500Y-37479945D01*
X184799500Y-57509822D01*
X184796391Y-57537414D01*
X184737231Y-57796612D01*
X184699500Y-58131490D01*
X184699500Y-58468509D01*
X184737231Y-58803381D01*
X184737233Y-58803397D01*
X184812223Y-59131953D01*
X184812227Y-59131965D01*
X184923532Y-59450054D01*
X185069752Y-59753683D01*
X185069754Y-59753686D01*
X185249054Y-60039039D01*
X185367668Y-60187776D01*
X185454456Y-60296606D01*
X185459176Y-60302524D01*
X185697476Y-60540824D01*
X185960961Y-60750946D01*
X186246314Y-60930246D01*
X186246319Y-60930249D01*
X186429301Y-61018368D01*
X186481161Y-61065190D01*
X186499500Y-61130088D01*
X186499500Y-77931127D01*
X186524075Y-78117780D01*
X186533730Y-78191116D01*
X186576317Y-78350054D01*
X186601602Y-78444418D01*
X186601605Y-78444428D01*
X186701953Y-78686690D01*
X186701958Y-78686700D01*
X186833075Y-78913803D01*
X186992718Y-79121851D01*
X186992726Y-79121860D01*
X187178140Y-79307274D01*
X187178148Y-79307281D01*
X187386196Y-79466924D01*
X187613299Y-79598041D01*
X187613309Y-79598046D01*
X187855571Y-79698394D01*
X187855581Y-79698398D01*
X188108884Y-79766270D01*
X188368880Y-79800500D01*
X188368887Y-79800500D01*
X188631113Y-79800500D01*
X188631120Y-79800500D01*
X188891116Y-79766270D01*
X189144419Y-79698398D01*
X189386697Y-79598043D01*
X189613803Y-79466924D01*
X189800015Y-79324036D01*
X189865182Y-79298843D01*
X189933627Y-79312881D01*
X189983617Y-79361694D01*
X189999500Y-79422413D01*
X189999500Y-114875500D01*
X189979815Y-114942539D01*
X189927011Y-114988294D01*
X189875500Y-114999500D01*
X148367299Y-114999500D01*
X148300260Y-114979815D01*
X148254505Y-114927011D01*
X148244561Y-114857853D01*
X148258467Y-114816073D01*
X148375511Y-114601722D01*
X148471744Y-114343711D01*
X148530272Y-114074661D01*
X148549917Y-113800001D01*
X148549917Y-113799998D01*
X148530272Y-113525338D01*
X148471744Y-113256288D01*
X148375511Y-112998277D01*
X148243552Y-112756613D01*
X148243547Y-112756605D01*
X148146537Y-112627015D01*
X148146536Y-112627014D01*
X147446524Y-113327026D01*
X147357913Y-113194410D01*
X147225590Y-113062087D01*
X147092971Y-112973473D01*
X147792984Y-112273461D01*
X147663394Y-112176452D01*
X147663386Y-112176447D01*
X147421721Y-112044488D01*
X147421722Y-112044488D01*
X147260220Y-111984251D01*
X174782247Y-111984251D01*
X174801636Y-112255340D01*
X174801637Y-112255347D01*
X174859405Y-112520904D01*
X174954385Y-112775556D01*
X174954387Y-112775560D01*
X175084632Y-113014085D01*
X175084637Y-113014093D01*
X175178421Y-113139373D01*
X175178422Y-113139374D01*
X175896622Y-112421174D01*
X175988024Y-112557967D01*
X176113383Y-112683326D01*
X176250174Y-112774727D01*
X175531974Y-113492926D01*
X175657263Y-113586716D01*
X175657264Y-113586717D01*
X175895789Y-113716962D01*
X175895793Y-113716964D01*
X176150445Y-113811944D01*
X176416002Y-113869712D01*
X176416009Y-113869713D01*
X176687099Y-113889103D01*
X176687101Y-113889103D01*
X176958190Y-113869713D01*
X176958197Y-113869712D01*
X177223754Y-113811944D01*
X177478406Y-113716964D01*
X177478410Y-113716962D01*
X177716944Y-113586712D01*
X177842223Y-113492927D01*
X177842224Y-113492926D01*
X177124024Y-112774727D01*
X177260817Y-112683326D01*
X177386176Y-112557967D01*
X177477577Y-112421174D01*
X178195776Y-113139374D01*
X178195777Y-113139373D01*
X178289562Y-113014094D01*
X178419812Y-112775560D01*
X178419814Y-112775556D01*
X178514794Y-112520904D01*
X178572562Y-112255347D01*
X178572563Y-112255340D01*
X178583746Y-112098991D01*
X182236600Y-112098991D01*
X182256057Y-112246770D01*
X182266552Y-112326488D01*
X182312151Y-112496666D01*
X182325942Y-112548137D01*
X182413750Y-112760126D01*
X182413757Y-112760140D01*
X182528492Y-112958867D01*
X182668181Y-113140911D01*
X182668189Y-113140920D01*
X182830430Y-113303161D01*
X182830438Y-113303168D01*
X183012482Y-113442857D01*
X183012485Y-113442858D01*
X183012488Y-113442861D01*
X183211212Y-113557594D01*
X183211217Y-113557596D01*
X183211223Y-113557599D01*
X183281509Y-113586712D01*
X183423213Y-113645408D01*
X183644862Y-113704798D01*
X183872366Y-113734750D01*
X183872373Y-113734750D01*
X184101827Y-113734750D01*
X184101834Y-113734750D01*
X184329338Y-113704798D01*
X184550987Y-113645408D01*
X184762988Y-113557594D01*
X184961712Y-113442861D01*
X185143761Y-113303169D01*
X185143765Y-113303164D01*
X185143770Y-113303161D01*
X185306011Y-113140920D01*
X185306014Y-113140915D01*
X185306019Y-113140911D01*
X185445711Y-112958862D01*
X185560444Y-112760138D01*
X185648258Y-112548137D01*
X185707648Y-112326488D01*
X185737600Y-112098984D01*
X185737600Y-111869516D01*
X185707648Y-111642012D01*
X185648258Y-111420363D01*
X185577767Y-111250183D01*
X185560449Y-111208373D01*
X185560446Y-111208367D01*
X185560444Y-111208362D01*
X185445711Y-111009638D01*
X185445708Y-111009635D01*
X185445707Y-111009632D01*
X185344864Y-110878212D01*
X185306019Y-110827589D01*
X185306018Y-110827588D01*
X185306011Y-110827580D01*
X185143770Y-110665339D01*
X185143761Y-110665331D01*
X184961717Y-110525642D01*
X184762990Y-110410907D01*
X184762976Y-110410900D01*
X184550987Y-110323092D01*
X184329338Y-110263702D01*
X184291315Y-110258696D01*
X184101841Y-110233750D01*
X184101834Y-110233750D01*
X183872366Y-110233750D01*
X183872358Y-110233750D01*
X183655815Y-110262259D01*
X183644862Y-110263702D01*
X183551176Y-110288804D01*
X183423212Y-110323092D01*
X183211223Y-110410900D01*
X183211209Y-110410907D01*
X183012482Y-110525642D01*
X182830438Y-110665331D01*
X182668181Y-110827588D01*
X182528492Y-111009632D01*
X182413757Y-111208359D01*
X182413750Y-111208373D01*
X182325942Y-111420362D01*
X182266553Y-111642009D01*
X182266551Y-111642020D01*
X182236600Y-111869508D01*
X182236600Y-112098991D01*
X178583746Y-112098991D01*
X178591953Y-111984251D01*
X178591953Y-111984248D01*
X178572563Y-111713159D01*
X178572562Y-111713152D01*
X178514794Y-111447595D01*
X178419814Y-111192943D01*
X178419812Y-111192939D01*
X178289567Y-110954414D01*
X178289566Y-110954413D01*
X178195776Y-110829124D01*
X177477576Y-111547324D01*
X177386176Y-111410533D01*
X177260817Y-111285174D01*
X177124024Y-111193772D01*
X177842224Y-110475572D01*
X177842223Y-110475571D01*
X177716943Y-110381787D01*
X177716935Y-110381782D01*
X177478410Y-110251537D01*
X177478406Y-110251535D01*
X177223754Y-110156555D01*
X176958197Y-110098787D01*
X176958190Y-110098786D01*
X176687101Y-110079397D01*
X176687099Y-110079397D01*
X176416009Y-110098786D01*
X176416002Y-110098787D01*
X176150445Y-110156555D01*
X175895793Y-110251535D01*
X175895789Y-110251537D01*
X175657264Y-110381782D01*
X175657256Y-110381787D01*
X175531975Y-110475571D01*
X175531974Y-110475572D01*
X176250175Y-111193772D01*
X176113383Y-111285174D01*
X175988024Y-111410533D01*
X175896622Y-111547324D01*
X175178422Y-110829124D01*
X175178421Y-110829125D01*
X175084637Y-110954406D01*
X175084632Y-110954414D01*
X174954387Y-111192939D01*
X174954385Y-111192943D01*
X174859405Y-111447595D01*
X174801637Y-111713152D01*
X174801636Y-111713159D01*
X174782247Y-111984248D01*
X174782247Y-111984251D01*
X147260220Y-111984251D01*
X147163711Y-111948255D01*
X146894661Y-111889727D01*
X146620001Y-111870083D01*
X146619999Y-111870083D01*
X146345338Y-111889727D01*
X146150858Y-111932034D01*
X146081166Y-111927050D01*
X146025233Y-111885178D01*
X146000816Y-111819714D01*
X146000500Y-111810868D01*
X146000500Y-111495165D01*
X146020185Y-111428126D01*
X146072989Y-111382371D01*
X146142147Y-111372427D01*
X146153447Y-111374591D01*
X146362650Y-111424816D01*
X146620000Y-111445070D01*
X146877349Y-111424816D01*
X147128355Y-111364555D01*
X147128356Y-111364555D01*
X147366843Y-111265771D01*
X147366846Y-111265769D01*
X147586942Y-111130894D01*
X147592550Y-111126103D01*
X146951678Y-110485231D01*
X146979995Y-110473503D01*
X147104472Y-110390330D01*
X147210330Y-110284472D01*
X147293503Y-110159995D01*
X147305231Y-110131678D01*
X147946103Y-110772550D01*
X147950894Y-110766942D01*
X148085769Y-110546846D01*
X148085771Y-110546843D01*
X148184555Y-110308356D01*
X148184555Y-110308355D01*
X148244816Y-110057349D01*
X148265070Y-109800000D01*
X148244816Y-109542650D01*
X148186561Y-109300001D01*
X160294390Y-109300001D01*
X160314804Y-109585433D01*
X160375628Y-109865037D01*
X160375630Y-109865043D01*
X160375631Y-109865046D01*
X160455580Y-110079397D01*
X160475635Y-110133166D01*
X160612770Y-110384309D01*
X160612775Y-110384317D01*
X160784254Y-110613387D01*
X160784270Y-110613405D01*
X160986594Y-110815729D01*
X160986612Y-110815745D01*
X161215682Y-110987224D01*
X161215690Y-110987229D01*
X161466833Y-111124364D01*
X161466832Y-111124364D01*
X161466836Y-111124365D01*
X161466839Y-111124367D01*
X161734954Y-111224369D01*
X161734960Y-111224370D01*
X161734962Y-111224371D01*
X162014566Y-111285195D01*
X162014568Y-111285195D01*
X162014572Y-111285196D01*
X162268220Y-111303337D01*
X162299999Y-111305610D01*
X162300000Y-111305610D01*
X162300001Y-111305610D01*
X162328595Y-111303564D01*
X162585428Y-111285196D01*
X162585530Y-111285174D01*
X162865037Y-111224371D01*
X162865037Y-111224370D01*
X162865046Y-111224369D01*
X163133161Y-111124367D01*
X163384315Y-110987226D01*
X163613395Y-110815739D01*
X163815739Y-110613395D01*
X163987226Y-110384315D01*
X164124367Y-110133161D01*
X164224369Y-109865046D01*
X164285196Y-109585428D01*
X164305610Y-109300000D01*
X164285196Y-109014572D01*
X164282051Y-109000116D01*
X164224371Y-108734962D01*
X164224370Y-108734960D01*
X164224369Y-108734954D01*
X164124367Y-108466839D01*
X164086049Y-108396666D01*
X163987229Y-108215690D01*
X163987224Y-108215682D01*
X163815745Y-107986612D01*
X163815729Y-107986594D01*
X163613405Y-107784270D01*
X163613387Y-107784254D01*
X163613383Y-107784251D01*
X174781745Y-107784251D01*
X174801139Y-108055410D01*
X174801140Y-108055417D01*
X174846542Y-108264126D01*
X174858925Y-108321051D01*
X174914148Y-108469109D01*
X174953930Y-108575769D01*
X175084209Y-108814357D01*
X175084210Y-108814358D01*
X175084213Y-108814363D01*
X175247129Y-109031992D01*
X175247133Y-109031996D01*
X175247138Y-109032002D01*
X175439347Y-109224211D01*
X175439353Y-109224216D01*
X175439358Y-109224221D01*
X175656987Y-109387137D01*
X175656991Y-109387139D01*
X175656992Y-109387140D01*
X175895581Y-109517419D01*
X175895580Y-109517419D01*
X175895584Y-109517420D01*
X175895587Y-109517422D01*
X176150299Y-109612425D01*
X176415940Y-109670211D01*
X176667705Y-109688217D01*
X176687099Y-109689605D01*
X176687100Y-109689605D01*
X176687101Y-109689605D01*
X176705200Y-109688310D01*
X176958260Y-109670211D01*
X177223901Y-109612425D01*
X177478613Y-109517422D01*
X177478617Y-109517419D01*
X177478619Y-109517419D01*
X177631192Y-109434108D01*
X177717213Y-109387137D01*
X177934842Y-109224221D01*
X178127071Y-109031992D01*
X178289987Y-108814363D01*
X178420272Y-108575763D01*
X178515275Y-108321051D01*
X178573061Y-108055410D01*
X178592455Y-107784250D01*
X178573061Y-107513090D01*
X178515275Y-107247449D01*
X178420272Y-106992737D01*
X178420270Y-106992734D01*
X178420269Y-106992730D01*
X178289990Y-106754142D01*
X178289989Y-106754141D01*
X178289987Y-106754137D01*
X178127071Y-106536508D01*
X178127066Y-106536503D01*
X178127061Y-106536497D01*
X177934852Y-106344288D01*
X177934846Y-106344283D01*
X177934842Y-106344279D01*
X177717213Y-106181363D01*
X177717208Y-106181360D01*
X177717207Y-106181359D01*
X177478618Y-106051080D01*
X177478619Y-106051080D01*
X177414087Y-106027011D01*
X177223901Y-105956075D01*
X177223894Y-105956073D01*
X177223893Y-105956073D01*
X176958267Y-105898290D01*
X176958260Y-105898289D01*
X176687101Y-105878895D01*
X176687099Y-105878895D01*
X176415939Y-105898289D01*
X176415932Y-105898290D01*
X176150306Y-105956073D01*
X176150302Y-105956074D01*
X176150299Y-105956075D01*
X176022943Y-106003576D01*
X175895580Y-106051080D01*
X175656992Y-106181359D01*
X175656991Y-106181360D01*
X175439359Y-106344278D01*
X175439347Y-106344288D01*
X175247138Y-106536497D01*
X175247128Y-106536509D01*
X175084210Y-106754141D01*
X175084209Y-106754142D01*
X174953930Y-106992730D01*
X174908428Y-107114727D01*
X174858925Y-107247449D01*
X174858924Y-107247452D01*
X174858923Y-107247456D01*
X174801140Y-107513082D01*
X174801139Y-107513089D01*
X174781745Y-107784248D01*
X174781745Y-107784251D01*
X163613383Y-107784251D01*
X163384317Y-107612775D01*
X163384309Y-107612770D01*
X163133166Y-107475635D01*
X163133167Y-107475635D01*
X162975282Y-107416747D01*
X162865046Y-107375631D01*
X162865043Y-107375630D01*
X162865037Y-107375628D01*
X162585433Y-107314804D01*
X162300001Y-107294390D01*
X162299999Y-107294390D01*
X162014566Y-107314804D01*
X161734962Y-107375628D01*
X161466833Y-107475635D01*
X161215690Y-107612770D01*
X161215682Y-107612775D01*
X160986612Y-107784254D01*
X160986594Y-107784270D01*
X160784270Y-107986594D01*
X160784254Y-107986612D01*
X160612775Y-108215682D01*
X160612770Y-108215690D01*
X160475635Y-108466833D01*
X160375628Y-108734962D01*
X160314804Y-109014566D01*
X160294390Y-109299998D01*
X160294390Y-109300001D01*
X148186561Y-109300001D01*
X148184555Y-109291644D01*
X148184555Y-109291643D01*
X148085771Y-109053156D01*
X148085769Y-109053153D01*
X147950890Y-108833052D01*
X147950885Y-108833046D01*
X147946103Y-108827447D01*
X147305231Y-109468319D01*
X147293503Y-109440005D01*
X147210330Y-109315528D01*
X147104472Y-109209670D01*
X146979995Y-109126497D01*
X146951679Y-109114768D01*
X147592551Y-108473895D01*
X147592551Y-108473894D01*
X147586951Y-108469111D01*
X147366846Y-108334230D01*
X147366843Y-108334228D01*
X147128355Y-108235444D01*
X146877349Y-108175183D01*
X146620000Y-108154929D01*
X146362650Y-108175183D01*
X146111644Y-108235444D01*
X146111643Y-108235444D01*
X145873156Y-108334228D01*
X145873153Y-108334230D01*
X145653057Y-108469105D01*
X145653052Y-108469109D01*
X145647447Y-108473894D01*
X146288321Y-109114768D01*
X146260005Y-109126497D01*
X146135528Y-109209670D01*
X146029670Y-109315528D01*
X145986170Y-109380629D01*
X145966392Y-109306814D01*
X145900500Y-109192686D01*
X145807314Y-109099500D01*
X145727039Y-109053153D01*
X145693187Y-109033608D01*
X145622142Y-109014572D01*
X145565892Y-108999500D01*
X145517309Y-108999500D01*
X145450270Y-108979815D01*
X145429628Y-108963181D01*
X145293894Y-108827447D01*
X145289109Y-108833052D01*
X145289105Y-108833057D01*
X145223394Y-108940290D01*
X145171583Y-108987165D01*
X145117667Y-108999500D01*
X136882333Y-108999500D01*
X136815294Y-108979815D01*
X136776606Y-108940290D01*
X136710890Y-108833052D01*
X136710885Y-108833046D01*
X136706104Y-108827447D01*
X136570372Y-108963181D01*
X136509049Y-108996666D01*
X136482691Y-108999500D01*
X136434108Y-108999500D01*
X136306812Y-109033608D01*
X136192686Y-109099500D01*
X136192683Y-109099502D01*
X136099502Y-109192683D01*
X136099500Y-109192686D01*
X136033608Y-109306812D01*
X136013829Y-109380629D01*
X135970330Y-109315528D01*
X135864472Y-109209670D01*
X135739995Y-109126497D01*
X135711678Y-109114767D01*
X136352551Y-108473895D01*
X136350801Y-108429371D01*
X136367837Y-108361610D01*
X136418803Y-108313816D01*
X136474705Y-108300500D01*
X143894645Y-108300500D01*
X143894646Y-108300500D01*
X143980746Y-108282198D01*
X143982180Y-108281902D01*
X144062666Y-108265894D01*
X144062669Y-108265892D01*
X144062672Y-108265892D01*
X144068496Y-108264126D01*
X144068631Y-108264573D01*
X144079315Y-108261247D01*
X144079803Y-108261144D01*
X144154057Y-108228082D01*
X144156955Y-108226837D01*
X144226547Y-108198013D01*
X144227633Y-108197287D01*
X144246095Y-108187104D01*
X144252730Y-108184151D01*
X144313054Y-108140322D01*
X144316952Y-108137605D01*
X144374035Y-108099464D01*
X144379739Y-108093758D01*
X144394531Y-108081126D01*
X144405871Y-108072888D01*
X144451274Y-108022461D01*
X144455687Y-108017810D01*
X144499464Y-107974035D01*
X144507687Y-107961727D01*
X144518642Y-107947643D01*
X144532531Y-107932218D01*
X144532530Y-107932218D01*
X144532533Y-107932216D01*
X144563091Y-107879284D01*
X144567368Y-107872408D01*
X144598012Y-107826548D01*
X144598013Y-107826547D01*
X144606259Y-107806637D01*
X144613433Y-107792091D01*
X144617961Y-107784250D01*
X144627179Y-107768284D01*
X144643995Y-107716528D01*
X144647351Y-107707431D01*
X144665894Y-107662666D01*
X144671411Y-107634927D01*
X144675094Y-107620813D01*
X144685674Y-107588256D01*
X144690656Y-107540837D01*
X144692361Y-107529604D01*
X144700500Y-107488695D01*
X144700500Y-107453692D01*
X144701179Y-107440731D01*
X144705460Y-107400000D01*
X144701179Y-107359266D01*
X144700500Y-107346306D01*
X144700500Y-107311309D01*
X144692360Y-107270393D01*
X144690656Y-107259156D01*
X144685674Y-107211744D01*
X144675094Y-107179183D01*
X144671409Y-107165059D01*
X144665895Y-107137339D01*
X144665894Y-107137338D01*
X144665894Y-107137334D01*
X144647352Y-107092569D01*
X144643990Y-107083455D01*
X144627181Y-107031720D01*
X144627179Y-107031716D01*
X144613424Y-107007892D01*
X144606263Y-106993372D01*
X144598013Y-106973453D01*
X144598009Y-106973447D01*
X144597390Y-106971952D01*
X144589922Y-106902482D01*
X144621198Y-106840003D01*
X144681287Y-106804351D01*
X144711952Y-106800500D01*
X155434936Y-106800500D01*
X155473254Y-106806569D01*
X155515160Y-106820185D01*
X155648631Y-106863552D01*
X155744349Y-106878712D01*
X155881903Y-106900499D01*
X155881908Y-106900499D01*
X156118097Y-106900499D01*
X156232492Y-106882380D01*
X156351368Y-106863552D01*
X156575992Y-106790568D01*
X156786433Y-106683343D01*
X156977510Y-106544517D01*
X157144517Y-106377510D01*
X157283343Y-106186433D01*
X157390568Y-105975992D01*
X157463552Y-105751368D01*
X157496029Y-105546316D01*
X157500499Y-105518097D01*
X157500499Y-105281902D01*
X157471766Y-105100495D01*
X157463552Y-105048631D01*
X157416289Y-104903169D01*
X157390569Y-104824010D01*
X157390567Y-104824007D01*
X157369232Y-104782133D01*
X157369225Y-104782120D01*
X175036600Y-104782120D01*
X175036601Y-104782126D01*
X175043008Y-104841733D01*
X175093302Y-104976578D01*
X175093306Y-104976585D01*
X175179552Y-105091794D01*
X175179555Y-105091797D01*
X175294764Y-105178043D01*
X175294771Y-105178047D01*
X175429617Y-105228341D01*
X175429616Y-105228341D01*
X175436544Y-105229085D01*
X175489227Y-105234750D01*
X177884972Y-105234749D01*
X177944583Y-105228341D01*
X178079431Y-105178046D01*
X178194646Y-105091796D01*
X178280896Y-104976581D01*
X178331191Y-104841733D01*
X178337600Y-104782123D01*
X178337600Y-103698991D01*
X182236600Y-103698991D01*
X182258575Y-103865895D01*
X182266552Y-103926488D01*
X182292898Y-104024812D01*
X182325942Y-104148137D01*
X182413750Y-104360126D01*
X182413757Y-104360140D01*
X182528492Y-104558867D01*
X182668181Y-104740911D01*
X182668189Y-104740920D01*
X182830430Y-104903161D01*
X182830438Y-104903168D01*
X183012482Y-105042857D01*
X183012485Y-105042858D01*
X183012488Y-105042861D01*
X183211212Y-105157594D01*
X183211217Y-105157596D01*
X183211223Y-105157599D01*
X183268110Y-105181162D01*
X183423213Y-105245408D01*
X183644862Y-105304798D01*
X183872366Y-105334750D01*
X183872373Y-105334750D01*
X184101827Y-105334750D01*
X184101834Y-105334750D01*
X184329338Y-105304798D01*
X184550987Y-105245408D01*
X184762988Y-105157594D01*
X184961712Y-105042861D01*
X185143761Y-104903169D01*
X185143765Y-104903164D01*
X185143770Y-104903161D01*
X185306011Y-104740920D01*
X185306014Y-104740915D01*
X185306019Y-104740911D01*
X185445711Y-104558862D01*
X185560444Y-104360138D01*
X185648258Y-104148137D01*
X185707648Y-103926488D01*
X185737600Y-103698984D01*
X185737600Y-103469516D01*
X185707648Y-103242012D01*
X185648258Y-103020363D01*
X185560444Y-102808362D01*
X185445711Y-102609638D01*
X185445708Y-102609635D01*
X185445707Y-102609632D01*
X185323599Y-102450500D01*
X185306019Y-102427589D01*
X185306018Y-102427588D01*
X185306011Y-102427580D01*
X185143770Y-102265339D01*
X185143761Y-102265331D01*
X184961717Y-102125642D01*
X184762990Y-102010907D01*
X184762976Y-102010900D01*
X184550987Y-101923092D01*
X184329338Y-101863702D01*
X184291315Y-101858696D01*
X184101841Y-101833750D01*
X184101834Y-101833750D01*
X183872366Y-101833750D01*
X183872358Y-101833750D01*
X183655815Y-101862259D01*
X183644862Y-101863702D01*
X183551176Y-101888804D01*
X183423212Y-101923092D01*
X183211223Y-102010900D01*
X183211209Y-102010907D01*
X183012482Y-102125642D01*
X182830438Y-102265331D01*
X182668181Y-102427588D01*
X182528492Y-102609632D01*
X182413757Y-102808359D01*
X182413750Y-102808373D01*
X182325942Y-103020362D01*
X182266553Y-103242009D01*
X182266551Y-103242020D01*
X182236600Y-103469508D01*
X182236600Y-103698991D01*
X178337600Y-103698991D01*
X178337599Y-102386378D01*
X178331191Y-102326767D01*
X178324022Y-102307547D01*
X178280897Y-102191921D01*
X178280893Y-102191914D01*
X178194647Y-102076705D01*
X178194644Y-102076702D01*
X178079435Y-101990456D01*
X178079428Y-101990452D01*
X177944582Y-101940158D01*
X177944583Y-101940158D01*
X177884983Y-101933751D01*
X177884981Y-101933750D01*
X177884973Y-101933750D01*
X177884964Y-101933750D01*
X175489229Y-101933750D01*
X175489223Y-101933751D01*
X175429616Y-101940158D01*
X175294771Y-101990452D01*
X175294764Y-101990456D01*
X175179555Y-102076702D01*
X175179552Y-102076705D01*
X175093306Y-102191914D01*
X175093302Y-102191921D01*
X175043008Y-102326767D01*
X175036601Y-102386366D01*
X175036601Y-102386373D01*
X175036600Y-102386385D01*
X175036600Y-104782120D01*
X157369225Y-104782120D01*
X157283343Y-104613566D01*
X157144517Y-104422490D01*
X156877510Y-104155483D01*
X156835302Y-104124817D01*
X156792638Y-104069487D01*
X156786659Y-103999874D01*
X156819265Y-103938079D01*
X156880104Y-103903722D01*
X156908189Y-103900500D01*
X164788693Y-103900500D01*
X164788694Y-103900499D01*
X164962666Y-103865895D01*
X165044606Y-103831953D01*
X165126547Y-103798013D01*
X165126549Y-103798011D01*
X165126552Y-103798010D01*
X165214955Y-103738939D01*
X165214955Y-103738938D01*
X165214959Y-103738936D01*
X165274036Y-103699464D01*
X168099464Y-100874035D01*
X168164208Y-100777139D01*
X168198013Y-100726547D01*
X168217895Y-100678547D01*
X168265895Y-100562666D01*
X168300500Y-100388691D01*
X168300500Y-100211308D01*
X168300500Y-86812826D01*
X168320185Y-86745787D01*
X168372989Y-86700032D01*
X168442147Y-86690088D01*
X168505703Y-86719113D01*
X168539061Y-86765374D01*
X168561770Y-86820200D01*
X168561773Y-86820205D01*
X168561776Y-86820212D01*
X168683064Y-87030289D01*
X168683066Y-87030292D01*
X168683067Y-87030293D01*
X168830733Y-87222736D01*
X168830739Y-87222743D01*
X169002256Y-87394260D01*
X169002263Y-87394266D01*
X169102771Y-87471388D01*
X169194711Y-87541936D01*
X169404788Y-87663224D01*
X169628900Y-87756054D01*
X169863211Y-87818838D01*
X170023940Y-87839998D01*
X170103711Y-87850500D01*
X170103712Y-87850500D01*
X171346289Y-87850500D01*
X171426052Y-87839999D01*
X171586789Y-87818838D01*
X171821100Y-87756054D01*
X172045212Y-87663224D01*
X172255289Y-87541936D01*
X172447738Y-87394265D01*
X172619265Y-87222738D01*
X172675067Y-87150015D01*
X173874500Y-87150015D01*
X173885000Y-87252795D01*
X173885001Y-87252797D01*
X173889965Y-87267776D01*
X173940186Y-87419335D01*
X173940187Y-87419337D01*
X174032286Y-87568651D01*
X174032289Y-87568655D01*
X174156344Y-87692710D01*
X174156348Y-87692713D01*
X174305662Y-87784812D01*
X174305664Y-87784813D01*
X174305666Y-87784814D01*
X174472203Y-87839999D01*
X174574992Y-87850500D01*
X174574997Y-87850500D01*
X177875003Y-87850500D01*
X177875008Y-87850500D01*
X177977797Y-87839999D01*
X178144334Y-87784814D01*
X178293655Y-87692711D01*
X178417711Y-87568655D01*
X178509814Y-87419334D01*
X178564999Y-87252797D01*
X178575500Y-87150008D01*
X178575500Y-86114741D01*
X181774500Y-86114741D01*
X181799446Y-86304215D01*
X181804452Y-86342238D01*
X181840598Y-86477139D01*
X181863842Y-86563887D01*
X181951650Y-86775876D01*
X181951657Y-86775890D01*
X182006098Y-86870184D01*
X182026604Y-86905703D01*
X182066392Y-86974617D01*
X182206081Y-87156661D01*
X182206089Y-87156670D01*
X182368330Y-87318911D01*
X182368338Y-87318918D01*
X182368339Y-87318919D01*
X182379656Y-87327603D01*
X182550382Y-87458607D01*
X182550385Y-87458608D01*
X182550388Y-87458611D01*
X182749112Y-87573344D01*
X182749117Y-87573346D01*
X182749123Y-87573349D01*
X182840480Y-87611190D01*
X182961113Y-87661158D01*
X183182762Y-87720548D01*
X183410266Y-87750500D01*
X183410273Y-87750500D01*
X183639727Y-87750500D01*
X183639734Y-87750500D01*
X183867238Y-87720548D01*
X184088887Y-87661158D01*
X184300888Y-87573344D01*
X184499612Y-87458611D01*
X184681661Y-87318919D01*
X184681665Y-87318914D01*
X184681670Y-87318911D01*
X184843911Y-87156670D01*
X184843914Y-87156665D01*
X184843919Y-87156661D01*
X184983611Y-86974612D01*
X185098344Y-86775888D01*
X185186158Y-86563887D01*
X185245548Y-86342238D01*
X185275500Y-86114734D01*
X185275500Y-85885266D01*
X185245548Y-85657762D01*
X185186158Y-85436113D01*
X185125234Y-85289029D01*
X185098349Y-85224123D01*
X185098346Y-85224117D01*
X185098344Y-85224112D01*
X184983611Y-85025388D01*
X184983608Y-85025385D01*
X184983607Y-85025382D01*
X184849018Y-84849984D01*
X184843919Y-84843339D01*
X184843918Y-84843338D01*
X184843911Y-84843330D01*
X184681670Y-84681089D01*
X184681661Y-84681081D01*
X184499617Y-84541392D01*
X184300890Y-84426657D01*
X184300876Y-84426650D01*
X184088887Y-84338842D01*
X184081165Y-84336773D01*
X183867238Y-84279452D01*
X183814859Y-84272556D01*
X183639741Y-84249500D01*
X183639734Y-84249500D01*
X183410266Y-84249500D01*
X183410258Y-84249500D01*
X183193715Y-84278009D01*
X183182762Y-84279452D01*
X183098659Y-84301987D01*
X182961112Y-84338842D01*
X182749123Y-84426650D01*
X182749109Y-84426657D01*
X182550382Y-84541392D01*
X182368338Y-84681081D01*
X182206081Y-84843338D01*
X182066392Y-85025382D01*
X181951657Y-85224109D01*
X181951650Y-85224123D01*
X181863842Y-85436112D01*
X181829554Y-85564076D01*
X181807164Y-85647643D01*
X181804453Y-85657759D01*
X181804451Y-85657770D01*
X181774500Y-85885258D01*
X181774500Y-86114741D01*
X178575500Y-86114741D01*
X178575500Y-84849992D01*
X178564999Y-84747203D01*
X178509814Y-84580666D01*
X178501868Y-84567784D01*
X178417713Y-84431348D01*
X178417710Y-84431344D01*
X178293655Y-84307289D01*
X178293651Y-84307286D01*
X178144337Y-84215187D01*
X178144335Y-84215186D01*
X178061065Y-84187593D01*
X177977797Y-84160001D01*
X177977795Y-84160000D01*
X177875015Y-84149500D01*
X177875008Y-84149500D01*
X174574992Y-84149500D01*
X174574984Y-84149500D01*
X174472204Y-84160000D01*
X174472203Y-84160001D01*
X174305664Y-84215186D01*
X174305662Y-84215187D01*
X174156348Y-84307286D01*
X174156344Y-84307289D01*
X174032289Y-84431344D01*
X174032286Y-84431348D01*
X173940187Y-84580662D01*
X173940186Y-84580664D01*
X173885001Y-84747203D01*
X173885000Y-84747204D01*
X173874500Y-84849984D01*
X173874500Y-87150015D01*
X172675067Y-87150015D01*
X172766936Y-87030289D01*
X172888224Y-86820212D01*
X172981054Y-86596100D01*
X173043838Y-86361789D01*
X173075500Y-86121288D01*
X173075500Y-85878712D01*
X173043838Y-85638211D01*
X172981054Y-85403900D01*
X172888224Y-85179788D01*
X172766936Y-84969711D01*
X172675073Y-84849992D01*
X172619266Y-84777263D01*
X172619260Y-84777256D01*
X172447743Y-84605739D01*
X172447736Y-84605733D01*
X172255293Y-84458067D01*
X172255292Y-84458066D01*
X172255289Y-84458064D01*
X172083661Y-84358974D01*
X172045214Y-84336777D01*
X172045205Y-84336773D01*
X171821104Y-84243947D01*
X171586785Y-84181161D01*
X171346289Y-84149500D01*
X171346288Y-84149500D01*
X170103712Y-84149500D01*
X170103711Y-84149500D01*
X169863214Y-84181161D01*
X169628895Y-84243947D01*
X169404794Y-84336773D01*
X169404785Y-84336777D01*
X169194706Y-84458067D01*
X169002263Y-84605733D01*
X169002256Y-84605739D01*
X168830739Y-84777256D01*
X168830733Y-84777263D01*
X168683067Y-84969706D01*
X168561777Y-85179785D01*
X168561772Y-85179794D01*
X168539061Y-85234626D01*
X168495220Y-85289029D01*
X168428926Y-85311094D01*
X168361226Y-85293815D01*
X168313616Y-85242677D01*
X168300500Y-85187173D01*
X168300500Y-82724361D01*
X168320185Y-82657322D01*
X168336814Y-82636685D01*
X178373770Y-72599728D01*
X178435091Y-72566245D01*
X178504783Y-72571229D01*
X178560716Y-72613101D01*
X178585133Y-72678565D01*
X178584388Y-72703595D01*
X178574500Y-72778709D01*
X178574500Y-73021288D01*
X178606161Y-73261785D01*
X178668947Y-73496104D01*
X178756156Y-73706645D01*
X178761776Y-73720212D01*
X178883064Y-73930289D01*
X178883066Y-73930292D01*
X178883067Y-73930293D01*
X179030733Y-74122736D01*
X179030739Y-74122743D01*
X179202256Y-74294260D01*
X179202263Y-74294266D01*
X179296953Y-74366924D01*
X179394711Y-74441936D01*
X179604788Y-74563224D01*
X179828900Y-74656054D01*
X180063211Y-74718838D01*
X180243586Y-74742584D01*
X180303711Y-74750500D01*
X180303712Y-74750500D01*
X180546289Y-74750500D01*
X180594388Y-74744167D01*
X180786789Y-74718838D01*
X181021100Y-74656054D01*
X181245212Y-74563224D01*
X181455289Y-74441936D01*
X181647738Y-74294265D01*
X181819265Y-74122738D01*
X181966936Y-73930289D01*
X182088224Y-73720212D01*
X182181054Y-73496100D01*
X182243838Y-73261789D01*
X182275500Y-73021288D01*
X182275500Y-72778712D01*
X182243838Y-72538211D01*
X182181054Y-72303900D01*
X182088224Y-72079788D01*
X181966936Y-71869711D01*
X181819265Y-71677262D01*
X181819260Y-71677256D01*
X181647743Y-71505739D01*
X181647736Y-71505733D01*
X181455293Y-71358067D01*
X181455292Y-71358066D01*
X181455289Y-71358064D01*
X181245212Y-71236776D01*
X181245205Y-71236773D01*
X181021104Y-71143947D01*
X180786785Y-71081161D01*
X180546289Y-71049500D01*
X180546288Y-71049500D01*
X180303712Y-71049500D01*
X180303710Y-71049500D01*
X180228595Y-71059388D01*
X180159559Y-71048622D01*
X180107304Y-71002241D01*
X180088420Y-70934972D01*
X180108902Y-70868172D01*
X180124725Y-70848773D01*
X180176051Y-70797447D01*
X180237372Y-70763964D01*
X180239464Y-70763527D01*
X180262666Y-70758913D01*
X180426547Y-70691032D01*
X180574035Y-70592483D01*
X180699464Y-70467054D01*
X180798013Y-70319566D01*
X180865894Y-70155685D01*
X180867897Y-70145618D01*
X180900499Y-69981714D01*
X180900500Y-69981712D01*
X180900500Y-50511307D01*
X180900499Y-50511303D01*
X180873836Y-50377256D01*
X180865895Y-50337334D01*
X180813693Y-50211309D01*
X180798013Y-50173453D01*
X180703059Y-50031345D01*
X180703060Y-50031344D01*
X180703054Y-50031338D01*
X180699464Y-50025964D01*
X179747216Y-49073716D01*
X179713731Y-49012393D01*
X179718715Y-48942701D01*
X179760587Y-48886768D01*
X179826051Y-48862351D01*
X179866987Y-48866259D01*
X180063211Y-48918838D01*
X180243586Y-48942584D01*
X180303711Y-48950500D01*
X180303712Y-48950500D01*
X180546289Y-48950500D01*
X180605528Y-48942701D01*
X180786789Y-48918838D01*
X181021100Y-48856054D01*
X181245212Y-48763224D01*
X181455289Y-48641936D01*
X181647738Y-48494265D01*
X181819265Y-48322738D01*
X181966936Y-48130289D01*
X182088224Y-47920212D01*
X182181054Y-47696100D01*
X182243838Y-47461789D01*
X182275500Y-47221288D01*
X182275500Y-46978712D01*
X182243838Y-46738211D01*
X182181054Y-46503900D01*
X182088224Y-46279788D01*
X181966936Y-46069711D01*
X181819265Y-45877262D01*
X181819260Y-45877256D01*
X181647743Y-45705739D01*
X181647736Y-45705733D01*
X181455293Y-45558067D01*
X181455292Y-45558066D01*
X181455289Y-45558064D01*
X181245212Y-45436776D01*
X181245205Y-45436773D01*
X181021104Y-45343947D01*
X180903944Y-45312554D01*
X180786789Y-45281162D01*
X180786788Y-45281161D01*
X180786785Y-45281161D01*
X180546289Y-45249500D01*
X180546288Y-45249500D01*
X180303712Y-45249500D01*
X180303711Y-45249500D01*
X180063214Y-45281161D01*
X179828895Y-45343947D01*
X179604794Y-45436773D01*
X179604785Y-45436777D01*
X179394706Y-45558067D01*
X179202263Y-45705733D01*
X179202256Y-45705739D01*
X179030739Y-45877256D01*
X179030733Y-45877263D01*
X178883067Y-46069706D01*
X178761777Y-46279785D01*
X178761773Y-46279794D01*
X178668947Y-46503895D01*
X178606161Y-46738214D01*
X178574500Y-46978711D01*
X178574500Y-47221288D01*
X178606161Y-47461785D01*
X178668947Y-47696104D01*
X178761773Y-47920205D01*
X178761777Y-47920214D01*
X178881814Y-48128124D01*
X178898287Y-48196024D01*
X178875434Y-48262051D01*
X178820513Y-48305242D01*
X178750960Y-48311883D01*
X178750318Y-48311758D01*
X178688692Y-48299500D01*
X178688691Y-48299500D01*
X167688692Y-48299500D01*
X167511309Y-48299500D01*
X167511304Y-48299500D01*
X167337339Y-48334103D01*
X167337323Y-48334108D01*
X167221453Y-48382102D01*
X167221454Y-48382103D01*
X167173454Y-48401986D01*
X167035350Y-48494265D01*
X167025964Y-48500535D01*
X167025959Y-48500540D01*
X164470260Y-51056238D01*
X164455468Y-51068872D01*
X164444136Y-51077105D01*
X164444126Y-51077114D01*
X164398751Y-51127507D01*
X164394286Y-51132212D01*
X164350539Y-51175960D01*
X164350532Y-51175968D01*
X164342308Y-51188277D01*
X164331361Y-51202352D01*
X164317468Y-51217782D01*
X164317467Y-51217783D01*
X164286907Y-51270713D01*
X164282626Y-51277597D01*
X164251987Y-51323454D01*
X164243742Y-51343357D01*
X164236575Y-51357890D01*
X164222820Y-51381716D01*
X164222818Y-51381721D01*
X164206010Y-51433449D01*
X164202642Y-51442580D01*
X164184105Y-51487333D01*
X164184103Y-51487341D01*
X164178588Y-51515067D01*
X164174902Y-51529193D01*
X164164326Y-51561743D01*
X164164325Y-51561746D01*
X164159341Y-51609160D01*
X164157639Y-51620384D01*
X164149500Y-51661307D01*
X164149500Y-51696306D01*
X164148821Y-51709266D01*
X164144540Y-51749999D01*
X164144540Y-51750000D01*
X164147440Y-51777594D01*
X164148821Y-51790731D01*
X164149500Y-51803692D01*
X164149500Y-51838692D01*
X164157639Y-51879614D01*
X164159341Y-51890839D01*
X164164325Y-51938249D01*
X164164326Y-51938256D01*
X164174637Y-51969990D01*
X164174903Y-51970807D01*
X164178587Y-51984927D01*
X164184105Y-52012665D01*
X164184106Y-52012670D01*
X164202641Y-52057417D01*
X164206011Y-52066550D01*
X164222820Y-52118282D01*
X164236571Y-52142100D01*
X164243743Y-52156644D01*
X164251986Y-52176544D01*
X164251988Y-52176547D01*
X164282626Y-52222402D01*
X164286910Y-52229290D01*
X164317467Y-52282216D01*
X164331355Y-52297640D01*
X164342307Y-52311721D01*
X164350535Y-52324035D01*
X164394283Y-52367783D01*
X164398752Y-52372492D01*
X164444129Y-52422888D01*
X164448802Y-52426283D01*
X164455463Y-52431123D01*
X164470259Y-52443760D01*
X164475960Y-52449461D01*
X164475965Y-52449465D01*
X164532981Y-52487561D01*
X164536956Y-52490330D01*
X164597270Y-52534151D01*
X164603896Y-52537101D01*
X164603907Y-52537106D01*
X164622353Y-52547277D01*
X164623453Y-52548012D01*
X164693027Y-52576831D01*
X164695930Y-52578077D01*
X164770195Y-52611143D01*
X164770197Y-52611144D01*
X164770691Y-52611249D01*
X164781373Y-52614567D01*
X164781507Y-52614127D01*
X164787330Y-52615893D01*
X164787334Y-52615895D01*
X164867904Y-52631920D01*
X164869283Y-52632204D01*
X164955354Y-52650500D01*
X164955355Y-52650500D01*
X165144645Y-52650500D01*
X165144646Y-52650500D01*
X165230699Y-52632208D01*
X165232134Y-52631912D01*
X165312666Y-52615895D01*
X165312671Y-52615893D01*
X165318495Y-52614127D01*
X165318628Y-52614568D01*
X165329319Y-52611247D01*
X165329404Y-52611228D01*
X165329803Y-52611144D01*
X165404096Y-52578065D01*
X165406942Y-52576843D01*
X165476547Y-52548012D01*
X165477637Y-52547283D01*
X165496088Y-52537107D01*
X165502730Y-52534151D01*
X165563039Y-52490333D01*
X165566966Y-52487595D01*
X165624036Y-52449464D01*
X165629740Y-52443760D01*
X165644533Y-52431124D01*
X165655871Y-52422888D01*
X165701266Y-52372469D01*
X165705697Y-52367800D01*
X167936680Y-50136819D01*
X167998003Y-50103334D01*
X168024361Y-50100500D01*
X168808134Y-50100500D01*
X168875173Y-50120185D01*
X168920928Y-50172989D01*
X168930872Y-50242147D01*
X168901847Y-50305703D01*
X168895815Y-50312181D01*
X168830739Y-50377256D01*
X168830733Y-50377263D01*
X168683067Y-50569706D01*
X168561777Y-50779785D01*
X168561773Y-50779794D01*
X168468947Y-51003895D01*
X168406161Y-51238214D01*
X168374500Y-51478711D01*
X168374500Y-51721288D01*
X168403063Y-51938256D01*
X168406162Y-51961789D01*
X168408578Y-51970807D01*
X168468947Y-52196104D01*
X168561773Y-52420205D01*
X168561777Y-52420214D01*
X168565281Y-52426283D01*
X168683064Y-52630289D01*
X168683066Y-52630292D01*
X168683067Y-52630293D01*
X168830733Y-52822736D01*
X168830739Y-52822743D01*
X169002256Y-52994260D01*
X169002263Y-52994266D01*
X169115321Y-53081018D01*
X169194711Y-53141936D01*
X169404788Y-53263224D01*
X169628900Y-53356054D01*
X169863211Y-53418838D01*
X170003705Y-53437334D01*
X170103711Y-53450500D01*
X170103712Y-53450500D01*
X171346289Y-53450500D01*
X171426052Y-53439999D01*
X171586789Y-53418838D01*
X171821100Y-53356054D01*
X172045212Y-53263224D01*
X172255289Y-53141936D01*
X172447738Y-52994265D01*
X172619265Y-52822738D01*
X172766936Y-52630289D01*
X172888224Y-52420212D01*
X172981054Y-52196100D01*
X173043838Y-51961789D01*
X173075500Y-51721288D01*
X173075500Y-51478712D01*
X173072836Y-51458480D01*
X173056873Y-51337227D01*
X173043838Y-51238211D01*
X172981054Y-51003900D01*
X172888224Y-50779788D01*
X172766936Y-50569711D01*
X172675073Y-50449992D01*
X172619266Y-50377263D01*
X172619260Y-50377256D01*
X172554185Y-50312181D01*
X172520700Y-50250858D01*
X172525684Y-50181166D01*
X172567556Y-50125233D01*
X172633020Y-50100816D01*
X172641866Y-50100500D01*
X173795031Y-50100500D01*
X173862070Y-50120185D01*
X173907825Y-50172989D01*
X173917769Y-50242147D01*
X173912739Y-50263492D01*
X173888272Y-50337333D01*
X173885000Y-50347206D01*
X173874500Y-50449984D01*
X173874500Y-52750015D01*
X173885000Y-52852795D01*
X173885001Y-52852796D01*
X173940186Y-53019335D01*
X173940187Y-53019337D01*
X174032286Y-53168651D01*
X174032289Y-53168655D01*
X174156344Y-53292710D01*
X174156348Y-53292713D01*
X174305662Y-53384812D01*
X174305664Y-53384813D01*
X174305666Y-53384814D01*
X174472203Y-53439999D01*
X174574992Y-53450500D01*
X174574997Y-53450500D01*
X177875003Y-53450500D01*
X177875008Y-53450500D01*
X177977797Y-53439999D01*
X178144334Y-53384814D01*
X178293655Y-53292711D01*
X178417711Y-53168655D01*
X178509814Y-53019334D01*
X178564999Y-52852797D01*
X178575500Y-52750008D01*
X178575500Y-50748362D01*
X178595185Y-50681323D01*
X178647989Y-50635568D01*
X178717147Y-50625624D01*
X178780703Y-50654649D01*
X178787181Y-50660681D01*
X179063181Y-50936681D01*
X179096666Y-50998004D01*
X179099500Y-51024362D01*
X179099500Y-69275637D01*
X179079815Y-69342676D01*
X179063181Y-69363318D01*
X166700540Y-81725958D01*
X166700537Y-81725961D01*
X166673856Y-81765894D01*
X166601990Y-81873447D01*
X166601983Y-81873459D01*
X166580236Y-81925964D01*
X166580236Y-81925965D01*
X166549211Y-82000866D01*
X166534105Y-82037334D01*
X166513875Y-82139039D01*
X166499500Y-82211305D01*
X166499500Y-83679807D01*
X166479815Y-83746846D01*
X166427011Y-83792601D01*
X166357853Y-83802545D01*
X166328048Y-83794368D01*
X166191840Y-83737949D01*
X166191828Y-83737946D01*
X165998544Y-83699499D01*
X165998541Y-83699499D01*
X165801460Y-83699499D01*
X165801457Y-83699499D01*
X165608172Y-83737946D01*
X165608164Y-83737948D01*
X165426088Y-83813366D01*
X165426079Y-83813371D01*
X165262219Y-83922859D01*
X165262215Y-83922862D01*
X164521899Y-84663181D01*
X164460576Y-84696666D01*
X164434218Y-84699500D01*
X155401457Y-84699500D01*
X155208170Y-84737947D01*
X155208160Y-84737950D01*
X155026092Y-84813364D01*
X155026079Y-84813371D01*
X154862218Y-84922860D01*
X154862214Y-84922863D01*
X154722863Y-85062214D01*
X154722860Y-85062218D01*
X154613371Y-85226079D01*
X154613364Y-85226092D01*
X154537950Y-85408160D01*
X154537947Y-85408170D01*
X154499500Y-85601456D01*
X154499500Y-85601459D01*
X154499500Y-85798541D01*
X154499500Y-85798543D01*
X154499499Y-85798543D01*
X154537947Y-85991829D01*
X154537950Y-85991839D01*
X154613364Y-86173907D01*
X154613371Y-86173920D01*
X154722860Y-86337781D01*
X154722863Y-86337785D01*
X154862214Y-86477136D01*
X154862218Y-86477139D01*
X155026079Y-86586628D01*
X155026092Y-86586635D01*
X155208160Y-86662049D01*
X155208165Y-86662051D01*
X155208169Y-86662051D01*
X155208170Y-86662052D01*
X155401456Y-86700500D01*
X159272179Y-86700500D01*
X159339218Y-86720185D01*
X159384973Y-86772989D01*
X159394917Y-86842147D01*
X159365892Y-86905703D01*
X159322614Y-86937780D01*
X159245969Y-86971904D01*
X159242986Y-86973185D01*
X159173457Y-87001984D01*
X159173450Y-87001988D01*
X159172346Y-87002726D01*
X159153911Y-87012892D01*
X159147272Y-87015848D01*
X159147264Y-87015853D01*
X159086976Y-87059653D01*
X159082986Y-87062434D01*
X159025968Y-87100533D01*
X159025958Y-87100542D01*
X159020253Y-87106246D01*
X159005472Y-87118870D01*
X158994129Y-87127111D01*
X158994126Y-87127114D01*
X158948742Y-87177517D01*
X158944277Y-87182222D01*
X158900539Y-87225961D01*
X158900532Y-87225969D01*
X158892310Y-87238275D01*
X158881362Y-87252350D01*
X158867472Y-87267776D01*
X158867467Y-87267784D01*
X158836914Y-87320703D01*
X158832630Y-87327591D01*
X158801988Y-87373450D01*
X158793741Y-87393360D01*
X158786569Y-87407902D01*
X158772824Y-87431710D01*
X158772821Y-87431715D01*
X158756010Y-87483451D01*
X158752643Y-87492578D01*
X158734106Y-87537333D01*
X158728589Y-87565066D01*
X158724905Y-87579183D01*
X158714325Y-87611747D01*
X158709340Y-87659171D01*
X158707638Y-87670396D01*
X158699500Y-87711310D01*
X158699500Y-87746306D01*
X158698821Y-87759266D01*
X158694540Y-87799999D01*
X158698821Y-87840731D01*
X158699500Y-87853692D01*
X158699500Y-88575638D01*
X158679815Y-88642677D01*
X158663181Y-88663319D01*
X154063319Y-93263181D01*
X154001996Y-93296666D01*
X153975638Y-93299500D01*
X143973362Y-93299500D01*
X143906323Y-93279815D01*
X143860568Y-93227011D01*
X143850624Y-93157853D01*
X143879649Y-93094297D01*
X143885681Y-93087819D01*
X147594953Y-89378547D01*
X158779742Y-78193756D01*
X158794525Y-78181130D01*
X158805871Y-78172888D01*
X158851265Y-78122471D01*
X158855698Y-78117800D01*
X158899464Y-78074036D01*
X158907694Y-78061717D01*
X158918642Y-78047642D01*
X158932533Y-78032216D01*
X158963091Y-77979285D01*
X158967367Y-77972411D01*
X158998013Y-77926547D01*
X159006259Y-77906638D01*
X159013431Y-77892095D01*
X159027179Y-77868284D01*
X159043990Y-77816542D01*
X159047347Y-77807441D01*
X159065895Y-77762666D01*
X159071411Y-77734928D01*
X159075095Y-77720810D01*
X159085674Y-77688256D01*
X159090657Y-77640829D01*
X159092359Y-77629616D01*
X159098151Y-77600500D01*
X159100500Y-77588695D01*
X159100500Y-77553692D01*
X159101179Y-77540731D01*
X159105460Y-77500000D01*
X159101179Y-77459266D01*
X159100500Y-77446306D01*
X159100500Y-77411307D01*
X159092361Y-77370393D01*
X159090657Y-77359159D01*
X159085674Y-77311747D01*
X159085674Y-77311744D01*
X159075097Y-77279193D01*
X159071410Y-77265065D01*
X159065895Y-77237334D01*
X159055792Y-77212944D01*
X159047355Y-77192574D01*
X159043985Y-77183440D01*
X159027179Y-77131716D01*
X159013430Y-77107902D01*
X159006260Y-77093365D01*
X158998013Y-77073453D01*
X158998011Y-77073450D01*
X158998009Y-77073446D01*
X158967368Y-77027589D01*
X158963083Y-77020698D01*
X158944100Y-76987819D01*
X158932533Y-76967784D01*
X158932530Y-76967780D01*
X158932529Y-76967779D01*
X158918640Y-76952354D01*
X158907694Y-76938281D01*
X158899464Y-76925964D01*
X158855715Y-76882215D01*
X158851245Y-76877505D01*
X158805875Y-76827115D01*
X158805871Y-76827112D01*
X158794531Y-76818873D01*
X158779738Y-76806238D01*
X158774036Y-76800536D01*
X158768244Y-76796666D01*
X158717013Y-76762434D01*
X158713021Y-76759651D01*
X158652732Y-76715850D01*
X158646087Y-76712891D01*
X158627652Y-76702725D01*
X158626548Y-76701987D01*
X158626540Y-76701983D01*
X158556969Y-76673165D01*
X158553989Y-76671885D01*
X158479804Y-76638856D01*
X158479618Y-76638816D01*
X158479294Y-76638747D01*
X158468632Y-76635437D01*
X158468500Y-76635874D01*
X158462667Y-76634105D01*
X158382222Y-76618103D01*
X158380633Y-76617776D01*
X158294650Y-76599500D01*
X158294646Y-76599500D01*
X158105354Y-76599500D01*
X158019306Y-76617789D01*
X158017717Y-76618115D01*
X157937333Y-76634104D01*
X157931508Y-76635871D01*
X157931378Y-76635443D01*
X157920726Y-76638743D01*
X157920202Y-76638854D01*
X157920198Y-76638855D01*
X157845976Y-76671900D01*
X157842998Y-76673179D01*
X157773456Y-76701985D01*
X157773447Y-76701990D01*
X157772340Y-76702730D01*
X157753916Y-76712889D01*
X157747276Y-76715846D01*
X157747273Y-76715847D01*
X157747270Y-76715849D01*
X157747269Y-76715850D01*
X157747264Y-76715853D01*
X157686983Y-76759648D01*
X157682991Y-76762430D01*
X157669526Y-76771427D01*
X157602848Y-76792305D01*
X157535468Y-76773820D01*
X157488778Y-76721841D01*
X157477602Y-76652871D01*
X157505488Y-76588808D01*
X157512938Y-76580661D01*
X162071524Y-72022074D01*
X162132845Y-71988591D01*
X162202537Y-71993575D01*
X162258470Y-72035447D01*
X162266207Y-72048341D01*
X162266724Y-72048043D01*
X162269432Y-72052734D01*
X162399954Y-72239141D01*
X162560858Y-72400045D01*
X162560861Y-72400047D01*
X162747266Y-72530568D01*
X162953504Y-72626739D01*
X163173308Y-72685635D01*
X163335230Y-72699801D01*
X163399998Y-72705468D01*
X163400000Y-72705468D01*
X163400002Y-72705468D01*
X163456673Y-72700509D01*
X163626692Y-72685635D01*
X163846496Y-72626739D01*
X164052734Y-72530568D01*
X164209423Y-72420853D01*
X164275629Y-72398527D01*
X164343397Y-72415537D01*
X164391209Y-72466486D01*
X164403887Y-72535195D01*
X164403485Y-72538613D01*
X164399501Y-72568877D01*
X164399501Y-72568880D01*
X164399501Y-72831120D01*
X164433729Y-73091116D01*
X164475459Y-73246853D01*
X164501602Y-73344419D01*
X164601954Y-73586690D01*
X164601958Y-73586700D01*
X164733075Y-73813801D01*
X164892715Y-74021849D01*
X164892721Y-74021856D01*
X165078143Y-74207278D01*
X165078150Y-74207284D01*
X165286198Y-74366924D01*
X165513299Y-74498041D01*
X165513300Y-74498041D01*
X165513303Y-74498043D01*
X165755581Y-74598398D01*
X166008884Y-74666271D01*
X166203881Y-74691942D01*
X166268879Y-74700499D01*
X166268880Y-74700499D01*
X166531121Y-74700499D01*
X166588136Y-74692993D01*
X166791116Y-74666271D01*
X167044419Y-74598398D01*
X167286697Y-74498043D01*
X167513802Y-74366924D01*
X167721851Y-74207283D01*
X168682283Y-73246851D01*
X168772611Y-73129131D01*
X168841924Y-73038803D01*
X168973043Y-72811697D01*
X169073398Y-72569419D01*
X169118781Y-72400047D01*
X169141271Y-72316115D01*
X169160799Y-72167784D01*
X169175500Y-72056120D01*
X169175500Y-70145618D01*
X169195185Y-70078579D01*
X169247989Y-70032824D01*
X169317147Y-70022880D01*
X169361501Y-70038232D01*
X169404780Y-70063220D01*
X169404784Y-70063221D01*
X169404788Y-70063224D01*
X169600269Y-70144195D01*
X169628011Y-70155686D01*
X169628900Y-70156054D01*
X169863211Y-70218838D01*
X170043586Y-70242584D01*
X170103711Y-70250500D01*
X170103712Y-70250500D01*
X171346289Y-70250500D01*
X171394388Y-70244167D01*
X171586789Y-70218838D01*
X171821100Y-70156054D01*
X172045212Y-70063224D01*
X172255289Y-69941936D01*
X172447738Y-69794265D01*
X172619265Y-69622738D01*
X172766936Y-69430289D01*
X172888224Y-69220212D01*
X172981054Y-68996100D01*
X173043838Y-68761789D01*
X173075500Y-68521288D01*
X173874500Y-68521288D01*
X173906161Y-68761785D01*
X173968947Y-68996104D01*
X174061585Y-69219752D01*
X174061776Y-69220212D01*
X174183064Y-69430289D01*
X174183066Y-69430292D01*
X174183067Y-69430293D01*
X174330733Y-69622736D01*
X174330739Y-69622743D01*
X174502256Y-69794260D01*
X174502262Y-69794265D01*
X174694711Y-69941936D01*
X174904788Y-70063224D01*
X175100269Y-70144195D01*
X175128011Y-70155686D01*
X175128900Y-70156054D01*
X175363211Y-70218838D01*
X175543586Y-70242584D01*
X175603711Y-70250500D01*
X175603712Y-70250500D01*
X176846289Y-70250500D01*
X176894388Y-70244167D01*
X177086789Y-70218838D01*
X177321100Y-70156054D01*
X177545212Y-70063224D01*
X177755289Y-69941936D01*
X177947738Y-69794265D01*
X178119265Y-69622738D01*
X178266936Y-69430289D01*
X178388224Y-69220212D01*
X178481054Y-68996100D01*
X178543838Y-68761789D01*
X178575500Y-68521288D01*
X178575500Y-68278712D01*
X178543838Y-68038211D01*
X178481054Y-67803900D01*
X178388224Y-67579788D01*
X178266936Y-67369711D01*
X178119265Y-67177262D01*
X178119260Y-67177256D01*
X177947743Y-67005739D01*
X177947736Y-67005733D01*
X177755293Y-66858067D01*
X177755292Y-66858066D01*
X177755289Y-66858064D01*
X177545212Y-66736776D01*
X177545205Y-66736773D01*
X177321104Y-66643947D01*
X177086785Y-66581161D01*
X176846289Y-66549500D01*
X176846288Y-66549500D01*
X175603712Y-66549500D01*
X175603711Y-66549500D01*
X175363214Y-66581161D01*
X175128895Y-66643947D01*
X174904794Y-66736773D01*
X174904785Y-66736777D01*
X174694706Y-66858067D01*
X174502263Y-67005733D01*
X174502256Y-67005739D01*
X174330739Y-67177256D01*
X174330733Y-67177263D01*
X174183067Y-67369706D01*
X174061777Y-67579785D01*
X174061773Y-67579794D01*
X173968947Y-67803895D01*
X173906161Y-68038214D01*
X173874500Y-68278711D01*
X173874500Y-68521288D01*
X173075500Y-68521288D01*
X173075500Y-68278712D01*
X173043838Y-68038211D01*
X172981054Y-67803900D01*
X172888224Y-67579788D01*
X172766936Y-67369711D01*
X172619265Y-67177262D01*
X172619260Y-67177256D01*
X172447743Y-67005739D01*
X172447736Y-67005733D01*
X172255293Y-66858067D01*
X172255292Y-66858066D01*
X172255289Y-66858064D01*
X172045212Y-66736776D01*
X172045205Y-66736773D01*
X171821104Y-66643947D01*
X171586785Y-66581161D01*
X171346289Y-66549500D01*
X171346288Y-66549500D01*
X170678996Y-66549500D01*
X170611957Y-66529815D01*
X170566202Y-66477011D01*
X170556258Y-66407853D01*
X170585283Y-66344297D01*
X170591315Y-66337819D01*
X170692315Y-66236819D01*
X170753638Y-66203334D01*
X170779996Y-66200500D01*
X176356113Y-66200500D01*
X176356120Y-66200500D01*
X176616116Y-66166270D01*
X176869419Y-66098398D01*
X177034629Y-66029964D01*
X177065892Y-66021588D01*
X177086789Y-66018838D01*
X177321100Y-65956054D01*
X177545212Y-65863224D01*
X177755289Y-65741936D01*
X177947738Y-65594265D01*
X178119265Y-65422738D01*
X178266936Y-65230289D01*
X178388224Y-65020212D01*
X178481054Y-64796100D01*
X178543838Y-64561789D01*
X178575500Y-64321288D01*
X178575500Y-64078712D01*
X178543838Y-63838211D01*
X178481054Y-63603900D01*
X178388224Y-63379788D01*
X178266936Y-63169711D01*
X178119265Y-62977262D01*
X178119260Y-62977256D01*
X177947743Y-62805739D01*
X177947736Y-62805733D01*
X177755293Y-62658067D01*
X177755292Y-62658066D01*
X177755289Y-62658064D01*
X177545212Y-62536776D01*
X177545205Y-62536773D01*
X177321104Y-62443947D01*
X177086785Y-62381161D01*
X177070111Y-62378966D01*
X177065892Y-62378410D01*
X177034626Y-62370033D01*
X176869428Y-62301605D01*
X176869421Y-62301603D01*
X176869419Y-62301602D01*
X176616116Y-62233730D01*
X176558339Y-62226123D01*
X176356127Y-62199500D01*
X176356120Y-62199500D01*
X170856120Y-62199500D01*
X169768880Y-62199500D01*
X169768879Y-62199500D01*
X169630853Y-62217670D01*
X169630853Y-62217671D01*
X169609056Y-62220540D01*
X169508887Y-62233728D01*
X169255580Y-62301602D01*
X169013309Y-62401954D01*
X169013299Y-62401958D01*
X168786201Y-62533072D01*
X168736689Y-62571064D01*
X168695868Y-62602388D01*
X168578150Y-62692715D01*
X168578143Y-62692721D01*
X167602286Y-63668579D01*
X167540963Y-63702064D01*
X167471271Y-63697080D01*
X167415338Y-63655208D01*
X167390921Y-63589744D01*
X167390605Y-63580898D01*
X167390605Y-60121288D01*
X168374500Y-60121288D01*
X168406161Y-60361785D01*
X168468947Y-60596104D01*
X168561773Y-60820205D01*
X168561776Y-60820212D01*
X168683064Y-61030289D01*
X168683066Y-61030292D01*
X168683067Y-61030293D01*
X168830733Y-61222736D01*
X168830739Y-61222743D01*
X169002256Y-61394260D01*
X169002263Y-61394266D01*
X169115321Y-61481018D01*
X169194711Y-61541936D01*
X169404788Y-61663224D01*
X169628900Y-61756054D01*
X169863211Y-61818838D01*
X170043586Y-61842584D01*
X170103711Y-61850500D01*
X170103712Y-61850500D01*
X171346289Y-61850500D01*
X171394388Y-61844167D01*
X171586789Y-61818838D01*
X171821100Y-61756054D01*
X172045212Y-61663224D01*
X172255289Y-61541936D01*
X172447738Y-61394265D01*
X172619265Y-61222738D01*
X172766936Y-61030289D01*
X172888224Y-60820212D01*
X172981054Y-60596100D01*
X173043838Y-60361789D01*
X173075500Y-60121288D01*
X173874500Y-60121288D01*
X173906161Y-60361785D01*
X173968947Y-60596104D01*
X174061773Y-60820205D01*
X174061776Y-60820212D01*
X174183064Y-61030289D01*
X174183066Y-61030292D01*
X174183067Y-61030293D01*
X174330733Y-61222736D01*
X174330739Y-61222743D01*
X174502256Y-61394260D01*
X174502263Y-61394266D01*
X174615321Y-61481018D01*
X174694711Y-61541936D01*
X174904788Y-61663224D01*
X175128900Y-61756054D01*
X175363211Y-61818838D01*
X175543586Y-61842584D01*
X175603711Y-61850500D01*
X175603712Y-61850500D01*
X176846289Y-61850500D01*
X176894388Y-61844167D01*
X177086789Y-61818838D01*
X177321100Y-61756054D01*
X177545212Y-61663224D01*
X177755289Y-61541936D01*
X177947738Y-61394265D01*
X178119265Y-61222738D01*
X178266936Y-61030289D01*
X178388224Y-60820212D01*
X178481054Y-60596100D01*
X178543838Y-60361789D01*
X178575500Y-60121288D01*
X178575500Y-59878712D01*
X178543838Y-59638211D01*
X178481054Y-59403900D01*
X178388224Y-59179788D01*
X178266936Y-58969711D01*
X178134781Y-58797483D01*
X178119266Y-58777263D01*
X178119260Y-58777256D01*
X177947743Y-58605739D01*
X177947736Y-58605733D01*
X177755293Y-58458067D01*
X177755292Y-58458066D01*
X177755289Y-58458064D01*
X177545212Y-58336776D01*
X177520515Y-58326546D01*
X177321104Y-58243947D01*
X177164497Y-58201984D01*
X177086789Y-58181162D01*
X177086788Y-58181161D01*
X177086785Y-58181161D01*
X176846289Y-58149500D01*
X176846288Y-58149500D01*
X175603712Y-58149500D01*
X175603711Y-58149500D01*
X175363214Y-58181161D01*
X175128895Y-58243947D01*
X174904794Y-58336773D01*
X174904785Y-58336777D01*
X174694706Y-58458067D01*
X174502263Y-58605733D01*
X174502256Y-58605739D01*
X174330739Y-58777256D01*
X174330733Y-58777263D01*
X174183067Y-58969706D01*
X174061777Y-59179785D01*
X174061773Y-59179794D01*
X173968947Y-59403895D01*
X173906161Y-59638214D01*
X173874500Y-59878711D01*
X173874500Y-60121288D01*
X173075500Y-60121288D01*
X173075500Y-59878712D01*
X173043838Y-59638211D01*
X172981054Y-59403900D01*
X172888224Y-59179788D01*
X172766936Y-58969711D01*
X172634781Y-58797483D01*
X172619266Y-58777263D01*
X172619260Y-58777256D01*
X172447743Y-58605739D01*
X172447736Y-58605733D01*
X172255293Y-58458067D01*
X172255292Y-58458066D01*
X172255289Y-58458064D01*
X172045212Y-58336776D01*
X172020515Y-58326546D01*
X171821104Y-58243947D01*
X171664497Y-58201984D01*
X171586789Y-58181162D01*
X171586788Y-58181161D01*
X171586785Y-58181161D01*
X171346289Y-58149500D01*
X171346288Y-58149500D01*
X170103712Y-58149500D01*
X170103711Y-58149500D01*
X169863214Y-58181161D01*
X169628895Y-58243947D01*
X169404794Y-58336773D01*
X169404785Y-58336777D01*
X169194706Y-58458067D01*
X169002263Y-58605733D01*
X169002256Y-58605739D01*
X168830739Y-58777256D01*
X168830733Y-58777263D01*
X168683067Y-58969706D01*
X168561777Y-59179785D01*
X168561773Y-59179794D01*
X168468947Y-59403895D01*
X168406161Y-59638214D01*
X168374500Y-59878711D01*
X168374500Y-60121288D01*
X167390605Y-60121288D01*
X167390605Y-58567451D01*
X167394829Y-58535361D01*
X167425740Y-58420001D01*
X167445573Y-58193309D01*
X167425740Y-57966617D01*
X167366844Y-57746813D01*
X167270673Y-57540575D01*
X167140152Y-57354170D01*
X167140150Y-57354167D01*
X166979246Y-57193263D01*
X166792839Y-57062741D01*
X166792837Y-57062740D01*
X166586602Y-56966570D01*
X166586593Y-56966567D01*
X166503395Y-56944275D01*
X166443734Y-56907910D01*
X166413205Y-56845063D01*
X166421500Y-56775688D01*
X166465985Y-56721810D01*
X166532537Y-56700535D01*
X166535488Y-56700500D01*
X168536539Y-56700500D01*
X168603578Y-56720185D01*
X168643925Y-56762499D01*
X168683064Y-56830289D01*
X168683067Y-56830293D01*
X168683070Y-56830297D01*
X168830733Y-57022736D01*
X168830739Y-57022743D01*
X169002256Y-57194260D01*
X169002263Y-57194266D01*
X169035717Y-57219936D01*
X169194711Y-57341936D01*
X169404788Y-57463224D01*
X169628900Y-57556054D01*
X169863211Y-57618838D01*
X170043586Y-57642584D01*
X170103711Y-57650500D01*
X170103712Y-57650500D01*
X171346289Y-57650500D01*
X171394388Y-57644167D01*
X171586789Y-57618838D01*
X171821100Y-57556054D01*
X172045212Y-57463224D01*
X172255289Y-57341936D01*
X172275896Y-57326124D01*
X172341065Y-57300930D01*
X172351382Y-57300500D01*
X174598618Y-57300500D01*
X174665657Y-57320185D01*
X174674104Y-57326124D01*
X174694711Y-57341936D01*
X174904784Y-57463222D01*
X174904785Y-57463222D01*
X174904788Y-57463224D01*
X175128900Y-57556054D01*
X175363211Y-57618838D01*
X175543586Y-57642584D01*
X175603711Y-57650500D01*
X175603712Y-57650500D01*
X176846289Y-57650500D01*
X176894388Y-57644167D01*
X177086789Y-57618838D01*
X177321100Y-57556054D01*
X177545212Y-57463224D01*
X177755289Y-57341936D01*
X177947738Y-57194265D01*
X178119265Y-57022738D01*
X178266936Y-56830289D01*
X178388224Y-56620212D01*
X178481054Y-56396100D01*
X178543838Y-56161789D01*
X178575500Y-55921288D01*
X178575500Y-55678712D01*
X178543838Y-55438211D01*
X178481054Y-55203900D01*
X178388224Y-54979788D01*
X178266936Y-54769711D01*
X178206018Y-54690321D01*
X178119266Y-54577263D01*
X178119260Y-54577256D01*
X177947743Y-54405739D01*
X177947736Y-54405733D01*
X177755293Y-54258067D01*
X177755292Y-54258066D01*
X177755289Y-54258064D01*
X177545212Y-54136776D01*
X177495216Y-54116067D01*
X177321104Y-54043947D01*
X177086785Y-53981161D01*
X176846289Y-53949500D01*
X176846288Y-53949500D01*
X175603712Y-53949500D01*
X175603711Y-53949500D01*
X175363214Y-53981161D01*
X175128895Y-54043947D01*
X174904794Y-54136773D01*
X174904784Y-54136777D01*
X174694711Y-54258063D01*
X174674104Y-54273876D01*
X174608935Y-54299070D01*
X174598618Y-54299500D01*
X172351382Y-54299500D01*
X172284343Y-54279815D01*
X172275896Y-54273876D01*
X172255288Y-54258063D01*
X172045215Y-54136777D01*
X172045205Y-54136773D01*
X171821104Y-54043947D01*
X171586785Y-53981161D01*
X171346289Y-53949500D01*
X171346288Y-53949500D01*
X170103712Y-53949500D01*
X170103711Y-53949500D01*
X169863214Y-53981161D01*
X169628895Y-54043947D01*
X169404794Y-54136773D01*
X169404785Y-54136777D01*
X169194706Y-54258067D01*
X169002263Y-54405733D01*
X169002256Y-54405739D01*
X168830739Y-54577256D01*
X168830733Y-54577263D01*
X168683070Y-54769702D01*
X168683060Y-54769717D01*
X168643926Y-54837500D01*
X168593359Y-54885716D01*
X168536539Y-54899500D01*
X165963517Y-54899500D01*
X165789555Y-54934103D01*
X165789547Y-54934105D01*
X165679261Y-54979788D01*
X165625669Y-55001986D01*
X165625665Y-55001988D01*
X165581175Y-55031716D01*
X165581174Y-55031717D01*
X165478175Y-55100537D01*
X165478174Y-55100538D01*
X164012181Y-56566532D01*
X163950858Y-56600017D01*
X163881166Y-56595033D01*
X163825233Y-56553161D01*
X163800816Y-56487697D01*
X163800500Y-56478851D01*
X163800500Y-50211306D01*
X163800499Y-50211304D01*
X163765896Y-50037341D01*
X163765893Y-50037332D01*
X163698016Y-49873459D01*
X163698009Y-49873446D01*
X163599464Y-49725965D01*
X163599461Y-49725961D01*
X163474038Y-49600538D01*
X163474034Y-49600535D01*
X163326553Y-49501990D01*
X163326540Y-49501983D01*
X163162667Y-49434106D01*
X163162658Y-49434103D01*
X162988694Y-49399500D01*
X162988691Y-49399500D01*
X158088692Y-49399500D01*
X157911309Y-49399500D01*
X157911304Y-49399500D01*
X157737339Y-49434103D01*
X157737323Y-49434108D01*
X157621453Y-49482102D01*
X157621454Y-49482103D01*
X157573454Y-49501986D01*
X157557948Y-49512347D01*
X157526722Y-49533212D01*
X157425965Y-49600535D01*
X157425961Y-49600538D01*
X150212181Y-56814319D01*
X150150858Y-56847804D01*
X150081166Y-56842820D01*
X150025233Y-56800948D01*
X150000816Y-56735484D01*
X150000500Y-56726638D01*
X150000500Y-54124362D01*
X150020185Y-54057323D01*
X150036819Y-54036681D01*
X165199461Y-38874039D01*
X165199464Y-38874036D01*
X165298013Y-38726547D01*
X165365895Y-38562666D01*
X165400500Y-38388692D01*
X165400500Y-38211308D01*
X165400500Y-36250000D01*
X168391950Y-36250000D01*
X168406653Y-36361687D01*
X168469421Y-36595939D01*
X168562220Y-36819978D01*
X168562227Y-36819993D01*
X168683480Y-37030009D01*
X168831110Y-37222405D01*
X168831116Y-37222412D01*
X169002587Y-37393883D01*
X169002594Y-37393889D01*
X169194990Y-37541519D01*
X169405006Y-37662772D01*
X169405021Y-37662779D01*
X169629060Y-37755578D01*
X169863312Y-37818346D01*
X170103735Y-37849998D01*
X170103752Y-37850000D01*
X170475000Y-37850000D01*
X170475000Y-36867904D01*
X170636358Y-36900000D01*
X170813642Y-36900000D01*
X170975000Y-36867904D01*
X170975000Y-37850000D01*
X171346248Y-37850000D01*
X171346264Y-37849998D01*
X171586687Y-37818346D01*
X171820939Y-37755578D01*
X172044978Y-37662779D01*
X172044993Y-37662772D01*
X172255009Y-37541519D01*
X172447405Y-37393889D01*
X172447412Y-37393883D01*
X172618883Y-37222412D01*
X172618889Y-37222405D01*
X172674436Y-37150015D01*
X173874500Y-37150015D01*
X173885000Y-37252795D01*
X173885001Y-37252796D01*
X173940186Y-37419335D01*
X173940187Y-37419337D01*
X174032286Y-37568651D01*
X174032289Y-37568655D01*
X174156344Y-37692710D01*
X174156348Y-37692713D01*
X174305662Y-37784812D01*
X174305664Y-37784813D01*
X174305666Y-37784814D01*
X174472203Y-37839999D01*
X174574992Y-37850500D01*
X174574997Y-37850500D01*
X177875003Y-37850500D01*
X177875008Y-37850500D01*
X177977797Y-37839999D01*
X178144334Y-37784814D01*
X178293655Y-37692711D01*
X178417711Y-37568655D01*
X178509814Y-37419334D01*
X178564999Y-37252797D01*
X178575500Y-37150008D01*
X178575500Y-34849992D01*
X178564999Y-34747203D01*
X178509814Y-34580666D01*
X178485589Y-34541392D01*
X178417713Y-34431348D01*
X178417710Y-34431344D01*
X178293655Y-34307289D01*
X178293651Y-34307286D01*
X178144337Y-34215187D01*
X178144335Y-34215186D01*
X178043138Y-34181653D01*
X177977797Y-34160001D01*
X177977795Y-34160000D01*
X177875015Y-34149500D01*
X177875008Y-34149500D01*
X174574992Y-34149500D01*
X174574984Y-34149500D01*
X174472204Y-34160000D01*
X174472203Y-34160001D01*
X174305664Y-34215186D01*
X174305662Y-34215187D01*
X174156348Y-34307286D01*
X174156344Y-34307289D01*
X174032289Y-34431344D01*
X174032286Y-34431348D01*
X173940187Y-34580662D01*
X173940186Y-34580664D01*
X173885001Y-34747203D01*
X173885000Y-34747204D01*
X173874500Y-34849984D01*
X173874500Y-37150015D01*
X172674436Y-37150015D01*
X172766519Y-37030009D01*
X172887772Y-36819993D01*
X172887779Y-36819978D01*
X172980578Y-36595939D01*
X173043346Y-36361687D01*
X173058050Y-36250000D01*
X171592904Y-36250000D01*
X171625000Y-36088642D01*
X171625000Y-35911358D01*
X171592904Y-35750000D01*
X173058049Y-35750000D01*
X173043346Y-35638312D01*
X172980578Y-35404060D01*
X172887779Y-35180021D01*
X172887772Y-35180006D01*
X172766519Y-34969990D01*
X172618889Y-34777594D01*
X172618883Y-34777587D01*
X172447412Y-34606116D01*
X172447405Y-34606110D01*
X172255009Y-34458480D01*
X172044993Y-34337227D01*
X172044978Y-34337220D01*
X171820939Y-34244421D01*
X171586687Y-34181653D01*
X171346264Y-34150001D01*
X171346248Y-34150000D01*
X170975000Y-34150000D01*
X170975000Y-35132095D01*
X170813642Y-35100000D01*
X170636358Y-35100000D01*
X170475000Y-35132095D01*
X170475000Y-34150000D01*
X170103752Y-34150000D01*
X170103735Y-34150001D01*
X169863312Y-34181653D01*
X169629060Y-34244421D01*
X169405021Y-34337220D01*
X169405006Y-34337227D01*
X169194990Y-34458480D01*
X169002594Y-34606110D01*
X169002587Y-34606116D01*
X168831116Y-34777587D01*
X168831110Y-34777594D01*
X168683480Y-34969990D01*
X168562227Y-35180006D01*
X168562220Y-35180021D01*
X168469421Y-35404060D01*
X168406653Y-35638312D01*
X168391950Y-35750000D01*
X169857096Y-35750000D01*
X169825000Y-35911358D01*
X169825000Y-36088642D01*
X169857096Y-36250000D01*
X168391950Y-36250000D01*
X165400500Y-36250000D01*
X165400500Y-35951439D01*
X165420185Y-35884400D01*
X165472989Y-35838645D01*
X165481168Y-35835257D01*
X165592326Y-35793798D01*
X165592326Y-35793797D01*
X165592331Y-35793796D01*
X165707546Y-35707546D01*
X165793796Y-35592331D01*
X165844091Y-35457483D01*
X165850500Y-35397873D01*
X165850499Y-33602128D01*
X165844174Y-33543285D01*
X165844091Y-33542516D01*
X165793797Y-33407671D01*
X165793793Y-33407664D01*
X165707547Y-33292455D01*
X165707544Y-33292452D01*
X165592335Y-33206206D01*
X165592328Y-33206202D01*
X165457482Y-33155908D01*
X165457483Y-33155908D01*
X165397883Y-33149501D01*
X165397881Y-33149500D01*
X165397873Y-33149500D01*
X165397864Y-33149500D01*
X163602129Y-33149500D01*
X163602123Y-33149501D01*
X163542516Y-33155908D01*
X163407671Y-33206202D01*
X163407664Y-33206206D01*
X163292455Y-33292452D01*
X163292452Y-33292455D01*
X163206206Y-33407664D01*
X163206202Y-33407671D01*
X163155908Y-33542517D01*
X163149501Y-33602116D01*
X163149501Y-33602123D01*
X163149500Y-33602135D01*
X163149500Y-35397870D01*
X163149501Y-35397876D01*
X163155908Y-35457483D01*
X163206202Y-35592328D01*
X163206206Y-35592335D01*
X163292452Y-35707544D01*
X163292455Y-35707547D01*
X163407664Y-35793793D01*
X163407673Y-35793798D01*
X163518832Y-35835257D01*
X163574766Y-35877127D01*
X163599184Y-35942592D01*
X163599500Y-35951439D01*
X163599500Y-37875637D01*
X163579815Y-37942676D01*
X163563181Y-37963318D01*
X148400540Y-53125958D01*
X148400537Y-53125961D01*
X148389864Y-53141936D01*
X148301990Y-53273447D01*
X148301985Y-53273456D01*
X148273496Y-53342237D01*
X148234105Y-53437333D01*
X148234103Y-53437341D01*
X148199500Y-53611303D01*
X148199500Y-56375637D01*
X148179815Y-56442676D01*
X148163181Y-56463318D01*
X147500540Y-57125958D01*
X147500534Y-57125965D01*
X147401988Y-57273451D01*
X147334105Y-57437333D01*
X147334103Y-57437341D01*
X147299500Y-57611303D01*
X147299500Y-57788696D01*
X147334103Y-57962658D01*
X147334105Y-57962666D01*
X147401988Y-58126548D01*
X147500534Y-58274034D01*
X147500540Y-58274041D01*
X147625958Y-58399459D01*
X147625965Y-58399465D01*
X147773451Y-58498011D01*
X147773452Y-58498011D01*
X147773453Y-58498012D01*
X147937334Y-58565895D01*
X148111303Y-58600499D01*
X148111307Y-58600500D01*
X148126638Y-58600500D01*
X148193677Y-58620185D01*
X148239432Y-58672989D01*
X148249376Y-58742147D01*
X148220351Y-58805703D01*
X148214319Y-58812181D01*
X132763319Y-74263181D01*
X132701996Y-74296666D01*
X132675638Y-74299500D01*
X124111303Y-74299500D01*
X123937341Y-74334103D01*
X123937333Y-74334105D01*
X123858103Y-74366924D01*
X123858102Y-74366924D01*
X123773457Y-74401984D01*
X123773455Y-74401985D01*
X123713667Y-74441935D01*
X123625961Y-74500537D01*
X123625958Y-74500540D01*
X121363319Y-76763181D01*
X121301996Y-76796666D01*
X121275638Y-76799500D01*
X116211303Y-76799500D01*
X116037341Y-76834103D01*
X116037329Y-76834106D01*
X115955392Y-76868045D01*
X115955393Y-76868046D01*
X115873456Y-76901985D01*
X115873447Y-76901990D01*
X115785342Y-76960861D01*
X115770596Y-76970713D01*
X115725961Y-77000537D01*
X110800537Y-81925961D01*
X110780543Y-81955886D01*
X110701988Y-82073449D01*
X110675527Y-82137334D01*
X110634105Y-82237333D01*
X110634103Y-82237341D01*
X110599500Y-82411303D01*
X110599500Y-86588689D01*
X110608026Y-86631554D01*
X110601798Y-86701146D01*
X110558934Y-86756323D01*
X110493044Y-86779567D01*
X110445454Y-86772787D01*
X110279257Y-86714632D01*
X110279249Y-86714630D01*
X110100004Y-86694435D01*
X110099996Y-86694435D01*
X109920750Y-86714630D01*
X109920745Y-86714631D01*
X109750476Y-86774211D01*
X109597737Y-86870184D01*
X109470186Y-86997735D01*
X109470184Y-86997737D01*
X109470184Y-86997738D01*
X109467513Y-87001989D01*
X109445028Y-87037772D01*
X109440939Y-87043870D01*
X109135569Y-87471388D01*
X109122347Y-87486995D01*
X107455888Y-89153453D01*
X107455887Y-89153454D01*
X107379222Y-89268192D01*
X107326421Y-89395667D01*
X107326418Y-89395679D01*
X107303009Y-89513365D01*
X107303009Y-89513368D01*
X107299500Y-89531007D01*
X107299500Y-94931006D01*
X107299500Y-95068994D01*
X107299500Y-95068996D01*
X107299499Y-95068996D01*
X107326418Y-95204322D01*
X107326421Y-95204332D01*
X107379222Y-95331807D01*
X107455887Y-95446545D01*
X107455888Y-95446546D01*
X117808630Y-105799287D01*
X117837990Y-105846013D01*
X117868969Y-105934545D01*
X117872531Y-106004324D01*
X117837803Y-106064951D01*
X117775809Y-106097179D01*
X117751928Y-106099500D01*
X112463461Y-106099500D01*
X112396422Y-106079815D01*
X112356074Y-106037500D01*
X112320562Y-105975992D01*
X112316936Y-105969711D01*
X112225037Y-105849945D01*
X112169266Y-105777263D01*
X112169260Y-105777256D01*
X111997743Y-105605739D01*
X111997736Y-105605733D01*
X111805293Y-105458067D01*
X111805292Y-105458066D01*
X111805289Y-105458064D01*
X111633661Y-105358974D01*
X111595214Y-105336777D01*
X111595205Y-105336773D01*
X111371104Y-105243947D01*
X111136785Y-105181161D01*
X110896289Y-105149500D01*
X110896288Y-105149500D01*
X109653712Y-105149500D01*
X109653711Y-105149500D01*
X109413214Y-105181161D01*
X109178895Y-105243947D01*
X108954794Y-105336773D01*
X108954785Y-105336777D01*
X108744706Y-105458067D01*
X108552263Y-105605733D01*
X108552256Y-105605739D01*
X108380739Y-105777256D01*
X108380733Y-105777263D01*
X108233067Y-105969706D01*
X108111777Y-106179785D01*
X108111773Y-106179794D01*
X108018945Y-106403900D01*
X107983266Y-106537053D01*
X107946901Y-106596713D01*
X107884054Y-106627241D01*
X107814678Y-106618946D01*
X107760801Y-106574460D01*
X107740272Y-106518840D01*
X107737767Y-106496606D01*
X107662776Y-106168046D01*
X107551469Y-105849949D01*
X107405246Y-105546314D01*
X107225946Y-105260961D01*
X107015825Y-104997477D01*
X106777523Y-104759175D01*
X106514039Y-104549054D01*
X106228686Y-104369754D01*
X106228683Y-104369752D01*
X105925054Y-104223532D01*
X105606965Y-104112227D01*
X105606953Y-104112223D01*
X105278397Y-104037233D01*
X105278381Y-104037231D01*
X105211275Y-104029670D01*
X105146861Y-104002603D01*
X105137478Y-103994131D01*
X103141218Y-101997870D01*
X104849500Y-101997870D01*
X104849501Y-101997876D01*
X104855908Y-102057483D01*
X104906202Y-102192328D01*
X104906206Y-102192335D01*
X104992452Y-102307544D01*
X104992455Y-102307547D01*
X105107664Y-102393793D01*
X105107671Y-102393797D01*
X105242517Y-102444091D01*
X105242516Y-102444091D01*
X105249444Y-102444835D01*
X105302127Y-102450500D01*
X107097872Y-102450499D01*
X107157483Y-102444091D01*
X107292331Y-102393796D01*
X107407546Y-102307546D01*
X107493796Y-102192331D01*
X107544091Y-102057483D01*
X107550500Y-101997873D01*
X107550499Y-100202128D01*
X107544091Y-100142517D01*
X107502559Y-100031165D01*
X107493797Y-100007671D01*
X107493793Y-100007664D01*
X107407547Y-99892455D01*
X107407544Y-99892452D01*
X107292335Y-99806206D01*
X107292328Y-99806202D01*
X107157482Y-99755908D01*
X107157483Y-99755908D01*
X107097883Y-99749501D01*
X107097881Y-99749500D01*
X107097873Y-99749500D01*
X107097864Y-99749500D01*
X105302129Y-99749500D01*
X105302123Y-99749501D01*
X105242516Y-99755908D01*
X105107671Y-99806202D01*
X105107664Y-99806206D01*
X104992455Y-99892452D01*
X104992452Y-99892455D01*
X104906206Y-100007664D01*
X104906202Y-100007671D01*
X104855908Y-100142517D01*
X104849501Y-100202116D01*
X104849501Y-100202123D01*
X104849500Y-100202135D01*
X104849500Y-101997870D01*
X103141218Y-101997870D01*
X101305528Y-100162180D01*
X101272043Y-100100857D01*
X101277027Y-100031165D01*
X101318899Y-99975232D01*
X101384363Y-99950815D01*
X101393182Y-99950499D01*
X103097872Y-99950499D01*
X103157483Y-99944091D01*
X103292331Y-99893796D01*
X103407546Y-99807546D01*
X103493796Y-99692331D01*
X103544091Y-99557483D01*
X103550500Y-99497873D01*
X103550499Y-97702128D01*
X103544091Y-97642517D01*
X103493796Y-97507669D01*
X103493795Y-97507668D01*
X103493793Y-97507664D01*
X103407547Y-97392455D01*
X103407544Y-97392452D01*
X103292335Y-97306206D01*
X103292328Y-97306202D01*
X103157482Y-97255908D01*
X103157483Y-97255908D01*
X103097883Y-97249501D01*
X103097881Y-97249500D01*
X103097873Y-97249500D01*
X103097864Y-97249500D01*
X101302129Y-97249500D01*
X101302123Y-97249501D01*
X101242516Y-97255908D01*
X101107671Y-97306202D01*
X101107664Y-97306206D01*
X100992455Y-97392452D01*
X100992452Y-97392455D01*
X100906206Y-97507664D01*
X100906202Y-97507671D01*
X100855908Y-97642517D01*
X100849501Y-97702116D01*
X100849501Y-97702123D01*
X100849500Y-97702135D01*
X100849500Y-99406791D01*
X100829815Y-99473830D01*
X100777011Y-99519585D01*
X100707853Y-99529529D01*
X100644297Y-99500504D01*
X100637830Y-99494482D01*
X99436819Y-98293471D01*
X99403334Y-98232148D01*
X99400500Y-98205790D01*
X99400500Y-95790102D01*
X99420185Y-95723063D01*
X99472989Y-95677308D01*
X99542147Y-95667364D01*
X99605703Y-95696389D01*
X99623762Y-95715786D01*
X99692454Y-95807546D01*
X99738643Y-95842123D01*
X99807664Y-95893793D01*
X99807671Y-95893797D01*
X99942517Y-95944091D01*
X99942516Y-95944091D01*
X99949444Y-95944835D01*
X100002127Y-95950500D01*
X101797872Y-95950499D01*
X101857483Y-95944091D01*
X101992331Y-95893796D01*
X102107546Y-95807546D01*
X102193796Y-95692331D01*
X102244091Y-95557483D01*
X102250500Y-95497873D01*
X102250499Y-93702128D01*
X102244091Y-93642517D01*
X102202521Y-93531063D01*
X102193797Y-93507671D01*
X102193793Y-93507664D01*
X102107547Y-93392455D01*
X102107544Y-93392452D01*
X101992335Y-93306206D01*
X101992328Y-93306202D01*
X101857482Y-93255908D01*
X101857483Y-93255908D01*
X101797883Y-93249501D01*
X101797881Y-93249500D01*
X101797873Y-93249500D01*
X101797864Y-93249500D01*
X100002129Y-93249500D01*
X100002123Y-93249501D01*
X99942516Y-93255908D01*
X99807671Y-93306202D01*
X99807664Y-93306206D01*
X99692455Y-93392452D01*
X99692452Y-93392455D01*
X99623766Y-93484208D01*
X99567832Y-93526079D01*
X99498141Y-93531063D01*
X99436818Y-93497577D01*
X99403334Y-93436254D01*
X99400500Y-93409897D01*
X99400500Y-91590102D01*
X99420185Y-91523063D01*
X99472989Y-91477308D01*
X99542147Y-91467364D01*
X99605703Y-91496389D01*
X99623762Y-91515786D01*
X99692454Y-91607546D01*
X99692652Y-91607694D01*
X99807664Y-91693793D01*
X99807671Y-91693797D01*
X99942517Y-91744091D01*
X99942516Y-91744091D01*
X99949444Y-91744835D01*
X100002127Y-91750500D01*
X101797872Y-91750499D01*
X101857483Y-91744091D01*
X101992331Y-91693796D01*
X102107546Y-91607546D01*
X102193796Y-91492331D01*
X102244091Y-91357483D01*
X102250500Y-91297873D01*
X102250499Y-89502128D01*
X102244091Y-89442517D01*
X102202521Y-89331063D01*
X102193797Y-89307671D01*
X102193793Y-89307664D01*
X102107547Y-89192455D01*
X102107544Y-89192452D01*
X101992335Y-89106206D01*
X101992328Y-89106202D01*
X101857482Y-89055908D01*
X101857483Y-89055908D01*
X101797883Y-89049501D01*
X101797881Y-89049500D01*
X101797873Y-89049500D01*
X101797864Y-89049500D01*
X100002129Y-89049500D01*
X100002123Y-89049501D01*
X99942516Y-89055908D01*
X99807671Y-89106202D01*
X99807664Y-89106206D01*
X99692455Y-89192452D01*
X99692452Y-89192455D01*
X99623766Y-89284208D01*
X99567832Y-89326079D01*
X99498141Y-89331063D01*
X99436818Y-89297577D01*
X99403334Y-89236254D01*
X99400500Y-89209897D01*
X99400500Y-85294210D01*
X99420185Y-85227171D01*
X99436819Y-85206529D01*
X100185284Y-84458064D01*
X100977444Y-83665903D01*
X101038765Y-83632420D01*
X101108457Y-83637404D01*
X101140608Y-83655209D01*
X101198328Y-83699499D01*
X101286198Y-83766924D01*
X101513299Y-83898041D01*
X101513300Y-83898041D01*
X101513303Y-83898043D01*
X101755581Y-83998398D01*
X102008884Y-84066271D01*
X102203881Y-84091942D01*
X102268879Y-84100499D01*
X102268880Y-84100499D01*
X102531120Y-84100499D01*
X102583118Y-84093653D01*
X102791116Y-84066271D01*
X103044419Y-83998398D01*
X103286697Y-83898043D01*
X103513802Y-83766924D01*
X103721851Y-83607283D01*
X103907283Y-83421851D01*
X104066924Y-83213802D01*
X104198043Y-82986697D01*
X104203290Y-82974031D01*
X104243988Y-82875775D01*
X104298398Y-82744419D01*
X104315066Y-82682210D01*
X104351429Y-82622552D01*
X104407247Y-82593414D01*
X104431954Y-82587776D01*
X104750051Y-82476469D01*
X105053686Y-82330246D01*
X105339039Y-82150946D01*
X105339629Y-82150476D01*
X105446223Y-82065470D01*
X105481504Y-82037334D01*
X105602523Y-81940825D01*
X105840825Y-81702523D01*
X108340824Y-79202524D01*
X108345544Y-79196606D01*
X108550946Y-78939039D01*
X108730246Y-78653686D01*
X108876469Y-78350051D01*
X108987776Y-78031954D01*
X109062767Y-77703394D01*
X109064473Y-77688251D01*
X109073093Y-77611746D01*
X109073093Y-77611744D01*
X109090273Y-77459266D01*
X109100500Y-77368505D01*
X109100500Y-77031495D01*
X109100500Y-76394210D01*
X109120185Y-76327171D01*
X109136819Y-76306529D01*
X110556529Y-74886819D01*
X110617852Y-74853334D01*
X110644210Y-74850500D01*
X113218508Y-74850500D01*
X113218508Y-74850499D01*
X113553394Y-74812767D01*
X113881954Y-74737776D01*
X114200051Y-74626469D01*
X114503686Y-74480246D01*
X114789039Y-74300946D01*
X114906489Y-74207283D01*
X115052523Y-74090825D01*
X115290825Y-73852523D01*
X119740824Y-69402524D01*
X119950946Y-69139040D01*
X120130246Y-68853686D01*
X120276469Y-68550051D01*
X120387776Y-68231954D01*
X120462767Y-67903395D01*
X120500500Y-67568505D01*
X120500500Y-67231495D01*
X120500500Y-62094210D01*
X120520185Y-62027171D01*
X120536819Y-62006529D01*
X122206529Y-60336819D01*
X122267852Y-60303334D01*
X122294210Y-60300500D01*
X127668507Y-60300500D01*
X127668507Y-60300499D01*
X128003394Y-60262767D01*
X128331954Y-60187776D01*
X128650051Y-60076469D01*
X128953686Y-59930246D01*
X129239039Y-59750946D01*
X129502523Y-59540825D01*
X129706529Y-59336819D01*
X129767852Y-59303334D01*
X129794210Y-59300500D01*
X137520004Y-59300500D01*
X137587043Y-59320185D01*
X137607685Y-59336819D01*
X139678143Y-61407278D01*
X139678150Y-61407284D01*
X139886188Y-61566916D01*
X139886192Y-61566918D01*
X139886198Y-61566923D01*
X140113303Y-61698043D01*
X140355581Y-61798398D01*
X140608884Y-61866271D01*
X140803881Y-61891942D01*
X140868879Y-61900499D01*
X140868880Y-61900499D01*
X141131120Y-61900499D01*
X141183118Y-61893653D01*
X141391115Y-61866271D01*
X141644419Y-61798398D01*
X141834871Y-61719509D01*
X141886688Y-61698047D01*
X141886689Y-61698045D01*
X141886697Y-61698043D01*
X142113802Y-61566923D01*
X142321851Y-61407283D01*
X142507283Y-61221851D01*
X142666923Y-61013802D01*
X142798043Y-60786697D01*
X142898398Y-60544419D01*
X142966271Y-60291115D01*
X143000499Y-60031119D01*
X143000499Y-59768880D01*
X142996557Y-59738940D01*
X142966271Y-59508887D01*
X142966271Y-59508884D01*
X142898398Y-59255581D01*
X142798043Y-59013303D01*
X142666923Y-58786198D01*
X142666918Y-58786192D01*
X142666916Y-58786188D01*
X142507284Y-58578150D01*
X142507278Y-58578143D01*
X139721856Y-55792721D01*
X139721849Y-55792715D01*
X139587698Y-55689778D01*
X139587696Y-55689776D01*
X139513802Y-55633075D01*
X139286700Y-55501958D01*
X139286690Y-55501953D01*
X139044428Y-55401605D01*
X139044417Y-55401601D01*
X139038436Y-55399999D01*
X139038435Y-55399998D01*
X138791112Y-55333728D01*
X138661118Y-55316615D01*
X138531127Y-55299500D01*
X138531120Y-55299500D01*
X129794210Y-55299500D01*
X129727171Y-55279815D01*
X129706529Y-55263181D01*
X129502522Y-55059174D01*
X129402971Y-54979785D01*
X129239039Y-54849054D01*
X128953686Y-54669754D01*
X128953683Y-54669752D01*
X128650054Y-54523532D01*
X128331965Y-54412227D01*
X128331953Y-54412223D01*
X128003397Y-54337233D01*
X128003381Y-54337231D01*
X127668508Y-54299500D01*
X127668504Y-54299500D01*
X122168504Y-54299500D01*
X121168505Y-54299500D01*
X120831495Y-54299500D01*
X120831489Y-54299500D01*
X120793762Y-54303750D01*
X120793762Y-54303751D01*
X120749742Y-54308710D01*
X120496618Y-54337231D01*
X120496602Y-54337233D01*
X120196477Y-54405735D01*
X120180279Y-54409432D01*
X120170563Y-54411649D01*
X120168041Y-54412225D01*
X120168035Y-54412227D01*
X119849944Y-54523532D01*
X119546316Y-54669752D01*
X119260961Y-54849053D01*
X118997476Y-55059175D01*
X115259168Y-58797483D01*
X115152090Y-58931757D01*
X115152090Y-58931758D01*
X115049053Y-59060962D01*
X114869752Y-59346316D01*
X114723532Y-59649945D01*
X114612227Y-59968034D01*
X114612223Y-59968046D01*
X114537231Y-60296612D01*
X114506104Y-60572886D01*
X114506104Y-60572888D01*
X114499500Y-60631493D01*
X114499500Y-66105790D01*
X114479815Y-66172829D01*
X114463181Y-66193471D01*
X113043125Y-67613526D01*
X112981802Y-67647011D01*
X112912110Y-67642027D01*
X112856177Y-67600155D01*
X112832505Y-67542031D01*
X112818838Y-67438211D01*
X112756054Y-67203900D01*
X112663224Y-66979788D01*
X112541936Y-66769711D01*
X112394265Y-66577262D01*
X112394260Y-66577256D01*
X112222743Y-66405739D01*
X112222736Y-66405733D01*
X112030293Y-66258067D01*
X112030292Y-66258066D01*
X112030289Y-66258064D01*
X111855504Y-66157152D01*
X111820214Y-66136777D01*
X111820205Y-66136773D01*
X111596104Y-66043947D01*
X111361785Y-65981161D01*
X111121289Y-65949500D01*
X111121288Y-65949500D01*
X109878712Y-65949500D01*
X109878711Y-65949500D01*
X109638214Y-65981161D01*
X109403895Y-66043947D01*
X109179794Y-66136773D01*
X109179785Y-66136777D01*
X108969706Y-66258067D01*
X108777263Y-66405733D01*
X108777256Y-66405739D01*
X108605739Y-66577256D01*
X108605733Y-66577263D01*
X108458067Y-66769706D01*
X108336777Y-66979785D01*
X108336773Y-66979794D01*
X108243947Y-67203895D01*
X108181161Y-67438214D01*
X108149500Y-67678711D01*
X108149500Y-67921288D01*
X108181161Y-68161785D01*
X108243947Y-68396104D01*
X108336773Y-68620205D01*
X108336777Y-68620214D01*
X108456684Y-68827899D01*
X108473157Y-68895799D01*
X108450304Y-68961826D01*
X108395383Y-69005017D01*
X108390252Y-69006940D01*
X108199945Y-69073532D01*
X107896316Y-69219752D01*
X107610962Y-69399053D01*
X107367068Y-69593552D01*
X107347469Y-69609181D01*
X104097477Y-72859175D01*
X103859174Y-73097477D01*
X103728141Y-73261789D01*
X103649053Y-73360962D01*
X103469752Y-73646316D01*
X103323532Y-73949945D01*
X103212227Y-74268034D01*
X103212223Y-74268046D01*
X103137231Y-74596612D01*
X103112878Y-74812766D01*
X103112878Y-74812768D01*
X103099500Y-74931492D01*
X103099500Y-75905790D01*
X103079815Y-75972829D01*
X103063181Y-75993471D01*
X102393471Y-76663181D01*
X102332148Y-76696666D01*
X102305790Y-76699500D01*
X100531490Y-76699500D01*
X100196618Y-76737231D01*
X100196602Y-76737233D01*
X99868046Y-76812223D01*
X99868034Y-76812227D01*
X99549945Y-76923532D01*
X99246316Y-77069752D01*
X98960961Y-77249053D01*
X98697476Y-77459175D01*
X94159174Y-81997477D01*
X94127390Y-82037334D01*
X93949053Y-82260962D01*
X93769752Y-82546316D01*
X93736220Y-82615947D01*
X93689397Y-82667806D01*
X93621970Y-82686119D01*
X93555346Y-82665071D01*
X93510678Y-82611345D01*
X93500500Y-82562145D01*
X93500500Y-75897844D01*
X94850000Y-75897844D01*
X94856401Y-75957372D01*
X94856403Y-75957379D01*
X94906645Y-76092086D01*
X94906649Y-76092093D01*
X94992809Y-76207187D01*
X94992812Y-76207190D01*
X95107906Y-76293350D01*
X95107913Y-76293354D01*
X95242620Y-76343596D01*
X95242627Y-76343598D01*
X95302155Y-76349999D01*
X95302172Y-76350000D01*
X95950000Y-76350000D01*
X95950000Y-75433012D01*
X96007007Y-75465925D01*
X96134174Y-75500000D01*
X96265826Y-75500000D01*
X96392993Y-75465925D01*
X96450000Y-75433012D01*
X96450000Y-76350000D01*
X97097828Y-76350000D01*
X97097844Y-76349999D01*
X97157372Y-76343598D01*
X97157379Y-76343596D01*
X97292086Y-76293354D01*
X97292093Y-76293350D01*
X97407187Y-76207190D01*
X97407190Y-76207187D01*
X97493350Y-76092093D01*
X97493354Y-76092086D01*
X97543596Y-75957379D01*
X97543598Y-75957372D01*
X97549999Y-75897844D01*
X99850000Y-75897844D01*
X99856401Y-75957372D01*
X99856403Y-75957379D01*
X99906645Y-76092086D01*
X99906649Y-76092093D01*
X99992809Y-76207187D01*
X99992812Y-76207190D01*
X100107906Y-76293350D01*
X100107913Y-76293354D01*
X100242620Y-76343596D01*
X100242627Y-76343598D01*
X100302155Y-76349999D01*
X100302172Y-76350000D01*
X100950000Y-76350000D01*
X100950000Y-75433012D01*
X101007007Y-75465925D01*
X101134174Y-75500000D01*
X101265826Y-75500000D01*
X101392993Y-75465925D01*
X101450000Y-75433012D01*
X101450000Y-76350000D01*
X102097828Y-76350000D01*
X102097844Y-76349999D01*
X102157372Y-76343598D01*
X102157379Y-76343596D01*
X102292086Y-76293354D01*
X102292093Y-76293350D01*
X102407187Y-76207190D01*
X102407190Y-76207187D01*
X102493350Y-76092093D01*
X102493354Y-76092086D01*
X102543596Y-75957379D01*
X102543598Y-75957372D01*
X102549999Y-75897844D01*
X102550000Y-75897827D01*
X102550000Y-75250000D01*
X101633012Y-75250000D01*
X101665925Y-75192993D01*
X101700000Y-75065826D01*
X101700000Y-74934174D01*
X101665925Y-74807007D01*
X101633012Y-74750000D01*
X102550000Y-74750000D01*
X102550000Y-74102172D01*
X102549999Y-74102155D01*
X102543598Y-74042627D01*
X102543596Y-74042620D01*
X102493354Y-73907913D01*
X102493350Y-73907906D01*
X102407190Y-73792812D01*
X102407187Y-73792809D01*
X102292093Y-73706649D01*
X102292086Y-73706645D01*
X102157379Y-73656403D01*
X102157372Y-73656401D01*
X102097844Y-73650000D01*
X101450000Y-73650000D01*
X101450000Y-74566988D01*
X101392993Y-74534075D01*
X101265826Y-74500000D01*
X101134174Y-74500000D01*
X101007007Y-74534075D01*
X100950000Y-74566988D01*
X100950000Y-73650000D01*
X100302155Y-73650000D01*
X100242627Y-73656401D01*
X100242620Y-73656403D01*
X100107913Y-73706645D01*
X100107906Y-73706649D01*
X99992812Y-73792809D01*
X99992809Y-73792812D01*
X99906649Y-73907906D01*
X99906645Y-73907913D01*
X99856403Y-74042620D01*
X99856401Y-74042627D01*
X99850000Y-74102155D01*
X99850000Y-74750000D01*
X100766988Y-74750000D01*
X100734075Y-74807007D01*
X100700000Y-74934174D01*
X100700000Y-75065826D01*
X100734075Y-75192993D01*
X100766988Y-75250000D01*
X99850000Y-75250000D01*
X99850000Y-75897844D01*
X97549999Y-75897844D01*
X97550000Y-75897827D01*
X97550000Y-75250000D01*
X96633012Y-75250000D01*
X96665925Y-75192993D01*
X96700000Y-75065826D01*
X96700000Y-74934174D01*
X96665925Y-74807007D01*
X96633012Y-74750000D01*
X97550000Y-74750000D01*
X97550000Y-74102172D01*
X97549999Y-74102155D01*
X97543598Y-74042627D01*
X97543596Y-74042620D01*
X97493354Y-73907913D01*
X97493350Y-73907906D01*
X97407190Y-73792812D01*
X97407187Y-73792809D01*
X97292093Y-73706649D01*
X97292086Y-73706645D01*
X97157379Y-73656403D01*
X97157372Y-73656401D01*
X97097844Y-73650000D01*
X96450000Y-73650000D01*
X96450000Y-74566988D01*
X96392993Y-74534075D01*
X96265826Y-74500000D01*
X96134174Y-74500000D01*
X96007007Y-74534075D01*
X95950000Y-74566988D01*
X95950000Y-73650000D01*
X95302155Y-73650000D01*
X95242627Y-73656401D01*
X95242620Y-73656403D01*
X95107913Y-73706645D01*
X95107906Y-73706649D01*
X94992812Y-73792809D01*
X94992809Y-73792812D01*
X94906649Y-73907906D01*
X94906645Y-73907913D01*
X94856403Y-74042620D01*
X94856401Y-74042627D01*
X94850000Y-74102155D01*
X94850000Y-74750000D01*
X95766988Y-74750000D01*
X95734075Y-74807007D01*
X95700000Y-74934174D01*
X95700000Y-75065826D01*
X95734075Y-75192993D01*
X95766988Y-75250000D01*
X94850000Y-75250000D01*
X94850000Y-75897844D01*
X93500500Y-75897844D01*
X93500500Y-67914741D01*
X95949500Y-67914741D01*
X95974446Y-68104215D01*
X95979452Y-68142238D01*
X96016020Y-68278712D01*
X96038842Y-68363887D01*
X96126650Y-68575876D01*
X96126657Y-68575890D01*
X96241392Y-68774617D01*
X96381081Y-68956661D01*
X96381089Y-68956670D01*
X96543330Y-69118911D01*
X96543338Y-69118918D01*
X96543339Y-69118919D01*
X96569561Y-69139040D01*
X96725382Y-69258607D01*
X96725385Y-69258608D01*
X96725388Y-69258611D01*
X96924112Y-69373344D01*
X96924117Y-69373346D01*
X96924123Y-69373349D01*
X97015480Y-69411190D01*
X97136113Y-69461158D01*
X97357762Y-69520548D01*
X97585266Y-69550500D01*
X97585273Y-69550500D01*
X97814727Y-69550500D01*
X97814734Y-69550500D01*
X98042238Y-69520548D01*
X98263887Y-69461158D01*
X98475888Y-69373344D01*
X98674612Y-69258611D01*
X98856661Y-69118919D01*
X98856665Y-69118914D01*
X98856670Y-69118911D01*
X99018911Y-68956670D01*
X99018914Y-68956665D01*
X99018919Y-68956661D01*
X99158611Y-68774612D01*
X99273344Y-68575888D01*
X99361158Y-68363887D01*
X99420548Y-68142238D01*
X99450500Y-67914734D01*
X99450500Y-67685266D01*
X99420548Y-67457762D01*
X99361158Y-67236113D01*
X99277484Y-67034106D01*
X99273349Y-67024123D01*
X99273346Y-67024117D01*
X99273344Y-67024112D01*
X99158611Y-66825388D01*
X99158608Y-66825385D01*
X99158607Y-66825382D01*
X99028046Y-66655234D01*
X99018919Y-66643339D01*
X99018918Y-66643338D01*
X99018911Y-66643330D01*
X98856670Y-66481089D01*
X98856661Y-66481081D01*
X98674617Y-66341392D01*
X98668428Y-66337819D01*
X98530294Y-66258067D01*
X98475890Y-66226657D01*
X98475876Y-66226650D01*
X98263887Y-66138842D01*
X98256165Y-66136773D01*
X98042238Y-66079452D01*
X98004215Y-66074446D01*
X97814741Y-66049500D01*
X97814734Y-66049500D01*
X97585266Y-66049500D01*
X97585258Y-66049500D01*
X97368715Y-66078009D01*
X97357762Y-66079452D01*
X97287054Y-66098398D01*
X97136112Y-66138842D01*
X96924123Y-66226650D01*
X96924109Y-66226657D01*
X96725382Y-66341392D01*
X96543338Y-66481081D01*
X96381081Y-66643338D01*
X96241392Y-66825382D01*
X96126657Y-67024109D01*
X96126650Y-67024123D01*
X96038842Y-67236112D01*
X95979453Y-67457759D01*
X95979451Y-67457770D01*
X95949500Y-67685258D01*
X95949500Y-67914741D01*
X93500500Y-67914741D01*
X93500500Y-53114741D01*
X95949500Y-53114741D01*
X95972932Y-53292713D01*
X95979452Y-53342238D01*
X96025542Y-53514250D01*
X96038842Y-53563887D01*
X96126650Y-53775876D01*
X96126657Y-53775890D01*
X96241392Y-53974617D01*
X96381081Y-54156661D01*
X96381089Y-54156670D01*
X96543330Y-54318911D01*
X96543338Y-54318918D01*
X96725382Y-54458607D01*
X96725385Y-54458608D01*
X96725388Y-54458611D01*
X96924112Y-54573344D01*
X96924117Y-54573346D01*
X96924123Y-54573349D01*
X97015480Y-54611190D01*
X97136113Y-54661158D01*
X97357762Y-54720548D01*
X97585266Y-54750500D01*
X97585273Y-54750500D01*
X97814727Y-54750500D01*
X97814734Y-54750500D01*
X98042238Y-54720548D01*
X98263887Y-54661158D01*
X98475888Y-54573344D01*
X98674612Y-54458611D01*
X98856661Y-54318919D01*
X98856665Y-54318914D01*
X98856670Y-54318911D01*
X99018911Y-54156670D01*
X99018914Y-54156665D01*
X99018919Y-54156661D01*
X99158611Y-53974612D01*
X99273344Y-53775888D01*
X99361158Y-53563887D01*
X99420548Y-53342238D01*
X99450500Y-53114734D01*
X99450500Y-52885266D01*
X99420548Y-52657762D01*
X99361158Y-52436113D01*
X99273344Y-52224112D01*
X99158611Y-52025388D01*
X99158608Y-52025385D01*
X99158607Y-52025382D01*
X99018918Y-51843338D01*
X99018911Y-51843330D01*
X98856670Y-51681089D01*
X98856661Y-51681081D01*
X98674617Y-51541392D01*
X98475890Y-51426657D01*
X98475876Y-51426650D01*
X98263887Y-51338842D01*
X98257860Y-51337227D01*
X98042238Y-51279452D01*
X97993148Y-51272989D01*
X97814741Y-51249500D01*
X97814734Y-51249500D01*
X97585266Y-51249500D01*
X97585258Y-51249500D01*
X97371852Y-51277597D01*
X97357762Y-51279452D01*
X97264076Y-51304554D01*
X97136112Y-51338842D01*
X96924123Y-51426650D01*
X96924109Y-51426657D01*
X96725382Y-51541392D01*
X96543338Y-51681081D01*
X96381081Y-51843338D01*
X96241392Y-52025382D01*
X96126657Y-52224109D01*
X96126650Y-52224123D01*
X96038842Y-52436112D01*
X95979453Y-52657759D01*
X95979451Y-52657770D01*
X95949500Y-52885258D01*
X95949500Y-53114741D01*
X93500500Y-53114741D01*
X93500500Y-48054067D01*
X93520185Y-47987028D01*
X93568204Y-47943583D01*
X93686434Y-47883343D01*
X93877510Y-47744517D01*
X94585208Y-47036819D01*
X94646531Y-47003334D01*
X94672889Y-47000500D01*
X99118097Y-47000500D01*
X99351368Y-46963553D01*
X99575992Y-46890568D01*
X99628107Y-46864014D01*
X99684401Y-46850499D01*
X99897871Y-46850499D01*
X99897872Y-46850499D01*
X99957483Y-46844091D01*
X100092331Y-46793796D01*
X100207546Y-46707546D01*
X100293796Y-46592331D01*
X100344091Y-46457483D01*
X100350500Y-46397873D01*
X100350499Y-46184399D01*
X100364014Y-46128105D01*
X100390568Y-46075992D01*
X100463553Y-45851368D01*
X100483088Y-45728031D01*
X100500500Y-45618097D01*
X100500500Y-45454067D01*
X100520185Y-45387028D01*
X100568204Y-45343583D01*
X100686434Y-45283343D01*
X100877510Y-45144517D01*
X101540367Y-44481659D01*
X101601687Y-44448176D01*
X101671378Y-44453160D01*
X101727312Y-44495031D01*
X101751729Y-44560496D01*
X101742606Y-44616794D01*
X101700152Y-44719289D01*
X101600308Y-45048427D01*
X101533210Y-45385750D01*
X101499500Y-45728034D01*
X101499500Y-51552895D01*
X101479815Y-51619934D01*
X101478602Y-51621785D01*
X101328456Y-51846496D01*
X101328455Y-51846498D01*
X101293910Y-51898195D01*
X101293897Y-51898217D01*
X101131772Y-52201530D01*
X101131770Y-52201535D01*
X101000150Y-52519293D01*
X100900308Y-52848427D01*
X100833210Y-53185750D01*
X100813605Y-53384813D01*
X100800858Y-53514250D01*
X100799500Y-53528034D01*
X100799500Y-67271965D01*
X100833210Y-67614249D01*
X100890725Y-67903392D01*
X100890725Y-67903394D01*
X100890726Y-67903394D01*
X100900308Y-67951572D01*
X100958143Y-68142229D01*
X101000150Y-68280705D01*
X101122419Y-68575890D01*
X101131770Y-68598464D01*
X101131772Y-68598469D01*
X101293897Y-68901782D01*
X101293908Y-68901800D01*
X101484974Y-69187751D01*
X101484984Y-69187765D01*
X101703176Y-69453632D01*
X102015858Y-69766314D01*
X102015863Y-69766318D01*
X102015864Y-69766319D01*
X102281731Y-69984511D01*
X102339155Y-70022880D01*
X102567690Y-70175582D01*
X102567696Y-70175585D01*
X102567704Y-70175591D01*
X102567708Y-70175593D01*
X102871021Y-70337718D01*
X102871023Y-70337718D01*
X102871029Y-70337722D01*
X103188786Y-70469341D01*
X103517913Y-70569180D01*
X103517919Y-70569181D01*
X103517922Y-70569182D01*
X103517933Y-70569185D01*
X103729449Y-70611257D01*
X103855241Y-70636279D01*
X104197522Y-70669991D01*
X104197525Y-70669991D01*
X104541457Y-70669991D01*
X104541460Y-70669991D01*
X104883741Y-70636279D01*
X105050710Y-70603066D01*
X105221048Y-70569185D01*
X105221059Y-70569182D01*
X105221059Y-70569181D01*
X105221069Y-70569180D01*
X105550196Y-70469341D01*
X105867953Y-70337722D01*
X106171278Y-70175591D01*
X106457251Y-69984511D01*
X106723118Y-69766319D01*
X106876551Y-69612884D01*
X106913755Y-69589939D01*
X106912789Y-69587866D01*
X106919330Y-69584815D01*
X106919334Y-69584814D01*
X107068655Y-69492711D01*
X107192711Y-69368655D01*
X107284814Y-69219334D01*
X107339999Y-69052797D01*
X107340272Y-69050115D01*
X107341015Y-69048052D01*
X107341416Y-69046180D01*
X107341669Y-69046234D01*
X107360529Y-68993818D01*
X107375591Y-68971278D01*
X107537722Y-68667953D01*
X107669341Y-68350196D01*
X107769180Y-68021069D01*
X107769182Y-68021059D01*
X107769185Y-68021048D01*
X107835974Y-67685272D01*
X107836279Y-67683741D01*
X107869991Y-67341460D01*
X107869991Y-66997522D01*
X107836279Y-66655241D01*
X107802883Y-66487348D01*
X107800500Y-66463157D01*
X107800500Y-55147105D01*
X107820185Y-55080066D01*
X107821398Y-55078214D01*
X107834119Y-55059176D01*
X108006100Y-54801788D01*
X108105486Y-54615849D01*
X108168231Y-54498462D01*
X108299850Y-54180705D01*
X108307478Y-54155557D01*
X108345772Y-54097121D01*
X108409583Y-54068663D01*
X108478651Y-54079221D01*
X108524514Y-54116067D01*
X108606110Y-54222405D01*
X108606116Y-54222412D01*
X108777587Y-54393883D01*
X108777594Y-54393889D01*
X108969990Y-54541519D01*
X109180006Y-54662772D01*
X109180021Y-54662779D01*
X109404060Y-54755578D01*
X109638312Y-54818346D01*
X109878735Y-54849998D01*
X109878752Y-54850000D01*
X110250000Y-54850000D01*
X110250000Y-53867904D01*
X110411358Y-53900000D01*
X110588642Y-53900000D01*
X110750000Y-53867904D01*
X110750000Y-54850000D01*
X111121248Y-54850000D01*
X111121264Y-54849998D01*
X111361687Y-54818346D01*
X111595939Y-54755578D01*
X111819978Y-54662779D01*
X111819993Y-54662772D01*
X112030009Y-54541519D01*
X112222405Y-54393889D01*
X112222412Y-54393883D01*
X112393883Y-54222412D01*
X112393889Y-54222405D01*
X112541519Y-54030009D01*
X112662772Y-53819993D01*
X112662779Y-53819978D01*
X112755578Y-53595939D01*
X112818346Y-53361687D01*
X112833050Y-53250000D01*
X111367904Y-53250000D01*
X111400000Y-53088642D01*
X111400000Y-52911358D01*
X111367904Y-52750000D01*
X112833049Y-52750000D01*
X112818346Y-52638312D01*
X112755578Y-52404060D01*
X112662779Y-52180021D01*
X112662772Y-52180006D01*
X112541519Y-51969990D01*
X112393889Y-51777594D01*
X112393883Y-51777587D01*
X112222412Y-51606116D01*
X112222405Y-51606110D01*
X112030009Y-51458480D01*
X111819993Y-51337227D01*
X111819978Y-51337220D01*
X111595939Y-51244421D01*
X111361687Y-51181653D01*
X111121264Y-51150001D01*
X111121248Y-51150000D01*
X110750000Y-51150000D01*
X110750000Y-52132095D01*
X110588642Y-52100000D01*
X110411358Y-52100000D01*
X110250000Y-52132095D01*
X110250000Y-51150000D01*
X109878752Y-51150000D01*
X109878735Y-51150001D01*
X109638312Y-51181653D01*
X109404060Y-51244421D01*
X109180021Y-51337220D01*
X109180006Y-51337227D01*
X108969990Y-51458480D01*
X108777594Y-51606110D01*
X108777587Y-51606116D01*
X108712181Y-51671523D01*
X108650858Y-51705008D01*
X108581166Y-51700024D01*
X108525233Y-51658152D01*
X108500816Y-51592688D01*
X108500500Y-51583842D01*
X108500500Y-50500007D01*
X119394500Y-50500007D01*
X119415132Y-50656714D01*
X119415132Y-50656715D01*
X119475620Y-50802747D01*
X119475621Y-50802749D01*
X119475622Y-50802750D01*
X119571847Y-50928153D01*
X119697250Y-51024378D01*
X119843285Y-51084868D01*
X120000000Y-51105500D01*
X120000007Y-51105500D01*
X132499993Y-51105500D01*
X132500000Y-51105500D01*
X132656715Y-51084868D01*
X132802750Y-51024378D01*
X132928153Y-50928153D01*
X133024378Y-50802750D01*
X133084868Y-50656715D01*
X133105500Y-50500000D01*
X133105500Y-41000000D01*
X133084868Y-40843285D01*
X133024378Y-40697250D01*
X132928153Y-40571847D01*
X132834520Y-40500000D01*
X148394785Y-40500000D01*
X148413602Y-40703082D01*
X148469417Y-40899247D01*
X148469422Y-40899260D01*
X148560327Y-41081821D01*
X148683237Y-41244581D01*
X148833958Y-41381980D01*
X148833960Y-41381982D01*
X148886075Y-41414250D01*
X149007363Y-41489348D01*
X149197544Y-41563024D01*
X149398024Y-41600500D01*
X149398026Y-41600500D01*
X149601974Y-41600500D01*
X149601976Y-41600500D01*
X149802456Y-41563024D01*
X149992637Y-41489348D01*
X150166041Y-41381981D01*
X150316764Y-41244579D01*
X150325946Y-41232417D01*
X150330219Y-41227074D01*
X151081019Y-40339768D01*
X151098824Y-40317268D01*
X151108359Y-40306559D01*
X156637778Y-34777141D01*
X156637782Y-34777139D01*
X156777139Y-34637782D01*
X156886632Y-34473914D01*
X156942580Y-34338842D01*
X156962051Y-34291836D01*
X156990076Y-34150946D01*
X157000500Y-34098541D01*
X157000500Y-29263362D01*
X157003651Y-29235586D01*
X157004648Y-29231251D01*
X157102699Y-28054629D01*
X157104000Y-28033849D01*
X157104040Y-28032896D01*
X157103806Y-28025551D01*
X157104273Y-28010162D01*
X157104384Y-28008961D01*
X157105215Y-28000000D01*
X157102181Y-27967267D01*
X157101716Y-27959762D01*
X157101676Y-27958484D01*
X157101674Y-27958477D01*
X157101188Y-27955025D01*
X157100502Y-27949149D01*
X157086397Y-27796917D01*
X157030582Y-27600750D01*
X156939673Y-27418179D01*
X156816764Y-27255421D01*
X156816762Y-27255418D01*
X156666041Y-27118019D01*
X156666039Y-27118017D01*
X156492642Y-27010655D01*
X156492635Y-27010651D01*
X156397546Y-26973814D01*
X156302456Y-26936976D01*
X156101976Y-26899500D01*
X155898024Y-26899500D01*
X155697544Y-26936976D01*
X155697541Y-26936976D01*
X155697541Y-26936977D01*
X155507364Y-27010651D01*
X155507357Y-27010655D01*
X155333960Y-27118017D01*
X155333958Y-27118019D01*
X155183237Y-27255418D01*
X155060327Y-27418178D01*
X154969422Y-27600739D01*
X154969417Y-27600752D01*
X154913602Y-27796917D01*
X154894785Y-27999999D01*
X154894785Y-28000004D01*
X154897426Y-28028513D01*
X154897735Y-28047330D01*
X154897300Y-28054623D01*
X154897300Y-28054630D01*
X154927742Y-28419930D01*
X154995353Y-29231268D01*
X154998667Y-29259715D01*
X154999500Y-29274062D01*
X154999500Y-33534217D01*
X154979815Y-33601256D01*
X154963181Y-33621898D01*
X149685876Y-38899202D01*
X149664015Y-38916610D01*
X149660237Y-38918976D01*
X149660231Y-38918980D01*
X148837823Y-39614863D01*
X148834538Y-39617490D01*
X148833868Y-39618101D01*
X148830460Y-39621094D01*
X148758881Y-39681661D01*
X148742816Y-39695850D01*
X148742134Y-39696478D01*
X148742122Y-39696490D01*
X148711653Y-39728998D01*
X148704728Y-39735827D01*
X148696165Y-39743633D01*
X148683234Y-39755422D01*
X148560327Y-39918178D01*
X148469422Y-40100739D01*
X148469417Y-40100752D01*
X148413602Y-40296917D01*
X148394785Y-40499999D01*
X148394785Y-40500000D01*
X132834520Y-40500000D01*
X132802750Y-40475622D01*
X132802749Y-40475621D01*
X132802747Y-40475620D01*
X132708344Y-40436517D01*
X132656715Y-40415132D01*
X132637125Y-40412553D01*
X132500007Y-40394500D01*
X132500000Y-40394500D01*
X129099821Y-40394500D01*
X129032782Y-40374815D01*
X128987027Y-40322011D01*
X128977083Y-40252853D01*
X128982780Y-40229545D01*
X129035366Y-40079262D01*
X129035369Y-40079249D01*
X129055565Y-39900003D01*
X129055565Y-39899996D01*
X129035369Y-39720750D01*
X129035368Y-39720745D01*
X129002592Y-39627076D01*
X128975789Y-39550478D01*
X128879816Y-39397738D01*
X128752262Y-39270184D01*
X128599523Y-39174211D01*
X128429254Y-39114631D01*
X128429249Y-39114630D01*
X128250004Y-39094435D01*
X128249996Y-39094435D01*
X128070750Y-39114630D01*
X128070745Y-39114631D01*
X127900476Y-39174211D01*
X127747737Y-39270184D01*
X127620184Y-39397737D01*
X127525539Y-39548364D01*
X127473204Y-39594655D01*
X127420545Y-39606392D01*
X126248176Y-39606392D01*
X126182204Y-39587386D01*
X126092630Y-39531102D01*
X126092626Y-39531101D01*
X125922370Y-39471525D01*
X125922357Y-39471522D01*
X125743112Y-39451327D01*
X125743104Y-39451327D01*
X125563858Y-39471522D01*
X125563853Y-39471523D01*
X125393584Y-39531103D01*
X125240845Y-39627076D01*
X125113292Y-39754629D01*
X125017319Y-39907368D01*
X124957739Y-40077637D01*
X124957738Y-40077642D01*
X124937543Y-40256888D01*
X124937543Y-40263856D01*
X124936242Y-40263856D01*
X124925461Y-40325432D01*
X124878115Y-40376814D01*
X124814292Y-40394500D01*
X123999992Y-40394500D01*
X123843285Y-40415132D01*
X123843284Y-40415132D01*
X123697252Y-40475620D01*
X123697249Y-40475622D01*
X123571848Y-40571845D01*
X123571841Y-40571851D01*
X119571851Y-44571841D01*
X119571845Y-44571848D01*
X119475622Y-44697249D01*
X119475620Y-44697252D01*
X119415132Y-44843284D01*
X119415132Y-44843285D01*
X119394500Y-44999992D01*
X119394500Y-50500007D01*
X108500500Y-50500007D01*
X108500500Y-47401317D01*
X108520185Y-47334278D01*
X108536819Y-47313636D01*
X112596823Y-43253632D01*
X112596828Y-43253627D01*
X112815020Y-42987760D01*
X113006101Y-42701787D01*
X113168231Y-42398462D01*
X113255939Y-42186714D01*
X113299780Y-42132312D01*
X113366074Y-42110247D01*
X113433773Y-42127526D01*
X113481384Y-42178663D01*
X113494500Y-42234168D01*
X113494500Y-43000007D01*
X113515132Y-43156714D01*
X113515132Y-43156715D01*
X113575620Y-43302747D01*
X113575621Y-43302749D01*
X113575622Y-43302750D01*
X113671847Y-43428153D01*
X113797250Y-43524378D01*
X113943285Y-43584868D01*
X114100000Y-43605500D01*
X114100007Y-43605500D01*
X118400001Y-43605500D01*
X118400001Y-43605499D01*
X118513616Y-43594745D01*
X118663676Y-43545074D01*
X118795767Y-43458256D01*
X120992159Y-41561370D01*
X120993314Y-41560386D01*
X125389700Y-37863427D01*
X125405722Y-37848729D01*
X125428146Y-37828160D01*
X125428147Y-37828158D01*
X125428153Y-37828153D01*
X125524378Y-37702750D01*
X125584868Y-37556715D01*
X125605500Y-37400000D01*
X125605500Y-33700000D01*
X125584868Y-33543285D01*
X125524378Y-33397250D01*
X125428153Y-33271847D01*
X125302750Y-33175622D01*
X125302749Y-33175621D01*
X125302747Y-33175620D01*
X125208344Y-33136517D01*
X125156715Y-33115132D01*
X125137125Y-33112553D01*
X125000007Y-33094500D01*
X125000000Y-33094500D01*
X114255317Y-33094500D01*
X114188278Y-33074815D01*
X114142523Y-33022011D01*
X114132579Y-32952853D01*
X114161604Y-32889297D01*
X114167636Y-32882819D01*
X114313636Y-32736819D01*
X114374959Y-32703334D01*
X114401317Y-32700500D01*
X123971966Y-32700500D01*
X123971969Y-32700500D01*
X124314250Y-32666789D01*
X124651578Y-32599690D01*
X124980705Y-32499850D01*
X125298462Y-32368231D01*
X125601787Y-32206100D01*
X125620201Y-32193796D01*
X125887760Y-32015020D01*
X126153627Y-31796828D01*
X126863636Y-31086819D01*
X126924959Y-31053334D01*
X126951317Y-31050500D01*
X138721966Y-31050500D01*
X138721969Y-31050500D01*
X139064250Y-31016789D01*
X139401578Y-30949690D01*
X139730705Y-30849850D01*
X140048462Y-30718231D01*
X140351787Y-30556100D01*
X140637760Y-30365019D01*
X140903627Y-30146828D01*
X141146828Y-29903627D01*
X141365019Y-29637760D01*
X141556100Y-29351787D01*
X141718231Y-29048462D01*
X141849850Y-28730705D01*
X141944123Y-28419926D01*
X141975100Y-28368246D01*
X148806528Y-21536819D01*
X148867851Y-21503334D01*
X148894209Y-21500500D01*
X172805790Y-21500500D01*
X172872829Y-21520185D01*
G37*
%TD.AperFunction*%
%TA.AperFunction,Conductor*%
G36*
X93705703Y-100844141D02*
G01*
X93736220Y-100884053D01*
X93769750Y-100953680D01*
X93769754Y-100953686D01*
X93949054Y-101239039D01*
X94056709Y-101374035D01*
X94070904Y-101391835D01*
X94159175Y-101502523D01*
X97695824Y-105039172D01*
X97729309Y-105100495D01*
X97724325Y-105170187D01*
X97682453Y-105226120D01*
X97616989Y-105250537D01*
X97591969Y-105249794D01*
X97589741Y-105249500D01*
X97589734Y-105249500D01*
X97360266Y-105249500D01*
X97360258Y-105249500D01*
X97143715Y-105278009D01*
X97132762Y-105279452D01*
X97039076Y-105304554D01*
X96911112Y-105338842D01*
X96699123Y-105426650D01*
X96699109Y-105426657D01*
X96500382Y-105541392D01*
X96318338Y-105681081D01*
X96156081Y-105843338D01*
X96016392Y-106025382D01*
X95901657Y-106224109D01*
X95901650Y-106224123D01*
X95813842Y-106436112D01*
X95754453Y-106657759D01*
X95754451Y-106657770D01*
X95724500Y-106885258D01*
X95724500Y-107114741D01*
X95741973Y-107247456D01*
X95754452Y-107342238D01*
X95780843Y-107440731D01*
X95813842Y-107563887D01*
X95901650Y-107775876D01*
X95901657Y-107775890D01*
X95930904Y-107826547D01*
X96008954Y-107961735D01*
X96016392Y-107974617D01*
X96156081Y-108156661D01*
X96156089Y-108156670D01*
X96318330Y-108318911D01*
X96318338Y-108318918D01*
X96318339Y-108318919D01*
X96328885Y-108327011D01*
X96500382Y-108458607D01*
X96500385Y-108458608D01*
X96500388Y-108458611D01*
X96699112Y-108573344D01*
X96699117Y-108573346D01*
X96699123Y-108573349D01*
X96790480Y-108611190D01*
X96911113Y-108661158D01*
X97132762Y-108720548D01*
X97360266Y-108750500D01*
X97360273Y-108750500D01*
X97589727Y-108750500D01*
X97589734Y-108750500D01*
X97817238Y-108720548D01*
X98038887Y-108661158D01*
X98250888Y-108573344D01*
X98449612Y-108458611D01*
X98631661Y-108318919D01*
X98631665Y-108318914D01*
X98631670Y-108318911D01*
X98793911Y-108156670D01*
X98793914Y-108156665D01*
X98793919Y-108156661D01*
X98933611Y-107974612D01*
X99048344Y-107775888D01*
X99136158Y-107563887D01*
X99195548Y-107342238D01*
X99225500Y-107114734D01*
X99225500Y-106885266D01*
X99225207Y-106883042D01*
X99225310Y-106882380D01*
X99225234Y-106881214D01*
X99225494Y-106881196D01*
X99235971Y-106814008D01*
X99282350Y-106761751D01*
X99349618Y-106742864D01*
X99416419Y-106763343D01*
X99435827Y-106779174D01*
X101656730Y-109000077D01*
X101656767Y-109000116D01*
X101783149Y-109126497D01*
X101897477Y-109240825D01*
X102028400Y-109345232D01*
X102160961Y-109450946D01*
X102306906Y-109542650D01*
X102446316Y-109630248D01*
X102487401Y-109650033D01*
X102569574Y-109689605D01*
X102749949Y-109776469D01*
X102892524Y-109826358D01*
X103068034Y-109887772D01*
X103068046Y-109887776D01*
X103396606Y-109962767D01*
X103731491Y-110000499D01*
X103731492Y-110000500D01*
X103731495Y-110000500D01*
X104943507Y-110000500D01*
X104943507Y-110000499D01*
X105278394Y-109962767D01*
X105486240Y-109915327D01*
X105555975Y-109919600D01*
X105601510Y-109948537D01*
X106697490Y-111044517D01*
X106888566Y-111183343D01*
X107019748Y-111250183D01*
X107044247Y-111262666D01*
X107099003Y-111290566D01*
X107099005Y-111290566D01*
X107099008Y-111290568D01*
X107219412Y-111329689D01*
X107323631Y-111363553D01*
X107556903Y-111400500D01*
X107556908Y-111400500D01*
X127318097Y-111400500D01*
X127551368Y-111363553D01*
X127588869Y-111351368D01*
X127775992Y-111290568D01*
X127986434Y-111183343D01*
X128177510Y-111044517D01*
X131075194Y-108146831D01*
X131106572Y-108124033D01*
X131186434Y-108083343D01*
X131377510Y-107944517D01*
X132485208Y-106836819D01*
X132546531Y-106803334D01*
X132572889Y-106800500D01*
X134345906Y-106800500D01*
X134412945Y-106820185D01*
X134458700Y-106872989D01*
X134468644Y-106942147D01*
X134439619Y-107005703D01*
X134433587Y-107012181D01*
X132100538Y-109345228D01*
X132100537Y-109345229D01*
X132072537Y-109387136D01*
X132072536Y-109387137D01*
X132001990Y-109492715D01*
X132001985Y-109492724D01*
X131978829Y-109548630D01*
X131934106Y-109656599D01*
X131934103Y-109656609D01*
X131916186Y-109746685D01*
X131883801Y-109808596D01*
X131867457Y-109822810D01*
X131822493Y-109855479D01*
X131822487Y-109855484D01*
X129214792Y-112463181D01*
X129153469Y-112496666D01*
X129127111Y-112499500D01*
X95672890Y-112499500D01*
X95605851Y-112479815D01*
X95585209Y-112463181D01*
X93536819Y-110414791D01*
X93503334Y-110353468D01*
X93500500Y-110327110D01*
X93500500Y-100937854D01*
X93520185Y-100870815D01*
X93572989Y-100825060D01*
X93642147Y-100815116D01*
X93705703Y-100844141D01*
G37*
%TD.AperFunction*%
%TA.AperFunction,Conductor*%
G36*
X164802179Y-58426046D02*
G01*
X164858113Y-58467917D01*
X164878620Y-58510132D01*
X164885379Y-58535355D01*
X164889605Y-58567451D01*
X164889605Y-63690558D01*
X164869920Y-63757597D01*
X164853286Y-63778239D01*
X164768963Y-63862562D01*
X164707640Y-63896047D01*
X164637948Y-63891063D01*
X164582015Y-63849191D01*
X164578180Y-63843771D01*
X164499465Y-63725965D01*
X164499459Y-63725958D01*
X164374041Y-63600540D01*
X164374034Y-63600534D01*
X164226548Y-63501988D01*
X164062666Y-63434105D01*
X164062658Y-63434103D01*
X163888696Y-63399500D01*
X163888692Y-63399500D01*
X163711308Y-63399500D01*
X163711303Y-63399500D01*
X163537341Y-63434103D01*
X163537333Y-63434105D01*
X163373451Y-63501988D01*
X163225965Y-63600534D01*
X163225958Y-63600540D01*
X162100538Y-64725961D01*
X162100534Y-64725965D01*
X162091212Y-64739919D01*
X162091211Y-64739921D01*
X162001989Y-64873448D01*
X161970673Y-64949054D01*
X161934106Y-65037332D01*
X161934104Y-65037340D01*
X161899501Y-65211302D01*
X161899501Y-66875500D01*
X161879816Y-66942539D01*
X161827012Y-66988294D01*
X161775501Y-66999500D01*
X161711306Y-66999500D01*
X161537341Y-67034103D01*
X161537332Y-67034106D01*
X161373459Y-67101983D01*
X161373446Y-67101990D01*
X161225965Y-67200535D01*
X161225961Y-67200538D01*
X161100538Y-67325961D01*
X161100535Y-67325965D01*
X161001990Y-67473446D01*
X161001983Y-67473459D01*
X160934106Y-67637332D01*
X160934103Y-67637341D01*
X160899500Y-67811304D01*
X160899500Y-68775638D01*
X160879815Y-68842677D01*
X160863181Y-68863319D01*
X141063319Y-88663181D01*
X141001996Y-88696666D01*
X140975638Y-88699500D01*
X134261303Y-88699500D01*
X134087341Y-88734103D01*
X134087333Y-88734105D01*
X133997758Y-88771209D01*
X133997757Y-88771209D01*
X133923457Y-88801984D01*
X133923455Y-88801985D01*
X133791422Y-88890208D01*
X133791420Y-88890209D01*
X133775966Y-88900534D01*
X133775961Y-88900538D01*
X131750540Y-90925958D01*
X131750534Y-90925965D01*
X131651988Y-91073451D01*
X131584105Y-91237333D01*
X131584103Y-91237341D01*
X131549500Y-91411303D01*
X131549500Y-91588696D01*
X131584103Y-91762658D01*
X131584105Y-91762666D01*
X131611187Y-91828047D01*
X131618656Y-91897516D01*
X131587381Y-91959996D01*
X131527292Y-91995648D01*
X131496626Y-91999500D01*
X131111306Y-91999500D01*
X130937341Y-92034103D01*
X130937332Y-92034106D01*
X130773459Y-92101983D01*
X130773446Y-92101990D01*
X130625965Y-92200535D01*
X130625961Y-92200538D01*
X130500538Y-92325961D01*
X130500535Y-92325965D01*
X130401990Y-92473446D01*
X130401983Y-92473459D01*
X130334106Y-92637332D01*
X130334103Y-92637341D01*
X130299500Y-92811304D01*
X130299500Y-92988695D01*
X130331846Y-93151309D01*
X130325619Y-93220900D01*
X130282756Y-93276078D01*
X130216866Y-93299322D01*
X130210229Y-93299500D01*
X129024361Y-93299500D01*
X128957322Y-93279815D01*
X128936680Y-93263181D01*
X128474041Y-92800540D01*
X128474034Y-92800534D01*
X128326548Y-92701988D01*
X128162666Y-92634105D01*
X128162658Y-92634103D01*
X127988696Y-92599500D01*
X127988692Y-92599500D01*
X127811308Y-92599500D01*
X127811303Y-92599500D01*
X127637341Y-92634103D01*
X127637333Y-92634105D01*
X127473451Y-92701988D01*
X127325965Y-92800534D01*
X127325958Y-92800540D01*
X127200540Y-92925958D01*
X127200534Y-92925965D01*
X127101988Y-93073451D01*
X127034105Y-93237333D01*
X127034103Y-93237341D01*
X126999500Y-93411303D01*
X126999500Y-93588696D01*
X127034103Y-93762658D01*
X127034105Y-93762666D01*
X127101988Y-93926548D01*
X127200534Y-94074034D01*
X127200540Y-94074041D01*
X127900536Y-94774035D01*
X128025962Y-94899461D01*
X128025966Y-94899465D01*
X128173446Y-94998009D01*
X128173459Y-94998016D01*
X128296363Y-95048923D01*
X128337334Y-95065894D01*
X128337336Y-95065894D01*
X128337341Y-95065896D01*
X128511304Y-95100499D01*
X128511307Y-95100500D01*
X128511309Y-95100500D01*
X154488693Y-95100500D01*
X154488694Y-95100499D01*
X154662666Y-95065895D01*
X154744606Y-95031953D01*
X154826547Y-94998013D01*
X154826549Y-94998011D01*
X154826552Y-94998010D01*
X154914955Y-94938939D01*
X154914955Y-94938938D01*
X154914959Y-94938936D01*
X154974036Y-94899464D01*
X160299464Y-89574035D01*
X160327677Y-89531811D01*
X160398013Y-89426547D01*
X160417895Y-89378547D01*
X160465895Y-89262666D01*
X160500500Y-89088691D01*
X160500500Y-88911308D01*
X160500500Y-87853692D01*
X160501179Y-87840731D01*
X160501256Y-87839998D01*
X160505460Y-87800000D01*
X160501179Y-87759266D01*
X160500500Y-87746306D01*
X160500500Y-87711309D01*
X160492358Y-87670383D01*
X160490656Y-87659156D01*
X160485674Y-87611744D01*
X160475094Y-87579183D01*
X160471409Y-87565059D01*
X160465895Y-87537339D01*
X160465894Y-87537338D01*
X160465894Y-87537334D01*
X160447352Y-87492569D01*
X160443990Y-87483455D01*
X160427181Y-87431720D01*
X160427178Y-87431715D01*
X160413424Y-87407892D01*
X160406256Y-87393355D01*
X160398014Y-87373456D01*
X160398013Y-87373454D01*
X160398013Y-87373453D01*
X160367359Y-87327577D01*
X160363088Y-87320708D01*
X160332534Y-87267785D01*
X160332530Y-87267780D01*
X160318637Y-87252350D01*
X160307684Y-87238268D01*
X160299464Y-87225965D01*
X160255721Y-87182222D01*
X160251255Y-87177516D01*
X160205871Y-87127112D01*
X160205870Y-87127111D01*
X160194527Y-87118870D01*
X160179737Y-87106238D01*
X160174035Y-87100536D01*
X160117008Y-87062431D01*
X160113016Y-87059649D01*
X160087192Y-87040887D01*
X160052730Y-87015849D01*
X160046092Y-87012893D01*
X160027643Y-87002719D01*
X160026551Y-87001989D01*
X160026546Y-87001986D01*
X159956993Y-86973177D01*
X159954010Y-86971895D01*
X159877385Y-86937779D01*
X159824148Y-86892529D01*
X159803827Y-86825680D01*
X159822872Y-86758456D01*
X159875239Y-86712201D01*
X159927821Y-86700500D01*
X164998543Y-86700500D01*
X165106832Y-86678959D01*
X165160978Y-86668189D01*
X165191836Y-86662051D01*
X165245165Y-86639961D01*
X165373914Y-86586632D01*
X165537782Y-86477139D01*
X165677139Y-86337782D01*
X165677139Y-86337780D01*
X165687347Y-86327573D01*
X165687348Y-86327570D01*
X166287820Y-85727099D01*
X166349142Y-85693615D01*
X166418834Y-85698599D01*
X166474767Y-85740471D01*
X166499184Y-85805935D01*
X166499500Y-85814781D01*
X166499500Y-99875638D01*
X166479815Y-99942677D01*
X166463181Y-99963319D01*
X164363319Y-102063181D01*
X164301996Y-102096666D01*
X164275638Y-102099500D01*
X151721843Y-102099500D01*
X151654804Y-102079815D01*
X151609049Y-102027011D01*
X151598623Y-101961617D01*
X151605565Y-101900003D01*
X151605565Y-101899996D01*
X151585369Y-101720750D01*
X151585368Y-101720745D01*
X151578284Y-101700499D01*
X151525789Y-101550478D01*
X151495657Y-101502524D01*
X151426111Y-101391842D01*
X151428409Y-101390397D01*
X151406659Y-101337151D01*
X151419401Y-101268453D01*
X151467261Y-101217550D01*
X151530012Y-101200500D01*
X151675639Y-101200500D01*
X151742678Y-101220185D01*
X151763320Y-101236819D01*
X152025961Y-101499461D01*
X152025965Y-101499464D01*
X152173447Y-101598009D01*
X152173451Y-101598011D01*
X152173454Y-101598013D01*
X152337334Y-101665895D01*
X152511303Y-101700499D01*
X152511307Y-101700500D01*
X152511308Y-101700500D01*
X152688693Y-101700500D01*
X152688694Y-101700499D01*
X152862666Y-101665895D01*
X153026547Y-101598013D01*
X153174036Y-101499464D01*
X153299464Y-101374036D01*
X153398013Y-101226547D01*
X153465895Y-101062666D01*
X153498674Y-100897870D01*
X155049500Y-100897870D01*
X155049501Y-100897876D01*
X155055908Y-100957483D01*
X155106202Y-101092328D01*
X155106206Y-101092335D01*
X155192452Y-101207544D01*
X155192455Y-101207547D01*
X155307664Y-101293793D01*
X155307671Y-101293797D01*
X155442517Y-101344091D01*
X155442516Y-101344091D01*
X155449444Y-101344835D01*
X155502127Y-101350500D01*
X157297872Y-101350499D01*
X157357483Y-101344091D01*
X157492331Y-101293796D01*
X157607546Y-101207546D01*
X157693796Y-101092331D01*
X157744091Y-100957483D01*
X157750500Y-100897873D01*
X157750500Y-100897870D01*
X160049500Y-100897870D01*
X160049501Y-100897876D01*
X160055908Y-100957483D01*
X160106202Y-101092328D01*
X160106206Y-101092335D01*
X160192452Y-101207544D01*
X160192455Y-101207547D01*
X160307664Y-101293793D01*
X160307671Y-101293797D01*
X160442517Y-101344091D01*
X160442516Y-101344091D01*
X160449444Y-101344835D01*
X160502127Y-101350500D01*
X162297872Y-101350499D01*
X162357483Y-101344091D01*
X162492331Y-101293796D01*
X162607546Y-101207546D01*
X162693796Y-101092331D01*
X162744091Y-100957483D01*
X162750500Y-100897873D01*
X162750499Y-99102128D01*
X162744091Y-99042517D01*
X162693796Y-98907669D01*
X162693795Y-98907668D01*
X162693793Y-98907664D01*
X162607547Y-98792455D01*
X162607544Y-98792452D01*
X162492335Y-98706206D01*
X162492328Y-98706202D01*
X162357482Y-98655908D01*
X162357483Y-98655908D01*
X162297883Y-98649501D01*
X162297881Y-98649500D01*
X162297873Y-98649500D01*
X162297864Y-98649500D01*
X160502129Y-98649500D01*
X160502123Y-98649501D01*
X160442516Y-98655908D01*
X160307671Y-98706202D01*
X160307664Y-98706206D01*
X160192455Y-98792452D01*
X160192452Y-98792455D01*
X160106206Y-98907664D01*
X160106202Y-98907671D01*
X160055908Y-99042517D01*
X160049501Y-99102116D01*
X160049501Y-99102123D01*
X160049500Y-99102135D01*
X160049500Y-100897870D01*
X157750500Y-100897870D01*
X157750499Y-99102128D01*
X157744091Y-99042517D01*
X157693796Y-98907669D01*
X157693795Y-98907668D01*
X157693793Y-98907664D01*
X157607547Y-98792455D01*
X157607544Y-98792452D01*
X157492335Y-98706206D01*
X157492328Y-98706202D01*
X157357482Y-98655908D01*
X157357483Y-98655908D01*
X157297883Y-98649501D01*
X157297881Y-98649500D01*
X157297873Y-98649500D01*
X157297864Y-98649500D01*
X155502129Y-98649500D01*
X155502123Y-98649501D01*
X155442516Y-98655908D01*
X155307671Y-98706202D01*
X155307664Y-98706206D01*
X155192455Y-98792452D01*
X155192452Y-98792455D01*
X155106206Y-98907664D01*
X155106202Y-98907671D01*
X155055908Y-99042517D01*
X155049501Y-99102116D01*
X155049501Y-99102123D01*
X155049500Y-99102135D01*
X155049500Y-100897870D01*
X153498674Y-100897870D01*
X153500500Y-100888692D01*
X153500500Y-100711308D01*
X153465895Y-100537334D01*
X153398013Y-100373454D01*
X153398011Y-100373451D01*
X153398009Y-100373447D01*
X153299464Y-100225965D01*
X153299461Y-100225961D01*
X152674039Y-99600538D01*
X152674038Y-99600537D01*
X152609601Y-99557482D01*
X152562613Y-99526086D01*
X152526547Y-99501987D01*
X152526545Y-99501986D01*
X152526542Y-99501984D01*
X152444607Y-99468046D01*
X152444606Y-99468046D01*
X152362666Y-99434105D01*
X152362658Y-99434103D01*
X152188696Y-99399500D01*
X152188692Y-99399500D01*
X152188691Y-99399500D01*
X141388692Y-99399500D01*
X141211308Y-99399500D01*
X141211303Y-99399500D01*
X141037339Y-99434103D01*
X141037323Y-99434108D01*
X140921453Y-99482102D01*
X140921454Y-99482103D01*
X140873454Y-99501986D01*
X140726127Y-99600428D01*
X140726023Y-99600497D01*
X140725967Y-99600534D01*
X140725959Y-99600540D01*
X140100540Y-100225958D01*
X140100534Y-100225965D01*
X140001988Y-100373451D01*
X139934105Y-100537333D01*
X139934103Y-100537341D01*
X139899500Y-100711303D01*
X139899500Y-100888695D01*
X139931846Y-101051309D01*
X139925619Y-101120900D01*
X139882756Y-101176078D01*
X139816866Y-101199322D01*
X139810229Y-101199500D01*
X130031004Y-101199500D01*
X129895677Y-101226418D01*
X129895667Y-101226421D01*
X129768192Y-101279222D01*
X129653454Y-101355887D01*
X129653453Y-101355888D01*
X126746162Y-104263181D01*
X126684839Y-104296666D01*
X126658481Y-104299500D01*
X120741518Y-104299500D01*
X120674479Y-104279815D01*
X120653837Y-104263181D01*
X110936819Y-94546162D01*
X110903334Y-94484839D01*
X110900500Y-94458481D01*
X110900500Y-90941518D01*
X110920185Y-90874479D01*
X110936814Y-90853841D01*
X112113019Y-89677636D01*
X112128613Y-89664425D01*
X112171874Y-89633524D01*
X112237867Y-89610577D01*
X112305791Y-89626951D01*
X112348940Y-89668454D01*
X112370183Y-89702261D01*
X112370184Y-89702262D01*
X112497738Y-89829816D01*
X112650478Y-89925789D01*
X112771213Y-89968036D01*
X112820745Y-89985368D01*
X112820750Y-89985369D01*
X112999997Y-90005565D01*
X113000000Y-90005565D01*
X113000001Y-90005565D01*
X113023352Y-90002933D01*
X113071458Y-89997513D01*
X113140280Y-90009567D01*
X113190336Y-90054760D01*
X113220182Y-90102260D01*
X113220184Y-90102262D01*
X113347738Y-90229816D01*
X113500478Y-90325789D01*
X113670745Y-90385368D01*
X113670750Y-90385369D01*
X113849996Y-90405565D01*
X113850000Y-90405565D01*
X113850004Y-90405565D01*
X114029249Y-90385369D01*
X114029252Y-90385368D01*
X114029255Y-90385368D01*
X114199522Y-90325789D01*
X114286179Y-90271339D01*
X114358159Y-90226111D01*
X114358951Y-90227372D01*
X114416201Y-90203989D01*
X114469801Y-90210300D01*
X114514985Y-90226111D01*
X114586514Y-90251141D01*
X114586524Y-90251143D01*
X114765770Y-90271339D01*
X114765774Y-90271339D01*
X114765778Y-90271339D01*
X114945023Y-90251143D01*
X114945026Y-90251142D01*
X114945029Y-90251142D01*
X115115296Y-90191563D01*
X115268036Y-90095590D01*
X115395590Y-89968036D01*
X115491563Y-89815296D01*
X115551142Y-89645029D01*
X115551143Y-89645023D01*
X115571339Y-89465777D01*
X115571339Y-89465770D01*
X115551143Y-89286522D01*
X115531189Y-89229497D01*
X115525644Y-89207216D01*
X115525609Y-89206986D01*
X115523688Y-89194376D01*
X115405820Y-88805066D01*
X115400500Y-88769134D01*
X115400500Y-87610100D01*
X115420185Y-87543061D01*
X115421398Y-87541209D01*
X115453892Y-87492578D01*
X115498013Y-87426547D01*
X115565895Y-87262666D01*
X115600500Y-87088692D01*
X115600500Y-86911308D01*
X115565895Y-86737334D01*
X115498013Y-86573454D01*
X115498011Y-86573451D01*
X115498009Y-86573447D01*
X115399464Y-86425965D01*
X115399461Y-86425961D01*
X115136819Y-86163319D01*
X115103334Y-86101996D01*
X115100500Y-86075638D01*
X115100500Y-85115680D01*
X115120185Y-85048641D01*
X115172989Y-85002886D01*
X115242147Y-84992942D01*
X115250278Y-84994389D01*
X115312461Y-85007607D01*
X115501752Y-85007607D01*
X115501753Y-85007607D01*
X115587806Y-84989315D01*
X115589241Y-84989019D01*
X115669773Y-84973002D01*
X115669778Y-84973000D01*
X115675602Y-84971234D01*
X115675735Y-84971675D01*
X115686426Y-84968354D01*
X115686511Y-84968335D01*
X115686910Y-84968251D01*
X115761203Y-84935172D01*
X115764049Y-84933950D01*
X115833654Y-84905119D01*
X115834744Y-84904390D01*
X115853195Y-84894214D01*
X115859837Y-84891258D01*
X115920146Y-84847440D01*
X115924073Y-84844702D01*
X115981143Y-84806571D01*
X115986842Y-84800870D01*
X116001640Y-84788231D01*
X116012978Y-84779995D01*
X116058372Y-84729578D01*
X116062804Y-84724908D01*
X117336575Y-83451139D01*
X117397898Y-83417654D01*
X117424256Y-83414820D01*
X118597998Y-83414820D01*
X118665037Y-83434505D01*
X118710792Y-83487309D01*
X118721218Y-83524937D01*
X118728950Y-83593569D01*
X118788530Y-83763841D01*
X118819649Y-83813366D01*
X118884504Y-83916582D01*
X119012058Y-84044136D01*
X119047286Y-84066271D01*
X119143952Y-84127011D01*
X119164798Y-84140109D01*
X119282118Y-84181161D01*
X119335065Y-84199688D01*
X119335070Y-84199689D01*
X119514316Y-84219885D01*
X119514320Y-84219885D01*
X119514324Y-84219885D01*
X119693569Y-84199689D01*
X119693572Y-84199688D01*
X119693575Y-84199688D01*
X119863842Y-84140109D01*
X119884688Y-84127011D01*
X119896630Y-84119507D01*
X119962603Y-84100500D01*
X124762039Y-84100500D01*
X124829078Y-84120185D01*
X124874833Y-84172989D01*
X124884777Y-84242147D01*
X124855752Y-84305703D01*
X124834922Y-84324820D01*
X124786976Y-84359653D01*
X124782986Y-84362434D01*
X124725968Y-84400533D01*
X124725958Y-84400542D01*
X124720253Y-84406246D01*
X124705472Y-84418870D01*
X124694129Y-84427111D01*
X124694126Y-84427114D01*
X124648742Y-84477517D01*
X124644277Y-84482222D01*
X124600539Y-84525961D01*
X124600532Y-84525969D01*
X124592310Y-84538275D01*
X124581362Y-84552350D01*
X124567472Y-84567776D01*
X124567467Y-84567784D01*
X124536914Y-84620703D01*
X124532630Y-84627591D01*
X124501988Y-84673450D01*
X124493741Y-84693360D01*
X124486569Y-84707902D01*
X124472824Y-84731710D01*
X124472821Y-84731715D01*
X124456010Y-84783451D01*
X124452643Y-84792578D01*
X124434106Y-84837333D01*
X124428589Y-84865066D01*
X124424905Y-84879183D01*
X124414325Y-84911747D01*
X124409340Y-84959171D01*
X124407638Y-84970396D01*
X124400237Y-85007607D01*
X124399500Y-85011310D01*
X124399500Y-85046306D01*
X124398821Y-85059266D01*
X124394540Y-85099999D01*
X124398821Y-85140731D01*
X124399500Y-85153692D01*
X124399500Y-85188695D01*
X124407637Y-85229602D01*
X124409341Y-85240831D01*
X124414325Y-85288253D01*
X124414325Y-85288254D01*
X124419095Y-85302935D01*
X124421746Y-85311094D01*
X124424904Y-85320811D01*
X124428590Y-85334938D01*
X124434104Y-85362662D01*
X124434105Y-85362664D01*
X124452644Y-85407423D01*
X124456012Y-85416554D01*
X124472819Y-85468279D01*
X124472822Y-85468286D01*
X124486569Y-85492097D01*
X124493742Y-85506643D01*
X124501984Y-85526542D01*
X124532634Y-85572413D01*
X124536919Y-85579304D01*
X124567468Y-85632218D01*
X124567469Y-85632219D01*
X124581357Y-85647643D01*
X124592307Y-85661721D01*
X124600534Y-85674033D01*
X124644274Y-85717773D01*
X124648744Y-85722483D01*
X124694129Y-85772888D01*
X124694131Y-85772890D01*
X124705467Y-85781126D01*
X124720263Y-85793763D01*
X124725961Y-85799461D01*
X124725965Y-85799464D01*
X124782994Y-85837570D01*
X124786967Y-85840339D01*
X124847270Y-85884151D01*
X124853902Y-85887104D01*
X124872361Y-85897283D01*
X124873453Y-85898013D01*
X124943042Y-85926836D01*
X124945987Y-85928102D01*
X125020197Y-85961144D01*
X125020696Y-85961250D01*
X125031370Y-85964562D01*
X125031503Y-85964125D01*
X125037330Y-85965892D01*
X125037334Y-85965894D01*
X125117816Y-85981902D01*
X125119282Y-85982204D01*
X125205354Y-86000500D01*
X125205355Y-86000500D01*
X128588693Y-86000500D01*
X128588694Y-86000499D01*
X128762666Y-85965895D01*
X128844606Y-85931953D01*
X128926547Y-85898013D01*
X128955434Y-85878711D01*
X129033692Y-85826421D01*
X129064351Y-85805935D01*
X129074036Y-85799464D01*
X131779737Y-83093760D01*
X131794525Y-83081130D01*
X131805871Y-83072888D01*
X131851273Y-83022462D01*
X131855707Y-83017790D01*
X131899464Y-82974035D01*
X131907683Y-82961733D01*
X131918634Y-82947651D01*
X131932533Y-82932216D01*
X131963107Y-82879257D01*
X131967354Y-82872427D01*
X131998013Y-82826546D01*
X132006256Y-82806644D01*
X132013429Y-82792097D01*
X132027179Y-82768284D01*
X132043991Y-82716538D01*
X132047350Y-82707436D01*
X132065895Y-82662666D01*
X132071411Y-82634928D01*
X132075095Y-82620810D01*
X132085674Y-82588256D01*
X132090658Y-82540828D01*
X132092359Y-82529615D01*
X132098250Y-82500003D01*
X132100500Y-82488694D01*
X132100500Y-82453692D01*
X132101179Y-82440731D01*
X132104271Y-82411309D01*
X132105460Y-82400000D01*
X132101179Y-82359266D01*
X132100500Y-82346306D01*
X132100500Y-82311307D01*
X132092361Y-82270393D01*
X132090657Y-82259159D01*
X132085674Y-82211747D01*
X132085674Y-82211744D01*
X132075097Y-82179193D01*
X132071410Y-82165065D01*
X132068602Y-82150946D01*
X132065895Y-82137334D01*
X132047355Y-82092574D01*
X132043985Y-82083440D01*
X132027179Y-82031716D01*
X132013430Y-82007902D01*
X132006260Y-81993365D01*
X131998013Y-81973453D01*
X131998011Y-81973450D01*
X131998009Y-81973446D01*
X131967368Y-81927589D01*
X131963083Y-81920698D01*
X131935809Y-81873459D01*
X131932533Y-81867784D01*
X131932530Y-81867780D01*
X131932529Y-81867779D01*
X131918640Y-81852354D01*
X131907694Y-81838281D01*
X131899464Y-81825964D01*
X131877433Y-81803933D01*
X131843948Y-81742610D01*
X131848932Y-81672918D01*
X131890804Y-81616985D01*
X131917657Y-81601694D01*
X131926547Y-81598012D01*
X131927637Y-81597283D01*
X131946088Y-81587107D01*
X131952730Y-81584151D01*
X132013039Y-81540333D01*
X132016966Y-81537595D01*
X132074036Y-81499464D01*
X132079735Y-81493763D01*
X132094533Y-81481124D01*
X132105871Y-81472888D01*
X132151265Y-81422471D01*
X132155698Y-81417800D01*
X132836680Y-80736819D01*
X132898003Y-80703334D01*
X132924361Y-80700500D01*
X137688693Y-80700500D01*
X137688694Y-80700499D01*
X137862666Y-80665895D01*
X137957309Y-80626692D01*
X138026547Y-80598013D01*
X138117349Y-80537341D01*
X138126658Y-80531121D01*
X138142451Y-80520568D01*
X138174036Y-80499464D01*
X158736679Y-59936819D01*
X158798002Y-59903335D01*
X158824360Y-59900501D01*
X162940906Y-59900501D01*
X162940907Y-59900500D01*
X163114879Y-59865896D01*
X163196819Y-59831954D01*
X163278760Y-59798014D01*
X163278762Y-59798012D01*
X163278765Y-59798011D01*
X163367168Y-59738940D01*
X163367168Y-59738939D01*
X163367172Y-59738937D01*
X163426249Y-59699465D01*
X164671167Y-58454545D01*
X164732488Y-58421062D01*
X164802179Y-58426046D01*
G37*
%TD.AperFunction*%
%TA.AperFunction,Conductor*%
G36*
X161942539Y-52420185D02*
G01*
X161988294Y-52472989D01*
X161999500Y-52524500D01*
X161999500Y-56713637D01*
X161979815Y-56780676D01*
X161963181Y-56801318D01*
X161738540Y-57025958D01*
X161738534Y-57025965D01*
X161639988Y-57173451D01*
X161572105Y-57337333D01*
X161572103Y-57337341D01*
X161537500Y-57511303D01*
X161537500Y-57688696D01*
X161558965Y-57796606D01*
X161572105Y-57862666D01*
X161599188Y-57928049D01*
X161606657Y-57997517D01*
X161575383Y-58059996D01*
X161515294Y-58095649D01*
X161484627Y-58099501D01*
X158311303Y-58099501D01*
X158137340Y-58134104D01*
X158137332Y-58134106D01*
X158023731Y-58181162D01*
X158023730Y-58181162D01*
X157973458Y-58201984D01*
X157973446Y-58201991D01*
X157855601Y-58280734D01*
X157855600Y-58280734D01*
X157825968Y-58300533D01*
X157825960Y-58300539D01*
X137263319Y-78863181D01*
X137201996Y-78896666D01*
X137175638Y-78899500D01*
X137173363Y-78899500D01*
X137106324Y-78879815D01*
X137060569Y-78827011D01*
X137050625Y-78757853D01*
X137079650Y-78694297D01*
X137085682Y-78687819D01*
X157299461Y-58474039D01*
X157299462Y-58474038D01*
X157299464Y-58474036D01*
X157339711Y-58413802D01*
X157398013Y-58326547D01*
X157438080Y-58229816D01*
X157465895Y-58162666D01*
X157500500Y-57988692D01*
X157500500Y-57811308D01*
X157500500Y-57753692D01*
X157501179Y-57740731D01*
X157505460Y-57700000D01*
X157501179Y-57659266D01*
X157500500Y-57646306D01*
X157500500Y-57611309D01*
X157492360Y-57570393D01*
X157490656Y-57559156D01*
X157490330Y-57556052D01*
X157485674Y-57511744D01*
X157475094Y-57479183D01*
X157471409Y-57465059D01*
X157465895Y-57437339D01*
X157465894Y-57437336D01*
X157465894Y-57437334D01*
X157447352Y-57392569D01*
X157443990Y-57383455D01*
X157427181Y-57331720D01*
X157423950Y-57326124D01*
X157413424Y-57307892D01*
X157406256Y-57293355D01*
X157398014Y-57273456D01*
X157398013Y-57273454D01*
X157398013Y-57273453D01*
X157367359Y-57227577D01*
X157363088Y-57220708D01*
X157332534Y-57167785D01*
X157332530Y-57167780D01*
X157318637Y-57152350D01*
X157307684Y-57138268D01*
X157299464Y-57125965D01*
X157255724Y-57082225D01*
X157251255Y-57077516D01*
X157205871Y-57027112D01*
X157204283Y-57025958D01*
X157194528Y-57018871D01*
X157179737Y-57006238D01*
X157174035Y-57000536D01*
X157117008Y-56962431D01*
X157113016Y-56959649D01*
X157052730Y-56915849D01*
X157046092Y-56912893D01*
X157027643Y-56902719D01*
X157026551Y-56901989D01*
X157026546Y-56901986D01*
X156956993Y-56873177D01*
X156954010Y-56871895D01*
X156879806Y-56838856D01*
X156879797Y-56838853D01*
X156879285Y-56838745D01*
X156868626Y-56835438D01*
X156868494Y-56835874D01*
X156862667Y-56834106D01*
X156862666Y-56834106D01*
X156862663Y-56834105D01*
X156862662Y-56834105D01*
X156782268Y-56818113D01*
X156780715Y-56817794D01*
X156694646Y-56799500D01*
X156505354Y-56799500D01*
X156505350Y-56799500D01*
X156419334Y-56817783D01*
X156417745Y-56818110D01*
X156337336Y-56834105D01*
X156331514Y-56835871D01*
X156331382Y-56835437D01*
X156320720Y-56838744D01*
X156320200Y-56838854D01*
X156320199Y-56838854D01*
X156245969Y-56871904D01*
X156242979Y-56873188D01*
X156233936Y-56876933D01*
X156164466Y-56884397D01*
X156101989Y-56853118D01*
X156066341Y-56793027D01*
X156068839Y-56723202D01*
X156098808Y-56674691D01*
X160336680Y-52436818D01*
X160398003Y-52403334D01*
X160424361Y-52400500D01*
X161875500Y-52400500D01*
X161942539Y-52420185D01*
G37*
%TD.AperFunction*%
%TA.AperFunction,Conductor*%
G36*
X145634512Y-16020185D02*
G01*
X145680267Y-16072989D01*
X145690211Y-16142147D01*
X145661186Y-16205703D01*
X145644786Y-16221447D01*
X145597477Y-16259174D01*
X137843471Y-24013181D01*
X137782148Y-24046666D01*
X137755790Y-24049500D01*
X125278031Y-24049500D01*
X125199966Y-24057188D01*
X124935750Y-24083210D01*
X124598427Y-24150308D01*
X124269293Y-24250150D01*
X123951535Y-24381770D01*
X123951530Y-24381772D01*
X123648223Y-24543893D01*
X123648205Y-24543904D01*
X123362242Y-24734978D01*
X123362238Y-24734981D01*
X123242397Y-24833332D01*
X123096367Y-24953176D01*
X122853172Y-25196373D01*
X122853168Y-25196377D01*
X122386365Y-25663181D01*
X122325042Y-25696666D01*
X122298684Y-25699500D01*
X121071969Y-25699500D01*
X117971969Y-25699500D01*
X114028031Y-25699500D01*
X113950868Y-25707099D01*
X113685760Y-25733209D01*
X113685755Y-25733210D01*
X113574186Y-25755401D01*
X113525808Y-25755401D01*
X113446279Y-25739582D01*
X113414250Y-25733212D01*
X113414248Y-25733211D01*
X113414244Y-25733211D01*
X113414238Y-25733210D01*
X113162784Y-25708444D01*
X113071969Y-25699500D01*
X112728031Y-25699500D01*
X112626898Y-25709460D01*
X112385753Y-25733211D01*
X112048442Y-25800304D01*
X112048431Y-25800307D01*
X111719293Y-25900150D01*
X111401544Y-26031766D01*
X111401530Y-26031773D01*
X111098224Y-26193892D01*
X111098206Y-26193903D01*
X110812248Y-26384974D01*
X110812234Y-26384984D01*
X110546367Y-26603176D01*
X108103173Y-29046371D01*
X108085311Y-29068135D01*
X108068130Y-29085316D01*
X108046371Y-29103174D01*
X107403176Y-29746367D01*
X107184984Y-30012234D01*
X107184977Y-30012243D01*
X107122377Y-30105932D01*
X107059492Y-30200047D01*
X107033219Y-30239367D01*
X106993899Y-30298213D01*
X106831772Y-30601530D01*
X106831770Y-30601535D01*
X106700150Y-30919293D01*
X106600308Y-31248427D01*
X106533210Y-31585750D01*
X106512422Y-31796828D01*
X106505385Y-31868284D01*
X106499500Y-31928034D01*
X106499500Y-37678111D01*
X106479815Y-37745150D01*
X106427011Y-37790905D01*
X106357853Y-37800849D01*
X106294297Y-37771824D01*
X106287819Y-37765792D01*
X106127512Y-37605485D01*
X106127511Y-37605484D01*
X106127510Y-37605483D01*
X105936433Y-37466657D01*
X105920634Y-37458607D01*
X105725996Y-37359433D01*
X105501368Y-37286446D01*
X105268097Y-37249500D01*
X105268092Y-37249500D01*
X105031908Y-37249500D01*
X105031903Y-37249500D01*
X104798634Y-37286446D01*
X104574005Y-37359433D01*
X104363565Y-37466657D01*
X104172488Y-37605484D01*
X104172487Y-37605485D01*
X99314792Y-42463181D01*
X99253469Y-42496666D01*
X99227111Y-42499500D01*
X94481903Y-42499500D01*
X94248631Y-42536446D01*
X94091187Y-42587604D01*
X94052575Y-42600150D01*
X94042798Y-42603326D01*
X94024003Y-42609433D01*
X93813565Y-42716657D01*
X93622488Y-42855484D01*
X93622487Y-42855485D01*
X91212181Y-45265792D01*
X91150858Y-45299277D01*
X91081166Y-45294293D01*
X91025233Y-45252421D01*
X91000816Y-45186957D01*
X91000500Y-45178111D01*
X91000500Y-36500000D01*
X97094540Y-36500000D01*
X97114326Y-36688256D01*
X97114327Y-36688259D01*
X97172818Y-36868277D01*
X97172821Y-36868284D01*
X97267467Y-37032216D01*
X97373522Y-37150002D01*
X97394129Y-37172888D01*
X97547265Y-37284148D01*
X97547270Y-37284151D01*
X97720192Y-37361142D01*
X97720197Y-37361144D01*
X97905354Y-37400500D01*
X97905355Y-37400500D01*
X98094644Y-37400500D01*
X98094646Y-37400500D01*
X98279803Y-37361144D01*
X98452730Y-37284151D01*
X98605871Y-37172888D01*
X98657851Y-37115158D01*
X98717336Y-37078510D01*
X98787193Y-37079840D01*
X98842148Y-37115158D01*
X98873528Y-37150008D01*
X98894129Y-37172888D01*
X99047265Y-37284148D01*
X99047270Y-37284151D01*
X99220192Y-37361142D01*
X99220197Y-37361144D01*
X99405354Y-37400500D01*
X99405355Y-37400500D01*
X99594644Y-37400500D01*
X99594646Y-37400500D01*
X99779803Y-37361144D01*
X99952730Y-37284151D01*
X100105871Y-37172888D01*
X100232533Y-37032216D01*
X100327179Y-36868284D01*
X100385674Y-36688256D01*
X100405460Y-36500000D01*
X100385674Y-36311744D01*
X100327179Y-36131716D01*
X100286927Y-36061999D01*
X100270454Y-35994101D01*
X100286927Y-35938001D01*
X100327179Y-35868284D01*
X100385674Y-35688256D01*
X100405460Y-35500000D01*
X100385674Y-35311744D01*
X100327179Y-35131716D01*
X100286927Y-35061999D01*
X100270454Y-34994101D01*
X100286927Y-34938001D01*
X100327179Y-34868284D01*
X100385674Y-34688256D01*
X100405460Y-34500000D01*
X100385674Y-34311744D01*
X100327179Y-34131716D01*
X100286927Y-34061999D01*
X100270454Y-33994101D01*
X100286927Y-33938001D01*
X100327179Y-33868284D01*
X100385674Y-33688256D01*
X100405460Y-33500000D01*
X100385674Y-33311744D01*
X100327179Y-33131716D01*
X100286927Y-33061999D01*
X100270454Y-32994101D01*
X100286927Y-32938001D01*
X100327179Y-32868284D01*
X100385674Y-32688256D01*
X100405460Y-32500000D01*
X100385674Y-32311744D01*
X100327179Y-32131716D01*
X100286927Y-32061999D01*
X100270454Y-31994101D01*
X100286927Y-31938001D01*
X100327179Y-31868284D01*
X100385674Y-31688256D01*
X100405460Y-31500000D01*
X100385674Y-31311744D01*
X100327179Y-31131716D01*
X100232533Y-30967784D01*
X100105871Y-30827112D01*
X100105867Y-30827109D01*
X99952734Y-30715851D01*
X99952729Y-30715848D01*
X99779807Y-30638857D01*
X99779802Y-30638855D01*
X99634001Y-30607865D01*
X99594646Y-30599500D01*
X99405354Y-30599500D01*
X99372897Y-30606398D01*
X99220197Y-30638855D01*
X99220192Y-30638857D01*
X99047270Y-30715848D01*
X99047265Y-30715851D01*
X98894132Y-30827109D01*
X98894129Y-30827111D01*
X98894129Y-30827112D01*
X98842148Y-30884841D01*
X98782663Y-30921489D01*
X98712806Y-30920158D01*
X98657851Y-30884841D01*
X98605871Y-30827112D01*
X98605867Y-30827109D01*
X98452734Y-30715851D01*
X98452729Y-30715848D01*
X98279807Y-30638857D01*
X98279802Y-30638855D01*
X98134001Y-30607865D01*
X98094646Y-30599500D01*
X97905354Y-30599500D01*
X97872897Y-30606398D01*
X97720197Y-30638855D01*
X97720192Y-30638857D01*
X97547270Y-30715848D01*
X97547265Y-30715851D01*
X97394129Y-30827111D01*
X97267466Y-30967785D01*
X97172821Y-31131715D01*
X97172818Y-31131722D01*
X97134899Y-31248427D01*
X97114326Y-31311744D01*
X97094540Y-31500000D01*
X97114326Y-31688256D01*
X97114327Y-31688259D01*
X97172818Y-31868277D01*
X97172820Y-31868281D01*
X97172821Y-31868284D01*
X97172823Y-31868287D01*
X97213072Y-31938001D01*
X97229543Y-32005901D01*
X97213072Y-32061999D01*
X97172820Y-32131718D01*
X97172818Y-32131722D01*
X97114327Y-32311740D01*
X97114326Y-32311744D01*
X97094540Y-32500000D01*
X97114326Y-32688256D01*
X97114327Y-32688259D01*
X97172818Y-32868277D01*
X97172820Y-32868281D01*
X97172821Y-32868284D01*
X97172823Y-32868287D01*
X97213072Y-32938001D01*
X97229543Y-33005901D01*
X97213072Y-33061999D01*
X97172820Y-33131718D01*
X97172818Y-33131722D01*
X97120593Y-33292455D01*
X97114326Y-33311744D01*
X97094540Y-33500000D01*
X97114326Y-33688256D01*
X97114327Y-33688259D01*
X97172818Y-33868277D01*
X97172820Y-33868281D01*
X97172821Y-33868284D01*
X97172823Y-33868287D01*
X97213072Y-33938001D01*
X97229543Y-34005901D01*
X97213072Y-34061999D01*
X97172820Y-34131718D01*
X97172818Y-34131722D01*
X97114327Y-34311740D01*
X97114326Y-34311744D01*
X97094540Y-34500000D01*
X97114326Y-34688256D01*
X97114327Y-34688259D01*
X97172818Y-34868277D01*
X97172820Y-34868281D01*
X97172821Y-34868284D01*
X97172823Y-34868287D01*
X97213072Y-34938001D01*
X97229543Y-35005901D01*
X97213072Y-35061999D01*
X97172820Y-35131718D01*
X97172818Y-35131722D01*
X97114327Y-35311740D01*
X97114326Y-35311744D01*
X97094540Y-35500000D01*
X97114326Y-35688256D01*
X97114327Y-35688259D01*
X97172818Y-35868277D01*
X97172820Y-35868281D01*
X97172821Y-35868284D01*
X97182126Y-35884400D01*
X97213072Y-35938001D01*
X97229543Y-36005901D01*
X97213072Y-36061998D01*
X97182622Y-36114741D01*
X97172820Y-36131718D01*
X97172818Y-36131722D01*
X97114327Y-36311740D01*
X97114326Y-36311744D01*
X97094540Y-36500000D01*
X91000500Y-36500000D01*
X91000500Y-20500001D01*
X96494390Y-20500001D01*
X96514804Y-20785433D01*
X96575628Y-21065037D01*
X96575630Y-21065043D01*
X96575631Y-21065046D01*
X96674847Y-21331054D01*
X96675635Y-21333166D01*
X96812770Y-21584309D01*
X96812775Y-21584317D01*
X96984254Y-21813387D01*
X96984270Y-21813405D01*
X97186594Y-22015729D01*
X97186612Y-22015745D01*
X97415682Y-22187224D01*
X97415690Y-22187229D01*
X97666833Y-22324364D01*
X97666832Y-22324364D01*
X97666836Y-22324365D01*
X97666839Y-22324367D01*
X97934954Y-22424369D01*
X97934960Y-22424370D01*
X97934962Y-22424371D01*
X98214566Y-22485195D01*
X98214568Y-22485195D01*
X98214572Y-22485196D01*
X98468220Y-22503337D01*
X98499999Y-22505610D01*
X98500000Y-22505610D01*
X98500001Y-22505610D01*
X98528595Y-22503564D01*
X98785428Y-22485196D01*
X99065046Y-22424369D01*
X99333161Y-22324367D01*
X99584315Y-22187226D01*
X99813395Y-22015739D01*
X100015739Y-21813395D01*
X100187226Y-21584315D01*
X100324367Y-21333161D01*
X100424369Y-21065046D01*
X100485196Y-20785428D01*
X100505610Y-20500000D01*
X100485196Y-20214572D01*
X100474812Y-20166839D01*
X100424371Y-19934962D01*
X100424370Y-19934960D01*
X100424369Y-19934954D01*
X100324367Y-19666839D01*
X100244025Y-19519705D01*
X100187229Y-19415690D01*
X100187224Y-19415682D01*
X100015745Y-19186612D01*
X100015729Y-19186594D01*
X99813405Y-18984270D01*
X99813387Y-18984254D01*
X99584317Y-18812775D01*
X99584309Y-18812770D01*
X99333166Y-18675635D01*
X99333167Y-18675635D01*
X99225915Y-18635632D01*
X99065046Y-18575631D01*
X99065043Y-18575630D01*
X99065037Y-18575628D01*
X98785433Y-18514804D01*
X98500001Y-18494390D01*
X98499999Y-18494390D01*
X98214566Y-18514804D01*
X97934962Y-18575628D01*
X97666833Y-18675635D01*
X97415690Y-18812770D01*
X97415682Y-18812775D01*
X97186612Y-18984254D01*
X97186594Y-18984270D01*
X96984270Y-19186594D01*
X96984254Y-19186612D01*
X96812775Y-19415682D01*
X96812770Y-19415690D01*
X96675635Y-19666833D01*
X96575628Y-19934962D01*
X96514804Y-20214566D01*
X96494390Y-20499998D01*
X96494390Y-20500001D01*
X91000500Y-20500001D01*
X91000500Y-16124500D01*
X91020185Y-16057461D01*
X91072989Y-16011706D01*
X91124500Y-16000500D01*
X145567473Y-16000500D01*
X145634512Y-16020185D01*
G37*
%TD.AperFunction*%
%TA.AperFunction,Conductor*%
G36*
X189942539Y-16020185D02*
G01*
X189988294Y-16072989D01*
X189999500Y-16124500D01*
X189999500Y-29856790D01*
X189979815Y-29923829D01*
X189927011Y-29969584D01*
X189857853Y-29979528D01*
X189794297Y-29950503D01*
X189787819Y-29944471D01*
X180843349Y-21000001D01*
X182994390Y-21000001D01*
X183014804Y-21285433D01*
X183075628Y-21565037D01*
X183075630Y-21565043D01*
X183075631Y-21565046D01*
X183174847Y-21831054D01*
X183175635Y-21833166D01*
X183312770Y-22084309D01*
X183312775Y-22084317D01*
X183484254Y-22313387D01*
X183484270Y-22313405D01*
X183686594Y-22515729D01*
X183686612Y-22515745D01*
X183915682Y-22687224D01*
X183915690Y-22687229D01*
X184166833Y-22824364D01*
X184166832Y-22824364D01*
X184166836Y-22824365D01*
X184166839Y-22824367D01*
X184434954Y-22924369D01*
X184434960Y-22924370D01*
X184434962Y-22924371D01*
X184714566Y-22985195D01*
X184714568Y-22985195D01*
X184714572Y-22985196D01*
X184968220Y-23003337D01*
X184999999Y-23005610D01*
X185000000Y-23005610D01*
X185000001Y-23005610D01*
X185028595Y-23003564D01*
X185285428Y-22985196D01*
X185565046Y-22924369D01*
X185833161Y-22824367D01*
X186084315Y-22687226D01*
X186313395Y-22515739D01*
X186515739Y-22313395D01*
X186687226Y-22084315D01*
X186824367Y-21833161D01*
X186924369Y-21565046D01*
X186985196Y-21285428D01*
X187005610Y-21000000D01*
X186985196Y-20714572D01*
X186938518Y-20499998D01*
X186924371Y-20434962D01*
X186924370Y-20434960D01*
X186924369Y-20434954D01*
X186824367Y-20166839D01*
X186744025Y-20019705D01*
X186687229Y-19915690D01*
X186687224Y-19915682D01*
X186515745Y-19686612D01*
X186515729Y-19686594D01*
X186313405Y-19484270D01*
X186313387Y-19484254D01*
X186084317Y-19312775D01*
X186084309Y-19312770D01*
X185833166Y-19175635D01*
X185833167Y-19175635D01*
X185725915Y-19135632D01*
X185565046Y-19075631D01*
X185565043Y-19075630D01*
X185565037Y-19075628D01*
X185285433Y-19014804D01*
X185000001Y-18994390D01*
X184999999Y-18994390D01*
X184714566Y-19014804D01*
X184434962Y-19075628D01*
X184166833Y-19175635D01*
X183915690Y-19312770D01*
X183915682Y-19312775D01*
X183686612Y-19484254D01*
X183686594Y-19484270D01*
X183484270Y-19686594D01*
X183484254Y-19686612D01*
X183312775Y-19915682D01*
X183312770Y-19915690D01*
X183175635Y-20166833D01*
X183075628Y-20434962D01*
X183014804Y-20714566D01*
X182994390Y-20999998D01*
X182994390Y-21000001D01*
X180843349Y-21000001D01*
X176102517Y-16259169D01*
X176055214Y-16221447D01*
X176015073Y-16164259D01*
X176012223Y-16094448D01*
X176047568Y-16034178D01*
X176109887Y-16002584D01*
X176132526Y-16000500D01*
X189875500Y-16000500D01*
X189942539Y-16020185D01*
G37*
%TD.AperFunction*%
%TD*%
%TA.AperFunction,Conductor*%
%TO.N,/IO/Temp_MCU*%
G36*
X113198362Y-88603427D02*
G01*
X113201630Y-88609777D01*
X113297737Y-89186422D01*
X113295717Y-89195145D01*
X113288119Y-89199886D01*
X113286235Y-89200045D01*
X113000039Y-89200999D01*
X112999961Y-89200999D01*
X112713764Y-89200045D01*
X112705502Y-89196591D01*
X112702103Y-89188306D01*
X112702260Y-89186434D01*
X112798370Y-88609775D01*
X112803111Y-88602179D01*
X112809911Y-88600000D01*
X113190089Y-88600000D01*
X113198362Y-88603427D01*
G37*
%TD.AperFunction*%
%TD*%
%TA.AperFunction,Conductor*%
%TO.N,Net-(D2-K)*%
G36*
X156587306Y-27999978D02*
G01*
X156595572Y-28003419D01*
X156598985Y-28011697D01*
X156598945Y-28012650D01*
X156500894Y-29189272D01*
X156496792Y-29197232D01*
X156489234Y-29200000D01*
X155510766Y-29200000D01*
X155502493Y-29196573D01*
X155499106Y-29189272D01*
X155401054Y-28012650D01*
X155403782Y-28004120D01*
X155411742Y-28000018D01*
X155412674Y-27999978D01*
X156000000Y-27999000D01*
X156587306Y-27999978D01*
G37*
%TD.AperFunction*%
%TD*%
%TA.AperFunction,Conductor*%
%TO.N,Net-(D2-K)*%
G36*
X150002586Y-39305531D02*
G01*
X150694468Y-39997413D01*
X150697895Y-40005686D01*
X150695127Y-40013244D01*
X149932463Y-40914573D01*
X149924503Y-40918675D01*
X149915973Y-40915947D01*
X149915272Y-40915302D01*
X149499293Y-40500707D01*
X149499265Y-40500679D01*
X149084697Y-40084727D01*
X149081284Y-40076449D01*
X149084725Y-40068181D01*
X149085415Y-40067545D01*
X149986757Y-39304871D01*
X149995285Y-39302144D01*
X150002586Y-39305531D01*
G37*
%TD.AperFunction*%
%TD*%
M02*
