%TF.GenerationSoftware,KiCad,Pcbnew,8.0.0*%
%TF.CreationDate,2024-03-30T14:37:23+01:00*%
%TF.ProjectId,schematic-main,73636865-6d61-4746-9963-2d6d61696e2e,rev?*%
%TF.SameCoordinates,Original*%
%TF.FileFunction,Soldermask,Bot*%
%TF.FilePolarity,Negative*%
%FSLAX46Y46*%
G04 Gerber Fmt 4.6, Leading zero omitted, Abs format (unit mm)*
G04 Created by KiCad (PCBNEW 8.0.0) date 2024-03-30 14:37:23*
%MOMM*%
%LPD*%
G01*
G04 APERTURE LIST*
G04 Aperture macros list*
%AMRoundRect*
0 Rectangle with rounded corners*
0 $1 Rounding radius*
0 $2 $3 $4 $5 $6 $7 $8 $9 X,Y pos of 4 corners*
0 Add a 4 corners polygon primitive as box body*
4,1,4,$2,$3,$4,$5,$6,$7,$8,$9,$2,$3,0*
0 Add four circle primitives for the rounded corners*
1,1,$1+$1,$2,$3*
1,1,$1+$1,$4,$5*
1,1,$1+$1,$6,$7*
1,1,$1+$1,$8,$9*
0 Add four rect primitives between the rounded corners*
20,1,$1+$1,$2,$3,$4,$5,0*
20,1,$1+$1,$4,$5,$6,$7,0*
20,1,$1+$1,$6,$7,$8,$9,0*
20,1,$1+$1,$8,$9,$2,$3,0*%
G04 Aperture macros list end*
%ADD10R,1.700000X1.700000*%
%ADD11C,3.000000*%
%ADD12RoundRect,0.250001X1.599999X-1.099999X1.599999X1.099999X-1.599999X1.099999X-1.599999X-1.099999X0*%
%ADD13O,3.700000X2.700000*%
%ADD14RoundRect,0.250001X-1.599999X1.099999X-1.599999X-1.099999X1.599999X-1.099999X1.599999X1.099999X0*%
%ADD15C,2.280000*%
%ADD16C,2.850000*%
%ADD17R,2.300000X2.300000*%
%ADD18C,2.800000*%
%ADD19C,3.200000*%
%ADD20C,0.800000*%
%ADD21C,1.600000*%
%ADD22C,1.200000*%
%ADD23C,0.600000*%
G04 APERTURE END LIST*
D10*
%TO.C,TP9*%
X156400000Y-100000000D03*
%TD*%
D11*
%TO.C,J2*%
X97475000Y-107000000D03*
D12*
X104775000Y-107000000D03*
D13*
X110275000Y-107000000D03*
%TD*%
D10*
%TO.C,TP7*%
X94000000Y-45500000D03*
%TD*%
D11*
%TO.C,J1*%
X183525000Y-36000000D03*
D14*
X176225000Y-36000000D03*
D13*
X170725000Y-36000000D03*
%TD*%
D10*
%TO.C,TP1*%
X100900000Y-90400000D03*
%TD*%
D11*
%TO.C,J4*%
X97700000Y-53000000D03*
D12*
X105000000Y-53000000D03*
D13*
X110500000Y-53000000D03*
%TD*%
D10*
%TO.C,TP8*%
X161400000Y-100000000D03*
%TD*%
%TO.C,TP6*%
X99000000Y-45500000D03*
%TD*%
%TO.C,TP13*%
X106200000Y-101100000D03*
%TD*%
D11*
%TO.C,REF\u002A\u002A*%
X98500000Y-20500000D03*
%TD*%
D10*
%TO.C,TP5*%
X113200000Y-30900000D03*
%TD*%
%TO.C,TP1*%
X164500000Y-34500000D03*
%TD*%
D11*
%TO.C,J5*%
X183525000Y-86000000D03*
D14*
X176225000Y-86000000D03*
D13*
X170725000Y-86000000D03*
%TD*%
D10*
%TO.C,TP4*%
X118200000Y-30900000D03*
%TD*%
D11*
%TO.C,J6*%
X97700000Y-67800000D03*
D12*
X105000000Y-67800000D03*
D13*
X110500000Y-67800000D03*
%TD*%
D10*
%TO.C,TP3*%
X101200000Y-75000000D03*
%TD*%
D11*
%TO.C,REF\u002A\u002A*%
X185000000Y-21000000D03*
%TD*%
D15*
%TO.C,P1*%
X135380000Y-109800000D03*
D16*
X135380000Y-113800000D03*
D15*
X146620000Y-109800000D03*
D16*
X146620000Y-113800000D03*
%TD*%
D11*
%TO.C,J3*%
X183987100Y-111984250D03*
X183987100Y-103584250D03*
D17*
X176687100Y-103584250D03*
D18*
X176687100Y-107784250D03*
X176687100Y-111984250D03*
%TD*%
D19*
%TO.C,J7*%
X180425000Y-47100000D03*
X180425000Y-72900000D03*
D14*
X176225000Y-51600000D03*
D13*
X176225000Y-55800000D03*
X176225000Y-60000000D03*
X176225000Y-64200000D03*
X176225000Y-68400000D03*
X170725000Y-51600000D03*
X170725000Y-55800000D03*
X170725000Y-60000000D03*
X170725000Y-64200000D03*
X170725000Y-68400000D03*
%TD*%
D11*
%TO.C,REF\u002A\u002A*%
X162300000Y-109300000D03*
%TD*%
D10*
%TO.C,TP2*%
X100900000Y-94600000D03*
%TD*%
%TO.C,TP2*%
X96200000Y-75000000D03*
%TD*%
%TO.C,TP12*%
X102200000Y-98600000D03*
%TD*%
D20*
X119700000Y-43600000D03*
X112000000Y-91650000D03*
D21*
X112700000Y-103700000D03*
X115400000Y-17400000D03*
X166900000Y-45200000D03*
X159100000Y-109900000D03*
X136500000Y-17500000D03*
X125900000Y-17400000D03*
X184500000Y-17500000D03*
X182400000Y-96600000D03*
X134000000Y-99400000D03*
X121500000Y-98500000D03*
D22*
X117800000Y-86300000D03*
D21*
X157100000Y-109900000D03*
X111400000Y-17400000D03*
X142600000Y-80100000D03*
X107400000Y-17400000D03*
X93200000Y-23500000D03*
X166900000Y-41200000D03*
X159100000Y-113900000D03*
X182500000Y-17500000D03*
X157200000Y-41900000D03*
X103400000Y-17400000D03*
X182900000Y-61100000D03*
X138500000Y-17500000D03*
X145500000Y-57100000D03*
X94600000Y-40900000D03*
X180500000Y-17500000D03*
X95200000Y-17400000D03*
D20*
X126300000Y-35900000D03*
D21*
X167800000Y-109800000D03*
X180400000Y-99200000D03*
X174900000Y-41100000D03*
X127900000Y-17400000D03*
X143500000Y-55100000D03*
X95600000Y-64000000D03*
X133900000Y-65800000D03*
X112500000Y-76000000D03*
X126200000Y-102800000D03*
X130400000Y-99300000D03*
X105400000Y-17400000D03*
X174400000Y-99200000D03*
X132500000Y-17500000D03*
D20*
X132800000Y-107500000D03*
D21*
X95200000Y-23500000D03*
X148600000Y-73900000D03*
X148200000Y-97200000D03*
X112500000Y-78000000D03*
D20*
X118500000Y-47500000D03*
D21*
X121500000Y-73500000D03*
X188700000Y-96500000D03*
X92600000Y-40900000D03*
X135900000Y-63800000D03*
X188700000Y-109100000D03*
X188700000Y-102800000D03*
X132000000Y-97400000D03*
X123900000Y-102800000D03*
X140018019Y-86597919D03*
X135900000Y-65800000D03*
X178400000Y-96600000D03*
X159200000Y-55900000D03*
X104400000Y-85500000D03*
X137900000Y-63800000D03*
D22*
X121000000Y-86400000D03*
D21*
X188700000Y-94100000D03*
X162500000Y-105800000D03*
D20*
X101000000Y-29000000D03*
D21*
X95600000Y-56000000D03*
D22*
X149600000Y-31700000D03*
D21*
X188700000Y-106800000D03*
D20*
X112000000Y-93550000D03*
D21*
X170900000Y-41200000D03*
D20*
X117500000Y-45500000D03*
D21*
X106300000Y-88500000D03*
X133900000Y-61800000D03*
X188700000Y-100500000D03*
X176400000Y-99200000D03*
X170900000Y-43200000D03*
X135900000Y-61800000D03*
X93300000Y-20600000D03*
X121500000Y-100700000D03*
X101900000Y-110900000D03*
X97300000Y-110900000D03*
X160500000Y-105800000D03*
D22*
X121100000Y-88100000D03*
D21*
X121600000Y-102800000D03*
X147100000Y-75200000D03*
D20*
X118500000Y-44500000D03*
D21*
X182900000Y-59100000D03*
X180400000Y-96600000D03*
D22*
X118000000Y-89700000D03*
X119600000Y-89700000D03*
D21*
X165800000Y-113800000D03*
X157200000Y-39900000D03*
X165800000Y-111800000D03*
X113400000Y-17400000D03*
X158100000Y-64400000D03*
X135800000Y-97500000D03*
X104300000Y-88500000D03*
X142600000Y-80100000D03*
X172900000Y-41100000D03*
X123200000Y-63400000D03*
D20*
X117500000Y-46500000D03*
D21*
X127200000Y-63400000D03*
X188700000Y-113100000D03*
X176900000Y-41100000D03*
X95300000Y-20600000D03*
D22*
X119400000Y-86300000D03*
D21*
X155400000Y-88700000D03*
X98600000Y-40900000D03*
X188700000Y-90100000D03*
D20*
X126300000Y-111900000D03*
X131800000Y-108500000D03*
D21*
X125200000Y-63400000D03*
X134500000Y-17500000D03*
X174900000Y-45100000D03*
D20*
X102000000Y-27000000D03*
D21*
X123800000Y-100700000D03*
X109400000Y-17400000D03*
X184500000Y-75000000D03*
X95600000Y-60000000D03*
X182900000Y-65100000D03*
X158500000Y-27400000D03*
X121500000Y-71500000D03*
X145600000Y-97200000D03*
X165800000Y-109800000D03*
X144175000Y-78525000D03*
X188700000Y-111100000D03*
X186500000Y-17500000D03*
X188700000Y-104800000D03*
X157100000Y-111900000D03*
X137900000Y-65800000D03*
D20*
X118500000Y-45500000D03*
D21*
X184500000Y-71000000D03*
D22*
X121200000Y-89800000D03*
D21*
X172900000Y-43100000D03*
D20*
X120700000Y-42600000D03*
X117500000Y-44500000D03*
D21*
X123900000Y-17400000D03*
D20*
X101000000Y-28000000D03*
X116500000Y-45500000D03*
D21*
X182400000Y-99200000D03*
X123400000Y-72500000D03*
X182900000Y-57100000D03*
X188700000Y-98500000D03*
X168900000Y-45200000D03*
X176900000Y-43100000D03*
D20*
X112900000Y-92650000D03*
D21*
X176400000Y-96600000D03*
X170900000Y-45200000D03*
X128600000Y-97200000D03*
X143500000Y-57100000D03*
D22*
X117900000Y-88000000D03*
D21*
X145500000Y-55100000D03*
X188700000Y-92100000D03*
X123400000Y-70500000D03*
D20*
X101000000Y-27000000D03*
D21*
X102400000Y-85500000D03*
X167800000Y-111800000D03*
D20*
X112900000Y-91650000D03*
D22*
X119500000Y-88000000D03*
D21*
X182900000Y-63100000D03*
X159900000Y-62600000D03*
X101200000Y-23500000D03*
D20*
X102000000Y-29000000D03*
D21*
X168900000Y-41200000D03*
D20*
X117500000Y-47500000D03*
D21*
X130500000Y-17500000D03*
X184500000Y-73000000D03*
X110400000Y-103700000D03*
D20*
X116500000Y-47500000D03*
D21*
X145400000Y-76900000D03*
D20*
X112000000Y-92650000D03*
D21*
X96600000Y-40900000D03*
X150100000Y-72600000D03*
X137900000Y-61800000D03*
D20*
X127300000Y-111900000D03*
D21*
X178400000Y-99200000D03*
D20*
X112900000Y-93550000D03*
D21*
X172900000Y-45100000D03*
D20*
X118500000Y-46500000D03*
X102000000Y-28000000D03*
D21*
X174400000Y-96600000D03*
X99200000Y-23500000D03*
X119900000Y-17400000D03*
X121900000Y-17400000D03*
X166900000Y-43200000D03*
X152800000Y-88700000D03*
X159100000Y-111900000D03*
X157100000Y-113900000D03*
X184500000Y-67000000D03*
X117400000Y-17400000D03*
X168900000Y-43200000D03*
X95600000Y-58000000D03*
D20*
X126300000Y-34900000D03*
D21*
X99600000Y-110900000D03*
X137500000Y-99400000D03*
X97200000Y-23500000D03*
X133900000Y-63800000D03*
X108100000Y-103700000D03*
D20*
X116500000Y-46500000D03*
D21*
X156300000Y-66000000D03*
X167800000Y-113800000D03*
X184500000Y-69000000D03*
X188500000Y-17500000D03*
X93200000Y-17400000D03*
X174900000Y-43100000D03*
X164500000Y-105800000D03*
X176900000Y-45100000D03*
X95600000Y-62000000D03*
X188500000Y-75800000D03*
X188500000Y-77800000D03*
X188500000Y-57400000D03*
X135800000Y-27700000D03*
X188500000Y-55400000D03*
X139000000Y-27700000D03*
X129700000Y-27700000D03*
X123800000Y-29200000D03*
X188500000Y-59400000D03*
X188500000Y-53400000D03*
X188500000Y-51400000D03*
X132900000Y-27700000D03*
X126800000Y-27700000D03*
X120900000Y-29200000D03*
D20*
X99500000Y-34500000D03*
X99500000Y-35500000D03*
X99500000Y-31500000D03*
X99500000Y-36500000D03*
X98000000Y-33500000D03*
X98000000Y-31500000D03*
X98000000Y-32500000D03*
X98000000Y-36500000D03*
X99500000Y-33500000D03*
X98000000Y-34500000D03*
X99500000Y-32500000D03*
X98000000Y-35500000D03*
D21*
X166140105Y-58193309D03*
D20*
X115407107Y-84107107D03*
D21*
X163400000Y-71400000D03*
X141000000Y-59900000D03*
D23*
X140800000Y-100800000D03*
D21*
X125600000Y-57300000D03*
X122000000Y-57300000D03*
D23*
X152600000Y-100800000D03*
D21*
X127500000Y-57300000D03*
X130300000Y-106800000D03*
X102400000Y-82100000D03*
D20*
X128100000Y-79300000D03*
D21*
X123800000Y-57300000D03*
X100700000Y-80400000D03*
X156000000Y-105400000D03*
D20*
X159600000Y-87800000D03*
D23*
X127900000Y-93500000D03*
X111100000Y-88100000D03*
X124600000Y-105800000D03*
X118600000Y-105600000D03*
X110100000Y-87500000D03*
D20*
X117500000Y-42000000D03*
X117500000Y-41000000D03*
X118500000Y-41000000D03*
X119500000Y-40000000D03*
X116500000Y-42000000D03*
X117500000Y-40000000D03*
X116500000Y-41000000D03*
X119500000Y-41000000D03*
X116500000Y-40000000D03*
X118500000Y-40000000D03*
X118500000Y-42000000D03*
X123000000Y-45000000D03*
X122000000Y-45000000D03*
X122000000Y-44000000D03*
X127100000Y-46500000D03*
X127100000Y-45500000D03*
X123000000Y-44000000D03*
X123000000Y-43000000D03*
X124000000Y-45000000D03*
X124000000Y-44000000D03*
D23*
X128250000Y-39900000D03*
X125743108Y-40256892D03*
D22*
X149500000Y-40500000D03*
X156000000Y-28000000D03*
D23*
X112100000Y-88700000D03*
X150800000Y-101900000D03*
X119514320Y-83414320D03*
X127100000Y-82500000D03*
D20*
X131500000Y-80800000D03*
D23*
X131200000Y-92900000D03*
D20*
X158200000Y-77500000D03*
X165050000Y-51750000D03*
D23*
X113000000Y-89200000D03*
X162438000Y-57600000D03*
X113850000Y-89600000D03*
D20*
X161900000Y-51500000D03*
D23*
X114765774Y-89465774D03*
D20*
X156600000Y-57700000D03*
D21*
X166400000Y-72700000D03*
D20*
X125300000Y-85100000D03*
X131200000Y-82400000D03*
D23*
X132450000Y-91500000D03*
X161800000Y-67900000D03*
X134800000Y-90900000D03*
X163800000Y-64300000D03*
X155500000Y-85700000D03*
X165900000Y-84700000D03*
X148200000Y-57700000D03*
D20*
X143800000Y-107400000D03*
D22*
X132800000Y-111000000D03*
D21*
X105150000Y-38750000D03*
M02*
