%TF.GenerationSoftware,KiCad,Pcbnew,8.0.0*%
%TF.CreationDate,2024-03-30T14:36:58+01:00*%
%TF.ProjectId,schematic-main,73636865-6d61-4746-9963-2d6d61696e2e,rev?*%
%TF.SameCoordinates,Original*%
%TF.FileFunction,Drillmap*%
%TF.FilePolarity,Positive*%
%FSLAX45Y45*%
G04 Gerber Fmt 4.5, Leading zero omitted, Abs format (unit mm)*
G04 Created by KiCad (PCBNEW 8.0.0) date 2024-03-30 14:36:58*
%MOMM*%
%LPD*%
G01*
G04 APERTURE LIST*
%ADD10C,0.050000*%
%ADD11C,0.200000*%
%ADD12C,0.100000*%
%ADD13C,0.152000*%
%ADD14C,0.180000*%
%ADD15C,0.190000*%
G04 APERTURE END LIST*
D10*
X14550000Y-11550000D02*
X14550000Y-10950000D01*
X9050000Y-11550000D02*
X13650000Y-11550000D01*
X9050000Y-1550000D02*
X9050000Y-11550000D01*
X14550000Y-10950000D02*
X13650000Y-10950000D01*
X19050000Y-11550000D02*
X19050000Y-1550000D01*
X19050000Y-1550000D02*
X9050000Y-1550000D01*
X14550000Y-11550000D02*
X19050000Y-11550000D01*
X13650000Y-10950000D02*
X13650000Y-11550000D01*
D11*
D12*
X10995000Y-8735000D02*
X11025000Y-8765000D01*
X11025000Y-8735000D02*
X10995000Y-8765000D01*
X11095000Y-8795000D02*
X11125000Y-8825000D01*
X11125000Y-8795000D02*
X11095000Y-8825000D01*
X11195000Y-8855000D02*
X11225000Y-8885000D01*
X11225000Y-8855000D02*
X11195000Y-8885000D01*
X11285000Y-8905000D02*
X11315000Y-8935000D01*
X11315000Y-8905000D02*
X11285000Y-8935000D01*
X11370000Y-8945000D02*
X11400000Y-8975000D01*
X11400000Y-8945000D02*
X11370000Y-8975000D01*
X11461577Y-8931577D02*
X11491577Y-8961577D01*
X11491577Y-8931577D02*
X11461577Y-8961577D01*
X11845000Y-10545000D02*
X11875000Y-10575000D01*
X11875000Y-10545000D02*
X11845000Y-10575000D01*
X11936432Y-8326432D02*
X11966432Y-8356432D01*
X11966432Y-8326432D02*
X11936432Y-8356432D01*
X12445000Y-10565000D02*
X12475000Y-10595000D01*
X12475000Y-10565000D02*
X12445000Y-10595000D01*
X12559311Y-4010689D02*
X12589311Y-4040689D01*
X12589311Y-4010689D02*
X12559311Y-4040689D01*
X12695000Y-8235000D02*
X12725000Y-8265000D01*
X12725000Y-8235000D02*
X12695000Y-8265000D01*
X12775000Y-9335000D02*
X12805000Y-9365000D01*
X12805000Y-9335000D02*
X12775000Y-9365000D01*
X12810000Y-3975000D02*
X12840000Y-4005000D01*
X12840000Y-3975000D02*
X12810000Y-4005000D01*
X13105000Y-9275000D02*
X13135000Y-9305000D01*
X13135000Y-9275000D02*
X13105000Y-9305000D01*
X13230000Y-9135000D02*
X13260000Y-9165000D01*
X13260000Y-9135000D02*
X13230000Y-9165000D01*
X13465000Y-9075000D02*
X13495000Y-9105000D01*
X13495000Y-9075000D02*
X13465000Y-9105000D01*
X14065000Y-10065000D02*
X14095000Y-10095000D01*
X14095000Y-10065000D02*
X14065000Y-10095000D01*
X14805000Y-5755000D02*
X14835000Y-5785000D01*
X14835000Y-5755000D02*
X14805000Y-5785000D01*
X15065000Y-10175000D02*
X15095000Y-10205000D01*
X15095000Y-10175000D02*
X15065000Y-10205000D01*
X15245000Y-10065000D02*
X15275000Y-10095000D01*
X15275000Y-10065000D02*
X15245000Y-10095000D01*
X15535000Y-8555000D02*
X15565000Y-8585000D01*
X15565000Y-8555000D02*
X15535000Y-8585000D01*
X16165000Y-6775000D02*
X16195000Y-6805000D01*
X16195000Y-6775000D02*
X16165000Y-6805000D01*
X16228800Y-5745000D02*
X16258800Y-5775000D01*
X16258800Y-5745000D02*
X16228800Y-5775000D01*
X16365000Y-6415000D02*
X16395000Y-6445000D01*
X16395000Y-6415000D02*
X16365000Y-6445000D01*
X16575000Y-8455000D02*
X16605000Y-8485000D01*
X16605000Y-8455000D02*
X16575000Y-8485000D01*
X9820000Y-3150000D02*
G75*
G02*
X9780000Y-3150000I-20000J0D01*
G01*
X9780000Y-3150000D02*
G75*
G02*
X9820000Y-3150000I20000J0D01*
G01*
X9820000Y-3250000D02*
G75*
G02*
X9780000Y-3250000I-20000J0D01*
G01*
X9780000Y-3250000D02*
G75*
G02*
X9820000Y-3250000I20000J0D01*
G01*
X9820000Y-3350000D02*
G75*
G02*
X9780000Y-3350000I-20000J0D01*
G01*
X9780000Y-3350000D02*
G75*
G02*
X9820000Y-3350000I20000J0D01*
G01*
X9820000Y-3450000D02*
G75*
G02*
X9780000Y-3450000I-20000J0D01*
G01*
X9780000Y-3450000D02*
G75*
G02*
X9820000Y-3450000I20000J0D01*
G01*
X9820000Y-3550000D02*
G75*
G02*
X9780000Y-3550000I-20000J0D01*
G01*
X9780000Y-3550000D02*
G75*
G02*
X9820000Y-3550000I20000J0D01*
G01*
X9820000Y-3650000D02*
G75*
G02*
X9780000Y-3650000I-20000J0D01*
G01*
X9780000Y-3650000D02*
G75*
G02*
X9820000Y-3650000I20000J0D01*
G01*
X9970000Y-3150000D02*
G75*
G02*
X9930000Y-3150000I-20000J0D01*
G01*
X9930000Y-3150000D02*
G75*
G02*
X9970000Y-3150000I20000J0D01*
G01*
X9970000Y-3250000D02*
G75*
G02*
X9930000Y-3250000I-20000J0D01*
G01*
X9930000Y-3250000D02*
G75*
G02*
X9970000Y-3250000I20000J0D01*
G01*
X9970000Y-3350000D02*
G75*
G02*
X9930000Y-3350000I-20000J0D01*
G01*
X9930000Y-3350000D02*
G75*
G02*
X9970000Y-3350000I20000J0D01*
G01*
X9970000Y-3450000D02*
G75*
G02*
X9930000Y-3450000I-20000J0D01*
G01*
X9930000Y-3450000D02*
G75*
G02*
X9970000Y-3450000I20000J0D01*
G01*
X9970000Y-3550000D02*
G75*
G02*
X9930000Y-3550000I-20000J0D01*
G01*
X9930000Y-3550000D02*
G75*
G02*
X9970000Y-3550000I20000J0D01*
G01*
X9970000Y-3650000D02*
G75*
G02*
X9930000Y-3650000I-20000J0D01*
G01*
X9930000Y-3650000D02*
G75*
G02*
X9970000Y-3650000I20000J0D01*
G01*
X10120000Y-2700000D02*
G75*
G02*
X10080000Y-2700000I-20000J0D01*
G01*
X10080000Y-2700000D02*
G75*
G02*
X10120000Y-2700000I20000J0D01*
G01*
X10120000Y-2800000D02*
G75*
G02*
X10080000Y-2800000I-20000J0D01*
G01*
X10080000Y-2800000D02*
G75*
G02*
X10120000Y-2800000I20000J0D01*
G01*
X10120000Y-2900000D02*
G75*
G02*
X10080000Y-2900000I-20000J0D01*
G01*
X10080000Y-2900000D02*
G75*
G02*
X10120000Y-2900000I20000J0D01*
G01*
X10220000Y-2700000D02*
G75*
G02*
X10180000Y-2700000I-20000J0D01*
G01*
X10180000Y-2700000D02*
G75*
G02*
X10220000Y-2700000I20000J0D01*
G01*
X10220000Y-2800000D02*
G75*
G02*
X10180000Y-2800000I-20000J0D01*
G01*
X10180000Y-2800000D02*
G75*
G02*
X10220000Y-2800000I20000J0D01*
G01*
X10220000Y-2900000D02*
G75*
G02*
X10180000Y-2900000I-20000J0D01*
G01*
X10180000Y-2900000D02*
G75*
G02*
X10220000Y-2900000I20000J0D01*
G01*
X11220000Y-9165000D02*
G75*
G02*
X11180000Y-9165000I-20000J0D01*
G01*
X11180000Y-9165000D02*
G75*
G02*
X11220000Y-9165000I20000J0D01*
G01*
X11220000Y-9265000D02*
G75*
G02*
X11180000Y-9265000I-20000J0D01*
G01*
X11180000Y-9265000D02*
G75*
G02*
X11220000Y-9265000I20000J0D01*
G01*
X11220000Y-9355000D02*
G75*
G02*
X11180000Y-9355000I-20000J0D01*
G01*
X11180000Y-9355000D02*
G75*
G02*
X11220000Y-9355000I20000J0D01*
G01*
X11310000Y-9165000D02*
G75*
G02*
X11270000Y-9165000I-20000J0D01*
G01*
X11270000Y-9165000D02*
G75*
G02*
X11310000Y-9165000I20000J0D01*
G01*
X11310000Y-9265000D02*
G75*
G02*
X11270000Y-9265000I-20000J0D01*
G01*
X11270000Y-9265000D02*
G75*
G02*
X11310000Y-9265000I20000J0D01*
G01*
X11310000Y-9355000D02*
G75*
G02*
X11270000Y-9355000I-20000J0D01*
G01*
X11270000Y-9355000D02*
G75*
G02*
X11310000Y-9355000I20000J0D01*
G01*
X11560711Y-8410711D02*
G75*
G02*
X11520711Y-8410711I-20000J0D01*
G01*
X11520711Y-8410711D02*
G75*
G02*
X11560711Y-8410711I20000J0D01*
G01*
X11670000Y-4000000D02*
G75*
G02*
X11630000Y-4000000I-20000J0D01*
G01*
X11630000Y-4000000D02*
G75*
G02*
X11670000Y-4000000I20000J0D01*
G01*
X11670000Y-4100000D02*
G75*
G02*
X11630000Y-4100000I-20000J0D01*
G01*
X11630000Y-4100000D02*
G75*
G02*
X11670000Y-4100000I20000J0D01*
G01*
X11670000Y-4200000D02*
G75*
G02*
X11630000Y-4200000I-20000J0D01*
G01*
X11630000Y-4200000D02*
G75*
G02*
X11670000Y-4200000I20000J0D01*
G01*
X11670000Y-4550000D02*
G75*
G02*
X11630000Y-4550000I-20000J0D01*
G01*
X11630000Y-4550000D02*
G75*
G02*
X11670000Y-4550000I20000J0D01*
G01*
X11670000Y-4650000D02*
G75*
G02*
X11630000Y-4650000I-20000J0D01*
G01*
X11630000Y-4650000D02*
G75*
G02*
X11670000Y-4650000I20000J0D01*
G01*
X11670000Y-4750000D02*
G75*
G02*
X11630000Y-4750000I-20000J0D01*
G01*
X11630000Y-4750000D02*
G75*
G02*
X11670000Y-4750000I20000J0D01*
G01*
X11770000Y-4000000D02*
G75*
G02*
X11730000Y-4000000I-20000J0D01*
G01*
X11730000Y-4000000D02*
G75*
G02*
X11770000Y-4000000I20000J0D01*
G01*
X11770000Y-4100000D02*
G75*
G02*
X11730000Y-4100000I-20000J0D01*
G01*
X11730000Y-4100000D02*
G75*
G02*
X11770000Y-4100000I20000J0D01*
G01*
X11770000Y-4200000D02*
G75*
G02*
X11730000Y-4200000I-20000J0D01*
G01*
X11730000Y-4200000D02*
G75*
G02*
X11770000Y-4200000I20000J0D01*
G01*
X11770000Y-4450000D02*
G75*
G02*
X11730000Y-4450000I-20000J0D01*
G01*
X11730000Y-4450000D02*
G75*
G02*
X11770000Y-4450000I20000J0D01*
G01*
X11770000Y-4550000D02*
G75*
G02*
X11730000Y-4550000I-20000J0D01*
G01*
X11730000Y-4550000D02*
G75*
G02*
X11770000Y-4550000I20000J0D01*
G01*
X11770000Y-4650000D02*
G75*
G02*
X11730000Y-4650000I-20000J0D01*
G01*
X11730000Y-4650000D02*
G75*
G02*
X11770000Y-4650000I20000J0D01*
G01*
X11770000Y-4750000D02*
G75*
G02*
X11730000Y-4750000I-20000J0D01*
G01*
X11730000Y-4750000D02*
G75*
G02*
X11770000Y-4750000I20000J0D01*
G01*
X11870000Y-4000000D02*
G75*
G02*
X11830000Y-4000000I-20000J0D01*
G01*
X11830000Y-4000000D02*
G75*
G02*
X11870000Y-4000000I20000J0D01*
G01*
X11870000Y-4100000D02*
G75*
G02*
X11830000Y-4100000I-20000J0D01*
G01*
X11830000Y-4100000D02*
G75*
G02*
X11870000Y-4100000I20000J0D01*
G01*
X11870000Y-4200000D02*
G75*
G02*
X11830000Y-4200000I-20000J0D01*
G01*
X11830000Y-4200000D02*
G75*
G02*
X11870000Y-4200000I20000J0D01*
G01*
X11870000Y-4450000D02*
G75*
G02*
X11830000Y-4450000I-20000J0D01*
G01*
X11830000Y-4450000D02*
G75*
G02*
X11870000Y-4450000I20000J0D01*
G01*
X11870000Y-4550000D02*
G75*
G02*
X11830000Y-4550000I-20000J0D01*
G01*
X11830000Y-4550000D02*
G75*
G02*
X11870000Y-4550000I20000J0D01*
G01*
X11870000Y-4650000D02*
G75*
G02*
X11830000Y-4650000I-20000J0D01*
G01*
X11830000Y-4650000D02*
G75*
G02*
X11870000Y-4650000I20000J0D01*
G01*
X11870000Y-4750000D02*
G75*
G02*
X11830000Y-4750000I-20000J0D01*
G01*
X11830000Y-4750000D02*
G75*
G02*
X11870000Y-4750000I20000J0D01*
G01*
X11970000Y-4000000D02*
G75*
G02*
X11930000Y-4000000I-20000J0D01*
G01*
X11930000Y-4000000D02*
G75*
G02*
X11970000Y-4000000I20000J0D01*
G01*
X11970000Y-4100000D02*
G75*
G02*
X11930000Y-4100000I-20000J0D01*
G01*
X11930000Y-4100000D02*
G75*
G02*
X11970000Y-4100000I20000J0D01*
G01*
X11990000Y-4360000D02*
G75*
G02*
X11950000Y-4360000I-20000J0D01*
G01*
X11950000Y-4360000D02*
G75*
G02*
X11990000Y-4360000I20000J0D01*
G01*
X12090000Y-4260000D02*
G75*
G02*
X12050000Y-4260000I-20000J0D01*
G01*
X12050000Y-4260000D02*
G75*
G02*
X12090000Y-4260000I20000J0D01*
G01*
X12220000Y-4400000D02*
G75*
G02*
X12180000Y-4400000I-20000J0D01*
G01*
X12180000Y-4400000D02*
G75*
G02*
X12220000Y-4400000I20000J0D01*
G01*
X12220000Y-4500000D02*
G75*
G02*
X12180000Y-4500000I-20000J0D01*
G01*
X12180000Y-4500000D02*
G75*
G02*
X12220000Y-4500000I20000J0D01*
G01*
X12320000Y-4300000D02*
G75*
G02*
X12280000Y-4300000I-20000J0D01*
G01*
X12280000Y-4300000D02*
G75*
G02*
X12320000Y-4300000I20000J0D01*
G01*
X12320000Y-4400000D02*
G75*
G02*
X12280000Y-4400000I-20000J0D01*
G01*
X12280000Y-4400000D02*
G75*
G02*
X12320000Y-4400000I20000J0D01*
G01*
X12320000Y-4500000D02*
G75*
G02*
X12280000Y-4500000I-20000J0D01*
G01*
X12280000Y-4500000D02*
G75*
G02*
X12320000Y-4500000I20000J0D01*
G01*
X12420000Y-4400000D02*
G75*
G02*
X12380000Y-4400000I-20000J0D01*
G01*
X12380000Y-4400000D02*
G75*
G02*
X12420000Y-4400000I20000J0D01*
G01*
X12420000Y-4500000D02*
G75*
G02*
X12380000Y-4500000I-20000J0D01*
G01*
X12380000Y-4500000D02*
G75*
G02*
X12420000Y-4500000I20000J0D01*
G01*
X12550000Y-8510000D02*
G75*
G02*
X12510000Y-8510000I-20000J0D01*
G01*
X12510000Y-8510000D02*
G75*
G02*
X12550000Y-8510000I20000J0D01*
G01*
X12650000Y-3490000D02*
G75*
G02*
X12610000Y-3490000I-20000J0D01*
G01*
X12610000Y-3490000D02*
G75*
G02*
X12650000Y-3490000I20000J0D01*
G01*
X12650000Y-3590000D02*
G75*
G02*
X12610000Y-3590000I-20000J0D01*
G01*
X12610000Y-3590000D02*
G75*
G02*
X12650000Y-3590000I20000J0D01*
G01*
X12650000Y-11190000D02*
G75*
G02*
X12610000Y-11190000I-20000J0D01*
G01*
X12610000Y-11190000D02*
G75*
G02*
X12650000Y-11190000I20000J0D01*
G01*
X12730000Y-4550000D02*
G75*
G02*
X12690000Y-4550000I-20000J0D01*
G01*
X12690000Y-4550000D02*
G75*
G02*
X12730000Y-4550000I20000J0D01*
G01*
X12730000Y-4650000D02*
G75*
G02*
X12690000Y-4650000I-20000J0D01*
G01*
X12690000Y-4650000D02*
G75*
G02*
X12730000Y-4650000I20000J0D01*
G01*
X12750000Y-11190000D02*
G75*
G02*
X12710000Y-11190000I-20000J0D01*
G01*
X12710000Y-11190000D02*
G75*
G02*
X12750000Y-11190000I20000J0D01*
G01*
X12830000Y-7930000D02*
G75*
G02*
X12790000Y-7930000I-20000J0D01*
G01*
X12790000Y-7930000D02*
G75*
G02*
X12830000Y-7930000I20000J0D01*
G01*
X13140000Y-8240000D02*
G75*
G02*
X13100000Y-8240000I-20000J0D01*
G01*
X13100000Y-8240000D02*
G75*
G02*
X13140000Y-8240000I20000J0D01*
G01*
X13170000Y-8080000D02*
G75*
G02*
X13130000Y-8080000I-20000J0D01*
G01*
X13130000Y-8080000D02*
G75*
G02*
X13170000Y-8080000I20000J0D01*
G01*
X13200000Y-10850000D02*
G75*
G02*
X13160000Y-10850000I-20000J0D01*
G01*
X13160000Y-10850000D02*
G75*
G02*
X13200000Y-10850000I20000J0D01*
G01*
X13300000Y-10750000D02*
G75*
G02*
X13260000Y-10750000I-20000J0D01*
G01*
X13260000Y-10750000D02*
G75*
G02*
X13300000Y-10750000I20000J0D01*
G01*
X14400000Y-10740000D02*
G75*
G02*
X14360000Y-10740000I-20000J0D01*
G01*
X14360000Y-10740000D02*
G75*
G02*
X14400000Y-10740000I20000J0D01*
G01*
X15680000Y-5770000D02*
G75*
G02*
X15640000Y-5770000I-20000J0D01*
G01*
X15640000Y-5770000D02*
G75*
G02*
X15680000Y-5770000I20000J0D01*
G01*
X15840000Y-7750000D02*
G75*
G02*
X15800000Y-7750000I-20000J0D01*
G01*
X15800000Y-7750000D02*
G75*
G02*
X15840000Y-7750000I20000J0D01*
G01*
X15980000Y-8780000D02*
G75*
G02*
X15940000Y-8780000I-20000J0D01*
G01*
X15940000Y-8780000D02*
G75*
G02*
X15980000Y-8780000I20000J0D01*
G01*
X16210000Y-5150000D02*
G75*
G02*
X16170000Y-5150000I-20000J0D01*
G01*
X16170000Y-5150000D02*
G75*
G02*
X16210000Y-5150000I20000J0D01*
G01*
X16525000Y-5175000D02*
G75*
G02*
X16485000Y-5175000I-20000J0D01*
G01*
X16485000Y-5175000D02*
G75*
G02*
X16525000Y-5175000I20000J0D01*
G01*
X11780000Y-8600000D02*
X11780000Y-8660000D01*
X11750000Y-8630000D02*
X11810000Y-8630000D01*
X11790000Y-8770000D02*
X11790000Y-8830000D01*
X11760000Y-8800000D02*
X11820000Y-8800000D01*
X11800000Y-8940000D02*
X11800000Y-9000000D01*
X11770000Y-8970000D02*
X11830000Y-8970000D01*
X11940000Y-8600000D02*
X11940000Y-8660000D01*
X11910000Y-8630000D02*
X11970000Y-8630000D01*
X11950000Y-8770000D02*
X11950000Y-8830000D01*
X11920000Y-8800000D02*
X11980000Y-8800000D01*
X11960000Y-8940000D02*
X11960000Y-9000000D01*
X11930000Y-8970000D02*
X11990000Y-8970000D01*
X12100000Y-8610000D02*
X12100000Y-8670000D01*
X12070000Y-8640000D02*
X12130000Y-8640000D01*
X12110000Y-8780000D02*
X12110000Y-8840000D01*
X12080000Y-8810000D02*
X12140000Y-8810000D01*
X12120000Y-8950000D02*
X12120000Y-9010000D01*
X12090000Y-8980000D02*
X12150000Y-8980000D01*
X13280000Y-11070000D02*
X13280000Y-11130000D01*
X13250000Y-11100000D02*
X13310000Y-11100000D01*
X14950000Y-4020000D02*
X14950000Y-4080000D01*
X14920000Y-4050000D02*
X14980000Y-4050000D01*
X14960000Y-3140000D02*
X14960000Y-3200000D01*
X14930000Y-3170000D02*
X14990000Y-3170000D01*
X15600000Y-2770000D02*
X15600000Y-2830000D01*
X15570000Y-2800000D02*
X15630000Y-2800000D01*
X9288285Y-4118284D02*
X9288285Y-4061715D01*
X9231716Y-4061715D01*
X9231716Y-4118284D01*
X9288285Y-4118284D01*
X9348285Y-1768284D02*
X9348285Y-1711715D01*
X9291716Y-1711715D01*
X9291716Y-1768284D01*
X9348285Y-1768284D01*
X9348285Y-2378285D02*
X9348285Y-2321716D01*
X9291716Y-2321716D01*
X9291716Y-2378285D01*
X9348285Y-2378285D01*
X9358285Y-2088284D02*
X9358285Y-2031715D01*
X9301716Y-2031715D01*
X9301716Y-2088284D01*
X9358285Y-2088284D01*
X9488285Y-4118284D02*
X9488285Y-4061715D01*
X9431716Y-4061715D01*
X9431716Y-4118284D01*
X9488285Y-4118284D01*
X9548285Y-1768284D02*
X9548285Y-1711715D01*
X9491716Y-1711715D01*
X9491716Y-1768284D01*
X9548285Y-1768284D01*
X9548285Y-2378285D02*
X9548285Y-2321716D01*
X9491716Y-2321716D01*
X9491716Y-2378285D01*
X9548285Y-2378285D01*
X9558285Y-2088284D02*
X9558285Y-2031715D01*
X9501716Y-2031715D01*
X9501716Y-2088284D01*
X9558285Y-2088284D01*
X9588285Y-5628284D02*
X9588285Y-5571716D01*
X9531716Y-5571716D01*
X9531716Y-5628284D01*
X9588285Y-5628284D01*
X9588285Y-5828284D02*
X9588285Y-5771715D01*
X9531716Y-5771715D01*
X9531716Y-5828284D01*
X9588285Y-5828284D01*
X9588285Y-6028284D02*
X9588285Y-5971715D01*
X9531716Y-5971715D01*
X9531716Y-6028284D01*
X9588285Y-6028284D01*
X9588285Y-6228284D02*
X9588285Y-6171715D01*
X9531716Y-6171715D01*
X9531716Y-6228284D01*
X9588285Y-6228284D01*
X9588285Y-6428284D02*
X9588285Y-6371715D01*
X9531716Y-6371715D01*
X9531716Y-6428284D01*
X9588285Y-6428284D01*
X9688285Y-4118284D02*
X9688285Y-4061715D01*
X9631716Y-4061715D01*
X9631716Y-4118284D01*
X9688285Y-4118284D01*
X9748285Y-2378285D02*
X9748285Y-2321716D01*
X9691716Y-2321716D01*
X9691716Y-2378285D01*
X9748285Y-2378285D01*
X9758285Y-11118285D02*
X9758285Y-11061716D01*
X9701716Y-11061716D01*
X9701716Y-11118285D01*
X9758285Y-11118285D01*
X9888285Y-4118284D02*
X9888285Y-4061715D01*
X9831716Y-4061715D01*
X9831716Y-4118284D01*
X9888285Y-4118284D01*
X9948285Y-2378285D02*
X9948285Y-2321716D01*
X9891716Y-2321716D01*
X9891716Y-2378285D01*
X9948285Y-2378285D01*
X9988285Y-11118285D02*
X9988285Y-11061716D01*
X9931716Y-11061716D01*
X9931716Y-11118285D01*
X9988285Y-11118285D01*
X10098285Y-8068284D02*
X10098285Y-8011715D01*
X10041716Y-8011715D01*
X10041716Y-8068284D01*
X10098285Y-8068284D01*
X10148285Y-2378285D02*
X10148285Y-2321716D01*
X10091716Y-2321716D01*
X10091716Y-2378285D01*
X10148285Y-2378285D01*
X10218285Y-11118285D02*
X10218285Y-11061716D01*
X10161716Y-11061716D01*
X10161716Y-11118285D01*
X10218285Y-11118285D01*
X10268285Y-8238284D02*
X10268285Y-8181715D01*
X10211716Y-8181715D01*
X10211716Y-8238284D01*
X10268285Y-8238284D01*
X10268285Y-8578285D02*
X10268285Y-8521716D01*
X10211716Y-8521716D01*
X10211716Y-8578285D01*
X10268285Y-8578285D01*
X10368285Y-1768284D02*
X10368285Y-1711715D01*
X10311716Y-1711715D01*
X10311716Y-1768284D01*
X10368285Y-1768284D01*
X10458285Y-8878285D02*
X10458285Y-8821716D01*
X10401716Y-8821716D01*
X10401716Y-8878285D01*
X10458285Y-8878285D01*
X10468285Y-8578285D02*
X10468285Y-8521716D01*
X10411716Y-8521716D01*
X10411716Y-8578285D01*
X10468285Y-8578285D01*
X10543285Y-3903284D02*
X10543285Y-3846715D01*
X10486716Y-3846715D01*
X10486716Y-3903284D01*
X10543285Y-3903284D01*
X10568285Y-1768284D02*
X10568285Y-1711715D01*
X10511716Y-1711715D01*
X10511716Y-1768284D01*
X10568285Y-1768284D01*
X10658285Y-8878285D02*
X10658285Y-8821716D01*
X10601716Y-8821716D01*
X10601716Y-8878285D01*
X10658285Y-8878285D01*
X10768285Y-1768284D02*
X10768285Y-1711715D01*
X10711716Y-1711715D01*
X10711716Y-1768284D01*
X10768285Y-1768284D01*
X10838285Y-10398285D02*
X10838285Y-10341716D01*
X10781716Y-10341716D01*
X10781716Y-10398285D01*
X10838285Y-10398285D01*
X10968285Y-1768284D02*
X10968285Y-1711715D01*
X10911716Y-1711715D01*
X10911716Y-1768284D01*
X10968285Y-1768284D01*
X11068285Y-10398285D02*
X11068285Y-10341716D01*
X11011716Y-10341716D01*
X11011716Y-10398285D01*
X11068285Y-10398285D01*
X11168285Y-1768284D02*
X11168285Y-1711715D01*
X11111716Y-1711715D01*
X11111716Y-1768284D01*
X11168285Y-1768284D01*
X11278284Y-7628284D02*
X11278284Y-7571715D01*
X11221715Y-7571715D01*
X11221715Y-7628284D01*
X11278284Y-7628284D01*
X11278284Y-7828284D02*
X11278284Y-7771715D01*
X11221715Y-7771715D01*
X11221715Y-7828284D01*
X11278284Y-7828284D01*
X11298284Y-10398285D02*
X11298284Y-10341716D01*
X11241715Y-10341716D01*
X11241715Y-10398285D01*
X11298284Y-10398285D01*
X11368284Y-1768284D02*
X11368284Y-1711715D01*
X11311715Y-1711715D01*
X11311715Y-1768284D01*
X11368284Y-1768284D01*
X11568284Y-1768284D02*
X11568284Y-1711715D01*
X11511715Y-1711715D01*
X11511715Y-1768284D01*
X11568284Y-1768284D01*
X11768284Y-1768284D02*
X11768284Y-1711715D01*
X11711715Y-1711715D01*
X11711715Y-1768284D01*
X11768284Y-1768284D01*
X12018284Y-1768284D02*
X12018284Y-1711715D01*
X11961715Y-1711715D01*
X11961715Y-1768284D01*
X12018284Y-1768284D01*
X12118284Y-2948284D02*
X12118284Y-2891715D01*
X12061715Y-2891715D01*
X12061715Y-2948284D01*
X12118284Y-2948284D01*
X12178284Y-7178284D02*
X12178284Y-7121715D01*
X12121715Y-7121715D01*
X12121715Y-7178284D01*
X12178284Y-7178284D01*
X12178284Y-7378284D02*
X12178284Y-7321715D01*
X12121715Y-7321715D01*
X12121715Y-7378284D01*
X12178284Y-7378284D01*
X12178284Y-9878285D02*
X12178284Y-9821716D01*
X12121715Y-9821716D01*
X12121715Y-9878285D01*
X12178284Y-9878285D01*
X12178284Y-10098285D02*
X12178284Y-10041716D01*
X12121715Y-10041716D01*
X12121715Y-10098285D01*
X12178284Y-10098285D01*
X12188284Y-10308285D02*
X12188284Y-10251716D01*
X12131715Y-10251716D01*
X12131715Y-10308285D01*
X12188284Y-10308285D01*
X12218284Y-1768284D02*
X12218284Y-1711715D01*
X12161715Y-1711715D01*
X12161715Y-1768284D01*
X12218284Y-1768284D01*
X12228284Y-5758284D02*
X12228284Y-5701715D01*
X12171715Y-5701715D01*
X12171715Y-5758284D01*
X12228284Y-5758284D01*
X12348284Y-6368284D02*
X12348284Y-6311715D01*
X12291715Y-6311715D01*
X12291715Y-6368284D01*
X12348284Y-6368284D01*
X12368284Y-7078284D02*
X12368284Y-7021715D01*
X12311715Y-7021715D01*
X12311715Y-7078284D01*
X12368284Y-7078284D01*
X12368284Y-7278284D02*
X12368284Y-7221715D01*
X12311715Y-7221715D01*
X12311715Y-7278284D01*
X12368284Y-7278284D01*
X12408284Y-2948284D02*
X12408284Y-2891715D01*
X12351715Y-2891715D01*
X12351715Y-2948284D01*
X12408284Y-2948284D01*
X12408284Y-5758284D02*
X12408284Y-5701715D01*
X12351715Y-5701715D01*
X12351715Y-5758284D01*
X12408284Y-5758284D01*
X12408284Y-10098285D02*
X12408284Y-10041716D01*
X12351715Y-10041716D01*
X12351715Y-10098285D01*
X12408284Y-10098285D01*
X12418284Y-1768284D02*
X12418284Y-1711715D01*
X12361715Y-1711715D01*
X12361715Y-1768284D01*
X12418284Y-1768284D01*
X12418284Y-10308285D02*
X12418284Y-10251716D01*
X12361715Y-10251716D01*
X12361715Y-10308285D01*
X12418284Y-10308285D01*
X12548284Y-6368284D02*
X12548284Y-6311715D01*
X12491715Y-6311715D01*
X12491715Y-6368284D01*
X12548284Y-6368284D01*
X12588284Y-5758284D02*
X12588284Y-5701715D01*
X12531715Y-5701715D01*
X12531715Y-5758284D01*
X12588284Y-5758284D01*
X12618284Y-1768284D02*
X12618284Y-1711715D01*
X12561715Y-1711715D01*
X12561715Y-1768284D01*
X12618284Y-1768284D01*
X12648284Y-10308285D02*
X12648284Y-10251716D01*
X12591715Y-10251716D01*
X12591715Y-10308285D01*
X12648284Y-10308285D01*
X12708284Y-2798284D02*
X12708284Y-2741716D01*
X12651715Y-2741716D01*
X12651715Y-2798284D01*
X12708284Y-2798284D01*
X12748284Y-6368284D02*
X12748284Y-6311715D01*
X12691715Y-6311715D01*
X12691715Y-6368284D01*
X12748284Y-6368284D01*
X12778284Y-5758284D02*
X12778284Y-5701715D01*
X12721715Y-5701715D01*
X12721715Y-5758284D01*
X12778284Y-5758284D01*
X12818284Y-1768284D02*
X12818284Y-1711715D01*
X12761715Y-1711715D01*
X12761715Y-1768284D01*
X12818284Y-1768284D01*
X12888284Y-9748285D02*
X12888284Y-9691716D01*
X12831715Y-9691716D01*
X12831715Y-9748285D01*
X12888284Y-9748285D01*
X12998284Y-2798284D02*
X12998284Y-2741716D01*
X12941715Y-2741716D01*
X12941715Y-2798284D01*
X12998284Y-2798284D01*
X13058284Y-10708285D02*
X13058284Y-10651716D01*
X13001715Y-10651716D01*
X13001715Y-10708285D01*
X13058284Y-10708285D01*
X13068284Y-9958285D02*
X13068284Y-9901716D01*
X13011715Y-9901716D01*
X13011715Y-9958285D01*
X13068284Y-9958285D01*
X13078284Y-1778284D02*
X13078284Y-1721715D01*
X13021715Y-1721715D01*
X13021715Y-1778284D01*
X13078284Y-1778284D01*
X13228284Y-9768285D02*
X13228284Y-9711716D01*
X13171715Y-9711716D01*
X13171715Y-9768285D01*
X13228284Y-9768285D01*
X13278284Y-1778284D02*
X13278284Y-1721715D01*
X13221715Y-1721715D01*
X13221715Y-1778284D01*
X13278284Y-1778284D01*
X13318284Y-2798284D02*
X13318284Y-2741716D01*
X13261715Y-2741716D01*
X13261715Y-2798284D01*
X13318284Y-2798284D01*
X13418284Y-6208284D02*
X13418284Y-6151715D01*
X13361715Y-6151715D01*
X13361715Y-6208284D01*
X13418284Y-6208284D01*
X13418284Y-6408284D02*
X13418284Y-6351715D01*
X13361715Y-6351715D01*
X13361715Y-6408284D01*
X13418284Y-6408284D01*
X13418284Y-6608284D02*
X13418284Y-6551715D01*
X13361715Y-6551715D01*
X13361715Y-6608284D01*
X13418284Y-6608284D01*
X13428284Y-9968285D02*
X13428284Y-9911716D01*
X13371715Y-9911716D01*
X13371715Y-9968285D01*
X13428284Y-9968285D01*
X13478284Y-1778284D02*
X13478284Y-1721715D01*
X13421715Y-1721715D01*
X13421715Y-1778284D01*
X13478284Y-1778284D01*
X13608284Y-2798284D02*
X13608284Y-2741716D01*
X13551715Y-2741716D01*
X13551715Y-2798284D01*
X13608284Y-2798284D01*
X13608284Y-9778285D02*
X13608284Y-9721716D01*
X13551715Y-9721716D01*
X13551715Y-9778285D01*
X13608284Y-9778285D01*
X13618284Y-6208284D02*
X13618284Y-6151715D01*
X13561715Y-6151715D01*
X13561715Y-6208284D01*
X13618284Y-6208284D01*
X13618284Y-6408284D02*
X13618284Y-6351715D01*
X13561715Y-6351715D01*
X13561715Y-6408284D01*
X13618284Y-6408284D01*
X13618284Y-6608284D02*
X13618284Y-6551715D01*
X13561715Y-6551715D01*
X13561715Y-6608284D01*
X13618284Y-6608284D01*
X13678284Y-1778284D02*
X13678284Y-1721715D01*
X13621715Y-1721715D01*
X13621715Y-1778284D01*
X13678284Y-1778284D01*
X13778284Y-9968285D02*
X13778284Y-9911716D01*
X13721715Y-9911716D01*
X13721715Y-9968285D01*
X13778284Y-9968285D01*
X13818284Y-6208284D02*
X13818284Y-6151715D01*
X13761715Y-6151715D01*
X13761715Y-6208284D01*
X13818284Y-6208284D01*
X13818284Y-6408284D02*
X13818284Y-6351715D01*
X13761715Y-6351715D01*
X13761715Y-6408284D01*
X13818284Y-6408284D01*
X13818284Y-6608284D02*
X13818284Y-6551715D01*
X13761715Y-6551715D01*
X13761715Y-6608284D01*
X13818284Y-6608284D01*
X13878284Y-1778284D02*
X13878284Y-1721715D01*
X13821715Y-1721715D01*
X13821715Y-1778284D01*
X13878284Y-1778284D01*
X13928284Y-2798284D02*
X13928284Y-2741716D01*
X13871715Y-2741716D01*
X13871715Y-2798284D01*
X13928284Y-2798284D01*
X14030086Y-8688076D02*
X14030086Y-8631507D01*
X13973517Y-8631507D01*
X13973517Y-8688076D01*
X14030086Y-8688076D01*
X14128284Y-6018284D02*
X14128284Y-5961715D01*
X14071715Y-5961715D01*
X14071715Y-6018284D01*
X14128284Y-6018284D01*
X14288284Y-8038284D02*
X14288284Y-7981715D01*
X14231715Y-7981715D01*
X14231715Y-8038284D01*
X14288284Y-8038284D01*
X14288284Y-8038284D02*
X14288284Y-7981715D01*
X14231715Y-7981715D01*
X14231715Y-8038284D01*
X14288284Y-8038284D01*
X14378284Y-5538285D02*
X14378284Y-5481716D01*
X14321715Y-5481716D01*
X14321715Y-5538285D01*
X14378284Y-5538285D01*
X14378284Y-5738284D02*
X14378284Y-5681715D01*
X14321715Y-5681715D01*
X14321715Y-5738284D01*
X14378284Y-5738284D01*
X14445784Y-7880784D02*
X14445784Y-7824215D01*
X14389215Y-7824215D01*
X14389215Y-7880784D01*
X14445784Y-7880784D01*
X14568284Y-7718284D02*
X14568284Y-7661715D01*
X14511715Y-7661715D01*
X14511715Y-7718284D01*
X14568284Y-7718284D01*
X14578284Y-5538285D02*
X14578284Y-5481716D01*
X14521715Y-5481716D01*
X14521715Y-5538285D01*
X14578284Y-5538285D01*
X14578284Y-5738284D02*
X14578284Y-5681715D01*
X14521715Y-5681715D01*
X14521715Y-5738284D01*
X14578284Y-5738284D01*
X14588284Y-9748285D02*
X14588284Y-9691716D01*
X14531715Y-9691716D01*
X14531715Y-9748285D01*
X14588284Y-9748285D01*
X14738284Y-7548284D02*
X14738284Y-7491715D01*
X14681715Y-7491715D01*
X14681715Y-7548284D01*
X14738284Y-7548284D01*
X14848284Y-9748285D02*
X14848284Y-9691716D01*
X14791715Y-9691716D01*
X14791715Y-9748285D01*
X14848284Y-9748285D01*
X14888284Y-7418284D02*
X14888284Y-7361715D01*
X14831715Y-7361715D01*
X14831715Y-7418284D01*
X14888284Y-7418284D01*
X15038284Y-7288284D02*
X15038284Y-7231715D01*
X14981715Y-7231715D01*
X14981715Y-7288284D01*
X15038284Y-7288284D01*
X15308284Y-8898285D02*
X15308284Y-8841716D01*
X15251715Y-8841716D01*
X15251715Y-8898285D01*
X15308284Y-8898285D01*
X15568284Y-8898285D02*
X15568284Y-8841716D01*
X15511715Y-8841716D01*
X15511715Y-8898285D01*
X15568284Y-8898285D01*
X15628284Y-10568285D02*
X15628284Y-10511716D01*
X15571715Y-10511716D01*
X15571715Y-10568285D01*
X15628284Y-10568285D01*
X15658284Y-6628284D02*
X15658284Y-6571715D01*
X15601715Y-6571715D01*
X15601715Y-6628284D01*
X15658284Y-6628284D01*
X15738284Y-11018285D02*
X15738284Y-10961716D01*
X15681715Y-10961716D01*
X15681715Y-11018285D01*
X15738284Y-11018285D01*
X15738284Y-11218284D02*
X15738284Y-11161716D01*
X15681715Y-11161716D01*
X15681715Y-11218284D01*
X15738284Y-11218284D01*
X15738284Y-11418284D02*
X15738284Y-11361715D01*
X15681715Y-11361715D01*
X15681715Y-11418284D01*
X15738284Y-11418284D01*
X15748284Y-4018284D02*
X15748284Y-3961715D01*
X15691715Y-3961715D01*
X15691715Y-4018284D01*
X15748284Y-4018284D01*
X15748284Y-4218285D02*
X15748284Y-4161715D01*
X15691715Y-4161715D01*
X15691715Y-4218285D01*
X15748284Y-4218285D01*
X15838284Y-6468284D02*
X15838284Y-6411715D01*
X15781715Y-6411715D01*
X15781715Y-6468284D01*
X15838284Y-6468284D01*
X15878284Y-2768285D02*
X15878284Y-2711716D01*
X15821715Y-2711716D01*
X15821715Y-2768285D01*
X15878284Y-2768285D01*
X15938284Y-11018285D02*
X15938284Y-10961716D01*
X15881715Y-10961716D01*
X15881715Y-11018285D01*
X15938284Y-11018285D01*
X15938284Y-11218284D02*
X15938284Y-11161716D01*
X15881715Y-11161716D01*
X15881715Y-11218284D01*
X15938284Y-11218284D01*
X15938284Y-11418284D02*
X15938284Y-11361715D01*
X15881715Y-11361715D01*
X15881715Y-11418284D01*
X15938284Y-11418284D01*
X15948284Y-5618284D02*
X15948284Y-5561716D01*
X15891715Y-5561716D01*
X15891715Y-5618284D01*
X15948284Y-5618284D01*
X16018284Y-6288284D02*
X16018284Y-6231715D01*
X15961715Y-6231715D01*
X15961715Y-6288284D01*
X16018284Y-6288284D01*
X16078284Y-10608285D02*
X16078284Y-10551716D01*
X16021715Y-10551716D01*
X16021715Y-10608285D01*
X16078284Y-10608285D01*
X16278284Y-10608285D02*
X16278284Y-10551716D01*
X16221715Y-10551716D01*
X16221715Y-10608285D01*
X16278284Y-10608285D01*
X16368284Y-7168284D02*
X16368284Y-7111715D01*
X16311715Y-7111715D01*
X16311715Y-7168284D01*
X16368284Y-7168284D01*
X16478284Y-10608285D02*
X16478284Y-10551716D01*
X16421715Y-10551716D01*
X16421715Y-10608285D01*
X16478284Y-10608285D01*
X16608284Y-11008285D02*
X16608284Y-10951716D01*
X16551715Y-10951716D01*
X16551715Y-11008285D01*
X16608284Y-11008285D01*
X16608284Y-11208284D02*
X16608284Y-11151716D01*
X16551715Y-11151716D01*
X16551715Y-11208284D01*
X16608284Y-11208284D01*
X16608284Y-11408284D02*
X16608284Y-11351715D01*
X16551715Y-11351715D01*
X16551715Y-11408284D01*
X16608284Y-11408284D01*
X16642295Y-5847615D02*
X16642295Y-5791046D01*
X16585726Y-5791046D01*
X16585726Y-5847615D01*
X16642295Y-5847615D01*
X16668284Y-7298284D02*
X16668284Y-7241715D01*
X16611715Y-7241715D01*
X16611715Y-7298284D01*
X16668284Y-7298284D01*
X16718284Y-4148284D02*
X16718284Y-4091715D01*
X16661715Y-4091715D01*
X16661715Y-4148284D01*
X16718284Y-4148284D01*
X16718284Y-4348285D02*
X16718284Y-4291716D01*
X16661715Y-4291716D01*
X16661715Y-4348285D01*
X16718284Y-4348285D01*
X16718284Y-4548285D02*
X16718284Y-4491716D01*
X16661715Y-4491716D01*
X16661715Y-4548285D01*
X16718284Y-4548285D01*
X16808285Y-11008285D02*
X16808285Y-10951716D01*
X16751715Y-10951716D01*
X16751715Y-11008285D01*
X16808285Y-11008285D01*
X16808285Y-11208284D02*
X16808285Y-11151716D01*
X16751715Y-11151716D01*
X16751715Y-11208284D01*
X16808285Y-11208284D01*
X16808285Y-11408284D02*
X16808285Y-11351715D01*
X16751715Y-11351715D01*
X16751715Y-11408284D01*
X16808285Y-11408284D01*
X16918285Y-4148284D02*
X16918285Y-4091715D01*
X16861716Y-4091715D01*
X16861716Y-4148284D01*
X16918285Y-4148284D01*
X16918285Y-4348285D02*
X16918285Y-4291716D01*
X16861716Y-4291716D01*
X16861716Y-4348285D01*
X16918285Y-4348285D01*
X16918285Y-4548285D02*
X16918285Y-4491716D01*
X16861716Y-4491716D01*
X16861716Y-4548285D01*
X16918285Y-4548285D01*
X17118285Y-4148284D02*
X17118285Y-4091715D01*
X17061716Y-4091715D01*
X17061716Y-4148284D01*
X17118285Y-4148284D01*
X17118285Y-4348285D02*
X17118285Y-4291716D01*
X17061716Y-4291716D01*
X17061716Y-4348285D01*
X17118285Y-4348285D01*
X17118285Y-4548285D02*
X17118285Y-4491716D01*
X17061716Y-4491716D01*
X17061716Y-4548285D01*
X17118285Y-4548285D01*
X17318285Y-4138284D02*
X17318285Y-4081715D01*
X17261716Y-4081715D01*
X17261716Y-4138284D01*
X17318285Y-4138284D01*
X17318285Y-4338285D02*
X17318285Y-4281716D01*
X17261716Y-4281716D01*
X17261716Y-4338285D01*
X17318285Y-4338285D01*
X17318285Y-4538285D02*
X17318285Y-4481716D01*
X17261716Y-4481716D01*
X17261716Y-4538285D01*
X17318285Y-4538285D01*
X17468285Y-9688285D02*
X17468285Y-9631716D01*
X17411716Y-9631716D01*
X17411716Y-9688285D01*
X17468285Y-9688285D01*
X17468285Y-9948285D02*
X17468285Y-9891716D01*
X17411716Y-9891716D01*
X17411716Y-9948285D01*
X17468285Y-9948285D01*
X17518285Y-4138284D02*
X17518285Y-4081715D01*
X17461716Y-4081715D01*
X17461716Y-4138284D01*
X17518285Y-4138284D01*
X17518285Y-4338285D02*
X17518285Y-4281716D01*
X17461716Y-4281716D01*
X17461716Y-4338285D01*
X17518285Y-4338285D01*
X17518285Y-4538285D02*
X17518285Y-4481716D01*
X17461716Y-4481716D01*
X17461716Y-4538285D01*
X17518285Y-4538285D01*
X17668285Y-9688285D02*
X17668285Y-9631716D01*
X17611716Y-9631716D01*
X17611716Y-9688285D01*
X17668285Y-9688285D01*
X17668285Y-9948285D02*
X17668285Y-9891716D01*
X17611716Y-9891716D01*
X17611716Y-9948285D01*
X17668285Y-9948285D01*
X17718285Y-4138284D02*
X17718285Y-4081715D01*
X17661716Y-4081715D01*
X17661716Y-4138284D01*
X17718285Y-4138284D01*
X17718285Y-4338285D02*
X17718285Y-4281716D01*
X17661716Y-4281716D01*
X17661716Y-4338285D01*
X17718285Y-4338285D01*
X17718285Y-4538285D02*
X17718285Y-4481716D01*
X17661716Y-4481716D01*
X17661716Y-4538285D01*
X17718285Y-4538285D01*
X17868285Y-9688285D02*
X17868285Y-9631716D01*
X17811716Y-9631716D01*
X17811716Y-9688285D01*
X17868285Y-9688285D01*
X17868285Y-9948285D02*
X17868285Y-9891716D01*
X17811716Y-9891716D01*
X17811716Y-9948285D01*
X17868285Y-9948285D01*
X18068285Y-9688285D02*
X18068285Y-9631716D01*
X18011716Y-9631716D01*
X18011716Y-9688285D01*
X18068285Y-9688285D01*
X18068285Y-9948285D02*
X18068285Y-9891716D01*
X18011716Y-9891716D01*
X18011716Y-9948285D01*
X18068285Y-9948285D01*
X18078285Y-1778284D02*
X18078285Y-1721715D01*
X18021716Y-1721715D01*
X18021716Y-1778284D01*
X18078285Y-1778284D01*
X18268285Y-9688285D02*
X18268285Y-9631716D01*
X18211716Y-9631716D01*
X18211716Y-9688285D01*
X18268285Y-9688285D01*
X18268285Y-9948285D02*
X18268285Y-9891716D01*
X18211716Y-9891716D01*
X18211716Y-9948285D01*
X18268285Y-9948285D01*
X18278285Y-1778284D02*
X18278285Y-1721715D01*
X18221716Y-1721715D01*
X18221716Y-1778284D01*
X18278285Y-1778284D01*
X18318285Y-5738284D02*
X18318285Y-5681715D01*
X18261716Y-5681715D01*
X18261716Y-5738284D01*
X18318285Y-5738284D01*
X18318285Y-5938284D02*
X18318285Y-5881715D01*
X18261716Y-5881715D01*
X18261716Y-5938284D01*
X18318285Y-5938284D01*
X18318285Y-6138284D02*
X18318285Y-6081715D01*
X18261716Y-6081715D01*
X18261716Y-6138284D01*
X18318285Y-6138284D01*
X18318285Y-6338284D02*
X18318285Y-6281715D01*
X18261716Y-6281715D01*
X18261716Y-6338284D01*
X18318285Y-6338284D01*
X18318285Y-6538284D02*
X18318285Y-6481715D01*
X18261716Y-6481715D01*
X18261716Y-6538284D01*
X18318285Y-6538284D01*
X18478285Y-1778284D02*
X18478285Y-1721715D01*
X18421716Y-1721715D01*
X18421716Y-1778284D01*
X18478285Y-1778284D01*
X18478285Y-6728284D02*
X18478285Y-6671715D01*
X18421716Y-6671715D01*
X18421716Y-6728284D01*
X18478285Y-6728284D01*
X18478285Y-6928284D02*
X18478285Y-6871715D01*
X18421716Y-6871715D01*
X18421716Y-6928284D01*
X18478285Y-6928284D01*
X18478285Y-7128284D02*
X18478285Y-7071715D01*
X18421716Y-7071715D01*
X18421716Y-7128284D01*
X18478285Y-7128284D01*
X18478285Y-7328284D02*
X18478285Y-7271715D01*
X18421716Y-7271715D01*
X18421716Y-7328284D01*
X18478285Y-7328284D01*
X18478285Y-7528284D02*
X18478285Y-7471715D01*
X18421716Y-7471715D01*
X18421716Y-7528284D01*
X18478285Y-7528284D01*
X18678285Y-1778284D02*
X18678285Y-1721715D01*
X18621716Y-1721715D01*
X18621716Y-1778284D01*
X18678285Y-1778284D01*
X18878285Y-1778284D02*
X18878285Y-1721715D01*
X18821716Y-1721715D01*
X18821716Y-1778284D01*
X18878285Y-1778284D01*
X18878285Y-5168285D02*
X18878285Y-5111716D01*
X18821716Y-5111716D01*
X18821716Y-5168285D01*
X18878285Y-5168285D01*
X18878285Y-5368285D02*
X18878285Y-5311716D01*
X18821716Y-5311716D01*
X18821716Y-5368285D01*
X18878285Y-5368285D01*
X18878285Y-5568285D02*
X18878285Y-5511716D01*
X18821716Y-5511716D01*
X18821716Y-5568285D01*
X18878285Y-5568285D01*
X18878285Y-5768284D02*
X18878285Y-5711715D01*
X18821716Y-5711715D01*
X18821716Y-5768284D01*
X18878285Y-5768284D01*
X18878285Y-5968284D02*
X18878285Y-5911715D01*
X18821716Y-5911715D01*
X18821716Y-5968284D01*
X18878285Y-5968284D01*
X18878285Y-7608284D02*
X18878285Y-7551715D01*
X18821716Y-7551715D01*
X18821716Y-7608284D01*
X18878285Y-7608284D01*
X18878285Y-7808284D02*
X18878285Y-7751715D01*
X18821716Y-7751715D01*
X18821716Y-7808284D01*
X18878285Y-7808284D01*
X18898285Y-9038285D02*
X18898285Y-8981716D01*
X18841716Y-8981716D01*
X18841716Y-9038285D01*
X18898285Y-9038285D01*
X18898285Y-9238285D02*
X18898285Y-9181716D01*
X18841716Y-9181716D01*
X18841716Y-9238285D01*
X18898285Y-9238285D01*
X18898285Y-9438285D02*
X18898285Y-9381716D01*
X18841716Y-9381716D01*
X18841716Y-9438285D01*
X18898285Y-9438285D01*
X18898285Y-9678285D02*
X18898285Y-9621716D01*
X18841716Y-9621716D01*
X18841716Y-9678285D01*
X18898285Y-9678285D01*
X18898285Y-9878285D02*
X18898285Y-9821716D01*
X18841716Y-9821716D01*
X18841716Y-9878285D01*
X18898285Y-9878285D01*
X18898285Y-10078285D02*
X18898285Y-10021716D01*
X18841716Y-10021716D01*
X18841716Y-10078285D01*
X18898285Y-10078285D01*
X18898285Y-10308285D02*
X18898285Y-10251716D01*
X18841716Y-10251716D01*
X18841716Y-10308285D01*
X18898285Y-10308285D01*
X18898285Y-10508285D02*
X18898285Y-10451716D01*
X18841716Y-10451716D01*
X18841716Y-10508285D01*
X18898285Y-10508285D01*
X18898285Y-10708285D02*
X18898285Y-10651716D01*
X18841716Y-10651716D01*
X18841716Y-10708285D01*
X18898285Y-10708285D01*
X18898285Y-10938285D02*
X18898285Y-10881716D01*
X18841716Y-10881716D01*
X18841716Y-10938285D01*
X18898285Y-10938285D01*
X18898285Y-11138285D02*
X18898285Y-11081716D01*
X18841716Y-11081716D01*
X18841716Y-11138285D01*
X18898285Y-11138285D01*
X18898285Y-11338284D02*
X18898285Y-11281715D01*
X18841716Y-11281715D01*
X18841716Y-11338284D01*
X18898285Y-11338284D01*
X9400000Y-4600000D02*
X9450000Y-4550000D01*
X9400000Y-4500000D01*
X9350000Y-4550000D01*
X9400000Y-4600000D01*
X9620000Y-7550000D02*
X9670000Y-7500000D01*
X9620000Y-7450000D01*
X9570000Y-7500000D01*
X9620000Y-7550000D01*
X9900000Y-4600000D02*
X9950000Y-4550000D01*
X9900000Y-4500000D01*
X9850000Y-4550000D01*
X9900000Y-4600000D01*
X10090000Y-9090000D02*
X10140000Y-9040000D01*
X10090000Y-8990000D01*
X10040000Y-9040000D01*
X10090000Y-9090000D01*
X10090000Y-9510000D02*
X10140000Y-9460000D01*
X10090000Y-9410000D01*
X10040000Y-9460000D01*
X10090000Y-9510000D01*
X10120000Y-7550000D02*
X10170000Y-7500000D01*
X10120000Y-7450000D01*
X10070000Y-7500000D01*
X10120000Y-7550000D01*
X10220000Y-9910000D02*
X10270000Y-9860000D01*
X10220000Y-9810000D01*
X10170000Y-9860000D01*
X10220000Y-9910000D01*
X10620000Y-10160000D02*
X10670000Y-10110000D01*
X10620000Y-10060000D01*
X10570000Y-10110000D01*
X10620000Y-10160000D01*
X11320000Y-3140000D02*
X11370000Y-3090000D01*
X11320000Y-3040000D01*
X11270000Y-3090000D01*
X11320000Y-3140000D01*
X11820000Y-3140000D02*
X11870000Y-3090000D01*
X11820000Y-3040000D01*
X11770000Y-3090000D01*
X11820000Y-3140000D01*
X15640000Y-10050000D02*
X15690000Y-10000000D01*
X15640000Y-9950000D01*
X15590000Y-10000000D01*
X15640000Y-10050000D01*
X16140000Y-10050000D02*
X16190000Y-10000000D01*
X16140000Y-9950000D01*
X16090000Y-10000000D01*
X16140000Y-10050000D01*
X16450000Y-3500000D02*
X16500000Y-3450000D01*
X16450000Y-3400000D01*
X16400000Y-3450000D01*
X16450000Y-3500000D01*
D13*
X13462000Y-10904000D02*
X13614000Y-11056000D01*
X13614000Y-10904000D02*
X13462000Y-11056000D01*
X13614000Y-10980000D02*
G75*
G02*
X13462000Y-10980000I-76000J0D01*
G01*
X13462000Y-10980000D02*
G75*
G02*
X13614000Y-10980000I76000J0D01*
G01*
X14586000Y-10904000D02*
X14738000Y-11056000D01*
X14738000Y-10904000D02*
X14586000Y-11056000D01*
X14738000Y-10980000D02*
G75*
G02*
X14586000Y-10980000I-76000J0D01*
G01*
X14586000Y-10980000D02*
G75*
G02*
X14738000Y-10980000I76000J0D01*
G01*
D14*
X10387500Y-10610000D02*
X10567500Y-10790000D01*
X10567500Y-10610000D02*
X10387500Y-10790000D01*
X10477500Y-10610000D02*
X10477500Y-10790000D01*
X10387500Y-10700000D02*
X10567500Y-10700000D01*
X10410000Y-5210000D02*
X10590000Y-5390000D01*
X10590000Y-5210000D02*
X10410000Y-5390000D01*
X10500000Y-5210000D02*
X10500000Y-5390000D01*
X10410000Y-5300000D02*
X10590000Y-5300000D01*
X10410000Y-6690000D02*
X10590000Y-6870000D01*
X10590000Y-6690000D02*
X10410000Y-6870000D01*
X10500000Y-6690000D02*
X10500000Y-6870000D01*
X10410000Y-6780000D02*
X10590000Y-6780000D01*
X10937500Y-10610000D02*
X11117500Y-10790000D01*
X11117500Y-10610000D02*
X10937500Y-10790000D01*
X11027500Y-10610000D02*
X11027500Y-10790000D01*
X10937500Y-10700000D02*
X11117500Y-10700000D01*
X10960000Y-5210000D02*
X11140000Y-5390000D01*
X11140000Y-5210000D02*
X10960000Y-5390000D01*
X11050000Y-5210000D02*
X11050000Y-5390000D01*
X10960000Y-5300000D02*
X11140000Y-5300000D01*
X10960000Y-6690000D02*
X11140000Y-6870000D01*
X11140000Y-6690000D02*
X10960000Y-6870000D01*
X11050000Y-6690000D02*
X11050000Y-6870000D01*
X10960000Y-6780000D02*
X11140000Y-6780000D01*
X16982500Y-3510000D02*
X17162500Y-3690000D01*
X17162500Y-3510000D02*
X16982500Y-3690000D01*
X17072500Y-3510000D02*
X17072500Y-3690000D01*
X16982500Y-3600000D02*
X17162500Y-3600000D01*
X16982500Y-5070000D02*
X17162500Y-5250000D01*
X17162500Y-5070000D02*
X16982500Y-5250000D01*
X17072500Y-5070000D02*
X17072500Y-5250000D01*
X16982500Y-5160000D02*
X17162500Y-5160000D01*
X16982500Y-5490000D02*
X17162500Y-5670000D01*
X17162500Y-5490000D02*
X16982500Y-5670000D01*
X17072500Y-5490000D02*
X17072500Y-5670000D01*
X16982500Y-5580000D02*
X17162500Y-5580000D01*
X16982500Y-5910000D02*
X17162500Y-6090000D01*
X17162500Y-5910000D02*
X16982500Y-6090000D01*
X17072500Y-5910000D02*
X17072500Y-6090000D01*
X16982500Y-6000000D02*
X17162500Y-6000000D01*
X16982500Y-6330000D02*
X17162500Y-6510000D01*
X17162500Y-6330000D02*
X16982500Y-6510000D01*
X17072500Y-6330000D02*
X17072500Y-6510000D01*
X16982500Y-6420000D02*
X17162500Y-6420000D01*
X16982500Y-6750000D02*
X17162500Y-6930000D01*
X17162500Y-6750000D02*
X16982500Y-6930000D01*
X17072500Y-6750000D02*
X17072500Y-6930000D01*
X16982500Y-6840000D02*
X17162500Y-6840000D01*
X16982500Y-8510000D02*
X17162500Y-8690000D01*
X17162500Y-8510000D02*
X16982500Y-8690000D01*
X17072500Y-8510000D02*
X17072500Y-8690000D01*
X16982500Y-8600000D02*
X17162500Y-8600000D01*
X17532500Y-3510000D02*
X17712500Y-3690000D01*
X17712500Y-3510000D02*
X17532500Y-3690000D01*
X17622500Y-3510000D02*
X17622500Y-3690000D01*
X17532500Y-3600000D02*
X17712500Y-3600000D01*
X17532500Y-5070000D02*
X17712500Y-5250000D01*
X17712500Y-5070000D02*
X17532500Y-5250000D01*
X17622500Y-5070000D02*
X17622500Y-5250000D01*
X17532500Y-5160000D02*
X17712500Y-5160000D01*
X17532500Y-5490000D02*
X17712500Y-5670000D01*
X17712500Y-5490000D02*
X17532500Y-5670000D01*
X17622500Y-5490000D02*
X17622500Y-5670000D01*
X17532500Y-5580000D02*
X17712500Y-5580000D01*
X17532500Y-5910000D02*
X17712500Y-6090000D01*
X17712500Y-5910000D02*
X17532500Y-6090000D01*
X17622500Y-5910000D02*
X17622500Y-6090000D01*
X17532500Y-6000000D02*
X17712500Y-6000000D01*
X17532500Y-6330000D02*
X17712500Y-6510000D01*
X17712500Y-6330000D02*
X17532500Y-6510000D01*
X17622500Y-6330000D02*
X17622500Y-6510000D01*
X17532500Y-6420000D02*
X17712500Y-6420000D01*
X17532500Y-6750000D02*
X17712500Y-6930000D01*
X17712500Y-6750000D02*
X17532500Y-6930000D01*
X17622500Y-6750000D02*
X17622500Y-6930000D01*
X17532500Y-6840000D02*
X17712500Y-6840000D01*
X17532500Y-8510000D02*
X17712500Y-8690000D01*
X17712500Y-8510000D02*
X17532500Y-8690000D01*
X17622500Y-8510000D02*
X17622500Y-8690000D01*
X17532500Y-8600000D02*
X17712500Y-8600000D01*
X17578710Y-10268425D02*
X17758710Y-10448425D01*
X17758710Y-10268425D02*
X17578710Y-10448425D01*
X17668710Y-10268425D02*
X17668710Y-10448425D01*
X17578710Y-10358425D02*
X17758710Y-10358425D01*
X17578710Y-10688425D02*
X17758710Y-10868425D01*
X17758710Y-10688425D02*
X17578710Y-10868425D01*
X17668710Y-10688425D02*
X17668710Y-10868425D01*
X17578710Y-10778425D02*
X17758710Y-10778425D01*
X17578710Y-11108425D02*
X17758710Y-11288425D01*
X17758710Y-11108425D02*
X17578710Y-11288425D01*
X17668710Y-11108425D02*
X17668710Y-11288425D01*
X17578710Y-11198425D02*
X17758710Y-11198425D01*
D15*
X13443000Y-11285000D02*
X13633000Y-11475000D01*
X13633000Y-11285000D02*
X13443000Y-11475000D01*
X13605176Y-11447176D02*
X13605176Y-11312824D01*
X13470824Y-11312824D01*
X13470824Y-11447176D01*
X13605176Y-11447176D01*
X14567000Y-11285000D02*
X14757000Y-11475000D01*
X14757000Y-11285000D02*
X14567000Y-11475000D01*
X14729176Y-11447176D02*
X14729176Y-11312824D01*
X14594824Y-11312824D01*
X14594824Y-11447176D01*
X14729176Y-11447176D01*
D11*
X9308277Y-11863984D02*
X9308277Y-11663984D01*
X9308277Y-11663984D02*
X9355896Y-11663984D01*
X9355896Y-11663984D02*
X9384467Y-11673508D01*
X9384467Y-11673508D02*
X9403515Y-11692555D01*
X9403515Y-11692555D02*
X9413039Y-11711603D01*
X9413039Y-11711603D02*
X9422563Y-11749698D01*
X9422563Y-11749698D02*
X9422563Y-11778269D01*
X9422563Y-11778269D02*
X9413039Y-11816365D01*
X9413039Y-11816365D02*
X9403515Y-11835412D01*
X9403515Y-11835412D02*
X9384467Y-11854460D01*
X9384467Y-11854460D02*
X9355896Y-11863984D01*
X9355896Y-11863984D02*
X9308277Y-11863984D01*
X9508277Y-11863984D02*
X9508277Y-11730650D01*
X9508277Y-11768746D02*
X9517801Y-11749698D01*
X9517801Y-11749698D02*
X9527324Y-11740174D01*
X9527324Y-11740174D02*
X9546372Y-11730650D01*
X9546372Y-11730650D02*
X9565420Y-11730650D01*
X9632086Y-11863984D02*
X9632086Y-11730650D01*
X9632086Y-11663984D02*
X9622563Y-11673508D01*
X9622563Y-11673508D02*
X9632086Y-11683031D01*
X9632086Y-11683031D02*
X9641610Y-11673508D01*
X9641610Y-11673508D02*
X9632086Y-11663984D01*
X9632086Y-11663984D02*
X9632086Y-11683031D01*
X9755896Y-11863984D02*
X9736848Y-11854460D01*
X9736848Y-11854460D02*
X9727324Y-11835412D01*
X9727324Y-11835412D02*
X9727324Y-11663984D01*
X9860658Y-11863984D02*
X9841610Y-11854460D01*
X9841610Y-11854460D02*
X9832086Y-11835412D01*
X9832086Y-11835412D02*
X9832086Y-11663984D01*
X10089229Y-11863984D02*
X10089229Y-11663984D01*
X10089229Y-11663984D02*
X10155896Y-11806841D01*
X10155896Y-11806841D02*
X10222563Y-11663984D01*
X10222563Y-11663984D02*
X10222563Y-11863984D01*
X10403515Y-11863984D02*
X10403515Y-11759222D01*
X10403515Y-11759222D02*
X10393991Y-11740174D01*
X10393991Y-11740174D02*
X10374944Y-11730650D01*
X10374944Y-11730650D02*
X10336848Y-11730650D01*
X10336848Y-11730650D02*
X10317801Y-11740174D01*
X10403515Y-11854460D02*
X10384467Y-11863984D01*
X10384467Y-11863984D02*
X10336848Y-11863984D01*
X10336848Y-11863984D02*
X10317801Y-11854460D01*
X10317801Y-11854460D02*
X10308277Y-11835412D01*
X10308277Y-11835412D02*
X10308277Y-11816365D01*
X10308277Y-11816365D02*
X10317801Y-11797317D01*
X10317801Y-11797317D02*
X10336848Y-11787793D01*
X10336848Y-11787793D02*
X10384467Y-11787793D01*
X10384467Y-11787793D02*
X10403515Y-11778269D01*
X10498753Y-11730650D02*
X10498753Y-11930650D01*
X10498753Y-11740174D02*
X10517801Y-11730650D01*
X10517801Y-11730650D02*
X10555896Y-11730650D01*
X10555896Y-11730650D02*
X10574944Y-11740174D01*
X10574944Y-11740174D02*
X10584467Y-11749698D01*
X10584467Y-11749698D02*
X10593991Y-11768746D01*
X10593991Y-11768746D02*
X10593991Y-11825888D01*
X10593991Y-11825888D02*
X10584467Y-11844936D01*
X10584467Y-11844936D02*
X10574944Y-11854460D01*
X10574944Y-11854460D02*
X10555896Y-11863984D01*
X10555896Y-11863984D02*
X10517801Y-11863984D01*
X10517801Y-11863984D02*
X10498753Y-11854460D01*
X10679705Y-11844936D02*
X10689229Y-11854460D01*
X10689229Y-11854460D02*
X10679705Y-11863984D01*
X10679705Y-11863984D02*
X10670182Y-11854460D01*
X10670182Y-11854460D02*
X10679705Y-11844936D01*
X10679705Y-11844936D02*
X10679705Y-11863984D01*
X10679705Y-11740174D02*
X10689229Y-11749698D01*
X10689229Y-11749698D02*
X10679705Y-11759222D01*
X10679705Y-11759222D02*
X10670182Y-11749698D01*
X10670182Y-11749698D02*
X10679705Y-11740174D01*
X10679705Y-11740174D02*
X10679705Y-11759222D01*
D12*
X9017500Y-12177500D02*
X9047500Y-12207500D01*
X9047500Y-12177500D02*
X9017500Y-12207500D01*
D11*
X9346372Y-12083984D02*
X9365420Y-12083984D01*
X9365420Y-12083984D02*
X9384467Y-12093508D01*
X9384467Y-12093508D02*
X9393991Y-12103031D01*
X9393991Y-12103031D02*
X9403515Y-12122079D01*
X9403515Y-12122079D02*
X9413039Y-12160174D01*
X9413039Y-12160174D02*
X9413039Y-12207793D01*
X9413039Y-12207793D02*
X9403515Y-12245888D01*
X9403515Y-12245888D02*
X9393991Y-12264936D01*
X9393991Y-12264936D02*
X9384467Y-12274460D01*
X9384467Y-12274460D02*
X9365420Y-12283984D01*
X9365420Y-12283984D02*
X9346372Y-12283984D01*
X9346372Y-12283984D02*
X9327324Y-12274460D01*
X9327324Y-12274460D02*
X9317801Y-12264936D01*
X9317801Y-12264936D02*
X9308277Y-12245888D01*
X9308277Y-12245888D02*
X9298753Y-12207793D01*
X9298753Y-12207793D02*
X9298753Y-12160174D01*
X9298753Y-12160174D02*
X9308277Y-12122079D01*
X9308277Y-12122079D02*
X9317801Y-12103031D01*
X9317801Y-12103031D02*
X9327324Y-12093508D01*
X9327324Y-12093508D02*
X9346372Y-12083984D01*
X9498753Y-12264936D02*
X9508277Y-12274460D01*
X9508277Y-12274460D02*
X9498753Y-12283984D01*
X9498753Y-12283984D02*
X9489229Y-12274460D01*
X9489229Y-12274460D02*
X9498753Y-12264936D01*
X9498753Y-12264936D02*
X9498753Y-12283984D01*
X9574944Y-12083984D02*
X9698753Y-12083984D01*
X9698753Y-12083984D02*
X9632086Y-12160174D01*
X9632086Y-12160174D02*
X9660658Y-12160174D01*
X9660658Y-12160174D02*
X9679705Y-12169698D01*
X9679705Y-12169698D02*
X9689229Y-12179222D01*
X9689229Y-12179222D02*
X9698753Y-12198269D01*
X9698753Y-12198269D02*
X9698753Y-12245888D01*
X9698753Y-12245888D02*
X9689229Y-12264936D01*
X9689229Y-12264936D02*
X9679705Y-12274460D01*
X9679705Y-12274460D02*
X9660658Y-12283984D01*
X9660658Y-12283984D02*
X9603515Y-12283984D01*
X9603515Y-12283984D02*
X9584467Y-12274460D01*
X9584467Y-12274460D02*
X9574944Y-12264936D01*
X9822563Y-12083984D02*
X9841610Y-12083984D01*
X9841610Y-12083984D02*
X9860658Y-12093508D01*
X9860658Y-12093508D02*
X9870182Y-12103031D01*
X9870182Y-12103031D02*
X9879705Y-12122079D01*
X9879705Y-12122079D02*
X9889229Y-12160174D01*
X9889229Y-12160174D02*
X9889229Y-12207793D01*
X9889229Y-12207793D02*
X9879705Y-12245888D01*
X9879705Y-12245888D02*
X9870182Y-12264936D01*
X9870182Y-12264936D02*
X9860658Y-12274460D01*
X9860658Y-12274460D02*
X9841610Y-12283984D01*
X9841610Y-12283984D02*
X9822563Y-12283984D01*
X9822563Y-12283984D02*
X9803515Y-12274460D01*
X9803515Y-12274460D02*
X9793991Y-12264936D01*
X9793991Y-12264936D02*
X9784467Y-12245888D01*
X9784467Y-12245888D02*
X9774944Y-12207793D01*
X9774944Y-12207793D02*
X9774944Y-12160174D01*
X9774944Y-12160174D02*
X9784467Y-12122079D01*
X9784467Y-12122079D02*
X9793991Y-12103031D01*
X9793991Y-12103031D02*
X9803515Y-12093508D01*
X9803515Y-12093508D02*
X9822563Y-12083984D01*
X10013039Y-12083984D02*
X10032086Y-12083984D01*
X10032086Y-12083984D02*
X10051134Y-12093508D01*
X10051134Y-12093508D02*
X10060658Y-12103031D01*
X10060658Y-12103031D02*
X10070182Y-12122079D01*
X10070182Y-12122079D02*
X10079705Y-12160174D01*
X10079705Y-12160174D02*
X10079705Y-12207793D01*
X10079705Y-12207793D02*
X10070182Y-12245888D01*
X10070182Y-12245888D02*
X10060658Y-12264936D01*
X10060658Y-12264936D02*
X10051134Y-12274460D01*
X10051134Y-12274460D02*
X10032086Y-12283984D01*
X10032086Y-12283984D02*
X10013039Y-12283984D01*
X10013039Y-12283984D02*
X9993991Y-12274460D01*
X9993991Y-12274460D02*
X9984467Y-12264936D01*
X9984467Y-12264936D02*
X9974944Y-12245888D01*
X9974944Y-12245888D02*
X9965420Y-12207793D01*
X9965420Y-12207793D02*
X9965420Y-12160174D01*
X9965420Y-12160174D02*
X9974944Y-12122079D01*
X9974944Y-12122079D02*
X9984467Y-12103031D01*
X9984467Y-12103031D02*
X9993991Y-12093508D01*
X9993991Y-12093508D02*
X10013039Y-12083984D01*
X10165420Y-12283984D02*
X10165420Y-12150650D01*
X10165420Y-12169698D02*
X10174944Y-12160174D01*
X10174944Y-12160174D02*
X10193991Y-12150650D01*
X10193991Y-12150650D02*
X10222563Y-12150650D01*
X10222563Y-12150650D02*
X10241610Y-12160174D01*
X10241610Y-12160174D02*
X10251134Y-12179222D01*
X10251134Y-12179222D02*
X10251134Y-12283984D01*
X10251134Y-12179222D02*
X10260658Y-12160174D01*
X10260658Y-12160174D02*
X10279705Y-12150650D01*
X10279705Y-12150650D02*
X10308277Y-12150650D01*
X10308277Y-12150650D02*
X10327325Y-12160174D01*
X10327325Y-12160174D02*
X10336848Y-12179222D01*
X10336848Y-12179222D02*
X10336848Y-12283984D01*
X10432086Y-12283984D02*
X10432086Y-12150650D01*
X10432086Y-12169698D02*
X10441610Y-12160174D01*
X10441610Y-12160174D02*
X10460658Y-12150650D01*
X10460658Y-12150650D02*
X10489229Y-12150650D01*
X10489229Y-12150650D02*
X10508277Y-12160174D01*
X10508277Y-12160174D02*
X10517801Y-12179222D01*
X10517801Y-12179222D02*
X10517801Y-12283984D01*
X10517801Y-12179222D02*
X10527325Y-12160174D01*
X10527325Y-12160174D02*
X10546372Y-12150650D01*
X10546372Y-12150650D02*
X10574944Y-12150650D01*
X10574944Y-12150650D02*
X10593991Y-12160174D01*
X10593991Y-12160174D02*
X10603515Y-12179222D01*
X10603515Y-12179222D02*
X10603515Y-12283984D01*
X10993991Y-12074460D02*
X10822563Y-12331603D01*
X11251134Y-12083984D02*
X11270182Y-12083984D01*
X11270182Y-12083984D02*
X11289229Y-12093508D01*
X11289229Y-12093508D02*
X11298753Y-12103031D01*
X11298753Y-12103031D02*
X11308277Y-12122079D01*
X11308277Y-12122079D02*
X11317801Y-12160174D01*
X11317801Y-12160174D02*
X11317801Y-12207793D01*
X11317801Y-12207793D02*
X11308277Y-12245888D01*
X11308277Y-12245888D02*
X11298753Y-12264936D01*
X11298753Y-12264936D02*
X11289229Y-12274460D01*
X11289229Y-12274460D02*
X11270182Y-12283984D01*
X11270182Y-12283984D02*
X11251134Y-12283984D01*
X11251134Y-12283984D02*
X11232086Y-12274460D01*
X11232086Y-12274460D02*
X11222563Y-12264936D01*
X11222563Y-12264936D02*
X11213039Y-12245888D01*
X11213039Y-12245888D02*
X11203515Y-12207793D01*
X11203515Y-12207793D02*
X11203515Y-12160174D01*
X11203515Y-12160174D02*
X11213039Y-12122079D01*
X11213039Y-12122079D02*
X11222563Y-12103031D01*
X11222563Y-12103031D02*
X11232086Y-12093508D01*
X11232086Y-12093508D02*
X11251134Y-12083984D01*
X11403515Y-12264936D02*
X11413039Y-12274460D01*
X11413039Y-12274460D02*
X11403515Y-12283984D01*
X11403515Y-12283984D02*
X11393991Y-12274460D01*
X11393991Y-12274460D02*
X11403515Y-12264936D01*
X11403515Y-12264936D02*
X11403515Y-12283984D01*
X11536848Y-12083984D02*
X11555896Y-12083984D01*
X11555896Y-12083984D02*
X11574944Y-12093508D01*
X11574944Y-12093508D02*
X11584467Y-12103031D01*
X11584467Y-12103031D02*
X11593991Y-12122079D01*
X11593991Y-12122079D02*
X11603515Y-12160174D01*
X11603515Y-12160174D02*
X11603515Y-12207793D01*
X11603515Y-12207793D02*
X11593991Y-12245888D01*
X11593991Y-12245888D02*
X11584467Y-12264936D01*
X11584467Y-12264936D02*
X11574944Y-12274460D01*
X11574944Y-12274460D02*
X11555896Y-12283984D01*
X11555896Y-12283984D02*
X11536848Y-12283984D01*
X11536848Y-12283984D02*
X11517801Y-12274460D01*
X11517801Y-12274460D02*
X11508277Y-12264936D01*
X11508277Y-12264936D02*
X11498753Y-12245888D01*
X11498753Y-12245888D02*
X11489229Y-12207793D01*
X11489229Y-12207793D02*
X11489229Y-12160174D01*
X11489229Y-12160174D02*
X11498753Y-12122079D01*
X11498753Y-12122079D02*
X11508277Y-12103031D01*
X11508277Y-12103031D02*
X11517801Y-12093508D01*
X11517801Y-12093508D02*
X11536848Y-12083984D01*
X11793991Y-12283984D02*
X11679706Y-12283984D01*
X11736848Y-12283984D02*
X11736848Y-12083984D01*
X11736848Y-12083984D02*
X11717801Y-12112555D01*
X11717801Y-12112555D02*
X11698753Y-12131603D01*
X11698753Y-12131603D02*
X11679706Y-12141127D01*
X11984467Y-12283984D02*
X11870182Y-12283984D01*
X11927325Y-12283984D02*
X11927325Y-12083984D01*
X11927325Y-12083984D02*
X11908277Y-12112555D01*
X11908277Y-12112555D02*
X11889229Y-12131603D01*
X11889229Y-12131603D02*
X11870182Y-12141127D01*
X12098753Y-12169698D02*
X12079706Y-12160174D01*
X12079706Y-12160174D02*
X12070182Y-12150650D01*
X12070182Y-12150650D02*
X12060658Y-12131603D01*
X12060658Y-12131603D02*
X12060658Y-12122079D01*
X12060658Y-12122079D02*
X12070182Y-12103031D01*
X12070182Y-12103031D02*
X12079706Y-12093508D01*
X12079706Y-12093508D02*
X12098753Y-12083984D01*
X12098753Y-12083984D02*
X12136848Y-12083984D01*
X12136848Y-12083984D02*
X12155896Y-12093508D01*
X12155896Y-12093508D02*
X12165420Y-12103031D01*
X12165420Y-12103031D02*
X12174944Y-12122079D01*
X12174944Y-12122079D02*
X12174944Y-12131603D01*
X12174944Y-12131603D02*
X12165420Y-12150650D01*
X12165420Y-12150650D02*
X12155896Y-12160174D01*
X12155896Y-12160174D02*
X12136848Y-12169698D01*
X12136848Y-12169698D02*
X12098753Y-12169698D01*
X12098753Y-12169698D02*
X12079706Y-12179222D01*
X12079706Y-12179222D02*
X12070182Y-12188746D01*
X12070182Y-12188746D02*
X12060658Y-12207793D01*
X12060658Y-12207793D02*
X12060658Y-12245888D01*
X12060658Y-12245888D02*
X12070182Y-12264936D01*
X12070182Y-12264936D02*
X12079706Y-12274460D01*
X12079706Y-12274460D02*
X12098753Y-12283984D01*
X12098753Y-12283984D02*
X12136848Y-12283984D01*
X12136848Y-12283984D02*
X12155896Y-12274460D01*
X12155896Y-12274460D02*
X12165420Y-12264936D01*
X12165420Y-12264936D02*
X12174944Y-12245888D01*
X12174944Y-12245888D02*
X12174944Y-12207793D01*
X12174944Y-12207793D02*
X12165420Y-12188746D01*
X12165420Y-12188746D02*
X12155896Y-12179222D01*
X12155896Y-12179222D02*
X12136848Y-12169698D01*
X12251134Y-12083984D02*
X12251134Y-12122079D01*
X12327325Y-12083984D02*
X12327325Y-12122079D01*
X12622563Y-12360174D02*
X12613039Y-12350650D01*
X12613039Y-12350650D02*
X12593991Y-12322079D01*
X12593991Y-12322079D02*
X12584468Y-12303031D01*
X12584468Y-12303031D02*
X12574944Y-12274460D01*
X12574944Y-12274460D02*
X12565420Y-12226841D01*
X12565420Y-12226841D02*
X12565420Y-12188746D01*
X12565420Y-12188746D02*
X12574944Y-12141127D01*
X12574944Y-12141127D02*
X12584468Y-12112555D01*
X12584468Y-12112555D02*
X12593991Y-12093508D01*
X12593991Y-12093508D02*
X12613039Y-12064936D01*
X12613039Y-12064936D02*
X12622563Y-12055412D01*
X12689229Y-12103031D02*
X12698753Y-12093508D01*
X12698753Y-12093508D02*
X12717801Y-12083984D01*
X12717801Y-12083984D02*
X12765420Y-12083984D01*
X12765420Y-12083984D02*
X12784468Y-12093508D01*
X12784468Y-12093508D02*
X12793991Y-12103031D01*
X12793991Y-12103031D02*
X12803515Y-12122079D01*
X12803515Y-12122079D02*
X12803515Y-12141127D01*
X12803515Y-12141127D02*
X12793991Y-12169698D01*
X12793991Y-12169698D02*
X12679706Y-12283984D01*
X12679706Y-12283984D02*
X12803515Y-12283984D01*
X12984468Y-12083984D02*
X12889229Y-12083984D01*
X12889229Y-12083984D02*
X12879706Y-12179222D01*
X12879706Y-12179222D02*
X12889229Y-12169698D01*
X12889229Y-12169698D02*
X12908277Y-12160174D01*
X12908277Y-12160174D02*
X12955896Y-12160174D01*
X12955896Y-12160174D02*
X12974944Y-12169698D01*
X12974944Y-12169698D02*
X12984468Y-12179222D01*
X12984468Y-12179222D02*
X12993991Y-12198269D01*
X12993991Y-12198269D02*
X12993991Y-12245888D01*
X12993991Y-12245888D02*
X12984468Y-12264936D01*
X12984468Y-12264936D02*
X12974944Y-12274460D01*
X12974944Y-12274460D02*
X12955896Y-12283984D01*
X12955896Y-12283984D02*
X12908277Y-12283984D01*
X12908277Y-12283984D02*
X12889229Y-12274460D01*
X12889229Y-12274460D02*
X12879706Y-12264936D01*
X13232087Y-12283984D02*
X13232087Y-12083984D01*
X13317801Y-12283984D02*
X13317801Y-12179222D01*
X13317801Y-12179222D02*
X13308277Y-12160174D01*
X13308277Y-12160174D02*
X13289230Y-12150650D01*
X13289230Y-12150650D02*
X13260658Y-12150650D01*
X13260658Y-12150650D02*
X13241610Y-12160174D01*
X13241610Y-12160174D02*
X13232087Y-12169698D01*
X13441610Y-12283984D02*
X13422563Y-12274460D01*
X13422563Y-12274460D02*
X13413039Y-12264936D01*
X13413039Y-12264936D02*
X13403515Y-12245888D01*
X13403515Y-12245888D02*
X13403515Y-12188746D01*
X13403515Y-12188746D02*
X13413039Y-12169698D01*
X13413039Y-12169698D02*
X13422563Y-12160174D01*
X13422563Y-12160174D02*
X13441610Y-12150650D01*
X13441610Y-12150650D02*
X13470182Y-12150650D01*
X13470182Y-12150650D02*
X13489230Y-12160174D01*
X13489230Y-12160174D02*
X13498753Y-12169698D01*
X13498753Y-12169698D02*
X13508277Y-12188746D01*
X13508277Y-12188746D02*
X13508277Y-12245888D01*
X13508277Y-12245888D02*
X13498753Y-12264936D01*
X13498753Y-12264936D02*
X13489230Y-12274460D01*
X13489230Y-12274460D02*
X13470182Y-12283984D01*
X13470182Y-12283984D02*
X13441610Y-12283984D01*
X13622563Y-12283984D02*
X13603515Y-12274460D01*
X13603515Y-12274460D02*
X13593991Y-12255412D01*
X13593991Y-12255412D02*
X13593991Y-12083984D01*
X13774944Y-12274460D02*
X13755896Y-12283984D01*
X13755896Y-12283984D02*
X13717801Y-12283984D01*
X13717801Y-12283984D02*
X13698753Y-12274460D01*
X13698753Y-12274460D02*
X13689230Y-12255412D01*
X13689230Y-12255412D02*
X13689230Y-12179222D01*
X13689230Y-12179222D02*
X13698753Y-12160174D01*
X13698753Y-12160174D02*
X13717801Y-12150650D01*
X13717801Y-12150650D02*
X13755896Y-12150650D01*
X13755896Y-12150650D02*
X13774944Y-12160174D01*
X13774944Y-12160174D02*
X13784468Y-12179222D01*
X13784468Y-12179222D02*
X13784468Y-12198269D01*
X13784468Y-12198269D02*
X13689230Y-12217317D01*
X13860658Y-12274460D02*
X13879706Y-12283984D01*
X13879706Y-12283984D02*
X13917801Y-12283984D01*
X13917801Y-12283984D02*
X13936849Y-12274460D01*
X13936849Y-12274460D02*
X13946372Y-12255412D01*
X13946372Y-12255412D02*
X13946372Y-12245888D01*
X13946372Y-12245888D02*
X13936849Y-12226841D01*
X13936849Y-12226841D02*
X13917801Y-12217317D01*
X13917801Y-12217317D02*
X13889230Y-12217317D01*
X13889230Y-12217317D02*
X13870182Y-12207793D01*
X13870182Y-12207793D02*
X13860658Y-12188746D01*
X13860658Y-12188746D02*
X13860658Y-12179222D01*
X13860658Y-12179222D02*
X13870182Y-12160174D01*
X13870182Y-12160174D02*
X13889230Y-12150650D01*
X13889230Y-12150650D02*
X13917801Y-12150650D01*
X13917801Y-12150650D02*
X13936849Y-12160174D01*
X14013039Y-12360174D02*
X14022563Y-12350650D01*
X14022563Y-12350650D02*
X14041611Y-12322079D01*
X14041611Y-12322079D02*
X14051134Y-12303031D01*
X14051134Y-12303031D02*
X14060658Y-12274460D01*
X14060658Y-12274460D02*
X14070182Y-12226841D01*
X14070182Y-12226841D02*
X14070182Y-12188746D01*
X14070182Y-12188746D02*
X14060658Y-12141127D01*
X14060658Y-12141127D02*
X14051134Y-12112555D01*
X14051134Y-12112555D02*
X14041611Y-12093508D01*
X14041611Y-12093508D02*
X14022563Y-12064936D01*
X14022563Y-12064936D02*
X14013039Y-12055412D01*
D12*
X9047500Y-12456500D02*
G75*
G02*
X9007500Y-12456500I-20000J0D01*
G01*
X9007500Y-12456500D02*
G75*
G02*
X9047500Y-12456500I20000J0D01*
G01*
D11*
X9346372Y-12347984D02*
X9365420Y-12347984D01*
X9365420Y-12347984D02*
X9384467Y-12357508D01*
X9384467Y-12357508D02*
X9393991Y-12367031D01*
X9393991Y-12367031D02*
X9403515Y-12386079D01*
X9403515Y-12386079D02*
X9413039Y-12424174D01*
X9413039Y-12424174D02*
X9413039Y-12471793D01*
X9413039Y-12471793D02*
X9403515Y-12509888D01*
X9403515Y-12509888D02*
X9393991Y-12528936D01*
X9393991Y-12528936D02*
X9384467Y-12538460D01*
X9384467Y-12538460D02*
X9365420Y-12547984D01*
X9365420Y-12547984D02*
X9346372Y-12547984D01*
X9346372Y-12547984D02*
X9327324Y-12538460D01*
X9327324Y-12538460D02*
X9317801Y-12528936D01*
X9317801Y-12528936D02*
X9308277Y-12509888D01*
X9308277Y-12509888D02*
X9298753Y-12471793D01*
X9298753Y-12471793D02*
X9298753Y-12424174D01*
X9298753Y-12424174D02*
X9308277Y-12386079D01*
X9308277Y-12386079D02*
X9317801Y-12367031D01*
X9317801Y-12367031D02*
X9327324Y-12357508D01*
X9327324Y-12357508D02*
X9346372Y-12347984D01*
X9498753Y-12528936D02*
X9508277Y-12538460D01*
X9508277Y-12538460D02*
X9498753Y-12547984D01*
X9498753Y-12547984D02*
X9489229Y-12538460D01*
X9489229Y-12538460D02*
X9498753Y-12528936D01*
X9498753Y-12528936D02*
X9498753Y-12547984D01*
X9679705Y-12414650D02*
X9679705Y-12547984D01*
X9632086Y-12338460D02*
X9584467Y-12481317D01*
X9584467Y-12481317D02*
X9708277Y-12481317D01*
X9822563Y-12347984D02*
X9841610Y-12347984D01*
X9841610Y-12347984D02*
X9860658Y-12357508D01*
X9860658Y-12357508D02*
X9870182Y-12367031D01*
X9870182Y-12367031D02*
X9879705Y-12386079D01*
X9879705Y-12386079D02*
X9889229Y-12424174D01*
X9889229Y-12424174D02*
X9889229Y-12471793D01*
X9889229Y-12471793D02*
X9879705Y-12509888D01*
X9879705Y-12509888D02*
X9870182Y-12528936D01*
X9870182Y-12528936D02*
X9860658Y-12538460D01*
X9860658Y-12538460D02*
X9841610Y-12547984D01*
X9841610Y-12547984D02*
X9822563Y-12547984D01*
X9822563Y-12547984D02*
X9803515Y-12538460D01*
X9803515Y-12538460D02*
X9793991Y-12528936D01*
X9793991Y-12528936D02*
X9784467Y-12509888D01*
X9784467Y-12509888D02*
X9774944Y-12471793D01*
X9774944Y-12471793D02*
X9774944Y-12424174D01*
X9774944Y-12424174D02*
X9784467Y-12386079D01*
X9784467Y-12386079D02*
X9793991Y-12367031D01*
X9793991Y-12367031D02*
X9803515Y-12357508D01*
X9803515Y-12357508D02*
X9822563Y-12347984D01*
X10013039Y-12347984D02*
X10032086Y-12347984D01*
X10032086Y-12347984D02*
X10051134Y-12357508D01*
X10051134Y-12357508D02*
X10060658Y-12367031D01*
X10060658Y-12367031D02*
X10070182Y-12386079D01*
X10070182Y-12386079D02*
X10079705Y-12424174D01*
X10079705Y-12424174D02*
X10079705Y-12471793D01*
X10079705Y-12471793D02*
X10070182Y-12509888D01*
X10070182Y-12509888D02*
X10060658Y-12528936D01*
X10060658Y-12528936D02*
X10051134Y-12538460D01*
X10051134Y-12538460D02*
X10032086Y-12547984D01*
X10032086Y-12547984D02*
X10013039Y-12547984D01*
X10013039Y-12547984D02*
X9993991Y-12538460D01*
X9993991Y-12538460D02*
X9984467Y-12528936D01*
X9984467Y-12528936D02*
X9974944Y-12509888D01*
X9974944Y-12509888D02*
X9965420Y-12471793D01*
X9965420Y-12471793D02*
X9965420Y-12424174D01*
X9965420Y-12424174D02*
X9974944Y-12386079D01*
X9974944Y-12386079D02*
X9984467Y-12367031D01*
X9984467Y-12367031D02*
X9993991Y-12357508D01*
X9993991Y-12357508D02*
X10013039Y-12347984D01*
X10165420Y-12547984D02*
X10165420Y-12414650D01*
X10165420Y-12433698D02*
X10174944Y-12424174D01*
X10174944Y-12424174D02*
X10193991Y-12414650D01*
X10193991Y-12414650D02*
X10222563Y-12414650D01*
X10222563Y-12414650D02*
X10241610Y-12424174D01*
X10241610Y-12424174D02*
X10251134Y-12443222D01*
X10251134Y-12443222D02*
X10251134Y-12547984D01*
X10251134Y-12443222D02*
X10260658Y-12424174D01*
X10260658Y-12424174D02*
X10279705Y-12414650D01*
X10279705Y-12414650D02*
X10308277Y-12414650D01*
X10308277Y-12414650D02*
X10327325Y-12424174D01*
X10327325Y-12424174D02*
X10336848Y-12443222D01*
X10336848Y-12443222D02*
X10336848Y-12547984D01*
X10432086Y-12547984D02*
X10432086Y-12414650D01*
X10432086Y-12433698D02*
X10441610Y-12424174D01*
X10441610Y-12424174D02*
X10460658Y-12414650D01*
X10460658Y-12414650D02*
X10489229Y-12414650D01*
X10489229Y-12414650D02*
X10508277Y-12424174D01*
X10508277Y-12424174D02*
X10517801Y-12443222D01*
X10517801Y-12443222D02*
X10517801Y-12547984D01*
X10517801Y-12443222D02*
X10527325Y-12424174D01*
X10527325Y-12424174D02*
X10546372Y-12414650D01*
X10546372Y-12414650D02*
X10574944Y-12414650D01*
X10574944Y-12414650D02*
X10593991Y-12424174D01*
X10593991Y-12424174D02*
X10603515Y-12443222D01*
X10603515Y-12443222D02*
X10603515Y-12547984D01*
X10993991Y-12338460D02*
X10822563Y-12595603D01*
X11251134Y-12347984D02*
X11270182Y-12347984D01*
X11270182Y-12347984D02*
X11289229Y-12357508D01*
X11289229Y-12357508D02*
X11298753Y-12367031D01*
X11298753Y-12367031D02*
X11308277Y-12386079D01*
X11308277Y-12386079D02*
X11317801Y-12424174D01*
X11317801Y-12424174D02*
X11317801Y-12471793D01*
X11317801Y-12471793D02*
X11308277Y-12509888D01*
X11308277Y-12509888D02*
X11298753Y-12528936D01*
X11298753Y-12528936D02*
X11289229Y-12538460D01*
X11289229Y-12538460D02*
X11270182Y-12547984D01*
X11270182Y-12547984D02*
X11251134Y-12547984D01*
X11251134Y-12547984D02*
X11232086Y-12538460D01*
X11232086Y-12538460D02*
X11222563Y-12528936D01*
X11222563Y-12528936D02*
X11213039Y-12509888D01*
X11213039Y-12509888D02*
X11203515Y-12471793D01*
X11203515Y-12471793D02*
X11203515Y-12424174D01*
X11203515Y-12424174D02*
X11213039Y-12386079D01*
X11213039Y-12386079D02*
X11222563Y-12367031D01*
X11222563Y-12367031D02*
X11232086Y-12357508D01*
X11232086Y-12357508D02*
X11251134Y-12347984D01*
X11403515Y-12528936D02*
X11413039Y-12538460D01*
X11413039Y-12538460D02*
X11403515Y-12547984D01*
X11403515Y-12547984D02*
X11393991Y-12538460D01*
X11393991Y-12538460D02*
X11403515Y-12528936D01*
X11403515Y-12528936D02*
X11403515Y-12547984D01*
X11536848Y-12347984D02*
X11555896Y-12347984D01*
X11555896Y-12347984D02*
X11574944Y-12357508D01*
X11574944Y-12357508D02*
X11584467Y-12367031D01*
X11584467Y-12367031D02*
X11593991Y-12386079D01*
X11593991Y-12386079D02*
X11603515Y-12424174D01*
X11603515Y-12424174D02*
X11603515Y-12471793D01*
X11603515Y-12471793D02*
X11593991Y-12509888D01*
X11593991Y-12509888D02*
X11584467Y-12528936D01*
X11584467Y-12528936D02*
X11574944Y-12538460D01*
X11574944Y-12538460D02*
X11555896Y-12547984D01*
X11555896Y-12547984D02*
X11536848Y-12547984D01*
X11536848Y-12547984D02*
X11517801Y-12538460D01*
X11517801Y-12538460D02*
X11508277Y-12528936D01*
X11508277Y-12528936D02*
X11498753Y-12509888D01*
X11498753Y-12509888D02*
X11489229Y-12471793D01*
X11489229Y-12471793D02*
X11489229Y-12424174D01*
X11489229Y-12424174D02*
X11498753Y-12386079D01*
X11498753Y-12386079D02*
X11508277Y-12367031D01*
X11508277Y-12367031D02*
X11517801Y-12357508D01*
X11517801Y-12357508D02*
X11536848Y-12347984D01*
X11793991Y-12547984D02*
X11679706Y-12547984D01*
X11736848Y-12547984D02*
X11736848Y-12347984D01*
X11736848Y-12347984D02*
X11717801Y-12376555D01*
X11717801Y-12376555D02*
X11698753Y-12395603D01*
X11698753Y-12395603D02*
X11679706Y-12405127D01*
X11974944Y-12347984D02*
X11879706Y-12347984D01*
X11879706Y-12347984D02*
X11870182Y-12443222D01*
X11870182Y-12443222D02*
X11879706Y-12433698D01*
X11879706Y-12433698D02*
X11898753Y-12424174D01*
X11898753Y-12424174D02*
X11946372Y-12424174D01*
X11946372Y-12424174D02*
X11965420Y-12433698D01*
X11965420Y-12433698D02*
X11974944Y-12443222D01*
X11974944Y-12443222D02*
X11984467Y-12462269D01*
X11984467Y-12462269D02*
X11984467Y-12509888D01*
X11984467Y-12509888D02*
X11974944Y-12528936D01*
X11974944Y-12528936D02*
X11965420Y-12538460D01*
X11965420Y-12538460D02*
X11946372Y-12547984D01*
X11946372Y-12547984D02*
X11898753Y-12547984D01*
X11898753Y-12547984D02*
X11879706Y-12538460D01*
X11879706Y-12538460D02*
X11870182Y-12528936D01*
X12051134Y-12347984D02*
X12184467Y-12347984D01*
X12184467Y-12347984D02*
X12098753Y-12547984D01*
X12251134Y-12347984D02*
X12251134Y-12386079D01*
X12327325Y-12347984D02*
X12327325Y-12386079D01*
X12622563Y-12624174D02*
X12613039Y-12614650D01*
X12613039Y-12614650D02*
X12593991Y-12586079D01*
X12593991Y-12586079D02*
X12584468Y-12567031D01*
X12584468Y-12567031D02*
X12574944Y-12538460D01*
X12574944Y-12538460D02*
X12565420Y-12490841D01*
X12565420Y-12490841D02*
X12565420Y-12452746D01*
X12565420Y-12452746D02*
X12574944Y-12405127D01*
X12574944Y-12405127D02*
X12584468Y-12376555D01*
X12584468Y-12376555D02*
X12593991Y-12357508D01*
X12593991Y-12357508D02*
X12613039Y-12328936D01*
X12613039Y-12328936D02*
X12622563Y-12319412D01*
X12679706Y-12347984D02*
X12813039Y-12347984D01*
X12813039Y-12347984D02*
X12727325Y-12547984D01*
X12974944Y-12414650D02*
X12974944Y-12547984D01*
X12927325Y-12338460D02*
X12879706Y-12481317D01*
X12879706Y-12481317D02*
X13003515Y-12481317D01*
X13232087Y-12547984D02*
X13232087Y-12347984D01*
X13317801Y-12547984D02*
X13317801Y-12443222D01*
X13317801Y-12443222D02*
X13308277Y-12424174D01*
X13308277Y-12424174D02*
X13289230Y-12414650D01*
X13289230Y-12414650D02*
X13260658Y-12414650D01*
X13260658Y-12414650D02*
X13241610Y-12424174D01*
X13241610Y-12424174D02*
X13232087Y-12433698D01*
X13441610Y-12547984D02*
X13422563Y-12538460D01*
X13422563Y-12538460D02*
X13413039Y-12528936D01*
X13413039Y-12528936D02*
X13403515Y-12509888D01*
X13403515Y-12509888D02*
X13403515Y-12452746D01*
X13403515Y-12452746D02*
X13413039Y-12433698D01*
X13413039Y-12433698D02*
X13422563Y-12424174D01*
X13422563Y-12424174D02*
X13441610Y-12414650D01*
X13441610Y-12414650D02*
X13470182Y-12414650D01*
X13470182Y-12414650D02*
X13489230Y-12424174D01*
X13489230Y-12424174D02*
X13498753Y-12433698D01*
X13498753Y-12433698D02*
X13508277Y-12452746D01*
X13508277Y-12452746D02*
X13508277Y-12509888D01*
X13508277Y-12509888D02*
X13498753Y-12528936D01*
X13498753Y-12528936D02*
X13489230Y-12538460D01*
X13489230Y-12538460D02*
X13470182Y-12547984D01*
X13470182Y-12547984D02*
X13441610Y-12547984D01*
X13622563Y-12547984D02*
X13603515Y-12538460D01*
X13603515Y-12538460D02*
X13593991Y-12519412D01*
X13593991Y-12519412D02*
X13593991Y-12347984D01*
X13774944Y-12538460D02*
X13755896Y-12547984D01*
X13755896Y-12547984D02*
X13717801Y-12547984D01*
X13717801Y-12547984D02*
X13698753Y-12538460D01*
X13698753Y-12538460D02*
X13689230Y-12519412D01*
X13689230Y-12519412D02*
X13689230Y-12443222D01*
X13689230Y-12443222D02*
X13698753Y-12424174D01*
X13698753Y-12424174D02*
X13717801Y-12414650D01*
X13717801Y-12414650D02*
X13755896Y-12414650D01*
X13755896Y-12414650D02*
X13774944Y-12424174D01*
X13774944Y-12424174D02*
X13784468Y-12443222D01*
X13784468Y-12443222D02*
X13784468Y-12462269D01*
X13784468Y-12462269D02*
X13689230Y-12481317D01*
X13860658Y-12538460D02*
X13879706Y-12547984D01*
X13879706Y-12547984D02*
X13917801Y-12547984D01*
X13917801Y-12547984D02*
X13936849Y-12538460D01*
X13936849Y-12538460D02*
X13946372Y-12519412D01*
X13946372Y-12519412D02*
X13946372Y-12509888D01*
X13946372Y-12509888D02*
X13936849Y-12490841D01*
X13936849Y-12490841D02*
X13917801Y-12481317D01*
X13917801Y-12481317D02*
X13889230Y-12481317D01*
X13889230Y-12481317D02*
X13870182Y-12471793D01*
X13870182Y-12471793D02*
X13860658Y-12452746D01*
X13860658Y-12452746D02*
X13860658Y-12443222D01*
X13860658Y-12443222D02*
X13870182Y-12424174D01*
X13870182Y-12424174D02*
X13889230Y-12414650D01*
X13889230Y-12414650D02*
X13917801Y-12414650D01*
X13917801Y-12414650D02*
X13936849Y-12424174D01*
X14013039Y-12624174D02*
X14022563Y-12614650D01*
X14022563Y-12614650D02*
X14041611Y-12586079D01*
X14041611Y-12586079D02*
X14051134Y-12567031D01*
X14051134Y-12567031D02*
X14060658Y-12538460D01*
X14060658Y-12538460D02*
X14070182Y-12490841D01*
X14070182Y-12490841D02*
X14070182Y-12452746D01*
X14070182Y-12452746D02*
X14060658Y-12405127D01*
X14060658Y-12405127D02*
X14051134Y-12376555D01*
X14051134Y-12376555D02*
X14041611Y-12357508D01*
X14041611Y-12357508D02*
X14022563Y-12328936D01*
X14022563Y-12328936D02*
X14013039Y-12319412D01*
D12*
X9017500Y-12690500D02*
X9017500Y-12750500D01*
X8987500Y-12720500D02*
X9047500Y-12720500D01*
D11*
X9346372Y-12611984D02*
X9365420Y-12611984D01*
X9365420Y-12611984D02*
X9384467Y-12621508D01*
X9384467Y-12621508D02*
X9393991Y-12631031D01*
X9393991Y-12631031D02*
X9403515Y-12650079D01*
X9403515Y-12650079D02*
X9413039Y-12688174D01*
X9413039Y-12688174D02*
X9413039Y-12735793D01*
X9413039Y-12735793D02*
X9403515Y-12773888D01*
X9403515Y-12773888D02*
X9393991Y-12792936D01*
X9393991Y-12792936D02*
X9384467Y-12802460D01*
X9384467Y-12802460D02*
X9365420Y-12811984D01*
X9365420Y-12811984D02*
X9346372Y-12811984D01*
X9346372Y-12811984D02*
X9327324Y-12802460D01*
X9327324Y-12802460D02*
X9317801Y-12792936D01*
X9317801Y-12792936D02*
X9308277Y-12773888D01*
X9308277Y-12773888D02*
X9298753Y-12735793D01*
X9298753Y-12735793D02*
X9298753Y-12688174D01*
X9298753Y-12688174D02*
X9308277Y-12650079D01*
X9308277Y-12650079D02*
X9317801Y-12631031D01*
X9317801Y-12631031D02*
X9327324Y-12621508D01*
X9327324Y-12621508D02*
X9346372Y-12611984D01*
X9498753Y-12792936D02*
X9508277Y-12802460D01*
X9508277Y-12802460D02*
X9498753Y-12811984D01*
X9498753Y-12811984D02*
X9489229Y-12802460D01*
X9489229Y-12802460D02*
X9498753Y-12792936D01*
X9498753Y-12792936D02*
X9498753Y-12811984D01*
X9679705Y-12611984D02*
X9641610Y-12611984D01*
X9641610Y-12611984D02*
X9622563Y-12621508D01*
X9622563Y-12621508D02*
X9613039Y-12631031D01*
X9613039Y-12631031D02*
X9593991Y-12659603D01*
X9593991Y-12659603D02*
X9584467Y-12697698D01*
X9584467Y-12697698D02*
X9584467Y-12773888D01*
X9584467Y-12773888D02*
X9593991Y-12792936D01*
X9593991Y-12792936D02*
X9603515Y-12802460D01*
X9603515Y-12802460D02*
X9622563Y-12811984D01*
X9622563Y-12811984D02*
X9660658Y-12811984D01*
X9660658Y-12811984D02*
X9679705Y-12802460D01*
X9679705Y-12802460D02*
X9689229Y-12792936D01*
X9689229Y-12792936D02*
X9698753Y-12773888D01*
X9698753Y-12773888D02*
X9698753Y-12726269D01*
X9698753Y-12726269D02*
X9689229Y-12707222D01*
X9689229Y-12707222D02*
X9679705Y-12697698D01*
X9679705Y-12697698D02*
X9660658Y-12688174D01*
X9660658Y-12688174D02*
X9622563Y-12688174D01*
X9622563Y-12688174D02*
X9603515Y-12697698D01*
X9603515Y-12697698D02*
X9593991Y-12707222D01*
X9593991Y-12707222D02*
X9584467Y-12726269D01*
X9822563Y-12611984D02*
X9841610Y-12611984D01*
X9841610Y-12611984D02*
X9860658Y-12621508D01*
X9860658Y-12621508D02*
X9870182Y-12631031D01*
X9870182Y-12631031D02*
X9879705Y-12650079D01*
X9879705Y-12650079D02*
X9889229Y-12688174D01*
X9889229Y-12688174D02*
X9889229Y-12735793D01*
X9889229Y-12735793D02*
X9879705Y-12773888D01*
X9879705Y-12773888D02*
X9870182Y-12792936D01*
X9870182Y-12792936D02*
X9860658Y-12802460D01*
X9860658Y-12802460D02*
X9841610Y-12811984D01*
X9841610Y-12811984D02*
X9822563Y-12811984D01*
X9822563Y-12811984D02*
X9803515Y-12802460D01*
X9803515Y-12802460D02*
X9793991Y-12792936D01*
X9793991Y-12792936D02*
X9784467Y-12773888D01*
X9784467Y-12773888D02*
X9774944Y-12735793D01*
X9774944Y-12735793D02*
X9774944Y-12688174D01*
X9774944Y-12688174D02*
X9784467Y-12650079D01*
X9784467Y-12650079D02*
X9793991Y-12631031D01*
X9793991Y-12631031D02*
X9803515Y-12621508D01*
X9803515Y-12621508D02*
X9822563Y-12611984D01*
X10013039Y-12611984D02*
X10032086Y-12611984D01*
X10032086Y-12611984D02*
X10051134Y-12621508D01*
X10051134Y-12621508D02*
X10060658Y-12631031D01*
X10060658Y-12631031D02*
X10070182Y-12650079D01*
X10070182Y-12650079D02*
X10079705Y-12688174D01*
X10079705Y-12688174D02*
X10079705Y-12735793D01*
X10079705Y-12735793D02*
X10070182Y-12773888D01*
X10070182Y-12773888D02*
X10060658Y-12792936D01*
X10060658Y-12792936D02*
X10051134Y-12802460D01*
X10051134Y-12802460D02*
X10032086Y-12811984D01*
X10032086Y-12811984D02*
X10013039Y-12811984D01*
X10013039Y-12811984D02*
X9993991Y-12802460D01*
X9993991Y-12802460D02*
X9984467Y-12792936D01*
X9984467Y-12792936D02*
X9974944Y-12773888D01*
X9974944Y-12773888D02*
X9965420Y-12735793D01*
X9965420Y-12735793D02*
X9965420Y-12688174D01*
X9965420Y-12688174D02*
X9974944Y-12650079D01*
X9974944Y-12650079D02*
X9984467Y-12631031D01*
X9984467Y-12631031D02*
X9993991Y-12621508D01*
X9993991Y-12621508D02*
X10013039Y-12611984D01*
X10165420Y-12811984D02*
X10165420Y-12678650D01*
X10165420Y-12697698D02*
X10174944Y-12688174D01*
X10174944Y-12688174D02*
X10193991Y-12678650D01*
X10193991Y-12678650D02*
X10222563Y-12678650D01*
X10222563Y-12678650D02*
X10241610Y-12688174D01*
X10241610Y-12688174D02*
X10251134Y-12707222D01*
X10251134Y-12707222D02*
X10251134Y-12811984D01*
X10251134Y-12707222D02*
X10260658Y-12688174D01*
X10260658Y-12688174D02*
X10279705Y-12678650D01*
X10279705Y-12678650D02*
X10308277Y-12678650D01*
X10308277Y-12678650D02*
X10327325Y-12688174D01*
X10327325Y-12688174D02*
X10336848Y-12707222D01*
X10336848Y-12707222D02*
X10336848Y-12811984D01*
X10432086Y-12811984D02*
X10432086Y-12678650D01*
X10432086Y-12697698D02*
X10441610Y-12688174D01*
X10441610Y-12688174D02*
X10460658Y-12678650D01*
X10460658Y-12678650D02*
X10489229Y-12678650D01*
X10489229Y-12678650D02*
X10508277Y-12688174D01*
X10508277Y-12688174D02*
X10517801Y-12707222D01*
X10517801Y-12707222D02*
X10517801Y-12811984D01*
X10517801Y-12707222D02*
X10527325Y-12688174D01*
X10527325Y-12688174D02*
X10546372Y-12678650D01*
X10546372Y-12678650D02*
X10574944Y-12678650D01*
X10574944Y-12678650D02*
X10593991Y-12688174D01*
X10593991Y-12688174D02*
X10603515Y-12707222D01*
X10603515Y-12707222D02*
X10603515Y-12811984D01*
X10993991Y-12602460D02*
X10822563Y-12859603D01*
X11251134Y-12611984D02*
X11270182Y-12611984D01*
X11270182Y-12611984D02*
X11289229Y-12621508D01*
X11289229Y-12621508D02*
X11298753Y-12631031D01*
X11298753Y-12631031D02*
X11308277Y-12650079D01*
X11308277Y-12650079D02*
X11317801Y-12688174D01*
X11317801Y-12688174D02*
X11317801Y-12735793D01*
X11317801Y-12735793D02*
X11308277Y-12773888D01*
X11308277Y-12773888D02*
X11298753Y-12792936D01*
X11298753Y-12792936D02*
X11289229Y-12802460D01*
X11289229Y-12802460D02*
X11270182Y-12811984D01*
X11270182Y-12811984D02*
X11251134Y-12811984D01*
X11251134Y-12811984D02*
X11232086Y-12802460D01*
X11232086Y-12802460D02*
X11222563Y-12792936D01*
X11222563Y-12792936D02*
X11213039Y-12773888D01*
X11213039Y-12773888D02*
X11203515Y-12735793D01*
X11203515Y-12735793D02*
X11203515Y-12688174D01*
X11203515Y-12688174D02*
X11213039Y-12650079D01*
X11213039Y-12650079D02*
X11222563Y-12631031D01*
X11222563Y-12631031D02*
X11232086Y-12621508D01*
X11232086Y-12621508D02*
X11251134Y-12611984D01*
X11403515Y-12792936D02*
X11413039Y-12802460D01*
X11413039Y-12802460D02*
X11403515Y-12811984D01*
X11403515Y-12811984D02*
X11393991Y-12802460D01*
X11393991Y-12802460D02*
X11403515Y-12792936D01*
X11403515Y-12792936D02*
X11403515Y-12811984D01*
X11536848Y-12611984D02*
X11555896Y-12611984D01*
X11555896Y-12611984D02*
X11574944Y-12621508D01*
X11574944Y-12621508D02*
X11584467Y-12631031D01*
X11584467Y-12631031D02*
X11593991Y-12650079D01*
X11593991Y-12650079D02*
X11603515Y-12688174D01*
X11603515Y-12688174D02*
X11603515Y-12735793D01*
X11603515Y-12735793D02*
X11593991Y-12773888D01*
X11593991Y-12773888D02*
X11584467Y-12792936D01*
X11584467Y-12792936D02*
X11574944Y-12802460D01*
X11574944Y-12802460D02*
X11555896Y-12811984D01*
X11555896Y-12811984D02*
X11536848Y-12811984D01*
X11536848Y-12811984D02*
X11517801Y-12802460D01*
X11517801Y-12802460D02*
X11508277Y-12792936D01*
X11508277Y-12792936D02*
X11498753Y-12773888D01*
X11498753Y-12773888D02*
X11489229Y-12735793D01*
X11489229Y-12735793D02*
X11489229Y-12688174D01*
X11489229Y-12688174D02*
X11498753Y-12650079D01*
X11498753Y-12650079D02*
X11508277Y-12631031D01*
X11508277Y-12631031D02*
X11517801Y-12621508D01*
X11517801Y-12621508D02*
X11536848Y-12611984D01*
X11679706Y-12631031D02*
X11689229Y-12621508D01*
X11689229Y-12621508D02*
X11708277Y-12611984D01*
X11708277Y-12611984D02*
X11755896Y-12611984D01*
X11755896Y-12611984D02*
X11774944Y-12621508D01*
X11774944Y-12621508D02*
X11784467Y-12631031D01*
X11784467Y-12631031D02*
X11793991Y-12650079D01*
X11793991Y-12650079D02*
X11793991Y-12669127D01*
X11793991Y-12669127D02*
X11784467Y-12697698D01*
X11784467Y-12697698D02*
X11670182Y-12811984D01*
X11670182Y-12811984D02*
X11793991Y-12811984D01*
X11860658Y-12611984D02*
X11984467Y-12611984D01*
X11984467Y-12611984D02*
X11917801Y-12688174D01*
X11917801Y-12688174D02*
X11946372Y-12688174D01*
X11946372Y-12688174D02*
X11965420Y-12697698D01*
X11965420Y-12697698D02*
X11974944Y-12707222D01*
X11974944Y-12707222D02*
X11984467Y-12726269D01*
X11984467Y-12726269D02*
X11984467Y-12773888D01*
X11984467Y-12773888D02*
X11974944Y-12792936D01*
X11974944Y-12792936D02*
X11965420Y-12802460D01*
X11965420Y-12802460D02*
X11946372Y-12811984D01*
X11946372Y-12811984D02*
X11889229Y-12811984D01*
X11889229Y-12811984D02*
X11870182Y-12802460D01*
X11870182Y-12802460D02*
X11860658Y-12792936D01*
X12155896Y-12611984D02*
X12117801Y-12611984D01*
X12117801Y-12611984D02*
X12098753Y-12621508D01*
X12098753Y-12621508D02*
X12089229Y-12631031D01*
X12089229Y-12631031D02*
X12070182Y-12659603D01*
X12070182Y-12659603D02*
X12060658Y-12697698D01*
X12060658Y-12697698D02*
X12060658Y-12773888D01*
X12060658Y-12773888D02*
X12070182Y-12792936D01*
X12070182Y-12792936D02*
X12079706Y-12802460D01*
X12079706Y-12802460D02*
X12098753Y-12811984D01*
X12098753Y-12811984D02*
X12136848Y-12811984D01*
X12136848Y-12811984D02*
X12155896Y-12802460D01*
X12155896Y-12802460D02*
X12165420Y-12792936D01*
X12165420Y-12792936D02*
X12174944Y-12773888D01*
X12174944Y-12773888D02*
X12174944Y-12726269D01*
X12174944Y-12726269D02*
X12165420Y-12707222D01*
X12165420Y-12707222D02*
X12155896Y-12697698D01*
X12155896Y-12697698D02*
X12136848Y-12688174D01*
X12136848Y-12688174D02*
X12098753Y-12688174D01*
X12098753Y-12688174D02*
X12079706Y-12697698D01*
X12079706Y-12697698D02*
X12070182Y-12707222D01*
X12070182Y-12707222D02*
X12060658Y-12726269D01*
X12251134Y-12611984D02*
X12251134Y-12650079D01*
X12327325Y-12611984D02*
X12327325Y-12650079D01*
X12622563Y-12888174D02*
X12613039Y-12878650D01*
X12613039Y-12878650D02*
X12593991Y-12850079D01*
X12593991Y-12850079D02*
X12584468Y-12831031D01*
X12584468Y-12831031D02*
X12574944Y-12802460D01*
X12574944Y-12802460D02*
X12565420Y-12754841D01*
X12565420Y-12754841D02*
X12565420Y-12716746D01*
X12565420Y-12716746D02*
X12574944Y-12669127D01*
X12574944Y-12669127D02*
X12584468Y-12640555D01*
X12584468Y-12640555D02*
X12593991Y-12621508D01*
X12593991Y-12621508D02*
X12613039Y-12592936D01*
X12613039Y-12592936D02*
X12622563Y-12583412D01*
X12803515Y-12811984D02*
X12689229Y-12811984D01*
X12746372Y-12811984D02*
X12746372Y-12611984D01*
X12746372Y-12611984D02*
X12727325Y-12640555D01*
X12727325Y-12640555D02*
X12708277Y-12659603D01*
X12708277Y-12659603D02*
X12689229Y-12669127D01*
X12870182Y-12611984D02*
X12993991Y-12611984D01*
X12993991Y-12611984D02*
X12927325Y-12688174D01*
X12927325Y-12688174D02*
X12955896Y-12688174D01*
X12955896Y-12688174D02*
X12974944Y-12697698D01*
X12974944Y-12697698D02*
X12984468Y-12707222D01*
X12984468Y-12707222D02*
X12993991Y-12726269D01*
X12993991Y-12726269D02*
X12993991Y-12773888D01*
X12993991Y-12773888D02*
X12984468Y-12792936D01*
X12984468Y-12792936D02*
X12974944Y-12802460D01*
X12974944Y-12802460D02*
X12955896Y-12811984D01*
X12955896Y-12811984D02*
X12898753Y-12811984D01*
X12898753Y-12811984D02*
X12879706Y-12802460D01*
X12879706Y-12802460D02*
X12870182Y-12792936D01*
X13232087Y-12811984D02*
X13232087Y-12611984D01*
X13317801Y-12811984D02*
X13317801Y-12707222D01*
X13317801Y-12707222D02*
X13308277Y-12688174D01*
X13308277Y-12688174D02*
X13289230Y-12678650D01*
X13289230Y-12678650D02*
X13260658Y-12678650D01*
X13260658Y-12678650D02*
X13241610Y-12688174D01*
X13241610Y-12688174D02*
X13232087Y-12697698D01*
X13441610Y-12811984D02*
X13422563Y-12802460D01*
X13422563Y-12802460D02*
X13413039Y-12792936D01*
X13413039Y-12792936D02*
X13403515Y-12773888D01*
X13403515Y-12773888D02*
X13403515Y-12716746D01*
X13403515Y-12716746D02*
X13413039Y-12697698D01*
X13413039Y-12697698D02*
X13422563Y-12688174D01*
X13422563Y-12688174D02*
X13441610Y-12678650D01*
X13441610Y-12678650D02*
X13470182Y-12678650D01*
X13470182Y-12678650D02*
X13489230Y-12688174D01*
X13489230Y-12688174D02*
X13498753Y-12697698D01*
X13498753Y-12697698D02*
X13508277Y-12716746D01*
X13508277Y-12716746D02*
X13508277Y-12773888D01*
X13508277Y-12773888D02*
X13498753Y-12792936D01*
X13498753Y-12792936D02*
X13489230Y-12802460D01*
X13489230Y-12802460D02*
X13470182Y-12811984D01*
X13470182Y-12811984D02*
X13441610Y-12811984D01*
X13622563Y-12811984D02*
X13603515Y-12802460D01*
X13603515Y-12802460D02*
X13593991Y-12783412D01*
X13593991Y-12783412D02*
X13593991Y-12611984D01*
X13774944Y-12802460D02*
X13755896Y-12811984D01*
X13755896Y-12811984D02*
X13717801Y-12811984D01*
X13717801Y-12811984D02*
X13698753Y-12802460D01*
X13698753Y-12802460D02*
X13689230Y-12783412D01*
X13689230Y-12783412D02*
X13689230Y-12707222D01*
X13689230Y-12707222D02*
X13698753Y-12688174D01*
X13698753Y-12688174D02*
X13717801Y-12678650D01*
X13717801Y-12678650D02*
X13755896Y-12678650D01*
X13755896Y-12678650D02*
X13774944Y-12688174D01*
X13774944Y-12688174D02*
X13784468Y-12707222D01*
X13784468Y-12707222D02*
X13784468Y-12726269D01*
X13784468Y-12726269D02*
X13689230Y-12745317D01*
X13860658Y-12802460D02*
X13879706Y-12811984D01*
X13879706Y-12811984D02*
X13917801Y-12811984D01*
X13917801Y-12811984D02*
X13936849Y-12802460D01*
X13936849Y-12802460D02*
X13946372Y-12783412D01*
X13946372Y-12783412D02*
X13946372Y-12773888D01*
X13946372Y-12773888D02*
X13936849Y-12754841D01*
X13936849Y-12754841D02*
X13917801Y-12745317D01*
X13917801Y-12745317D02*
X13889230Y-12745317D01*
X13889230Y-12745317D02*
X13870182Y-12735793D01*
X13870182Y-12735793D02*
X13860658Y-12716746D01*
X13860658Y-12716746D02*
X13860658Y-12707222D01*
X13860658Y-12707222D02*
X13870182Y-12688174D01*
X13870182Y-12688174D02*
X13889230Y-12678650D01*
X13889230Y-12678650D02*
X13917801Y-12678650D01*
X13917801Y-12678650D02*
X13936849Y-12688174D01*
X14013039Y-12888174D02*
X14022563Y-12878650D01*
X14022563Y-12878650D02*
X14041611Y-12850079D01*
X14041611Y-12850079D02*
X14051134Y-12831031D01*
X14051134Y-12831031D02*
X14060658Y-12802460D01*
X14060658Y-12802460D02*
X14070182Y-12754841D01*
X14070182Y-12754841D02*
X14070182Y-12716746D01*
X14070182Y-12716746D02*
X14060658Y-12669127D01*
X14060658Y-12669127D02*
X14051134Y-12640555D01*
X14051134Y-12640555D02*
X14041611Y-12621508D01*
X14041611Y-12621508D02*
X14022563Y-12592936D01*
X14022563Y-12592936D02*
X14013039Y-12583412D01*
D12*
X9035785Y-13012784D02*
X9035785Y-12956215D01*
X8979216Y-12956215D01*
X8979216Y-13012784D01*
X9035785Y-13012784D01*
D11*
X9346372Y-12875984D02*
X9365420Y-12875984D01*
X9365420Y-12875984D02*
X9384467Y-12885508D01*
X9384467Y-12885508D02*
X9393991Y-12895031D01*
X9393991Y-12895031D02*
X9403515Y-12914079D01*
X9403515Y-12914079D02*
X9413039Y-12952174D01*
X9413039Y-12952174D02*
X9413039Y-12999793D01*
X9413039Y-12999793D02*
X9403515Y-13037888D01*
X9403515Y-13037888D02*
X9393991Y-13056936D01*
X9393991Y-13056936D02*
X9384467Y-13066460D01*
X9384467Y-13066460D02*
X9365420Y-13075984D01*
X9365420Y-13075984D02*
X9346372Y-13075984D01*
X9346372Y-13075984D02*
X9327324Y-13066460D01*
X9327324Y-13066460D02*
X9317801Y-13056936D01*
X9317801Y-13056936D02*
X9308277Y-13037888D01*
X9308277Y-13037888D02*
X9298753Y-12999793D01*
X9298753Y-12999793D02*
X9298753Y-12952174D01*
X9298753Y-12952174D02*
X9308277Y-12914079D01*
X9308277Y-12914079D02*
X9317801Y-12895031D01*
X9317801Y-12895031D02*
X9327324Y-12885508D01*
X9327324Y-12885508D02*
X9346372Y-12875984D01*
X9498753Y-13056936D02*
X9508277Y-13066460D01*
X9508277Y-13066460D02*
X9498753Y-13075984D01*
X9498753Y-13075984D02*
X9489229Y-13066460D01*
X9489229Y-13066460D02*
X9498753Y-13056936D01*
X9498753Y-13056936D02*
X9498753Y-13075984D01*
X9622563Y-12961698D02*
X9603515Y-12952174D01*
X9603515Y-12952174D02*
X9593991Y-12942650D01*
X9593991Y-12942650D02*
X9584467Y-12923603D01*
X9584467Y-12923603D02*
X9584467Y-12914079D01*
X9584467Y-12914079D02*
X9593991Y-12895031D01*
X9593991Y-12895031D02*
X9603515Y-12885508D01*
X9603515Y-12885508D02*
X9622563Y-12875984D01*
X9622563Y-12875984D02*
X9660658Y-12875984D01*
X9660658Y-12875984D02*
X9679705Y-12885508D01*
X9679705Y-12885508D02*
X9689229Y-12895031D01*
X9689229Y-12895031D02*
X9698753Y-12914079D01*
X9698753Y-12914079D02*
X9698753Y-12923603D01*
X9698753Y-12923603D02*
X9689229Y-12942650D01*
X9689229Y-12942650D02*
X9679705Y-12952174D01*
X9679705Y-12952174D02*
X9660658Y-12961698D01*
X9660658Y-12961698D02*
X9622563Y-12961698D01*
X9622563Y-12961698D02*
X9603515Y-12971222D01*
X9603515Y-12971222D02*
X9593991Y-12980746D01*
X9593991Y-12980746D02*
X9584467Y-12999793D01*
X9584467Y-12999793D02*
X9584467Y-13037888D01*
X9584467Y-13037888D02*
X9593991Y-13056936D01*
X9593991Y-13056936D02*
X9603515Y-13066460D01*
X9603515Y-13066460D02*
X9622563Y-13075984D01*
X9622563Y-13075984D02*
X9660658Y-13075984D01*
X9660658Y-13075984D02*
X9679705Y-13066460D01*
X9679705Y-13066460D02*
X9689229Y-13056936D01*
X9689229Y-13056936D02*
X9698753Y-13037888D01*
X9698753Y-13037888D02*
X9698753Y-12999793D01*
X9698753Y-12999793D02*
X9689229Y-12980746D01*
X9689229Y-12980746D02*
X9679705Y-12971222D01*
X9679705Y-12971222D02*
X9660658Y-12961698D01*
X9822563Y-12875984D02*
X9841610Y-12875984D01*
X9841610Y-12875984D02*
X9860658Y-12885508D01*
X9860658Y-12885508D02*
X9870182Y-12895031D01*
X9870182Y-12895031D02*
X9879705Y-12914079D01*
X9879705Y-12914079D02*
X9889229Y-12952174D01*
X9889229Y-12952174D02*
X9889229Y-12999793D01*
X9889229Y-12999793D02*
X9879705Y-13037888D01*
X9879705Y-13037888D02*
X9870182Y-13056936D01*
X9870182Y-13056936D02*
X9860658Y-13066460D01*
X9860658Y-13066460D02*
X9841610Y-13075984D01*
X9841610Y-13075984D02*
X9822563Y-13075984D01*
X9822563Y-13075984D02*
X9803515Y-13066460D01*
X9803515Y-13066460D02*
X9793991Y-13056936D01*
X9793991Y-13056936D02*
X9784467Y-13037888D01*
X9784467Y-13037888D02*
X9774944Y-12999793D01*
X9774944Y-12999793D02*
X9774944Y-12952174D01*
X9774944Y-12952174D02*
X9784467Y-12914079D01*
X9784467Y-12914079D02*
X9793991Y-12895031D01*
X9793991Y-12895031D02*
X9803515Y-12885508D01*
X9803515Y-12885508D02*
X9822563Y-12875984D01*
X10013039Y-12875984D02*
X10032086Y-12875984D01*
X10032086Y-12875984D02*
X10051134Y-12885508D01*
X10051134Y-12885508D02*
X10060658Y-12895031D01*
X10060658Y-12895031D02*
X10070182Y-12914079D01*
X10070182Y-12914079D02*
X10079705Y-12952174D01*
X10079705Y-12952174D02*
X10079705Y-12999793D01*
X10079705Y-12999793D02*
X10070182Y-13037888D01*
X10070182Y-13037888D02*
X10060658Y-13056936D01*
X10060658Y-13056936D02*
X10051134Y-13066460D01*
X10051134Y-13066460D02*
X10032086Y-13075984D01*
X10032086Y-13075984D02*
X10013039Y-13075984D01*
X10013039Y-13075984D02*
X9993991Y-13066460D01*
X9993991Y-13066460D02*
X9984467Y-13056936D01*
X9984467Y-13056936D02*
X9974944Y-13037888D01*
X9974944Y-13037888D02*
X9965420Y-12999793D01*
X9965420Y-12999793D02*
X9965420Y-12952174D01*
X9965420Y-12952174D02*
X9974944Y-12914079D01*
X9974944Y-12914079D02*
X9984467Y-12895031D01*
X9984467Y-12895031D02*
X9993991Y-12885508D01*
X9993991Y-12885508D02*
X10013039Y-12875984D01*
X10165420Y-13075984D02*
X10165420Y-12942650D01*
X10165420Y-12961698D02*
X10174944Y-12952174D01*
X10174944Y-12952174D02*
X10193991Y-12942650D01*
X10193991Y-12942650D02*
X10222563Y-12942650D01*
X10222563Y-12942650D02*
X10241610Y-12952174D01*
X10241610Y-12952174D02*
X10251134Y-12971222D01*
X10251134Y-12971222D02*
X10251134Y-13075984D01*
X10251134Y-12971222D02*
X10260658Y-12952174D01*
X10260658Y-12952174D02*
X10279705Y-12942650D01*
X10279705Y-12942650D02*
X10308277Y-12942650D01*
X10308277Y-12942650D02*
X10327325Y-12952174D01*
X10327325Y-12952174D02*
X10336848Y-12971222D01*
X10336848Y-12971222D02*
X10336848Y-13075984D01*
X10432086Y-13075984D02*
X10432086Y-12942650D01*
X10432086Y-12961698D02*
X10441610Y-12952174D01*
X10441610Y-12952174D02*
X10460658Y-12942650D01*
X10460658Y-12942650D02*
X10489229Y-12942650D01*
X10489229Y-12942650D02*
X10508277Y-12952174D01*
X10508277Y-12952174D02*
X10517801Y-12971222D01*
X10517801Y-12971222D02*
X10517801Y-13075984D01*
X10517801Y-12971222D02*
X10527325Y-12952174D01*
X10527325Y-12952174D02*
X10546372Y-12942650D01*
X10546372Y-12942650D02*
X10574944Y-12942650D01*
X10574944Y-12942650D02*
X10593991Y-12952174D01*
X10593991Y-12952174D02*
X10603515Y-12971222D01*
X10603515Y-12971222D02*
X10603515Y-13075984D01*
X10993991Y-12866460D02*
X10822563Y-13123603D01*
X11251134Y-12875984D02*
X11270182Y-12875984D01*
X11270182Y-12875984D02*
X11289229Y-12885508D01*
X11289229Y-12885508D02*
X11298753Y-12895031D01*
X11298753Y-12895031D02*
X11308277Y-12914079D01*
X11308277Y-12914079D02*
X11317801Y-12952174D01*
X11317801Y-12952174D02*
X11317801Y-12999793D01*
X11317801Y-12999793D02*
X11308277Y-13037888D01*
X11308277Y-13037888D02*
X11298753Y-13056936D01*
X11298753Y-13056936D02*
X11289229Y-13066460D01*
X11289229Y-13066460D02*
X11270182Y-13075984D01*
X11270182Y-13075984D02*
X11251134Y-13075984D01*
X11251134Y-13075984D02*
X11232086Y-13066460D01*
X11232086Y-13066460D02*
X11222563Y-13056936D01*
X11222563Y-13056936D02*
X11213039Y-13037888D01*
X11213039Y-13037888D02*
X11203515Y-12999793D01*
X11203515Y-12999793D02*
X11203515Y-12952174D01*
X11203515Y-12952174D02*
X11213039Y-12914079D01*
X11213039Y-12914079D02*
X11222563Y-12895031D01*
X11222563Y-12895031D02*
X11232086Y-12885508D01*
X11232086Y-12885508D02*
X11251134Y-12875984D01*
X11403515Y-13056936D02*
X11413039Y-13066460D01*
X11413039Y-13066460D02*
X11403515Y-13075984D01*
X11403515Y-13075984D02*
X11393991Y-13066460D01*
X11393991Y-13066460D02*
X11403515Y-13056936D01*
X11403515Y-13056936D02*
X11403515Y-13075984D01*
X11536848Y-12875984D02*
X11555896Y-12875984D01*
X11555896Y-12875984D02*
X11574944Y-12885508D01*
X11574944Y-12885508D02*
X11584467Y-12895031D01*
X11584467Y-12895031D02*
X11593991Y-12914079D01*
X11593991Y-12914079D02*
X11603515Y-12952174D01*
X11603515Y-12952174D02*
X11603515Y-12999793D01*
X11603515Y-12999793D02*
X11593991Y-13037888D01*
X11593991Y-13037888D02*
X11584467Y-13056936D01*
X11584467Y-13056936D02*
X11574944Y-13066460D01*
X11574944Y-13066460D02*
X11555896Y-13075984D01*
X11555896Y-13075984D02*
X11536848Y-13075984D01*
X11536848Y-13075984D02*
X11517801Y-13066460D01*
X11517801Y-13066460D02*
X11508277Y-13056936D01*
X11508277Y-13056936D02*
X11498753Y-13037888D01*
X11498753Y-13037888D02*
X11489229Y-12999793D01*
X11489229Y-12999793D02*
X11489229Y-12952174D01*
X11489229Y-12952174D02*
X11498753Y-12914079D01*
X11498753Y-12914079D02*
X11508277Y-12895031D01*
X11508277Y-12895031D02*
X11517801Y-12885508D01*
X11517801Y-12885508D02*
X11536848Y-12875984D01*
X11670182Y-12875984D02*
X11793991Y-12875984D01*
X11793991Y-12875984D02*
X11727325Y-12952174D01*
X11727325Y-12952174D02*
X11755896Y-12952174D01*
X11755896Y-12952174D02*
X11774944Y-12961698D01*
X11774944Y-12961698D02*
X11784467Y-12971222D01*
X11784467Y-12971222D02*
X11793991Y-12990269D01*
X11793991Y-12990269D02*
X11793991Y-13037888D01*
X11793991Y-13037888D02*
X11784467Y-13056936D01*
X11784467Y-13056936D02*
X11774944Y-13066460D01*
X11774944Y-13066460D02*
X11755896Y-13075984D01*
X11755896Y-13075984D02*
X11698753Y-13075984D01*
X11698753Y-13075984D02*
X11679706Y-13066460D01*
X11679706Y-13066460D02*
X11670182Y-13056936D01*
X11984467Y-13075984D02*
X11870182Y-13075984D01*
X11927325Y-13075984D02*
X11927325Y-12875984D01*
X11927325Y-12875984D02*
X11908277Y-12904555D01*
X11908277Y-12904555D02*
X11889229Y-12923603D01*
X11889229Y-12923603D02*
X11870182Y-12933127D01*
X12165420Y-12875984D02*
X12070182Y-12875984D01*
X12070182Y-12875984D02*
X12060658Y-12971222D01*
X12060658Y-12971222D02*
X12070182Y-12961698D01*
X12070182Y-12961698D02*
X12089229Y-12952174D01*
X12089229Y-12952174D02*
X12136848Y-12952174D01*
X12136848Y-12952174D02*
X12155896Y-12961698D01*
X12155896Y-12961698D02*
X12165420Y-12971222D01*
X12165420Y-12971222D02*
X12174944Y-12990269D01*
X12174944Y-12990269D02*
X12174944Y-13037888D01*
X12174944Y-13037888D02*
X12165420Y-13056936D01*
X12165420Y-13056936D02*
X12155896Y-13066460D01*
X12155896Y-13066460D02*
X12136848Y-13075984D01*
X12136848Y-13075984D02*
X12089229Y-13075984D01*
X12089229Y-13075984D02*
X12070182Y-13066460D01*
X12070182Y-13066460D02*
X12060658Y-13056936D01*
X12251134Y-12875984D02*
X12251134Y-12914079D01*
X12327325Y-12875984D02*
X12327325Y-12914079D01*
X12622563Y-13152174D02*
X12613039Y-13142650D01*
X12613039Y-13142650D02*
X12593991Y-13114079D01*
X12593991Y-13114079D02*
X12584468Y-13095031D01*
X12584468Y-13095031D02*
X12574944Y-13066460D01*
X12574944Y-13066460D02*
X12565420Y-13018841D01*
X12565420Y-13018841D02*
X12565420Y-12980746D01*
X12565420Y-12980746D02*
X12574944Y-12933127D01*
X12574944Y-12933127D02*
X12584468Y-12904555D01*
X12584468Y-12904555D02*
X12593991Y-12885508D01*
X12593991Y-12885508D02*
X12613039Y-12856936D01*
X12613039Y-12856936D02*
X12622563Y-12847412D01*
X12803515Y-13075984D02*
X12689229Y-13075984D01*
X12746372Y-13075984D02*
X12746372Y-12875984D01*
X12746372Y-12875984D02*
X12727325Y-12904555D01*
X12727325Y-12904555D02*
X12708277Y-12923603D01*
X12708277Y-12923603D02*
X12689229Y-12933127D01*
X12898753Y-13075984D02*
X12936848Y-13075984D01*
X12936848Y-13075984D02*
X12955896Y-13066460D01*
X12955896Y-13066460D02*
X12965420Y-13056936D01*
X12965420Y-13056936D02*
X12984468Y-13028365D01*
X12984468Y-13028365D02*
X12993991Y-12990269D01*
X12993991Y-12990269D02*
X12993991Y-12914079D01*
X12993991Y-12914079D02*
X12984468Y-12895031D01*
X12984468Y-12895031D02*
X12974944Y-12885508D01*
X12974944Y-12885508D02*
X12955896Y-12875984D01*
X12955896Y-12875984D02*
X12917801Y-12875984D01*
X12917801Y-12875984D02*
X12898753Y-12885508D01*
X12898753Y-12885508D02*
X12889229Y-12895031D01*
X12889229Y-12895031D02*
X12879706Y-12914079D01*
X12879706Y-12914079D02*
X12879706Y-12961698D01*
X12879706Y-12961698D02*
X12889229Y-12980746D01*
X12889229Y-12980746D02*
X12898753Y-12990269D01*
X12898753Y-12990269D02*
X12917801Y-12999793D01*
X12917801Y-12999793D02*
X12955896Y-12999793D01*
X12955896Y-12999793D02*
X12974944Y-12990269D01*
X12974944Y-12990269D02*
X12984468Y-12980746D01*
X12984468Y-12980746D02*
X12993991Y-12961698D01*
X13165420Y-12875984D02*
X13127325Y-12875984D01*
X13127325Y-12875984D02*
X13108277Y-12885508D01*
X13108277Y-12885508D02*
X13098753Y-12895031D01*
X13098753Y-12895031D02*
X13079706Y-12923603D01*
X13079706Y-12923603D02*
X13070182Y-12961698D01*
X13070182Y-12961698D02*
X13070182Y-13037888D01*
X13070182Y-13037888D02*
X13079706Y-13056936D01*
X13079706Y-13056936D02*
X13089229Y-13066460D01*
X13089229Y-13066460D02*
X13108277Y-13075984D01*
X13108277Y-13075984D02*
X13146372Y-13075984D01*
X13146372Y-13075984D02*
X13165420Y-13066460D01*
X13165420Y-13066460D02*
X13174944Y-13056936D01*
X13174944Y-13056936D02*
X13184468Y-13037888D01*
X13184468Y-13037888D02*
X13184468Y-12990269D01*
X13184468Y-12990269D02*
X13174944Y-12971222D01*
X13174944Y-12971222D02*
X13165420Y-12961698D01*
X13165420Y-12961698D02*
X13146372Y-12952174D01*
X13146372Y-12952174D02*
X13108277Y-12952174D01*
X13108277Y-12952174D02*
X13089229Y-12961698D01*
X13089229Y-12961698D02*
X13079706Y-12971222D01*
X13079706Y-12971222D02*
X13070182Y-12990269D01*
X13422563Y-13075984D02*
X13422563Y-12875984D01*
X13508277Y-13075984D02*
X13508277Y-12971222D01*
X13508277Y-12971222D02*
X13498753Y-12952174D01*
X13498753Y-12952174D02*
X13479706Y-12942650D01*
X13479706Y-12942650D02*
X13451134Y-12942650D01*
X13451134Y-12942650D02*
X13432087Y-12952174D01*
X13432087Y-12952174D02*
X13422563Y-12961698D01*
X13632087Y-13075984D02*
X13613039Y-13066460D01*
X13613039Y-13066460D02*
X13603515Y-13056936D01*
X13603515Y-13056936D02*
X13593991Y-13037888D01*
X13593991Y-13037888D02*
X13593991Y-12980746D01*
X13593991Y-12980746D02*
X13603515Y-12961698D01*
X13603515Y-12961698D02*
X13613039Y-12952174D01*
X13613039Y-12952174D02*
X13632087Y-12942650D01*
X13632087Y-12942650D02*
X13660658Y-12942650D01*
X13660658Y-12942650D02*
X13679706Y-12952174D01*
X13679706Y-12952174D02*
X13689230Y-12961698D01*
X13689230Y-12961698D02*
X13698753Y-12980746D01*
X13698753Y-12980746D02*
X13698753Y-13037888D01*
X13698753Y-13037888D02*
X13689230Y-13056936D01*
X13689230Y-13056936D02*
X13679706Y-13066460D01*
X13679706Y-13066460D02*
X13660658Y-13075984D01*
X13660658Y-13075984D02*
X13632087Y-13075984D01*
X13813039Y-13075984D02*
X13793991Y-13066460D01*
X13793991Y-13066460D02*
X13784468Y-13047412D01*
X13784468Y-13047412D02*
X13784468Y-12875984D01*
X13965420Y-13066460D02*
X13946372Y-13075984D01*
X13946372Y-13075984D02*
X13908277Y-13075984D01*
X13908277Y-13075984D02*
X13889230Y-13066460D01*
X13889230Y-13066460D02*
X13879706Y-13047412D01*
X13879706Y-13047412D02*
X13879706Y-12971222D01*
X13879706Y-12971222D02*
X13889230Y-12952174D01*
X13889230Y-12952174D02*
X13908277Y-12942650D01*
X13908277Y-12942650D02*
X13946372Y-12942650D01*
X13946372Y-12942650D02*
X13965420Y-12952174D01*
X13965420Y-12952174D02*
X13974944Y-12971222D01*
X13974944Y-12971222D02*
X13974944Y-12990269D01*
X13974944Y-12990269D02*
X13879706Y-13009317D01*
X14051134Y-13066460D02*
X14070182Y-13075984D01*
X14070182Y-13075984D02*
X14108277Y-13075984D01*
X14108277Y-13075984D02*
X14127325Y-13066460D01*
X14127325Y-13066460D02*
X14136849Y-13047412D01*
X14136849Y-13047412D02*
X14136849Y-13037888D01*
X14136849Y-13037888D02*
X14127325Y-13018841D01*
X14127325Y-13018841D02*
X14108277Y-13009317D01*
X14108277Y-13009317D02*
X14079706Y-13009317D01*
X14079706Y-13009317D02*
X14060658Y-12999793D01*
X14060658Y-12999793D02*
X14051134Y-12980746D01*
X14051134Y-12980746D02*
X14051134Y-12971222D01*
X14051134Y-12971222D02*
X14060658Y-12952174D01*
X14060658Y-12952174D02*
X14079706Y-12942650D01*
X14079706Y-12942650D02*
X14108277Y-12942650D01*
X14108277Y-12942650D02*
X14127325Y-12952174D01*
X14203515Y-13152174D02*
X14213039Y-13142650D01*
X14213039Y-13142650D02*
X14232087Y-13114079D01*
X14232087Y-13114079D02*
X14241611Y-13095031D01*
X14241611Y-13095031D02*
X14251134Y-13066460D01*
X14251134Y-13066460D02*
X14260658Y-13018841D01*
X14260658Y-13018841D02*
X14260658Y-12980746D01*
X14260658Y-12980746D02*
X14251134Y-12933127D01*
X14251134Y-12933127D02*
X14241611Y-12904555D01*
X14241611Y-12904555D02*
X14232087Y-12885508D01*
X14232087Y-12885508D02*
X14213039Y-12856936D01*
X14213039Y-12856936D02*
X14203515Y-12847412D01*
D12*
X8997500Y-13298500D02*
X9047500Y-13248500D01*
X8997500Y-13198500D01*
X8947500Y-13248500D01*
X8997500Y-13298500D01*
D11*
X9413039Y-13339984D02*
X9298753Y-13339984D01*
X9355896Y-13339984D02*
X9355896Y-13139984D01*
X9355896Y-13139984D02*
X9336848Y-13168555D01*
X9336848Y-13168555D02*
X9317801Y-13187603D01*
X9317801Y-13187603D02*
X9298753Y-13197127D01*
X9498753Y-13320936D02*
X9508277Y-13330460D01*
X9508277Y-13330460D02*
X9498753Y-13339984D01*
X9498753Y-13339984D02*
X9489229Y-13330460D01*
X9489229Y-13330460D02*
X9498753Y-13320936D01*
X9498753Y-13320936D02*
X9498753Y-13339984D01*
X9632086Y-13139984D02*
X9651134Y-13139984D01*
X9651134Y-13139984D02*
X9670182Y-13149508D01*
X9670182Y-13149508D02*
X9679705Y-13159031D01*
X9679705Y-13159031D02*
X9689229Y-13178079D01*
X9689229Y-13178079D02*
X9698753Y-13216174D01*
X9698753Y-13216174D02*
X9698753Y-13263793D01*
X9698753Y-13263793D02*
X9689229Y-13301888D01*
X9689229Y-13301888D02*
X9679705Y-13320936D01*
X9679705Y-13320936D02*
X9670182Y-13330460D01*
X9670182Y-13330460D02*
X9651134Y-13339984D01*
X9651134Y-13339984D02*
X9632086Y-13339984D01*
X9632086Y-13339984D02*
X9613039Y-13330460D01*
X9613039Y-13330460D02*
X9603515Y-13320936D01*
X9603515Y-13320936D02*
X9593991Y-13301888D01*
X9593991Y-13301888D02*
X9584467Y-13263793D01*
X9584467Y-13263793D02*
X9584467Y-13216174D01*
X9584467Y-13216174D02*
X9593991Y-13178079D01*
X9593991Y-13178079D02*
X9603515Y-13159031D01*
X9603515Y-13159031D02*
X9613039Y-13149508D01*
X9613039Y-13149508D02*
X9632086Y-13139984D01*
X9822563Y-13139984D02*
X9841610Y-13139984D01*
X9841610Y-13139984D02*
X9860658Y-13149508D01*
X9860658Y-13149508D02*
X9870182Y-13159031D01*
X9870182Y-13159031D02*
X9879705Y-13178079D01*
X9879705Y-13178079D02*
X9889229Y-13216174D01*
X9889229Y-13216174D02*
X9889229Y-13263793D01*
X9889229Y-13263793D02*
X9879705Y-13301888D01*
X9879705Y-13301888D02*
X9870182Y-13320936D01*
X9870182Y-13320936D02*
X9860658Y-13330460D01*
X9860658Y-13330460D02*
X9841610Y-13339984D01*
X9841610Y-13339984D02*
X9822563Y-13339984D01*
X9822563Y-13339984D02*
X9803515Y-13330460D01*
X9803515Y-13330460D02*
X9793991Y-13320936D01*
X9793991Y-13320936D02*
X9784467Y-13301888D01*
X9784467Y-13301888D02*
X9774944Y-13263793D01*
X9774944Y-13263793D02*
X9774944Y-13216174D01*
X9774944Y-13216174D02*
X9784467Y-13178079D01*
X9784467Y-13178079D02*
X9793991Y-13159031D01*
X9793991Y-13159031D02*
X9803515Y-13149508D01*
X9803515Y-13149508D02*
X9822563Y-13139984D01*
X10013039Y-13139984D02*
X10032086Y-13139984D01*
X10032086Y-13139984D02*
X10051134Y-13149508D01*
X10051134Y-13149508D02*
X10060658Y-13159031D01*
X10060658Y-13159031D02*
X10070182Y-13178079D01*
X10070182Y-13178079D02*
X10079705Y-13216174D01*
X10079705Y-13216174D02*
X10079705Y-13263793D01*
X10079705Y-13263793D02*
X10070182Y-13301888D01*
X10070182Y-13301888D02*
X10060658Y-13320936D01*
X10060658Y-13320936D02*
X10051134Y-13330460D01*
X10051134Y-13330460D02*
X10032086Y-13339984D01*
X10032086Y-13339984D02*
X10013039Y-13339984D01*
X10013039Y-13339984D02*
X9993991Y-13330460D01*
X9993991Y-13330460D02*
X9984467Y-13320936D01*
X9984467Y-13320936D02*
X9974944Y-13301888D01*
X9974944Y-13301888D02*
X9965420Y-13263793D01*
X9965420Y-13263793D02*
X9965420Y-13216174D01*
X9965420Y-13216174D02*
X9974944Y-13178079D01*
X9974944Y-13178079D02*
X9984467Y-13159031D01*
X9984467Y-13159031D02*
X9993991Y-13149508D01*
X9993991Y-13149508D02*
X10013039Y-13139984D01*
X10165420Y-13339984D02*
X10165420Y-13206650D01*
X10165420Y-13225698D02*
X10174944Y-13216174D01*
X10174944Y-13216174D02*
X10193991Y-13206650D01*
X10193991Y-13206650D02*
X10222563Y-13206650D01*
X10222563Y-13206650D02*
X10241610Y-13216174D01*
X10241610Y-13216174D02*
X10251134Y-13235222D01*
X10251134Y-13235222D02*
X10251134Y-13339984D01*
X10251134Y-13235222D02*
X10260658Y-13216174D01*
X10260658Y-13216174D02*
X10279705Y-13206650D01*
X10279705Y-13206650D02*
X10308277Y-13206650D01*
X10308277Y-13206650D02*
X10327325Y-13216174D01*
X10327325Y-13216174D02*
X10336848Y-13235222D01*
X10336848Y-13235222D02*
X10336848Y-13339984D01*
X10432086Y-13339984D02*
X10432086Y-13206650D01*
X10432086Y-13225698D02*
X10441610Y-13216174D01*
X10441610Y-13216174D02*
X10460658Y-13206650D01*
X10460658Y-13206650D02*
X10489229Y-13206650D01*
X10489229Y-13206650D02*
X10508277Y-13216174D01*
X10508277Y-13216174D02*
X10517801Y-13235222D01*
X10517801Y-13235222D02*
X10517801Y-13339984D01*
X10517801Y-13235222D02*
X10527325Y-13216174D01*
X10527325Y-13216174D02*
X10546372Y-13206650D01*
X10546372Y-13206650D02*
X10574944Y-13206650D01*
X10574944Y-13206650D02*
X10593991Y-13216174D01*
X10593991Y-13216174D02*
X10603515Y-13235222D01*
X10603515Y-13235222D02*
X10603515Y-13339984D01*
X10993991Y-13130460D02*
X10822563Y-13387603D01*
X11251134Y-13139984D02*
X11270182Y-13139984D01*
X11270182Y-13139984D02*
X11289229Y-13149508D01*
X11289229Y-13149508D02*
X11298753Y-13159031D01*
X11298753Y-13159031D02*
X11308277Y-13178079D01*
X11308277Y-13178079D02*
X11317801Y-13216174D01*
X11317801Y-13216174D02*
X11317801Y-13263793D01*
X11317801Y-13263793D02*
X11308277Y-13301888D01*
X11308277Y-13301888D02*
X11298753Y-13320936D01*
X11298753Y-13320936D02*
X11289229Y-13330460D01*
X11289229Y-13330460D02*
X11270182Y-13339984D01*
X11270182Y-13339984D02*
X11251134Y-13339984D01*
X11251134Y-13339984D02*
X11232086Y-13330460D01*
X11232086Y-13330460D02*
X11222563Y-13320936D01*
X11222563Y-13320936D02*
X11213039Y-13301888D01*
X11213039Y-13301888D02*
X11203515Y-13263793D01*
X11203515Y-13263793D02*
X11203515Y-13216174D01*
X11203515Y-13216174D02*
X11213039Y-13178079D01*
X11213039Y-13178079D02*
X11222563Y-13159031D01*
X11222563Y-13159031D02*
X11232086Y-13149508D01*
X11232086Y-13149508D02*
X11251134Y-13139984D01*
X11403515Y-13320936D02*
X11413039Y-13330460D01*
X11413039Y-13330460D02*
X11403515Y-13339984D01*
X11403515Y-13339984D02*
X11393991Y-13330460D01*
X11393991Y-13330460D02*
X11403515Y-13320936D01*
X11403515Y-13320936D02*
X11403515Y-13339984D01*
X11536848Y-13139984D02*
X11555896Y-13139984D01*
X11555896Y-13139984D02*
X11574944Y-13149508D01*
X11574944Y-13149508D02*
X11584467Y-13159031D01*
X11584467Y-13159031D02*
X11593991Y-13178079D01*
X11593991Y-13178079D02*
X11603515Y-13216174D01*
X11603515Y-13216174D02*
X11603515Y-13263793D01*
X11603515Y-13263793D02*
X11593991Y-13301888D01*
X11593991Y-13301888D02*
X11584467Y-13320936D01*
X11584467Y-13320936D02*
X11574944Y-13330460D01*
X11574944Y-13330460D02*
X11555896Y-13339984D01*
X11555896Y-13339984D02*
X11536848Y-13339984D01*
X11536848Y-13339984D02*
X11517801Y-13330460D01*
X11517801Y-13330460D02*
X11508277Y-13320936D01*
X11508277Y-13320936D02*
X11498753Y-13301888D01*
X11498753Y-13301888D02*
X11489229Y-13263793D01*
X11489229Y-13263793D02*
X11489229Y-13216174D01*
X11489229Y-13216174D02*
X11498753Y-13178079D01*
X11498753Y-13178079D02*
X11508277Y-13159031D01*
X11508277Y-13159031D02*
X11517801Y-13149508D01*
X11517801Y-13149508D02*
X11536848Y-13139984D01*
X11670182Y-13139984D02*
X11793991Y-13139984D01*
X11793991Y-13139984D02*
X11727325Y-13216174D01*
X11727325Y-13216174D02*
X11755896Y-13216174D01*
X11755896Y-13216174D02*
X11774944Y-13225698D01*
X11774944Y-13225698D02*
X11784467Y-13235222D01*
X11784467Y-13235222D02*
X11793991Y-13254269D01*
X11793991Y-13254269D02*
X11793991Y-13301888D01*
X11793991Y-13301888D02*
X11784467Y-13320936D01*
X11784467Y-13320936D02*
X11774944Y-13330460D01*
X11774944Y-13330460D02*
X11755896Y-13339984D01*
X11755896Y-13339984D02*
X11698753Y-13339984D01*
X11698753Y-13339984D02*
X11679706Y-13330460D01*
X11679706Y-13330460D02*
X11670182Y-13320936D01*
X11889229Y-13339984D02*
X11927325Y-13339984D01*
X11927325Y-13339984D02*
X11946372Y-13330460D01*
X11946372Y-13330460D02*
X11955896Y-13320936D01*
X11955896Y-13320936D02*
X11974944Y-13292365D01*
X11974944Y-13292365D02*
X11984467Y-13254269D01*
X11984467Y-13254269D02*
X11984467Y-13178079D01*
X11984467Y-13178079D02*
X11974944Y-13159031D01*
X11974944Y-13159031D02*
X11965420Y-13149508D01*
X11965420Y-13149508D02*
X11946372Y-13139984D01*
X11946372Y-13139984D02*
X11908277Y-13139984D01*
X11908277Y-13139984D02*
X11889229Y-13149508D01*
X11889229Y-13149508D02*
X11879706Y-13159031D01*
X11879706Y-13159031D02*
X11870182Y-13178079D01*
X11870182Y-13178079D02*
X11870182Y-13225698D01*
X11870182Y-13225698D02*
X11879706Y-13244746D01*
X11879706Y-13244746D02*
X11889229Y-13254269D01*
X11889229Y-13254269D02*
X11908277Y-13263793D01*
X11908277Y-13263793D02*
X11946372Y-13263793D01*
X11946372Y-13263793D02*
X11965420Y-13254269D01*
X11965420Y-13254269D02*
X11974944Y-13244746D01*
X11974944Y-13244746D02*
X11984467Y-13225698D01*
X12155896Y-13206650D02*
X12155896Y-13339984D01*
X12108277Y-13130460D02*
X12060658Y-13273317D01*
X12060658Y-13273317D02*
X12184467Y-13273317D01*
X12251134Y-13139984D02*
X12251134Y-13178079D01*
X12327325Y-13139984D02*
X12327325Y-13178079D01*
X12622563Y-13416174D02*
X12613039Y-13406650D01*
X12613039Y-13406650D02*
X12593991Y-13378079D01*
X12593991Y-13378079D02*
X12584468Y-13359031D01*
X12584468Y-13359031D02*
X12574944Y-13330460D01*
X12574944Y-13330460D02*
X12565420Y-13282841D01*
X12565420Y-13282841D02*
X12565420Y-13244746D01*
X12565420Y-13244746D02*
X12574944Y-13197127D01*
X12574944Y-13197127D02*
X12584468Y-13168555D01*
X12584468Y-13168555D02*
X12593991Y-13149508D01*
X12593991Y-13149508D02*
X12613039Y-13120936D01*
X12613039Y-13120936D02*
X12622563Y-13111412D01*
X12803515Y-13339984D02*
X12689229Y-13339984D01*
X12746372Y-13339984D02*
X12746372Y-13139984D01*
X12746372Y-13139984D02*
X12727325Y-13168555D01*
X12727325Y-13168555D02*
X12708277Y-13187603D01*
X12708277Y-13187603D02*
X12689229Y-13197127D01*
X12870182Y-13139984D02*
X12993991Y-13139984D01*
X12993991Y-13139984D02*
X12927325Y-13216174D01*
X12927325Y-13216174D02*
X12955896Y-13216174D01*
X12955896Y-13216174D02*
X12974944Y-13225698D01*
X12974944Y-13225698D02*
X12984468Y-13235222D01*
X12984468Y-13235222D02*
X12993991Y-13254269D01*
X12993991Y-13254269D02*
X12993991Y-13301888D01*
X12993991Y-13301888D02*
X12984468Y-13320936D01*
X12984468Y-13320936D02*
X12974944Y-13330460D01*
X12974944Y-13330460D02*
X12955896Y-13339984D01*
X12955896Y-13339984D02*
X12898753Y-13339984D01*
X12898753Y-13339984D02*
X12879706Y-13330460D01*
X12879706Y-13330460D02*
X12870182Y-13320936D01*
X13232087Y-13339984D02*
X13232087Y-13139984D01*
X13317801Y-13339984D02*
X13317801Y-13235222D01*
X13317801Y-13235222D02*
X13308277Y-13216174D01*
X13308277Y-13216174D02*
X13289230Y-13206650D01*
X13289230Y-13206650D02*
X13260658Y-13206650D01*
X13260658Y-13206650D02*
X13241610Y-13216174D01*
X13241610Y-13216174D02*
X13232087Y-13225698D01*
X13441610Y-13339984D02*
X13422563Y-13330460D01*
X13422563Y-13330460D02*
X13413039Y-13320936D01*
X13413039Y-13320936D02*
X13403515Y-13301888D01*
X13403515Y-13301888D02*
X13403515Y-13244746D01*
X13403515Y-13244746D02*
X13413039Y-13225698D01*
X13413039Y-13225698D02*
X13422563Y-13216174D01*
X13422563Y-13216174D02*
X13441610Y-13206650D01*
X13441610Y-13206650D02*
X13470182Y-13206650D01*
X13470182Y-13206650D02*
X13489230Y-13216174D01*
X13489230Y-13216174D02*
X13498753Y-13225698D01*
X13498753Y-13225698D02*
X13508277Y-13244746D01*
X13508277Y-13244746D02*
X13508277Y-13301888D01*
X13508277Y-13301888D02*
X13498753Y-13320936D01*
X13498753Y-13320936D02*
X13489230Y-13330460D01*
X13489230Y-13330460D02*
X13470182Y-13339984D01*
X13470182Y-13339984D02*
X13441610Y-13339984D01*
X13622563Y-13339984D02*
X13603515Y-13330460D01*
X13603515Y-13330460D02*
X13593991Y-13311412D01*
X13593991Y-13311412D02*
X13593991Y-13139984D01*
X13774944Y-13330460D02*
X13755896Y-13339984D01*
X13755896Y-13339984D02*
X13717801Y-13339984D01*
X13717801Y-13339984D02*
X13698753Y-13330460D01*
X13698753Y-13330460D02*
X13689230Y-13311412D01*
X13689230Y-13311412D02*
X13689230Y-13235222D01*
X13689230Y-13235222D02*
X13698753Y-13216174D01*
X13698753Y-13216174D02*
X13717801Y-13206650D01*
X13717801Y-13206650D02*
X13755896Y-13206650D01*
X13755896Y-13206650D02*
X13774944Y-13216174D01*
X13774944Y-13216174D02*
X13784468Y-13235222D01*
X13784468Y-13235222D02*
X13784468Y-13254269D01*
X13784468Y-13254269D02*
X13689230Y-13273317D01*
X13860658Y-13330460D02*
X13879706Y-13339984D01*
X13879706Y-13339984D02*
X13917801Y-13339984D01*
X13917801Y-13339984D02*
X13936849Y-13330460D01*
X13936849Y-13330460D02*
X13946372Y-13311412D01*
X13946372Y-13311412D02*
X13946372Y-13301888D01*
X13946372Y-13301888D02*
X13936849Y-13282841D01*
X13936849Y-13282841D02*
X13917801Y-13273317D01*
X13917801Y-13273317D02*
X13889230Y-13273317D01*
X13889230Y-13273317D02*
X13870182Y-13263793D01*
X13870182Y-13263793D02*
X13860658Y-13244746D01*
X13860658Y-13244746D02*
X13860658Y-13235222D01*
X13860658Y-13235222D02*
X13870182Y-13216174D01*
X13870182Y-13216174D02*
X13889230Y-13206650D01*
X13889230Y-13206650D02*
X13917801Y-13206650D01*
X13917801Y-13206650D02*
X13936849Y-13216174D01*
X14013039Y-13416174D02*
X14022563Y-13406650D01*
X14022563Y-13406650D02*
X14041611Y-13378079D01*
X14041611Y-13378079D02*
X14051134Y-13359031D01*
X14051134Y-13359031D02*
X14060658Y-13330460D01*
X14060658Y-13330460D02*
X14070182Y-13282841D01*
X14070182Y-13282841D02*
X14070182Y-13244746D01*
X14070182Y-13244746D02*
X14060658Y-13197127D01*
X14060658Y-13197127D02*
X14051134Y-13168555D01*
X14051134Y-13168555D02*
X14041611Y-13149508D01*
X14041611Y-13149508D02*
X14022563Y-13120936D01*
X14022563Y-13120936D02*
X14013039Y-13111412D01*
D13*
X8895500Y-13436500D02*
X9047500Y-13588500D01*
X9047500Y-13436500D02*
X8895500Y-13588500D01*
X9047500Y-13512500D02*
G75*
G02*
X8895500Y-13512500I-76000J0D01*
G01*
X8895500Y-13512500D02*
G75*
G02*
X9047500Y-13512500I76000J0D01*
G01*
D11*
X9413039Y-13603984D02*
X9298753Y-13603984D01*
X9355896Y-13603984D02*
X9355896Y-13403984D01*
X9355896Y-13403984D02*
X9336848Y-13432555D01*
X9336848Y-13432555D02*
X9317801Y-13451603D01*
X9317801Y-13451603D02*
X9298753Y-13461127D01*
X9498753Y-13584936D02*
X9508277Y-13594460D01*
X9508277Y-13594460D02*
X9498753Y-13603984D01*
X9498753Y-13603984D02*
X9489229Y-13594460D01*
X9489229Y-13594460D02*
X9498753Y-13584936D01*
X9498753Y-13584936D02*
X9498753Y-13603984D01*
X9689229Y-13403984D02*
X9593991Y-13403984D01*
X9593991Y-13403984D02*
X9584467Y-13499222D01*
X9584467Y-13499222D02*
X9593991Y-13489698D01*
X9593991Y-13489698D02*
X9613039Y-13480174D01*
X9613039Y-13480174D02*
X9660658Y-13480174D01*
X9660658Y-13480174D02*
X9679705Y-13489698D01*
X9679705Y-13489698D02*
X9689229Y-13499222D01*
X9689229Y-13499222D02*
X9698753Y-13518269D01*
X9698753Y-13518269D02*
X9698753Y-13565888D01*
X9698753Y-13565888D02*
X9689229Y-13584936D01*
X9689229Y-13584936D02*
X9679705Y-13594460D01*
X9679705Y-13594460D02*
X9660658Y-13603984D01*
X9660658Y-13603984D02*
X9613039Y-13603984D01*
X9613039Y-13603984D02*
X9593991Y-13594460D01*
X9593991Y-13594460D02*
X9584467Y-13584936D01*
X9774944Y-13423031D02*
X9784467Y-13413508D01*
X9784467Y-13413508D02*
X9803515Y-13403984D01*
X9803515Y-13403984D02*
X9851134Y-13403984D01*
X9851134Y-13403984D02*
X9870182Y-13413508D01*
X9870182Y-13413508D02*
X9879705Y-13423031D01*
X9879705Y-13423031D02*
X9889229Y-13442079D01*
X9889229Y-13442079D02*
X9889229Y-13461127D01*
X9889229Y-13461127D02*
X9879705Y-13489698D01*
X9879705Y-13489698D02*
X9765420Y-13603984D01*
X9765420Y-13603984D02*
X9889229Y-13603984D01*
X10013039Y-13403984D02*
X10032086Y-13403984D01*
X10032086Y-13403984D02*
X10051134Y-13413508D01*
X10051134Y-13413508D02*
X10060658Y-13423031D01*
X10060658Y-13423031D02*
X10070182Y-13442079D01*
X10070182Y-13442079D02*
X10079705Y-13480174D01*
X10079705Y-13480174D02*
X10079705Y-13527793D01*
X10079705Y-13527793D02*
X10070182Y-13565888D01*
X10070182Y-13565888D02*
X10060658Y-13584936D01*
X10060658Y-13584936D02*
X10051134Y-13594460D01*
X10051134Y-13594460D02*
X10032086Y-13603984D01*
X10032086Y-13603984D02*
X10013039Y-13603984D01*
X10013039Y-13603984D02*
X9993991Y-13594460D01*
X9993991Y-13594460D02*
X9984467Y-13584936D01*
X9984467Y-13584936D02*
X9974944Y-13565888D01*
X9974944Y-13565888D02*
X9965420Y-13527793D01*
X9965420Y-13527793D02*
X9965420Y-13480174D01*
X9965420Y-13480174D02*
X9974944Y-13442079D01*
X9974944Y-13442079D02*
X9984467Y-13423031D01*
X9984467Y-13423031D02*
X9993991Y-13413508D01*
X9993991Y-13413508D02*
X10013039Y-13403984D01*
X10165420Y-13603984D02*
X10165420Y-13470650D01*
X10165420Y-13489698D02*
X10174944Y-13480174D01*
X10174944Y-13480174D02*
X10193991Y-13470650D01*
X10193991Y-13470650D02*
X10222563Y-13470650D01*
X10222563Y-13470650D02*
X10241610Y-13480174D01*
X10241610Y-13480174D02*
X10251134Y-13499222D01*
X10251134Y-13499222D02*
X10251134Y-13603984D01*
X10251134Y-13499222D02*
X10260658Y-13480174D01*
X10260658Y-13480174D02*
X10279705Y-13470650D01*
X10279705Y-13470650D02*
X10308277Y-13470650D01*
X10308277Y-13470650D02*
X10327325Y-13480174D01*
X10327325Y-13480174D02*
X10336848Y-13499222D01*
X10336848Y-13499222D02*
X10336848Y-13603984D01*
X10432086Y-13603984D02*
X10432086Y-13470650D01*
X10432086Y-13489698D02*
X10441610Y-13480174D01*
X10441610Y-13480174D02*
X10460658Y-13470650D01*
X10460658Y-13470650D02*
X10489229Y-13470650D01*
X10489229Y-13470650D02*
X10508277Y-13480174D01*
X10508277Y-13480174D02*
X10517801Y-13499222D01*
X10517801Y-13499222D02*
X10517801Y-13603984D01*
X10517801Y-13499222D02*
X10527325Y-13480174D01*
X10527325Y-13480174D02*
X10546372Y-13470650D01*
X10546372Y-13470650D02*
X10574944Y-13470650D01*
X10574944Y-13470650D02*
X10593991Y-13480174D01*
X10593991Y-13480174D02*
X10603515Y-13499222D01*
X10603515Y-13499222D02*
X10603515Y-13603984D01*
X10993991Y-13394460D02*
X10822563Y-13651603D01*
X11251134Y-13403984D02*
X11270182Y-13403984D01*
X11270182Y-13403984D02*
X11289229Y-13413508D01*
X11289229Y-13413508D02*
X11298753Y-13423031D01*
X11298753Y-13423031D02*
X11308277Y-13442079D01*
X11308277Y-13442079D02*
X11317801Y-13480174D01*
X11317801Y-13480174D02*
X11317801Y-13527793D01*
X11317801Y-13527793D02*
X11308277Y-13565888D01*
X11308277Y-13565888D02*
X11298753Y-13584936D01*
X11298753Y-13584936D02*
X11289229Y-13594460D01*
X11289229Y-13594460D02*
X11270182Y-13603984D01*
X11270182Y-13603984D02*
X11251134Y-13603984D01*
X11251134Y-13603984D02*
X11232086Y-13594460D01*
X11232086Y-13594460D02*
X11222563Y-13584936D01*
X11222563Y-13584936D02*
X11213039Y-13565888D01*
X11213039Y-13565888D02*
X11203515Y-13527793D01*
X11203515Y-13527793D02*
X11203515Y-13480174D01*
X11203515Y-13480174D02*
X11213039Y-13442079D01*
X11213039Y-13442079D02*
X11222563Y-13423031D01*
X11222563Y-13423031D02*
X11232086Y-13413508D01*
X11232086Y-13413508D02*
X11251134Y-13403984D01*
X11403515Y-13584936D02*
X11413039Y-13594460D01*
X11413039Y-13594460D02*
X11403515Y-13603984D01*
X11403515Y-13603984D02*
X11393991Y-13594460D01*
X11393991Y-13594460D02*
X11403515Y-13584936D01*
X11403515Y-13584936D02*
X11403515Y-13603984D01*
X11536848Y-13403984D02*
X11555896Y-13403984D01*
X11555896Y-13403984D02*
X11574944Y-13413508D01*
X11574944Y-13413508D02*
X11584467Y-13423031D01*
X11584467Y-13423031D02*
X11593991Y-13442079D01*
X11593991Y-13442079D02*
X11603515Y-13480174D01*
X11603515Y-13480174D02*
X11603515Y-13527793D01*
X11603515Y-13527793D02*
X11593991Y-13565888D01*
X11593991Y-13565888D02*
X11584467Y-13584936D01*
X11584467Y-13584936D02*
X11574944Y-13594460D01*
X11574944Y-13594460D02*
X11555896Y-13603984D01*
X11555896Y-13603984D02*
X11536848Y-13603984D01*
X11536848Y-13603984D02*
X11517801Y-13594460D01*
X11517801Y-13594460D02*
X11508277Y-13584936D01*
X11508277Y-13584936D02*
X11498753Y-13565888D01*
X11498753Y-13565888D02*
X11489229Y-13527793D01*
X11489229Y-13527793D02*
X11489229Y-13480174D01*
X11489229Y-13480174D02*
X11498753Y-13442079D01*
X11498753Y-13442079D02*
X11508277Y-13423031D01*
X11508277Y-13423031D02*
X11517801Y-13413508D01*
X11517801Y-13413508D02*
X11536848Y-13403984D01*
X11784467Y-13403984D02*
X11689229Y-13403984D01*
X11689229Y-13403984D02*
X11679706Y-13499222D01*
X11679706Y-13499222D02*
X11689229Y-13489698D01*
X11689229Y-13489698D02*
X11708277Y-13480174D01*
X11708277Y-13480174D02*
X11755896Y-13480174D01*
X11755896Y-13480174D02*
X11774944Y-13489698D01*
X11774944Y-13489698D02*
X11784467Y-13499222D01*
X11784467Y-13499222D02*
X11793991Y-13518269D01*
X11793991Y-13518269D02*
X11793991Y-13565888D01*
X11793991Y-13565888D02*
X11784467Y-13584936D01*
X11784467Y-13584936D02*
X11774944Y-13594460D01*
X11774944Y-13594460D02*
X11755896Y-13603984D01*
X11755896Y-13603984D02*
X11708277Y-13603984D01*
X11708277Y-13603984D02*
X11689229Y-13594460D01*
X11689229Y-13594460D02*
X11679706Y-13584936D01*
X11889229Y-13603984D02*
X11927325Y-13603984D01*
X11927325Y-13603984D02*
X11946372Y-13594460D01*
X11946372Y-13594460D02*
X11955896Y-13584936D01*
X11955896Y-13584936D02*
X11974944Y-13556365D01*
X11974944Y-13556365D02*
X11984467Y-13518269D01*
X11984467Y-13518269D02*
X11984467Y-13442079D01*
X11984467Y-13442079D02*
X11974944Y-13423031D01*
X11974944Y-13423031D02*
X11965420Y-13413508D01*
X11965420Y-13413508D02*
X11946372Y-13403984D01*
X11946372Y-13403984D02*
X11908277Y-13403984D01*
X11908277Y-13403984D02*
X11889229Y-13413508D01*
X11889229Y-13413508D02*
X11879706Y-13423031D01*
X11879706Y-13423031D02*
X11870182Y-13442079D01*
X11870182Y-13442079D02*
X11870182Y-13489698D01*
X11870182Y-13489698D02*
X11879706Y-13508746D01*
X11879706Y-13508746D02*
X11889229Y-13518269D01*
X11889229Y-13518269D02*
X11908277Y-13527793D01*
X11908277Y-13527793D02*
X11946372Y-13527793D01*
X11946372Y-13527793D02*
X11965420Y-13518269D01*
X11965420Y-13518269D02*
X11974944Y-13508746D01*
X11974944Y-13508746D02*
X11984467Y-13489698D01*
X12098753Y-13489698D02*
X12079706Y-13480174D01*
X12079706Y-13480174D02*
X12070182Y-13470650D01*
X12070182Y-13470650D02*
X12060658Y-13451603D01*
X12060658Y-13451603D02*
X12060658Y-13442079D01*
X12060658Y-13442079D02*
X12070182Y-13423031D01*
X12070182Y-13423031D02*
X12079706Y-13413508D01*
X12079706Y-13413508D02*
X12098753Y-13403984D01*
X12098753Y-13403984D02*
X12136848Y-13403984D01*
X12136848Y-13403984D02*
X12155896Y-13413508D01*
X12155896Y-13413508D02*
X12165420Y-13423031D01*
X12165420Y-13423031D02*
X12174944Y-13442079D01*
X12174944Y-13442079D02*
X12174944Y-13451603D01*
X12174944Y-13451603D02*
X12165420Y-13470650D01*
X12165420Y-13470650D02*
X12155896Y-13480174D01*
X12155896Y-13480174D02*
X12136848Y-13489698D01*
X12136848Y-13489698D02*
X12098753Y-13489698D01*
X12098753Y-13489698D02*
X12079706Y-13499222D01*
X12079706Y-13499222D02*
X12070182Y-13508746D01*
X12070182Y-13508746D02*
X12060658Y-13527793D01*
X12060658Y-13527793D02*
X12060658Y-13565888D01*
X12060658Y-13565888D02*
X12070182Y-13584936D01*
X12070182Y-13584936D02*
X12079706Y-13594460D01*
X12079706Y-13594460D02*
X12098753Y-13603984D01*
X12098753Y-13603984D02*
X12136848Y-13603984D01*
X12136848Y-13603984D02*
X12155896Y-13594460D01*
X12155896Y-13594460D02*
X12165420Y-13584936D01*
X12165420Y-13584936D02*
X12174944Y-13565888D01*
X12174944Y-13565888D02*
X12174944Y-13527793D01*
X12174944Y-13527793D02*
X12165420Y-13508746D01*
X12165420Y-13508746D02*
X12155896Y-13499222D01*
X12155896Y-13499222D02*
X12136848Y-13489698D01*
X12251134Y-13403984D02*
X12251134Y-13442079D01*
X12327325Y-13403984D02*
X12327325Y-13442079D01*
X12622563Y-13680174D02*
X12613039Y-13670650D01*
X12613039Y-13670650D02*
X12593991Y-13642079D01*
X12593991Y-13642079D02*
X12584468Y-13623031D01*
X12584468Y-13623031D02*
X12574944Y-13594460D01*
X12574944Y-13594460D02*
X12565420Y-13546841D01*
X12565420Y-13546841D02*
X12565420Y-13508746D01*
X12565420Y-13508746D02*
X12574944Y-13461127D01*
X12574944Y-13461127D02*
X12584468Y-13432555D01*
X12584468Y-13432555D02*
X12593991Y-13413508D01*
X12593991Y-13413508D02*
X12613039Y-13384936D01*
X12613039Y-13384936D02*
X12622563Y-13375412D01*
X12689229Y-13423031D02*
X12698753Y-13413508D01*
X12698753Y-13413508D02*
X12717801Y-13403984D01*
X12717801Y-13403984D02*
X12765420Y-13403984D01*
X12765420Y-13403984D02*
X12784468Y-13413508D01*
X12784468Y-13413508D02*
X12793991Y-13423031D01*
X12793991Y-13423031D02*
X12803515Y-13442079D01*
X12803515Y-13442079D02*
X12803515Y-13461127D01*
X12803515Y-13461127D02*
X12793991Y-13489698D01*
X12793991Y-13489698D02*
X12679706Y-13603984D01*
X12679706Y-13603984D02*
X12803515Y-13603984D01*
X13041610Y-13603984D02*
X13041610Y-13403984D01*
X13127325Y-13603984D02*
X13127325Y-13499222D01*
X13127325Y-13499222D02*
X13117801Y-13480174D01*
X13117801Y-13480174D02*
X13098753Y-13470650D01*
X13098753Y-13470650D02*
X13070182Y-13470650D01*
X13070182Y-13470650D02*
X13051134Y-13480174D01*
X13051134Y-13480174D02*
X13041610Y-13489698D01*
X13251134Y-13603984D02*
X13232087Y-13594460D01*
X13232087Y-13594460D02*
X13222563Y-13584936D01*
X13222563Y-13584936D02*
X13213039Y-13565888D01*
X13213039Y-13565888D02*
X13213039Y-13508746D01*
X13213039Y-13508746D02*
X13222563Y-13489698D01*
X13222563Y-13489698D02*
X13232087Y-13480174D01*
X13232087Y-13480174D02*
X13251134Y-13470650D01*
X13251134Y-13470650D02*
X13279706Y-13470650D01*
X13279706Y-13470650D02*
X13298753Y-13480174D01*
X13298753Y-13480174D02*
X13308277Y-13489698D01*
X13308277Y-13489698D02*
X13317801Y-13508746D01*
X13317801Y-13508746D02*
X13317801Y-13565888D01*
X13317801Y-13565888D02*
X13308277Y-13584936D01*
X13308277Y-13584936D02*
X13298753Y-13594460D01*
X13298753Y-13594460D02*
X13279706Y-13603984D01*
X13279706Y-13603984D02*
X13251134Y-13603984D01*
X13432087Y-13603984D02*
X13413039Y-13594460D01*
X13413039Y-13594460D02*
X13403515Y-13575412D01*
X13403515Y-13575412D02*
X13403515Y-13403984D01*
X13584468Y-13594460D02*
X13565420Y-13603984D01*
X13565420Y-13603984D02*
X13527325Y-13603984D01*
X13527325Y-13603984D02*
X13508277Y-13594460D01*
X13508277Y-13594460D02*
X13498753Y-13575412D01*
X13498753Y-13575412D02*
X13498753Y-13499222D01*
X13498753Y-13499222D02*
X13508277Y-13480174D01*
X13508277Y-13480174D02*
X13527325Y-13470650D01*
X13527325Y-13470650D02*
X13565420Y-13470650D01*
X13565420Y-13470650D02*
X13584468Y-13480174D01*
X13584468Y-13480174D02*
X13593991Y-13499222D01*
X13593991Y-13499222D02*
X13593991Y-13518269D01*
X13593991Y-13518269D02*
X13498753Y-13537317D01*
X13670182Y-13594460D02*
X13689230Y-13603984D01*
X13689230Y-13603984D02*
X13727325Y-13603984D01*
X13727325Y-13603984D02*
X13746372Y-13594460D01*
X13746372Y-13594460D02*
X13755896Y-13575412D01*
X13755896Y-13575412D02*
X13755896Y-13565888D01*
X13755896Y-13565888D02*
X13746372Y-13546841D01*
X13746372Y-13546841D02*
X13727325Y-13537317D01*
X13727325Y-13537317D02*
X13698753Y-13537317D01*
X13698753Y-13537317D02*
X13679706Y-13527793D01*
X13679706Y-13527793D02*
X13670182Y-13508746D01*
X13670182Y-13508746D02*
X13670182Y-13499222D01*
X13670182Y-13499222D02*
X13679706Y-13480174D01*
X13679706Y-13480174D02*
X13698753Y-13470650D01*
X13698753Y-13470650D02*
X13727325Y-13470650D01*
X13727325Y-13470650D02*
X13746372Y-13480174D01*
X13822563Y-13680174D02*
X13832087Y-13670650D01*
X13832087Y-13670650D02*
X13851134Y-13642079D01*
X13851134Y-13642079D02*
X13860658Y-13623031D01*
X13860658Y-13623031D02*
X13870182Y-13594460D01*
X13870182Y-13594460D02*
X13879706Y-13546841D01*
X13879706Y-13546841D02*
X13879706Y-13508746D01*
X13879706Y-13508746D02*
X13870182Y-13461127D01*
X13870182Y-13461127D02*
X13860658Y-13432555D01*
X13860658Y-13432555D02*
X13851134Y-13413508D01*
X13851134Y-13413508D02*
X13832087Y-13384936D01*
X13832087Y-13384936D02*
X13822563Y-13375412D01*
D14*
X8867500Y-13694500D02*
X9047500Y-13874500D01*
X9047500Y-13694500D02*
X8867500Y-13874500D01*
X8957500Y-13694500D02*
X8957500Y-13874500D01*
X8867500Y-13784500D02*
X9047500Y-13784500D01*
D11*
X9413039Y-13875984D02*
X9298753Y-13875984D01*
X9355896Y-13875984D02*
X9355896Y-13675984D01*
X9355896Y-13675984D02*
X9336848Y-13704555D01*
X9336848Y-13704555D02*
X9317801Y-13723603D01*
X9317801Y-13723603D02*
X9298753Y-13733127D01*
X9498753Y-13856936D02*
X9508277Y-13866460D01*
X9508277Y-13866460D02*
X9498753Y-13875984D01*
X9498753Y-13875984D02*
X9489229Y-13866460D01*
X9489229Y-13866460D02*
X9498753Y-13856936D01*
X9498753Y-13856936D02*
X9498753Y-13875984D01*
X9622563Y-13761698D02*
X9603515Y-13752174D01*
X9603515Y-13752174D02*
X9593991Y-13742650D01*
X9593991Y-13742650D02*
X9584467Y-13723603D01*
X9584467Y-13723603D02*
X9584467Y-13714079D01*
X9584467Y-13714079D02*
X9593991Y-13695031D01*
X9593991Y-13695031D02*
X9603515Y-13685508D01*
X9603515Y-13685508D02*
X9622563Y-13675984D01*
X9622563Y-13675984D02*
X9660658Y-13675984D01*
X9660658Y-13675984D02*
X9679705Y-13685508D01*
X9679705Y-13685508D02*
X9689229Y-13695031D01*
X9689229Y-13695031D02*
X9698753Y-13714079D01*
X9698753Y-13714079D02*
X9698753Y-13723603D01*
X9698753Y-13723603D02*
X9689229Y-13742650D01*
X9689229Y-13742650D02*
X9679705Y-13752174D01*
X9679705Y-13752174D02*
X9660658Y-13761698D01*
X9660658Y-13761698D02*
X9622563Y-13761698D01*
X9622563Y-13761698D02*
X9603515Y-13771222D01*
X9603515Y-13771222D02*
X9593991Y-13780746D01*
X9593991Y-13780746D02*
X9584467Y-13799793D01*
X9584467Y-13799793D02*
X9584467Y-13837888D01*
X9584467Y-13837888D02*
X9593991Y-13856936D01*
X9593991Y-13856936D02*
X9603515Y-13866460D01*
X9603515Y-13866460D02*
X9622563Y-13875984D01*
X9622563Y-13875984D02*
X9660658Y-13875984D01*
X9660658Y-13875984D02*
X9679705Y-13866460D01*
X9679705Y-13866460D02*
X9689229Y-13856936D01*
X9689229Y-13856936D02*
X9698753Y-13837888D01*
X9698753Y-13837888D02*
X9698753Y-13799793D01*
X9698753Y-13799793D02*
X9689229Y-13780746D01*
X9689229Y-13780746D02*
X9679705Y-13771222D01*
X9679705Y-13771222D02*
X9660658Y-13761698D01*
X9822563Y-13675984D02*
X9841610Y-13675984D01*
X9841610Y-13675984D02*
X9860658Y-13685508D01*
X9860658Y-13685508D02*
X9870182Y-13695031D01*
X9870182Y-13695031D02*
X9879705Y-13714079D01*
X9879705Y-13714079D02*
X9889229Y-13752174D01*
X9889229Y-13752174D02*
X9889229Y-13799793D01*
X9889229Y-13799793D02*
X9879705Y-13837888D01*
X9879705Y-13837888D02*
X9870182Y-13856936D01*
X9870182Y-13856936D02*
X9860658Y-13866460D01*
X9860658Y-13866460D02*
X9841610Y-13875984D01*
X9841610Y-13875984D02*
X9822563Y-13875984D01*
X9822563Y-13875984D02*
X9803515Y-13866460D01*
X9803515Y-13866460D02*
X9793991Y-13856936D01*
X9793991Y-13856936D02*
X9784467Y-13837888D01*
X9784467Y-13837888D02*
X9774944Y-13799793D01*
X9774944Y-13799793D02*
X9774944Y-13752174D01*
X9774944Y-13752174D02*
X9784467Y-13714079D01*
X9784467Y-13714079D02*
X9793991Y-13695031D01*
X9793991Y-13695031D02*
X9803515Y-13685508D01*
X9803515Y-13685508D02*
X9822563Y-13675984D01*
X10013039Y-13675984D02*
X10032086Y-13675984D01*
X10032086Y-13675984D02*
X10051134Y-13685508D01*
X10051134Y-13685508D02*
X10060658Y-13695031D01*
X10060658Y-13695031D02*
X10070182Y-13714079D01*
X10070182Y-13714079D02*
X10079705Y-13752174D01*
X10079705Y-13752174D02*
X10079705Y-13799793D01*
X10079705Y-13799793D02*
X10070182Y-13837888D01*
X10070182Y-13837888D02*
X10060658Y-13856936D01*
X10060658Y-13856936D02*
X10051134Y-13866460D01*
X10051134Y-13866460D02*
X10032086Y-13875984D01*
X10032086Y-13875984D02*
X10013039Y-13875984D01*
X10013039Y-13875984D02*
X9993991Y-13866460D01*
X9993991Y-13866460D02*
X9984467Y-13856936D01*
X9984467Y-13856936D02*
X9974944Y-13837888D01*
X9974944Y-13837888D02*
X9965420Y-13799793D01*
X9965420Y-13799793D02*
X9965420Y-13752174D01*
X9965420Y-13752174D02*
X9974944Y-13714079D01*
X9974944Y-13714079D02*
X9984467Y-13695031D01*
X9984467Y-13695031D02*
X9993991Y-13685508D01*
X9993991Y-13685508D02*
X10013039Y-13675984D01*
X10165420Y-13875984D02*
X10165420Y-13742650D01*
X10165420Y-13761698D02*
X10174944Y-13752174D01*
X10174944Y-13752174D02*
X10193991Y-13742650D01*
X10193991Y-13742650D02*
X10222563Y-13742650D01*
X10222563Y-13742650D02*
X10241610Y-13752174D01*
X10241610Y-13752174D02*
X10251134Y-13771222D01*
X10251134Y-13771222D02*
X10251134Y-13875984D01*
X10251134Y-13771222D02*
X10260658Y-13752174D01*
X10260658Y-13752174D02*
X10279705Y-13742650D01*
X10279705Y-13742650D02*
X10308277Y-13742650D01*
X10308277Y-13742650D02*
X10327325Y-13752174D01*
X10327325Y-13752174D02*
X10336848Y-13771222D01*
X10336848Y-13771222D02*
X10336848Y-13875984D01*
X10432086Y-13875984D02*
X10432086Y-13742650D01*
X10432086Y-13761698D02*
X10441610Y-13752174D01*
X10441610Y-13752174D02*
X10460658Y-13742650D01*
X10460658Y-13742650D02*
X10489229Y-13742650D01*
X10489229Y-13742650D02*
X10508277Y-13752174D01*
X10508277Y-13752174D02*
X10517801Y-13771222D01*
X10517801Y-13771222D02*
X10517801Y-13875984D01*
X10517801Y-13771222D02*
X10527325Y-13752174D01*
X10527325Y-13752174D02*
X10546372Y-13742650D01*
X10546372Y-13742650D02*
X10574944Y-13742650D01*
X10574944Y-13742650D02*
X10593991Y-13752174D01*
X10593991Y-13752174D02*
X10603515Y-13771222D01*
X10603515Y-13771222D02*
X10603515Y-13875984D01*
X10993991Y-13666460D02*
X10822563Y-13923603D01*
X11251134Y-13675984D02*
X11270182Y-13675984D01*
X11270182Y-13675984D02*
X11289229Y-13685508D01*
X11289229Y-13685508D02*
X11298753Y-13695031D01*
X11298753Y-13695031D02*
X11308277Y-13714079D01*
X11308277Y-13714079D02*
X11317801Y-13752174D01*
X11317801Y-13752174D02*
X11317801Y-13799793D01*
X11317801Y-13799793D02*
X11308277Y-13837888D01*
X11308277Y-13837888D02*
X11298753Y-13856936D01*
X11298753Y-13856936D02*
X11289229Y-13866460D01*
X11289229Y-13866460D02*
X11270182Y-13875984D01*
X11270182Y-13875984D02*
X11251134Y-13875984D01*
X11251134Y-13875984D02*
X11232086Y-13866460D01*
X11232086Y-13866460D02*
X11222563Y-13856936D01*
X11222563Y-13856936D02*
X11213039Y-13837888D01*
X11213039Y-13837888D02*
X11203515Y-13799793D01*
X11203515Y-13799793D02*
X11203515Y-13752174D01*
X11203515Y-13752174D02*
X11213039Y-13714079D01*
X11213039Y-13714079D02*
X11222563Y-13695031D01*
X11222563Y-13695031D02*
X11232086Y-13685508D01*
X11232086Y-13685508D02*
X11251134Y-13675984D01*
X11403515Y-13856936D02*
X11413039Y-13866460D01*
X11413039Y-13866460D02*
X11403515Y-13875984D01*
X11403515Y-13875984D02*
X11393991Y-13866460D01*
X11393991Y-13866460D02*
X11403515Y-13856936D01*
X11403515Y-13856936D02*
X11403515Y-13875984D01*
X11536848Y-13675984D02*
X11555896Y-13675984D01*
X11555896Y-13675984D02*
X11574944Y-13685508D01*
X11574944Y-13685508D02*
X11584467Y-13695031D01*
X11584467Y-13695031D02*
X11593991Y-13714079D01*
X11593991Y-13714079D02*
X11603515Y-13752174D01*
X11603515Y-13752174D02*
X11603515Y-13799793D01*
X11603515Y-13799793D02*
X11593991Y-13837888D01*
X11593991Y-13837888D02*
X11584467Y-13856936D01*
X11584467Y-13856936D02*
X11574944Y-13866460D01*
X11574944Y-13866460D02*
X11555896Y-13875984D01*
X11555896Y-13875984D02*
X11536848Y-13875984D01*
X11536848Y-13875984D02*
X11517801Y-13866460D01*
X11517801Y-13866460D02*
X11508277Y-13856936D01*
X11508277Y-13856936D02*
X11498753Y-13837888D01*
X11498753Y-13837888D02*
X11489229Y-13799793D01*
X11489229Y-13799793D02*
X11489229Y-13752174D01*
X11489229Y-13752174D02*
X11498753Y-13714079D01*
X11498753Y-13714079D02*
X11508277Y-13695031D01*
X11508277Y-13695031D02*
X11517801Y-13685508D01*
X11517801Y-13685508D02*
X11536848Y-13675984D01*
X11670182Y-13675984D02*
X11803515Y-13675984D01*
X11803515Y-13675984D02*
X11717801Y-13875984D01*
X11917801Y-13675984D02*
X11936848Y-13675984D01*
X11936848Y-13675984D02*
X11955896Y-13685508D01*
X11955896Y-13685508D02*
X11965420Y-13695031D01*
X11965420Y-13695031D02*
X11974944Y-13714079D01*
X11974944Y-13714079D02*
X11984467Y-13752174D01*
X11984467Y-13752174D02*
X11984467Y-13799793D01*
X11984467Y-13799793D02*
X11974944Y-13837888D01*
X11974944Y-13837888D02*
X11965420Y-13856936D01*
X11965420Y-13856936D02*
X11955896Y-13866460D01*
X11955896Y-13866460D02*
X11936848Y-13875984D01*
X11936848Y-13875984D02*
X11917801Y-13875984D01*
X11917801Y-13875984D02*
X11898753Y-13866460D01*
X11898753Y-13866460D02*
X11889229Y-13856936D01*
X11889229Y-13856936D02*
X11879706Y-13837888D01*
X11879706Y-13837888D02*
X11870182Y-13799793D01*
X11870182Y-13799793D02*
X11870182Y-13752174D01*
X11870182Y-13752174D02*
X11879706Y-13714079D01*
X11879706Y-13714079D02*
X11889229Y-13695031D01*
X11889229Y-13695031D02*
X11898753Y-13685508D01*
X11898753Y-13685508D02*
X11917801Y-13675984D01*
X12079706Y-13875984D02*
X12117801Y-13875984D01*
X12117801Y-13875984D02*
X12136848Y-13866460D01*
X12136848Y-13866460D02*
X12146372Y-13856936D01*
X12146372Y-13856936D02*
X12165420Y-13828365D01*
X12165420Y-13828365D02*
X12174944Y-13790269D01*
X12174944Y-13790269D02*
X12174944Y-13714079D01*
X12174944Y-13714079D02*
X12165420Y-13695031D01*
X12165420Y-13695031D02*
X12155896Y-13685508D01*
X12155896Y-13685508D02*
X12136848Y-13675984D01*
X12136848Y-13675984D02*
X12098753Y-13675984D01*
X12098753Y-13675984D02*
X12079706Y-13685508D01*
X12079706Y-13685508D02*
X12070182Y-13695031D01*
X12070182Y-13695031D02*
X12060658Y-13714079D01*
X12060658Y-13714079D02*
X12060658Y-13761698D01*
X12060658Y-13761698D02*
X12070182Y-13780746D01*
X12070182Y-13780746D02*
X12079706Y-13790269D01*
X12079706Y-13790269D02*
X12098753Y-13799793D01*
X12098753Y-13799793D02*
X12136848Y-13799793D01*
X12136848Y-13799793D02*
X12155896Y-13790269D01*
X12155896Y-13790269D02*
X12165420Y-13780746D01*
X12165420Y-13780746D02*
X12174944Y-13761698D01*
X12251134Y-13675984D02*
X12251134Y-13714079D01*
X12327325Y-13675984D02*
X12327325Y-13714079D01*
X12622563Y-13952174D02*
X12613039Y-13942650D01*
X12613039Y-13942650D02*
X12593991Y-13914079D01*
X12593991Y-13914079D02*
X12584468Y-13895031D01*
X12584468Y-13895031D02*
X12574944Y-13866460D01*
X12574944Y-13866460D02*
X12565420Y-13818841D01*
X12565420Y-13818841D02*
X12565420Y-13780746D01*
X12565420Y-13780746D02*
X12574944Y-13733127D01*
X12574944Y-13733127D02*
X12584468Y-13704555D01*
X12584468Y-13704555D02*
X12593991Y-13685508D01*
X12593991Y-13685508D02*
X12613039Y-13656936D01*
X12613039Y-13656936D02*
X12622563Y-13647412D01*
X12689229Y-13695031D02*
X12698753Y-13685508D01*
X12698753Y-13685508D02*
X12717801Y-13675984D01*
X12717801Y-13675984D02*
X12765420Y-13675984D01*
X12765420Y-13675984D02*
X12784468Y-13685508D01*
X12784468Y-13685508D02*
X12793991Y-13695031D01*
X12793991Y-13695031D02*
X12803515Y-13714079D01*
X12803515Y-13714079D02*
X12803515Y-13733127D01*
X12803515Y-13733127D02*
X12793991Y-13761698D01*
X12793991Y-13761698D02*
X12679706Y-13875984D01*
X12679706Y-13875984D02*
X12803515Y-13875984D01*
X12870182Y-13675984D02*
X12993991Y-13675984D01*
X12993991Y-13675984D02*
X12927325Y-13752174D01*
X12927325Y-13752174D02*
X12955896Y-13752174D01*
X12955896Y-13752174D02*
X12974944Y-13761698D01*
X12974944Y-13761698D02*
X12984468Y-13771222D01*
X12984468Y-13771222D02*
X12993991Y-13790269D01*
X12993991Y-13790269D02*
X12993991Y-13837888D01*
X12993991Y-13837888D02*
X12984468Y-13856936D01*
X12984468Y-13856936D02*
X12974944Y-13866460D01*
X12974944Y-13866460D02*
X12955896Y-13875984D01*
X12955896Y-13875984D02*
X12898753Y-13875984D01*
X12898753Y-13875984D02*
X12879706Y-13866460D01*
X12879706Y-13866460D02*
X12870182Y-13856936D01*
X13232087Y-13875984D02*
X13232087Y-13675984D01*
X13317801Y-13875984D02*
X13317801Y-13771222D01*
X13317801Y-13771222D02*
X13308277Y-13752174D01*
X13308277Y-13752174D02*
X13289230Y-13742650D01*
X13289230Y-13742650D02*
X13260658Y-13742650D01*
X13260658Y-13742650D02*
X13241610Y-13752174D01*
X13241610Y-13752174D02*
X13232087Y-13761698D01*
X13441610Y-13875984D02*
X13422563Y-13866460D01*
X13422563Y-13866460D02*
X13413039Y-13856936D01*
X13413039Y-13856936D02*
X13403515Y-13837888D01*
X13403515Y-13837888D02*
X13403515Y-13780746D01*
X13403515Y-13780746D02*
X13413039Y-13761698D01*
X13413039Y-13761698D02*
X13422563Y-13752174D01*
X13422563Y-13752174D02*
X13441610Y-13742650D01*
X13441610Y-13742650D02*
X13470182Y-13742650D01*
X13470182Y-13742650D02*
X13489230Y-13752174D01*
X13489230Y-13752174D02*
X13498753Y-13761698D01*
X13498753Y-13761698D02*
X13508277Y-13780746D01*
X13508277Y-13780746D02*
X13508277Y-13837888D01*
X13508277Y-13837888D02*
X13498753Y-13856936D01*
X13498753Y-13856936D02*
X13489230Y-13866460D01*
X13489230Y-13866460D02*
X13470182Y-13875984D01*
X13470182Y-13875984D02*
X13441610Y-13875984D01*
X13622563Y-13875984D02*
X13603515Y-13866460D01*
X13603515Y-13866460D02*
X13593991Y-13847412D01*
X13593991Y-13847412D02*
X13593991Y-13675984D01*
X13774944Y-13866460D02*
X13755896Y-13875984D01*
X13755896Y-13875984D02*
X13717801Y-13875984D01*
X13717801Y-13875984D02*
X13698753Y-13866460D01*
X13698753Y-13866460D02*
X13689230Y-13847412D01*
X13689230Y-13847412D02*
X13689230Y-13771222D01*
X13689230Y-13771222D02*
X13698753Y-13752174D01*
X13698753Y-13752174D02*
X13717801Y-13742650D01*
X13717801Y-13742650D02*
X13755896Y-13742650D01*
X13755896Y-13742650D02*
X13774944Y-13752174D01*
X13774944Y-13752174D02*
X13784468Y-13771222D01*
X13784468Y-13771222D02*
X13784468Y-13790269D01*
X13784468Y-13790269D02*
X13689230Y-13809317D01*
X13860658Y-13866460D02*
X13879706Y-13875984D01*
X13879706Y-13875984D02*
X13917801Y-13875984D01*
X13917801Y-13875984D02*
X13936849Y-13866460D01*
X13936849Y-13866460D02*
X13946372Y-13847412D01*
X13946372Y-13847412D02*
X13946372Y-13837888D01*
X13946372Y-13837888D02*
X13936849Y-13818841D01*
X13936849Y-13818841D02*
X13917801Y-13809317D01*
X13917801Y-13809317D02*
X13889230Y-13809317D01*
X13889230Y-13809317D02*
X13870182Y-13799793D01*
X13870182Y-13799793D02*
X13860658Y-13780746D01*
X13860658Y-13780746D02*
X13860658Y-13771222D01*
X13860658Y-13771222D02*
X13870182Y-13752174D01*
X13870182Y-13752174D02*
X13889230Y-13742650D01*
X13889230Y-13742650D02*
X13917801Y-13742650D01*
X13917801Y-13742650D02*
X13936849Y-13752174D01*
X14013039Y-13952174D02*
X14022563Y-13942650D01*
X14022563Y-13942650D02*
X14041611Y-13914079D01*
X14041611Y-13914079D02*
X14051134Y-13895031D01*
X14051134Y-13895031D02*
X14060658Y-13866460D01*
X14060658Y-13866460D02*
X14070182Y-13818841D01*
X14070182Y-13818841D02*
X14070182Y-13780746D01*
X14070182Y-13780746D02*
X14060658Y-13733127D01*
X14060658Y-13733127D02*
X14051134Y-13704555D01*
X14051134Y-13704555D02*
X14041611Y-13685508D01*
X14041611Y-13685508D02*
X14022563Y-13656936D01*
X14022563Y-13656936D02*
X14013039Y-13647412D01*
D15*
X8857500Y-13989500D02*
X9047500Y-14179500D01*
X9047500Y-13989500D02*
X8857500Y-14179500D01*
X9019676Y-14151676D02*
X9019676Y-14017324D01*
X8885324Y-14017324D01*
X8885324Y-14151676D01*
X9019676Y-14151676D01*
D11*
X9413039Y-14175984D02*
X9298753Y-14175984D01*
X9355896Y-14175984D02*
X9355896Y-13975984D01*
X9355896Y-13975984D02*
X9336848Y-14004555D01*
X9336848Y-14004555D02*
X9317801Y-14023603D01*
X9317801Y-14023603D02*
X9298753Y-14033127D01*
X9498753Y-14156936D02*
X9508277Y-14166460D01*
X9508277Y-14166460D02*
X9498753Y-14175984D01*
X9498753Y-14175984D02*
X9489229Y-14166460D01*
X9489229Y-14166460D02*
X9498753Y-14156936D01*
X9498753Y-14156936D02*
X9498753Y-14175984D01*
X9603515Y-14175984D02*
X9641610Y-14175984D01*
X9641610Y-14175984D02*
X9660658Y-14166460D01*
X9660658Y-14166460D02*
X9670182Y-14156936D01*
X9670182Y-14156936D02*
X9689229Y-14128365D01*
X9689229Y-14128365D02*
X9698753Y-14090269D01*
X9698753Y-14090269D02*
X9698753Y-14014079D01*
X9698753Y-14014079D02*
X9689229Y-13995031D01*
X9689229Y-13995031D02*
X9679705Y-13985508D01*
X9679705Y-13985508D02*
X9660658Y-13975984D01*
X9660658Y-13975984D02*
X9622563Y-13975984D01*
X9622563Y-13975984D02*
X9603515Y-13985508D01*
X9603515Y-13985508D02*
X9593991Y-13995031D01*
X9593991Y-13995031D02*
X9584467Y-14014079D01*
X9584467Y-14014079D02*
X9584467Y-14061698D01*
X9584467Y-14061698D02*
X9593991Y-14080746D01*
X9593991Y-14080746D02*
X9603515Y-14090269D01*
X9603515Y-14090269D02*
X9622563Y-14099793D01*
X9622563Y-14099793D02*
X9660658Y-14099793D01*
X9660658Y-14099793D02*
X9679705Y-14090269D01*
X9679705Y-14090269D02*
X9689229Y-14080746D01*
X9689229Y-14080746D02*
X9698753Y-14061698D01*
X9822563Y-13975984D02*
X9841610Y-13975984D01*
X9841610Y-13975984D02*
X9860658Y-13985508D01*
X9860658Y-13985508D02*
X9870182Y-13995031D01*
X9870182Y-13995031D02*
X9879705Y-14014079D01*
X9879705Y-14014079D02*
X9889229Y-14052174D01*
X9889229Y-14052174D02*
X9889229Y-14099793D01*
X9889229Y-14099793D02*
X9879705Y-14137888D01*
X9879705Y-14137888D02*
X9870182Y-14156936D01*
X9870182Y-14156936D02*
X9860658Y-14166460D01*
X9860658Y-14166460D02*
X9841610Y-14175984D01*
X9841610Y-14175984D02*
X9822563Y-14175984D01*
X9822563Y-14175984D02*
X9803515Y-14166460D01*
X9803515Y-14166460D02*
X9793991Y-14156936D01*
X9793991Y-14156936D02*
X9784467Y-14137888D01*
X9784467Y-14137888D02*
X9774944Y-14099793D01*
X9774944Y-14099793D02*
X9774944Y-14052174D01*
X9774944Y-14052174D02*
X9784467Y-14014079D01*
X9784467Y-14014079D02*
X9793991Y-13995031D01*
X9793991Y-13995031D02*
X9803515Y-13985508D01*
X9803515Y-13985508D02*
X9822563Y-13975984D01*
X10013039Y-13975984D02*
X10032086Y-13975984D01*
X10032086Y-13975984D02*
X10051134Y-13985508D01*
X10051134Y-13985508D02*
X10060658Y-13995031D01*
X10060658Y-13995031D02*
X10070182Y-14014079D01*
X10070182Y-14014079D02*
X10079705Y-14052174D01*
X10079705Y-14052174D02*
X10079705Y-14099793D01*
X10079705Y-14099793D02*
X10070182Y-14137888D01*
X10070182Y-14137888D02*
X10060658Y-14156936D01*
X10060658Y-14156936D02*
X10051134Y-14166460D01*
X10051134Y-14166460D02*
X10032086Y-14175984D01*
X10032086Y-14175984D02*
X10013039Y-14175984D01*
X10013039Y-14175984D02*
X9993991Y-14166460D01*
X9993991Y-14166460D02*
X9984467Y-14156936D01*
X9984467Y-14156936D02*
X9974944Y-14137888D01*
X9974944Y-14137888D02*
X9965420Y-14099793D01*
X9965420Y-14099793D02*
X9965420Y-14052174D01*
X9965420Y-14052174D02*
X9974944Y-14014079D01*
X9974944Y-14014079D02*
X9984467Y-13995031D01*
X9984467Y-13995031D02*
X9993991Y-13985508D01*
X9993991Y-13985508D02*
X10013039Y-13975984D01*
X10165420Y-14175984D02*
X10165420Y-14042650D01*
X10165420Y-14061698D02*
X10174944Y-14052174D01*
X10174944Y-14052174D02*
X10193991Y-14042650D01*
X10193991Y-14042650D02*
X10222563Y-14042650D01*
X10222563Y-14042650D02*
X10241610Y-14052174D01*
X10241610Y-14052174D02*
X10251134Y-14071222D01*
X10251134Y-14071222D02*
X10251134Y-14175984D01*
X10251134Y-14071222D02*
X10260658Y-14052174D01*
X10260658Y-14052174D02*
X10279705Y-14042650D01*
X10279705Y-14042650D02*
X10308277Y-14042650D01*
X10308277Y-14042650D02*
X10327325Y-14052174D01*
X10327325Y-14052174D02*
X10336848Y-14071222D01*
X10336848Y-14071222D02*
X10336848Y-14175984D01*
X10432086Y-14175984D02*
X10432086Y-14042650D01*
X10432086Y-14061698D02*
X10441610Y-14052174D01*
X10441610Y-14052174D02*
X10460658Y-14042650D01*
X10460658Y-14042650D02*
X10489229Y-14042650D01*
X10489229Y-14042650D02*
X10508277Y-14052174D01*
X10508277Y-14052174D02*
X10517801Y-14071222D01*
X10517801Y-14071222D02*
X10517801Y-14175984D01*
X10517801Y-14071222D02*
X10527325Y-14052174D01*
X10527325Y-14052174D02*
X10546372Y-14042650D01*
X10546372Y-14042650D02*
X10574944Y-14042650D01*
X10574944Y-14042650D02*
X10593991Y-14052174D01*
X10593991Y-14052174D02*
X10603515Y-14071222D01*
X10603515Y-14071222D02*
X10603515Y-14175984D01*
X10993991Y-13966460D02*
X10822563Y-14223603D01*
X11251134Y-13975984D02*
X11270182Y-13975984D01*
X11270182Y-13975984D02*
X11289229Y-13985508D01*
X11289229Y-13985508D02*
X11298753Y-13995031D01*
X11298753Y-13995031D02*
X11308277Y-14014079D01*
X11308277Y-14014079D02*
X11317801Y-14052174D01*
X11317801Y-14052174D02*
X11317801Y-14099793D01*
X11317801Y-14099793D02*
X11308277Y-14137888D01*
X11308277Y-14137888D02*
X11298753Y-14156936D01*
X11298753Y-14156936D02*
X11289229Y-14166460D01*
X11289229Y-14166460D02*
X11270182Y-14175984D01*
X11270182Y-14175984D02*
X11251134Y-14175984D01*
X11251134Y-14175984D02*
X11232086Y-14166460D01*
X11232086Y-14166460D02*
X11222563Y-14156936D01*
X11222563Y-14156936D02*
X11213039Y-14137888D01*
X11213039Y-14137888D02*
X11203515Y-14099793D01*
X11203515Y-14099793D02*
X11203515Y-14052174D01*
X11203515Y-14052174D02*
X11213039Y-14014079D01*
X11213039Y-14014079D02*
X11222563Y-13995031D01*
X11222563Y-13995031D02*
X11232086Y-13985508D01*
X11232086Y-13985508D02*
X11251134Y-13975984D01*
X11403515Y-14156936D02*
X11413039Y-14166460D01*
X11413039Y-14166460D02*
X11403515Y-14175984D01*
X11403515Y-14175984D02*
X11393991Y-14166460D01*
X11393991Y-14166460D02*
X11403515Y-14156936D01*
X11403515Y-14156936D02*
X11403515Y-14175984D01*
X11536848Y-13975984D02*
X11555896Y-13975984D01*
X11555896Y-13975984D02*
X11574944Y-13985508D01*
X11574944Y-13985508D02*
X11584467Y-13995031D01*
X11584467Y-13995031D02*
X11593991Y-14014079D01*
X11593991Y-14014079D02*
X11603515Y-14052174D01*
X11603515Y-14052174D02*
X11603515Y-14099793D01*
X11603515Y-14099793D02*
X11593991Y-14137888D01*
X11593991Y-14137888D02*
X11584467Y-14156936D01*
X11584467Y-14156936D02*
X11574944Y-14166460D01*
X11574944Y-14166460D02*
X11555896Y-14175984D01*
X11555896Y-14175984D02*
X11536848Y-14175984D01*
X11536848Y-14175984D02*
X11517801Y-14166460D01*
X11517801Y-14166460D02*
X11508277Y-14156936D01*
X11508277Y-14156936D02*
X11498753Y-14137888D01*
X11498753Y-14137888D02*
X11489229Y-14099793D01*
X11489229Y-14099793D02*
X11489229Y-14052174D01*
X11489229Y-14052174D02*
X11498753Y-14014079D01*
X11498753Y-14014079D02*
X11508277Y-13995031D01*
X11508277Y-13995031D02*
X11517801Y-13985508D01*
X11517801Y-13985508D02*
X11536848Y-13975984D01*
X11670182Y-13975984D02*
X11803515Y-13975984D01*
X11803515Y-13975984D02*
X11717801Y-14175984D01*
X11965420Y-14042650D02*
X11965420Y-14175984D01*
X11917801Y-13966460D02*
X11870182Y-14109317D01*
X11870182Y-14109317D02*
X11993991Y-14109317D01*
X12098753Y-14061698D02*
X12079706Y-14052174D01*
X12079706Y-14052174D02*
X12070182Y-14042650D01*
X12070182Y-14042650D02*
X12060658Y-14023603D01*
X12060658Y-14023603D02*
X12060658Y-14014079D01*
X12060658Y-14014079D02*
X12070182Y-13995031D01*
X12070182Y-13995031D02*
X12079706Y-13985508D01*
X12079706Y-13985508D02*
X12098753Y-13975984D01*
X12098753Y-13975984D02*
X12136848Y-13975984D01*
X12136848Y-13975984D02*
X12155896Y-13985508D01*
X12155896Y-13985508D02*
X12165420Y-13995031D01*
X12165420Y-13995031D02*
X12174944Y-14014079D01*
X12174944Y-14014079D02*
X12174944Y-14023603D01*
X12174944Y-14023603D02*
X12165420Y-14042650D01*
X12165420Y-14042650D02*
X12155896Y-14052174D01*
X12155896Y-14052174D02*
X12136848Y-14061698D01*
X12136848Y-14061698D02*
X12098753Y-14061698D01*
X12098753Y-14061698D02*
X12079706Y-14071222D01*
X12079706Y-14071222D02*
X12070182Y-14080746D01*
X12070182Y-14080746D02*
X12060658Y-14099793D01*
X12060658Y-14099793D02*
X12060658Y-14137888D01*
X12060658Y-14137888D02*
X12070182Y-14156936D01*
X12070182Y-14156936D02*
X12079706Y-14166460D01*
X12079706Y-14166460D02*
X12098753Y-14175984D01*
X12098753Y-14175984D02*
X12136848Y-14175984D01*
X12136848Y-14175984D02*
X12155896Y-14166460D01*
X12155896Y-14166460D02*
X12165420Y-14156936D01*
X12165420Y-14156936D02*
X12174944Y-14137888D01*
X12174944Y-14137888D02*
X12174944Y-14099793D01*
X12174944Y-14099793D02*
X12165420Y-14080746D01*
X12165420Y-14080746D02*
X12155896Y-14071222D01*
X12155896Y-14071222D02*
X12136848Y-14061698D01*
X12251134Y-13975984D02*
X12251134Y-14014079D01*
X12327325Y-13975984D02*
X12327325Y-14014079D01*
X12622563Y-14252174D02*
X12613039Y-14242650D01*
X12613039Y-14242650D02*
X12593991Y-14214079D01*
X12593991Y-14214079D02*
X12584468Y-14195031D01*
X12584468Y-14195031D02*
X12574944Y-14166460D01*
X12574944Y-14166460D02*
X12565420Y-14118841D01*
X12565420Y-14118841D02*
X12565420Y-14080746D01*
X12565420Y-14080746D02*
X12574944Y-14033127D01*
X12574944Y-14033127D02*
X12584468Y-14004555D01*
X12584468Y-14004555D02*
X12593991Y-13985508D01*
X12593991Y-13985508D02*
X12613039Y-13956936D01*
X12613039Y-13956936D02*
X12622563Y-13947412D01*
X12689229Y-13995031D02*
X12698753Y-13985508D01*
X12698753Y-13985508D02*
X12717801Y-13975984D01*
X12717801Y-13975984D02*
X12765420Y-13975984D01*
X12765420Y-13975984D02*
X12784468Y-13985508D01*
X12784468Y-13985508D02*
X12793991Y-13995031D01*
X12793991Y-13995031D02*
X12803515Y-14014079D01*
X12803515Y-14014079D02*
X12803515Y-14033127D01*
X12803515Y-14033127D02*
X12793991Y-14061698D01*
X12793991Y-14061698D02*
X12679706Y-14175984D01*
X12679706Y-14175984D02*
X12803515Y-14175984D01*
X13041610Y-14175984D02*
X13041610Y-13975984D01*
X13127325Y-14175984D02*
X13127325Y-14071222D01*
X13127325Y-14071222D02*
X13117801Y-14052174D01*
X13117801Y-14052174D02*
X13098753Y-14042650D01*
X13098753Y-14042650D02*
X13070182Y-14042650D01*
X13070182Y-14042650D02*
X13051134Y-14052174D01*
X13051134Y-14052174D02*
X13041610Y-14061698D01*
X13251134Y-14175984D02*
X13232087Y-14166460D01*
X13232087Y-14166460D02*
X13222563Y-14156936D01*
X13222563Y-14156936D02*
X13213039Y-14137888D01*
X13213039Y-14137888D02*
X13213039Y-14080746D01*
X13213039Y-14080746D02*
X13222563Y-14061698D01*
X13222563Y-14061698D02*
X13232087Y-14052174D01*
X13232087Y-14052174D02*
X13251134Y-14042650D01*
X13251134Y-14042650D02*
X13279706Y-14042650D01*
X13279706Y-14042650D02*
X13298753Y-14052174D01*
X13298753Y-14052174D02*
X13308277Y-14061698D01*
X13308277Y-14061698D02*
X13317801Y-14080746D01*
X13317801Y-14080746D02*
X13317801Y-14137888D01*
X13317801Y-14137888D02*
X13308277Y-14156936D01*
X13308277Y-14156936D02*
X13298753Y-14166460D01*
X13298753Y-14166460D02*
X13279706Y-14175984D01*
X13279706Y-14175984D02*
X13251134Y-14175984D01*
X13432087Y-14175984D02*
X13413039Y-14166460D01*
X13413039Y-14166460D02*
X13403515Y-14147412D01*
X13403515Y-14147412D02*
X13403515Y-13975984D01*
X13584468Y-14166460D02*
X13565420Y-14175984D01*
X13565420Y-14175984D02*
X13527325Y-14175984D01*
X13527325Y-14175984D02*
X13508277Y-14166460D01*
X13508277Y-14166460D02*
X13498753Y-14147412D01*
X13498753Y-14147412D02*
X13498753Y-14071222D01*
X13498753Y-14071222D02*
X13508277Y-14052174D01*
X13508277Y-14052174D02*
X13527325Y-14042650D01*
X13527325Y-14042650D02*
X13565420Y-14042650D01*
X13565420Y-14042650D02*
X13584468Y-14052174D01*
X13584468Y-14052174D02*
X13593991Y-14071222D01*
X13593991Y-14071222D02*
X13593991Y-14090269D01*
X13593991Y-14090269D02*
X13498753Y-14109317D01*
X13670182Y-14166460D02*
X13689230Y-14175984D01*
X13689230Y-14175984D02*
X13727325Y-14175984D01*
X13727325Y-14175984D02*
X13746372Y-14166460D01*
X13746372Y-14166460D02*
X13755896Y-14147412D01*
X13755896Y-14147412D02*
X13755896Y-14137888D01*
X13755896Y-14137888D02*
X13746372Y-14118841D01*
X13746372Y-14118841D02*
X13727325Y-14109317D01*
X13727325Y-14109317D02*
X13698753Y-14109317D01*
X13698753Y-14109317D02*
X13679706Y-14099793D01*
X13679706Y-14099793D02*
X13670182Y-14080746D01*
X13670182Y-14080746D02*
X13670182Y-14071222D01*
X13670182Y-14071222D02*
X13679706Y-14052174D01*
X13679706Y-14052174D02*
X13698753Y-14042650D01*
X13698753Y-14042650D02*
X13727325Y-14042650D01*
X13727325Y-14042650D02*
X13746372Y-14052174D01*
X13822563Y-14252174D02*
X13832087Y-14242650D01*
X13832087Y-14242650D02*
X13851134Y-14214079D01*
X13851134Y-14214079D02*
X13860658Y-14195031D01*
X13860658Y-14195031D02*
X13870182Y-14166460D01*
X13870182Y-14166460D02*
X13879706Y-14118841D01*
X13879706Y-14118841D02*
X13879706Y-14080746D01*
X13879706Y-14080746D02*
X13870182Y-14033127D01*
X13870182Y-14033127D02*
X13860658Y-14004555D01*
X13860658Y-14004555D02*
X13851134Y-13985508D01*
X13851134Y-13985508D02*
X13832087Y-13956936D01*
X13832087Y-13956936D02*
X13822563Y-13947412D01*
M02*
