%TF.GenerationSoftware,KiCad,Pcbnew,8.0.0*%
%TF.CreationDate,2024-03-30T18:44:11+01:00*%
%TF.ProjectId,schematic-main _ kopia,73636865-6d61-4746-9963-2d6d61696e20,rev?*%
%TF.SameCoordinates,Original*%
%TF.FileFunction,Drillmap*%
%TF.FilePolarity,Positive*%
%FSLAX45Y45*%
G04 Gerber Fmt 4.5, Leading zero omitted, Abs format (unit mm)*
G04 Created by KiCad (PCBNEW 8.0.0) date 2024-03-30 18:44:11*
%MOMM*%
%LPD*%
G01*
G04 APERTURE LIST*
%ADD10C,0.200000*%
%ADD11C,0.220000*%
%ADD12C,0.300000*%
%ADD13C,0.320000*%
G04 APERTURE END LIST*
D10*
X-9770000Y-1550000D02*
X19050000Y-1550000D01*
X19050000Y-20140000D01*
X-9770000Y-20140000D01*
X-9770000Y-1550000D01*
D11*
X-9590000Y-1900000D02*
X-9370000Y-2120000D01*
X-9370000Y-1900000D02*
X-9590000Y-2120000D01*
X-9590000Y-11100000D02*
X-9370000Y-11320000D01*
X-9370000Y-11100000D02*
X-9590000Y-11320000D01*
X-3410000Y-11100000D02*
X-3190000Y-11320000D01*
X-3190000Y-11100000D02*
X-3410000Y-11320000D01*
X-3390000Y-1900000D02*
X-3170000Y-2120000D01*
X-3170000Y-1900000D02*
X-3390000Y-2120000D01*
D12*
X-8661575Y-2112190D02*
G75*
G02*
X-8961575Y-2112190I-150000J0D01*
G01*
X-8961575Y-2112190D02*
G75*
G02*
X-8661575Y-2112190I150000J0D01*
G01*
X-7881575Y-2112190D02*
G75*
G02*
X-8181575Y-2112190I-150000J0D01*
G01*
X-8181575Y-2112190D02*
G75*
G02*
X-7881575Y-2112190I150000J0D01*
G01*
X-7081575Y-2081290D02*
G75*
G02*
X-7381575Y-2081290I-150000J0D01*
G01*
X-7381575Y-2081290D02*
G75*
G02*
X-7081575Y-2081290I150000J0D01*
G01*
X-6241575Y-2081290D02*
G75*
G02*
X-6541575Y-2081290I-150000J0D01*
G01*
X-6541575Y-2081290D02*
G75*
G02*
X-6241575Y-2081290I150000J0D01*
G01*
X-4661575Y-2092190D02*
G75*
G02*
X-4961575Y-2092190I-150000J0D01*
G01*
X-4961575Y-2092190D02*
G75*
G02*
X-4661575Y-2092190I150000J0D01*
G01*
X-3400000Y-9535000D02*
G75*
G02*
X-3700000Y-9535000I-150000J0D01*
G01*
X-3700000Y-9535000D02*
G75*
G02*
X-3400000Y-9535000I150000J0D01*
G01*
X-1068710Y-5071575D02*
G75*
G02*
X-1368710Y-5071575I-150000J0D01*
G01*
X-1368710Y-5071575D02*
G75*
G02*
X-1068710Y-5071575I150000J0D01*
G01*
X-1068710Y-5911575D02*
G75*
G02*
X-1368710Y-5911575I-150000J0D01*
G01*
X-1368710Y-5911575D02*
G75*
G02*
X-1068710Y-5911575I150000J0D01*
G01*
X-1042500Y-4170000D02*
G75*
G02*
X-1342500Y-4170000I-150000J0D01*
G01*
X-1342500Y-4170000D02*
G75*
G02*
X-1042500Y-4170000I150000J0D01*
G01*
X870000Y-20232500D02*
G75*
G02*
X570000Y-20232500I-150000J0D01*
G01*
X570000Y-20232500D02*
G75*
G02*
X870000Y-20232500I150000J0D01*
G01*
X1650000Y-20232500D02*
G75*
G02*
X1350000Y-20232500I-150000J0D01*
G01*
X1350000Y-20232500D02*
G75*
G02*
X1650000Y-20232500I150000J0D01*
G01*
X2566850Y-11583480D02*
G75*
G02*
X2266850Y-11583480I-150000J0D01*
G01*
X2266850Y-11583480D02*
G75*
G02*
X2566850Y-11583480I150000J0D01*
G01*
X3406850Y-11583480D02*
G75*
G02*
X3106850Y-11583480I-150000J0D01*
G01*
X3106850Y-11583480D02*
G75*
G02*
X3406850Y-11583480I150000J0D01*
G01*
X3951250Y-10930000D02*
G75*
G02*
X3651250Y-10930000I-150000J0D01*
G01*
X3651250Y-10930000D02*
G75*
G02*
X3951250Y-10930000I150000J0D01*
G01*
X4713425Y-11602190D02*
G75*
G02*
X4413425Y-11602190I-150000J0D01*
G01*
X4413425Y-11602190D02*
G75*
G02*
X4713425Y-11602190I150000J0D01*
G01*
X5310000Y-20270000D02*
G75*
G02*
X5010000Y-20270000I-150000J0D01*
G01*
X5010000Y-20270000D02*
G75*
G02*
X5310000Y-20270000I150000J0D01*
G01*
X6325000Y-20257810D02*
G75*
G02*
X6025000Y-20257810I-150000J0D01*
G01*
X6025000Y-20257810D02*
G75*
G02*
X6325000Y-20257810I150000J0D01*
G01*
X7512810Y-14548425D02*
G75*
G02*
X7212810Y-14548425I-150000J0D01*
G01*
X7212810Y-14548425D02*
G75*
G02*
X7512810Y-14548425I150000J0D01*
G01*
X9897500Y-10700000D02*
G75*
G02*
X9597500Y-10700000I-150000J0D01*
G01*
X9597500Y-10700000D02*
G75*
G02*
X9897500Y-10700000I150000J0D01*
G01*
X9920000Y-5300000D02*
G75*
G02*
X9620000Y-5300000I-150000J0D01*
G01*
X9620000Y-5300000D02*
G75*
G02*
X9920000Y-5300000I150000J0D01*
G01*
X9920000Y-6780000D02*
G75*
G02*
X9620000Y-6780000I-150000J0D01*
G01*
X9620000Y-6780000D02*
G75*
G02*
X9920000Y-6780000I150000J0D01*
G01*
X10000000Y-2050000D02*
G75*
G02*
X9700000Y-2050000I-150000J0D01*
G01*
X9700000Y-2050000D02*
G75*
G02*
X10000000Y-2050000I150000J0D01*
G01*
X16380000Y-10930000D02*
G75*
G02*
X16080000Y-10930000I-150000J0D01*
G01*
X16080000Y-10930000D02*
G75*
G02*
X16380000Y-10930000I150000J0D01*
G01*
X18502500Y-3600000D02*
G75*
G02*
X18202500Y-3600000I-150000J0D01*
G01*
X18202500Y-3600000D02*
G75*
G02*
X18502500Y-3600000I150000J0D01*
G01*
X18502500Y-8600000D02*
G75*
G02*
X18202500Y-8600000I-150000J0D01*
G01*
X18202500Y-8600000D02*
G75*
G02*
X18502500Y-8600000I150000J0D01*
G01*
X18548710Y-10358425D02*
G75*
G02*
X18248710Y-10358425I-150000J0D01*
G01*
X18248710Y-10358425D02*
G75*
G02*
X18548710Y-10358425I150000J0D01*
G01*
X18548710Y-11198425D02*
G75*
G02*
X18248710Y-11198425I-150000J0D01*
G01*
X18248710Y-11198425D02*
G75*
G02*
X18548710Y-11198425I150000J0D01*
G01*
X18650000Y-2100000D02*
G75*
G02*
X18350000Y-2100000I-150000J0D01*
G01*
X18350000Y-2100000D02*
G75*
G02*
X18650000Y-2100000I150000J0D01*
G01*
D13*
X-1570000Y-11160000D02*
X-1570000Y-11480000D01*
X-1730000Y-11320000D02*
X-1410000Y-11320000D01*
X-1330000Y-1980000D02*
X-1330000Y-2300000D01*
X-1490000Y-2140000D02*
X-1170000Y-2140000D01*
X7570000Y-1960000D02*
X7570000Y-2280000D01*
X7410000Y-2120000D02*
X7730000Y-2120000D01*
X7570000Y-6980000D02*
X7570000Y-7300000D01*
X7410000Y-7140000D02*
X7730000Y-7140000D01*
X7650000Y-11170000D02*
X7650000Y-11490000D01*
X7490000Y-11330000D02*
X7810000Y-11330000D01*
X18042500Y-4550000D02*
X18042500Y-4870000D01*
X17882500Y-4710000D02*
X18202500Y-4710000D01*
X18042500Y-7130000D02*
X18042500Y-7450000D01*
X17882500Y-7290000D02*
X18202500Y-7290000D01*
D10*
X-9519223Y-20461484D02*
X-9519223Y-20261484D01*
X-9519223Y-20261484D02*
X-9471604Y-20261484D01*
X-9471604Y-20261484D02*
X-9443033Y-20271008D01*
X-9443033Y-20271008D02*
X-9423985Y-20290055D01*
X-9423985Y-20290055D02*
X-9414461Y-20309103D01*
X-9414461Y-20309103D02*
X-9404937Y-20347198D01*
X-9404937Y-20347198D02*
X-9404937Y-20375770D01*
X-9404937Y-20375770D02*
X-9414461Y-20413865D01*
X-9414461Y-20413865D02*
X-9423985Y-20432912D01*
X-9423985Y-20432912D02*
X-9443033Y-20451960D01*
X-9443033Y-20451960D02*
X-9471604Y-20461484D01*
X-9471604Y-20461484D02*
X-9519223Y-20461484D01*
X-9319223Y-20461484D02*
X-9319223Y-20328150D01*
X-9319223Y-20366246D02*
X-9309699Y-20347198D01*
X-9309699Y-20347198D02*
X-9300176Y-20337674D01*
X-9300176Y-20337674D02*
X-9281128Y-20328150D01*
X-9281128Y-20328150D02*
X-9262080Y-20328150D01*
X-9195414Y-20461484D02*
X-9195414Y-20328150D01*
X-9195414Y-20261484D02*
X-9204937Y-20271008D01*
X-9204937Y-20271008D02*
X-9195414Y-20280531D01*
X-9195414Y-20280531D02*
X-9185890Y-20271008D01*
X-9185890Y-20271008D02*
X-9195414Y-20261484D01*
X-9195414Y-20261484D02*
X-9195414Y-20280531D01*
X-9071604Y-20461484D02*
X-9090652Y-20451960D01*
X-9090652Y-20451960D02*
X-9100176Y-20432912D01*
X-9100176Y-20432912D02*
X-9100176Y-20261484D01*
X-8966842Y-20461484D02*
X-8985890Y-20451960D01*
X-8985890Y-20451960D02*
X-8995414Y-20432912D01*
X-8995414Y-20432912D02*
X-8995414Y-20261484D01*
X-8738271Y-20461484D02*
X-8738271Y-20261484D01*
X-8738271Y-20261484D02*
X-8671604Y-20404341D01*
X-8671604Y-20404341D02*
X-8604937Y-20261484D01*
X-8604937Y-20261484D02*
X-8604937Y-20461484D01*
X-8423985Y-20461484D02*
X-8423985Y-20356722D01*
X-8423985Y-20356722D02*
X-8433509Y-20337674D01*
X-8433509Y-20337674D02*
X-8452556Y-20328150D01*
X-8452556Y-20328150D02*
X-8490652Y-20328150D01*
X-8490652Y-20328150D02*
X-8509699Y-20337674D01*
X-8423985Y-20451960D02*
X-8443033Y-20461484D01*
X-8443033Y-20461484D02*
X-8490652Y-20461484D01*
X-8490652Y-20461484D02*
X-8509699Y-20451960D01*
X-8509699Y-20451960D02*
X-8519223Y-20432912D01*
X-8519223Y-20432912D02*
X-8519223Y-20413865D01*
X-8519223Y-20413865D02*
X-8509699Y-20394817D01*
X-8509699Y-20394817D02*
X-8490652Y-20385293D01*
X-8490652Y-20385293D02*
X-8443033Y-20385293D01*
X-8443033Y-20385293D02*
X-8423985Y-20375770D01*
X-8328747Y-20328150D02*
X-8328747Y-20528150D01*
X-8328747Y-20337674D02*
X-8309699Y-20328150D01*
X-8309699Y-20328150D02*
X-8271604Y-20328150D01*
X-8271604Y-20328150D02*
X-8252556Y-20337674D01*
X-8252556Y-20337674D02*
X-8243033Y-20347198D01*
X-8243033Y-20347198D02*
X-8233509Y-20366246D01*
X-8233509Y-20366246D02*
X-8233509Y-20423389D01*
X-8233509Y-20423389D02*
X-8243033Y-20442436D01*
X-8243033Y-20442436D02*
X-8252556Y-20451960D01*
X-8252556Y-20451960D02*
X-8271604Y-20461484D01*
X-8271604Y-20461484D02*
X-8309699Y-20461484D01*
X-8309699Y-20461484D02*
X-8328747Y-20451960D01*
X-8147794Y-20442436D02*
X-8138271Y-20451960D01*
X-8138271Y-20451960D02*
X-8147794Y-20461484D01*
X-8147794Y-20461484D02*
X-8157318Y-20451960D01*
X-8157318Y-20451960D02*
X-8147794Y-20442436D01*
X-8147794Y-20442436D02*
X-8147794Y-20461484D01*
X-8147794Y-20337674D02*
X-8138271Y-20347198D01*
X-8138271Y-20347198D02*
X-8147794Y-20356722D01*
X-8147794Y-20356722D02*
X-8157318Y-20347198D01*
X-8157318Y-20347198D02*
X-8147794Y-20337674D01*
X-8147794Y-20337674D02*
X-8147794Y-20356722D01*
X-9980000Y-20690000D02*
X-9780000Y-20890000D01*
X-9780000Y-20690000D02*
X-9980000Y-20890000D01*
X-9528747Y-20700531D02*
X-9519223Y-20691008D01*
X-9519223Y-20691008D02*
X-9500176Y-20681484D01*
X-9500176Y-20681484D02*
X-9452556Y-20681484D01*
X-9452556Y-20681484D02*
X-9433509Y-20691008D01*
X-9433509Y-20691008D02*
X-9423985Y-20700531D01*
X-9423985Y-20700531D02*
X-9414461Y-20719579D01*
X-9414461Y-20719579D02*
X-9414461Y-20738627D01*
X-9414461Y-20738627D02*
X-9423985Y-20767198D01*
X-9423985Y-20767198D02*
X-9538271Y-20881484D01*
X-9538271Y-20881484D02*
X-9414461Y-20881484D01*
X-9328747Y-20862436D02*
X-9319223Y-20871960D01*
X-9319223Y-20871960D02*
X-9328747Y-20881484D01*
X-9328747Y-20881484D02*
X-9338271Y-20871960D01*
X-9338271Y-20871960D02*
X-9328747Y-20862436D01*
X-9328747Y-20862436D02*
X-9328747Y-20881484D01*
X-9243033Y-20700531D02*
X-9233509Y-20691008D01*
X-9233509Y-20691008D02*
X-9214461Y-20681484D01*
X-9214461Y-20681484D02*
X-9166842Y-20681484D01*
X-9166842Y-20681484D02*
X-9147795Y-20691008D01*
X-9147795Y-20691008D02*
X-9138271Y-20700531D01*
X-9138271Y-20700531D02*
X-9128747Y-20719579D01*
X-9128747Y-20719579D02*
X-9128747Y-20738627D01*
X-9128747Y-20738627D02*
X-9138271Y-20767198D01*
X-9138271Y-20767198D02*
X-9252556Y-20881484D01*
X-9252556Y-20881484D02*
X-9128747Y-20881484D01*
X-9004937Y-20681484D02*
X-8985890Y-20681484D01*
X-8985890Y-20681484D02*
X-8966842Y-20691008D01*
X-8966842Y-20691008D02*
X-8957318Y-20700531D01*
X-8957318Y-20700531D02*
X-8947795Y-20719579D01*
X-8947795Y-20719579D02*
X-8938271Y-20757674D01*
X-8938271Y-20757674D02*
X-8938271Y-20805293D01*
X-8938271Y-20805293D02*
X-8947795Y-20843389D01*
X-8947795Y-20843389D02*
X-8957318Y-20862436D01*
X-8957318Y-20862436D02*
X-8966842Y-20871960D01*
X-8966842Y-20871960D02*
X-8985890Y-20881484D01*
X-8985890Y-20881484D02*
X-9004937Y-20881484D01*
X-9004937Y-20881484D02*
X-9023985Y-20871960D01*
X-9023985Y-20871960D02*
X-9033509Y-20862436D01*
X-9033509Y-20862436D02*
X-9043033Y-20843389D01*
X-9043033Y-20843389D02*
X-9052556Y-20805293D01*
X-9052556Y-20805293D02*
X-9052556Y-20757674D01*
X-9052556Y-20757674D02*
X-9043033Y-20719579D01*
X-9043033Y-20719579D02*
X-9033509Y-20700531D01*
X-9033509Y-20700531D02*
X-9023985Y-20691008D01*
X-9023985Y-20691008D02*
X-9004937Y-20681484D01*
X-8814461Y-20681484D02*
X-8795414Y-20681484D01*
X-8795414Y-20681484D02*
X-8776366Y-20691008D01*
X-8776366Y-20691008D02*
X-8766842Y-20700531D01*
X-8766842Y-20700531D02*
X-8757318Y-20719579D01*
X-8757318Y-20719579D02*
X-8747795Y-20757674D01*
X-8747795Y-20757674D02*
X-8747795Y-20805293D01*
X-8747795Y-20805293D02*
X-8757318Y-20843389D01*
X-8757318Y-20843389D02*
X-8766842Y-20862436D01*
X-8766842Y-20862436D02*
X-8776366Y-20871960D01*
X-8776366Y-20871960D02*
X-8795414Y-20881484D01*
X-8795414Y-20881484D02*
X-8814461Y-20881484D01*
X-8814461Y-20881484D02*
X-8833509Y-20871960D01*
X-8833509Y-20871960D02*
X-8843033Y-20862436D01*
X-8843033Y-20862436D02*
X-8852556Y-20843389D01*
X-8852556Y-20843389D02*
X-8862080Y-20805293D01*
X-8862080Y-20805293D02*
X-8862080Y-20757674D01*
X-8862080Y-20757674D02*
X-8852556Y-20719579D01*
X-8852556Y-20719579D02*
X-8843033Y-20700531D01*
X-8843033Y-20700531D02*
X-8833509Y-20691008D01*
X-8833509Y-20691008D02*
X-8814461Y-20681484D01*
X-8662080Y-20881484D02*
X-8662080Y-20748150D01*
X-8662080Y-20767198D02*
X-8652556Y-20757674D01*
X-8652556Y-20757674D02*
X-8633509Y-20748150D01*
X-8633509Y-20748150D02*
X-8604937Y-20748150D01*
X-8604937Y-20748150D02*
X-8585890Y-20757674D01*
X-8585890Y-20757674D02*
X-8576366Y-20776722D01*
X-8576366Y-20776722D02*
X-8576366Y-20881484D01*
X-8576366Y-20776722D02*
X-8566842Y-20757674D01*
X-8566842Y-20757674D02*
X-8547795Y-20748150D01*
X-8547795Y-20748150D02*
X-8519223Y-20748150D01*
X-8519223Y-20748150D02*
X-8500175Y-20757674D01*
X-8500175Y-20757674D02*
X-8490652Y-20776722D01*
X-8490652Y-20776722D02*
X-8490652Y-20881484D01*
X-8395414Y-20881484D02*
X-8395414Y-20748150D01*
X-8395414Y-20767198D02*
X-8385890Y-20757674D01*
X-8385890Y-20757674D02*
X-8366842Y-20748150D01*
X-8366842Y-20748150D02*
X-8338271Y-20748150D01*
X-8338271Y-20748150D02*
X-8319223Y-20757674D01*
X-8319223Y-20757674D02*
X-8309699Y-20776722D01*
X-8309699Y-20776722D02*
X-8309699Y-20881484D01*
X-8309699Y-20776722D02*
X-8300175Y-20757674D01*
X-8300175Y-20757674D02*
X-8281128Y-20748150D01*
X-8281128Y-20748150D02*
X-8252556Y-20748150D01*
X-8252556Y-20748150D02*
X-8233509Y-20757674D01*
X-8233509Y-20757674D02*
X-8223985Y-20776722D01*
X-8223985Y-20776722D02*
X-8223985Y-20881484D01*
X-7833509Y-20671960D02*
X-8004937Y-20929103D01*
X-7576366Y-20681484D02*
X-7557318Y-20681484D01*
X-7557318Y-20681484D02*
X-7538270Y-20691008D01*
X-7538270Y-20691008D02*
X-7528747Y-20700531D01*
X-7528747Y-20700531D02*
X-7519223Y-20719579D01*
X-7519223Y-20719579D02*
X-7509699Y-20757674D01*
X-7509699Y-20757674D02*
X-7509699Y-20805293D01*
X-7509699Y-20805293D02*
X-7519223Y-20843389D01*
X-7519223Y-20843389D02*
X-7528747Y-20862436D01*
X-7528747Y-20862436D02*
X-7538270Y-20871960D01*
X-7538270Y-20871960D02*
X-7557318Y-20881484D01*
X-7557318Y-20881484D02*
X-7576366Y-20881484D01*
X-7576366Y-20881484D02*
X-7595413Y-20871960D01*
X-7595413Y-20871960D02*
X-7604937Y-20862436D01*
X-7604937Y-20862436D02*
X-7614461Y-20843389D01*
X-7614461Y-20843389D02*
X-7623985Y-20805293D01*
X-7623985Y-20805293D02*
X-7623985Y-20757674D01*
X-7623985Y-20757674D02*
X-7614461Y-20719579D01*
X-7614461Y-20719579D02*
X-7604937Y-20700531D01*
X-7604937Y-20700531D02*
X-7595413Y-20691008D01*
X-7595413Y-20691008D02*
X-7576366Y-20681484D01*
X-7423985Y-20862436D02*
X-7414461Y-20871960D01*
X-7414461Y-20871960D02*
X-7423985Y-20881484D01*
X-7423985Y-20881484D02*
X-7433509Y-20871960D01*
X-7433509Y-20871960D02*
X-7423985Y-20862436D01*
X-7423985Y-20862436D02*
X-7423985Y-20881484D01*
X-7290651Y-20681484D02*
X-7271604Y-20681484D01*
X-7271604Y-20681484D02*
X-7252556Y-20691008D01*
X-7252556Y-20691008D02*
X-7243032Y-20700531D01*
X-7243032Y-20700531D02*
X-7233509Y-20719579D01*
X-7233509Y-20719579D02*
X-7223985Y-20757674D01*
X-7223985Y-20757674D02*
X-7223985Y-20805293D01*
X-7223985Y-20805293D02*
X-7233509Y-20843389D01*
X-7233509Y-20843389D02*
X-7243032Y-20862436D01*
X-7243032Y-20862436D02*
X-7252556Y-20871960D01*
X-7252556Y-20871960D02*
X-7271604Y-20881484D01*
X-7271604Y-20881484D02*
X-7290651Y-20881484D01*
X-7290651Y-20881484D02*
X-7309699Y-20871960D01*
X-7309699Y-20871960D02*
X-7319223Y-20862436D01*
X-7319223Y-20862436D02*
X-7328747Y-20843389D01*
X-7328747Y-20843389D02*
X-7338270Y-20805293D01*
X-7338270Y-20805293D02*
X-7338270Y-20757674D01*
X-7338270Y-20757674D02*
X-7328747Y-20719579D01*
X-7328747Y-20719579D02*
X-7319223Y-20700531D01*
X-7319223Y-20700531D02*
X-7309699Y-20691008D01*
X-7309699Y-20691008D02*
X-7290651Y-20681484D01*
X-7109699Y-20767198D02*
X-7128747Y-20757674D01*
X-7128747Y-20757674D02*
X-7138270Y-20748150D01*
X-7138270Y-20748150D02*
X-7147794Y-20729103D01*
X-7147794Y-20729103D02*
X-7147794Y-20719579D01*
X-7147794Y-20719579D02*
X-7138270Y-20700531D01*
X-7138270Y-20700531D02*
X-7128747Y-20691008D01*
X-7128747Y-20691008D02*
X-7109699Y-20681484D01*
X-7109699Y-20681484D02*
X-7071604Y-20681484D01*
X-7071604Y-20681484D02*
X-7052556Y-20691008D01*
X-7052556Y-20691008D02*
X-7043032Y-20700531D01*
X-7043032Y-20700531D02*
X-7033509Y-20719579D01*
X-7033509Y-20719579D02*
X-7033509Y-20729103D01*
X-7033509Y-20729103D02*
X-7043032Y-20748150D01*
X-7043032Y-20748150D02*
X-7052556Y-20757674D01*
X-7052556Y-20757674D02*
X-7071604Y-20767198D01*
X-7071604Y-20767198D02*
X-7109699Y-20767198D01*
X-7109699Y-20767198D02*
X-7128747Y-20776722D01*
X-7128747Y-20776722D02*
X-7138270Y-20786246D01*
X-7138270Y-20786246D02*
X-7147794Y-20805293D01*
X-7147794Y-20805293D02*
X-7147794Y-20843389D01*
X-7147794Y-20843389D02*
X-7138270Y-20862436D01*
X-7138270Y-20862436D02*
X-7128747Y-20871960D01*
X-7128747Y-20871960D02*
X-7109699Y-20881484D01*
X-7109699Y-20881484D02*
X-7071604Y-20881484D01*
X-7071604Y-20881484D02*
X-7052556Y-20871960D01*
X-7052556Y-20871960D02*
X-7043032Y-20862436D01*
X-7043032Y-20862436D02*
X-7033509Y-20843389D01*
X-7033509Y-20843389D02*
X-7033509Y-20805293D01*
X-7033509Y-20805293D02*
X-7043032Y-20786246D01*
X-7043032Y-20786246D02*
X-7052556Y-20776722D01*
X-7052556Y-20776722D02*
X-7071604Y-20767198D01*
X-6862080Y-20681484D02*
X-6900175Y-20681484D01*
X-6900175Y-20681484D02*
X-6919223Y-20691008D01*
X-6919223Y-20691008D02*
X-6928747Y-20700531D01*
X-6928747Y-20700531D02*
X-6947794Y-20729103D01*
X-6947794Y-20729103D02*
X-6957318Y-20767198D01*
X-6957318Y-20767198D02*
X-6957318Y-20843389D01*
X-6957318Y-20843389D02*
X-6947794Y-20862436D01*
X-6947794Y-20862436D02*
X-6938270Y-20871960D01*
X-6938270Y-20871960D02*
X-6919223Y-20881484D01*
X-6919223Y-20881484D02*
X-6881128Y-20881484D01*
X-6881128Y-20881484D02*
X-6862080Y-20871960D01*
X-6862080Y-20871960D02*
X-6852556Y-20862436D01*
X-6852556Y-20862436D02*
X-6843032Y-20843389D01*
X-6843032Y-20843389D02*
X-6843032Y-20795770D01*
X-6843032Y-20795770D02*
X-6852556Y-20776722D01*
X-6852556Y-20776722D02*
X-6862080Y-20767198D01*
X-6862080Y-20767198D02*
X-6881128Y-20757674D01*
X-6881128Y-20757674D02*
X-6919223Y-20757674D01*
X-6919223Y-20757674D02*
X-6938270Y-20767198D01*
X-6938270Y-20767198D02*
X-6947794Y-20776722D01*
X-6947794Y-20776722D02*
X-6957318Y-20795770D01*
X-6671604Y-20681484D02*
X-6709699Y-20681484D01*
X-6709699Y-20681484D02*
X-6728747Y-20691008D01*
X-6728747Y-20691008D02*
X-6738270Y-20700531D01*
X-6738270Y-20700531D02*
X-6757318Y-20729103D01*
X-6757318Y-20729103D02*
X-6766842Y-20767198D01*
X-6766842Y-20767198D02*
X-6766842Y-20843389D01*
X-6766842Y-20843389D02*
X-6757318Y-20862436D01*
X-6757318Y-20862436D02*
X-6747794Y-20871960D01*
X-6747794Y-20871960D02*
X-6728747Y-20881484D01*
X-6728747Y-20881484D02*
X-6690651Y-20881484D01*
X-6690651Y-20881484D02*
X-6671604Y-20871960D01*
X-6671604Y-20871960D02*
X-6662080Y-20862436D01*
X-6662080Y-20862436D02*
X-6652556Y-20843389D01*
X-6652556Y-20843389D02*
X-6652556Y-20795770D01*
X-6652556Y-20795770D02*
X-6662080Y-20776722D01*
X-6662080Y-20776722D02*
X-6671604Y-20767198D01*
X-6671604Y-20767198D02*
X-6690651Y-20757674D01*
X-6690651Y-20757674D02*
X-6728747Y-20757674D01*
X-6728747Y-20757674D02*
X-6747794Y-20767198D01*
X-6747794Y-20767198D02*
X-6757318Y-20776722D01*
X-6757318Y-20776722D02*
X-6766842Y-20795770D01*
X-6576366Y-20681484D02*
X-6576366Y-20719579D01*
X-6500175Y-20681484D02*
X-6500175Y-20719579D01*
X-6204937Y-20957674D02*
X-6214461Y-20948150D01*
X-6214461Y-20948150D02*
X-6233508Y-20919579D01*
X-6233508Y-20919579D02*
X-6243032Y-20900531D01*
X-6243032Y-20900531D02*
X-6252556Y-20871960D01*
X-6252556Y-20871960D02*
X-6262080Y-20824341D01*
X-6262080Y-20824341D02*
X-6262080Y-20786246D01*
X-6262080Y-20786246D02*
X-6252556Y-20738627D01*
X-6252556Y-20738627D02*
X-6243032Y-20710055D01*
X-6243032Y-20710055D02*
X-6233508Y-20691008D01*
X-6233508Y-20691008D02*
X-6214461Y-20662436D01*
X-6214461Y-20662436D02*
X-6204937Y-20652912D01*
X-6043032Y-20748150D02*
X-6043032Y-20881484D01*
X-6090651Y-20671960D02*
X-6138270Y-20814817D01*
X-6138270Y-20814817D02*
X-6014461Y-20814817D01*
X-5785889Y-20881484D02*
X-5785889Y-20681484D01*
X-5700175Y-20881484D02*
X-5700175Y-20776722D01*
X-5700175Y-20776722D02*
X-5709699Y-20757674D01*
X-5709699Y-20757674D02*
X-5728746Y-20748150D01*
X-5728746Y-20748150D02*
X-5757318Y-20748150D01*
X-5757318Y-20748150D02*
X-5776366Y-20757674D01*
X-5776366Y-20757674D02*
X-5785889Y-20767198D01*
X-5576366Y-20881484D02*
X-5595413Y-20871960D01*
X-5595413Y-20871960D02*
X-5604937Y-20862436D01*
X-5604937Y-20862436D02*
X-5614461Y-20843389D01*
X-5614461Y-20843389D02*
X-5614461Y-20786246D01*
X-5614461Y-20786246D02*
X-5604937Y-20767198D01*
X-5604937Y-20767198D02*
X-5595413Y-20757674D01*
X-5595413Y-20757674D02*
X-5576366Y-20748150D01*
X-5576366Y-20748150D02*
X-5547794Y-20748150D01*
X-5547794Y-20748150D02*
X-5528747Y-20757674D01*
X-5528747Y-20757674D02*
X-5519223Y-20767198D01*
X-5519223Y-20767198D02*
X-5509699Y-20786246D01*
X-5509699Y-20786246D02*
X-5509699Y-20843389D01*
X-5509699Y-20843389D02*
X-5519223Y-20862436D01*
X-5519223Y-20862436D02*
X-5528747Y-20871960D01*
X-5528747Y-20871960D02*
X-5547794Y-20881484D01*
X-5547794Y-20881484D02*
X-5576366Y-20881484D01*
X-5395413Y-20881484D02*
X-5414461Y-20871960D01*
X-5414461Y-20871960D02*
X-5423985Y-20852912D01*
X-5423985Y-20852912D02*
X-5423985Y-20681484D01*
X-5243032Y-20871960D02*
X-5262080Y-20881484D01*
X-5262080Y-20881484D02*
X-5300175Y-20881484D01*
X-5300175Y-20881484D02*
X-5319223Y-20871960D01*
X-5319223Y-20871960D02*
X-5328747Y-20852912D01*
X-5328747Y-20852912D02*
X-5328747Y-20776722D01*
X-5328747Y-20776722D02*
X-5319223Y-20757674D01*
X-5319223Y-20757674D02*
X-5300175Y-20748150D01*
X-5300175Y-20748150D02*
X-5262080Y-20748150D01*
X-5262080Y-20748150D02*
X-5243032Y-20757674D01*
X-5243032Y-20757674D02*
X-5233508Y-20776722D01*
X-5233508Y-20776722D02*
X-5233508Y-20795770D01*
X-5233508Y-20795770D02*
X-5328747Y-20814817D01*
X-5157318Y-20871960D02*
X-5138270Y-20881484D01*
X-5138270Y-20881484D02*
X-5100175Y-20881484D01*
X-5100175Y-20881484D02*
X-5081127Y-20871960D01*
X-5081127Y-20871960D02*
X-5071604Y-20852912D01*
X-5071604Y-20852912D02*
X-5071604Y-20843389D01*
X-5071604Y-20843389D02*
X-5081127Y-20824341D01*
X-5081127Y-20824341D02*
X-5100175Y-20814817D01*
X-5100175Y-20814817D02*
X-5128747Y-20814817D01*
X-5128747Y-20814817D02*
X-5147794Y-20805293D01*
X-5147794Y-20805293D02*
X-5157318Y-20786246D01*
X-5157318Y-20786246D02*
X-5157318Y-20776722D01*
X-5157318Y-20776722D02*
X-5147794Y-20757674D01*
X-5147794Y-20757674D02*
X-5128747Y-20748150D01*
X-5128747Y-20748150D02*
X-5100175Y-20748150D01*
X-5100175Y-20748150D02*
X-5081127Y-20757674D01*
X-5004937Y-20957674D02*
X-4995413Y-20948150D01*
X-4995413Y-20948150D02*
X-4976366Y-20919579D01*
X-4976366Y-20919579D02*
X-4966842Y-20900531D01*
X-4966842Y-20900531D02*
X-4957318Y-20871960D01*
X-4957318Y-20871960D02*
X-4947794Y-20824341D01*
X-4947794Y-20824341D02*
X-4947794Y-20786246D01*
X-4947794Y-20786246D02*
X-4957318Y-20738627D01*
X-4957318Y-20738627D02*
X-4966842Y-20710055D01*
X-4966842Y-20710055D02*
X-4976366Y-20691008D01*
X-4976366Y-20691008D02*
X-4995413Y-20662436D01*
X-4995413Y-20662436D02*
X-5004937Y-20652912D01*
X-4643032Y-20957674D02*
X-4652556Y-20948150D01*
X-4652556Y-20948150D02*
X-4671604Y-20919579D01*
X-4671604Y-20919579D02*
X-4681127Y-20900531D01*
X-4681127Y-20900531D02*
X-4690651Y-20871960D01*
X-4690651Y-20871960D02*
X-4700175Y-20824341D01*
X-4700175Y-20824341D02*
X-4700175Y-20786246D01*
X-4700175Y-20786246D02*
X-4690651Y-20738627D01*
X-4690651Y-20738627D02*
X-4681127Y-20710055D01*
X-4681127Y-20710055D02*
X-4671604Y-20691008D01*
X-4671604Y-20691008D02*
X-4652556Y-20662436D01*
X-4652556Y-20662436D02*
X-4643032Y-20652912D01*
X-4566842Y-20748150D02*
X-4566842Y-20881484D01*
X-4566842Y-20767198D02*
X-4557318Y-20757674D01*
X-4557318Y-20757674D02*
X-4538270Y-20748150D01*
X-4538270Y-20748150D02*
X-4509699Y-20748150D01*
X-4509699Y-20748150D02*
X-4490651Y-20757674D01*
X-4490651Y-20757674D02*
X-4481127Y-20776722D01*
X-4481127Y-20776722D02*
X-4481127Y-20881484D01*
X-4357318Y-20881484D02*
X-4376366Y-20871960D01*
X-4376366Y-20871960D02*
X-4385889Y-20862436D01*
X-4385889Y-20862436D02*
X-4395413Y-20843389D01*
X-4395413Y-20843389D02*
X-4395413Y-20786246D01*
X-4395413Y-20786246D02*
X-4385889Y-20767198D01*
X-4385889Y-20767198D02*
X-4376366Y-20757674D01*
X-4376366Y-20757674D02*
X-4357318Y-20748150D01*
X-4357318Y-20748150D02*
X-4328746Y-20748150D01*
X-4328746Y-20748150D02*
X-4309699Y-20757674D01*
X-4309699Y-20757674D02*
X-4300175Y-20767198D01*
X-4300175Y-20767198D02*
X-4290651Y-20786246D01*
X-4290651Y-20786246D02*
X-4290651Y-20843389D01*
X-4290651Y-20843389D02*
X-4300175Y-20862436D01*
X-4300175Y-20862436D02*
X-4309699Y-20871960D01*
X-4309699Y-20871960D02*
X-4328746Y-20881484D01*
X-4328746Y-20881484D02*
X-4357318Y-20881484D01*
X-4233508Y-20748150D02*
X-4157318Y-20748150D01*
X-4204937Y-20681484D02*
X-4204937Y-20852912D01*
X-4204937Y-20852912D02*
X-4195413Y-20871960D01*
X-4195413Y-20871960D02*
X-4176365Y-20881484D01*
X-4176365Y-20881484D02*
X-4157318Y-20881484D01*
X-3938270Y-20748150D02*
X-3938270Y-20948150D01*
X-3938270Y-20757674D02*
X-3919223Y-20748150D01*
X-3919223Y-20748150D02*
X-3881127Y-20748150D01*
X-3881127Y-20748150D02*
X-3862080Y-20757674D01*
X-3862080Y-20757674D02*
X-3852556Y-20767198D01*
X-3852556Y-20767198D02*
X-3843032Y-20786246D01*
X-3843032Y-20786246D02*
X-3843032Y-20843389D01*
X-3843032Y-20843389D02*
X-3852556Y-20862436D01*
X-3852556Y-20862436D02*
X-3862080Y-20871960D01*
X-3862080Y-20871960D02*
X-3881127Y-20881484D01*
X-3881127Y-20881484D02*
X-3919223Y-20881484D01*
X-3919223Y-20881484D02*
X-3938270Y-20871960D01*
X-3728746Y-20881484D02*
X-3747794Y-20871960D01*
X-3747794Y-20871960D02*
X-3757318Y-20852912D01*
X-3757318Y-20852912D02*
X-3757318Y-20681484D01*
X-3566842Y-20881484D02*
X-3566842Y-20776722D01*
X-3566842Y-20776722D02*
X-3576365Y-20757674D01*
X-3576365Y-20757674D02*
X-3595413Y-20748150D01*
X-3595413Y-20748150D02*
X-3633508Y-20748150D01*
X-3633508Y-20748150D02*
X-3652556Y-20757674D01*
X-3566842Y-20871960D02*
X-3585889Y-20881484D01*
X-3585889Y-20881484D02*
X-3633508Y-20881484D01*
X-3633508Y-20881484D02*
X-3652556Y-20871960D01*
X-3652556Y-20871960D02*
X-3662080Y-20852912D01*
X-3662080Y-20852912D02*
X-3662080Y-20833865D01*
X-3662080Y-20833865D02*
X-3652556Y-20814817D01*
X-3652556Y-20814817D02*
X-3633508Y-20805293D01*
X-3633508Y-20805293D02*
X-3585889Y-20805293D01*
X-3585889Y-20805293D02*
X-3566842Y-20795770D01*
X-3500175Y-20748150D02*
X-3423984Y-20748150D01*
X-3471603Y-20681484D02*
X-3471603Y-20852912D01*
X-3471603Y-20852912D02*
X-3462080Y-20871960D01*
X-3462080Y-20871960D02*
X-3443032Y-20881484D01*
X-3443032Y-20881484D02*
X-3423984Y-20881484D01*
X-3281127Y-20871960D02*
X-3300175Y-20881484D01*
X-3300175Y-20881484D02*
X-3338270Y-20881484D01*
X-3338270Y-20881484D02*
X-3357318Y-20871960D01*
X-3357318Y-20871960D02*
X-3366842Y-20852912D01*
X-3366842Y-20852912D02*
X-3366842Y-20776722D01*
X-3366842Y-20776722D02*
X-3357318Y-20757674D01*
X-3357318Y-20757674D02*
X-3338270Y-20748150D01*
X-3338270Y-20748150D02*
X-3300175Y-20748150D01*
X-3300175Y-20748150D02*
X-3281127Y-20757674D01*
X-3281127Y-20757674D02*
X-3271603Y-20776722D01*
X-3271603Y-20776722D02*
X-3271603Y-20795770D01*
X-3271603Y-20795770D02*
X-3366842Y-20814817D01*
X-3100175Y-20881484D02*
X-3100175Y-20681484D01*
X-3100175Y-20871960D02*
X-3119222Y-20881484D01*
X-3119222Y-20881484D02*
X-3157318Y-20881484D01*
X-3157318Y-20881484D02*
X-3176365Y-20871960D01*
X-3176365Y-20871960D02*
X-3185889Y-20862436D01*
X-3185889Y-20862436D02*
X-3195413Y-20843389D01*
X-3195413Y-20843389D02*
X-3195413Y-20786246D01*
X-3195413Y-20786246D02*
X-3185889Y-20767198D01*
X-3185889Y-20767198D02*
X-3176365Y-20757674D01*
X-3176365Y-20757674D02*
X-3157318Y-20748150D01*
X-3157318Y-20748150D02*
X-3119222Y-20748150D01*
X-3119222Y-20748150D02*
X-3100175Y-20757674D01*
X-3023984Y-20957674D02*
X-3014461Y-20948150D01*
X-3014461Y-20948150D02*
X-2995413Y-20919579D01*
X-2995413Y-20919579D02*
X-2985889Y-20900531D01*
X-2985889Y-20900531D02*
X-2976365Y-20871960D01*
X-2976365Y-20871960D02*
X-2966842Y-20824341D01*
X-2966842Y-20824341D02*
X-2966842Y-20786246D01*
X-2966842Y-20786246D02*
X-2976365Y-20738627D01*
X-2976365Y-20738627D02*
X-2985889Y-20710055D01*
X-2985889Y-20710055D02*
X-2995413Y-20691008D01*
X-2995413Y-20691008D02*
X-3014461Y-20662436D01*
X-3014461Y-20662436D02*
X-3023984Y-20652912D01*
X-9780000Y-21110000D02*
G75*
G02*
X-9980000Y-21110000I-100000J0D01*
G01*
X-9980000Y-21110000D02*
G75*
G02*
X-9780000Y-21110000I100000J0D01*
G01*
X-9538271Y-21001484D02*
X-9414461Y-21001484D01*
X-9414461Y-21001484D02*
X-9481128Y-21077674D01*
X-9481128Y-21077674D02*
X-9452556Y-21077674D01*
X-9452556Y-21077674D02*
X-9433509Y-21087198D01*
X-9433509Y-21087198D02*
X-9423985Y-21096722D01*
X-9423985Y-21096722D02*
X-9414461Y-21115770D01*
X-9414461Y-21115770D02*
X-9414461Y-21163389D01*
X-9414461Y-21163389D02*
X-9423985Y-21182436D01*
X-9423985Y-21182436D02*
X-9433509Y-21191960D01*
X-9433509Y-21191960D02*
X-9452556Y-21201484D01*
X-9452556Y-21201484D02*
X-9509699Y-21201484D01*
X-9509699Y-21201484D02*
X-9528747Y-21191960D01*
X-9528747Y-21191960D02*
X-9538271Y-21182436D01*
X-9328747Y-21182436D02*
X-9319223Y-21191960D01*
X-9319223Y-21191960D02*
X-9328747Y-21201484D01*
X-9328747Y-21201484D02*
X-9338271Y-21191960D01*
X-9338271Y-21191960D02*
X-9328747Y-21182436D01*
X-9328747Y-21182436D02*
X-9328747Y-21201484D01*
X-9195414Y-21001484D02*
X-9176366Y-21001484D01*
X-9176366Y-21001484D02*
X-9157318Y-21011008D01*
X-9157318Y-21011008D02*
X-9147795Y-21020531D01*
X-9147795Y-21020531D02*
X-9138271Y-21039579D01*
X-9138271Y-21039579D02*
X-9128747Y-21077674D01*
X-9128747Y-21077674D02*
X-9128747Y-21125293D01*
X-9128747Y-21125293D02*
X-9138271Y-21163389D01*
X-9138271Y-21163389D02*
X-9147795Y-21182436D01*
X-9147795Y-21182436D02*
X-9157318Y-21191960D01*
X-9157318Y-21191960D02*
X-9176366Y-21201484D01*
X-9176366Y-21201484D02*
X-9195414Y-21201484D01*
X-9195414Y-21201484D02*
X-9214461Y-21191960D01*
X-9214461Y-21191960D02*
X-9223985Y-21182436D01*
X-9223985Y-21182436D02*
X-9233509Y-21163389D01*
X-9233509Y-21163389D02*
X-9243033Y-21125293D01*
X-9243033Y-21125293D02*
X-9243033Y-21077674D01*
X-9243033Y-21077674D02*
X-9233509Y-21039579D01*
X-9233509Y-21039579D02*
X-9223985Y-21020531D01*
X-9223985Y-21020531D02*
X-9214461Y-21011008D01*
X-9214461Y-21011008D02*
X-9195414Y-21001484D01*
X-9004937Y-21001484D02*
X-8985890Y-21001484D01*
X-8985890Y-21001484D02*
X-8966842Y-21011008D01*
X-8966842Y-21011008D02*
X-8957318Y-21020531D01*
X-8957318Y-21020531D02*
X-8947795Y-21039579D01*
X-8947795Y-21039579D02*
X-8938271Y-21077674D01*
X-8938271Y-21077674D02*
X-8938271Y-21125293D01*
X-8938271Y-21125293D02*
X-8947795Y-21163389D01*
X-8947795Y-21163389D02*
X-8957318Y-21182436D01*
X-8957318Y-21182436D02*
X-8966842Y-21191960D01*
X-8966842Y-21191960D02*
X-8985890Y-21201484D01*
X-8985890Y-21201484D02*
X-9004937Y-21201484D01*
X-9004937Y-21201484D02*
X-9023985Y-21191960D01*
X-9023985Y-21191960D02*
X-9033509Y-21182436D01*
X-9033509Y-21182436D02*
X-9043033Y-21163389D01*
X-9043033Y-21163389D02*
X-9052556Y-21125293D01*
X-9052556Y-21125293D02*
X-9052556Y-21077674D01*
X-9052556Y-21077674D02*
X-9043033Y-21039579D01*
X-9043033Y-21039579D02*
X-9033509Y-21020531D01*
X-9033509Y-21020531D02*
X-9023985Y-21011008D01*
X-9023985Y-21011008D02*
X-9004937Y-21001484D01*
X-8814461Y-21001484D02*
X-8795414Y-21001484D01*
X-8795414Y-21001484D02*
X-8776366Y-21011008D01*
X-8776366Y-21011008D02*
X-8766842Y-21020531D01*
X-8766842Y-21020531D02*
X-8757318Y-21039579D01*
X-8757318Y-21039579D02*
X-8747795Y-21077674D01*
X-8747795Y-21077674D02*
X-8747795Y-21125293D01*
X-8747795Y-21125293D02*
X-8757318Y-21163389D01*
X-8757318Y-21163389D02*
X-8766842Y-21182436D01*
X-8766842Y-21182436D02*
X-8776366Y-21191960D01*
X-8776366Y-21191960D02*
X-8795414Y-21201484D01*
X-8795414Y-21201484D02*
X-8814461Y-21201484D01*
X-8814461Y-21201484D02*
X-8833509Y-21191960D01*
X-8833509Y-21191960D02*
X-8843033Y-21182436D01*
X-8843033Y-21182436D02*
X-8852556Y-21163389D01*
X-8852556Y-21163389D02*
X-8862080Y-21125293D01*
X-8862080Y-21125293D02*
X-8862080Y-21077674D01*
X-8862080Y-21077674D02*
X-8852556Y-21039579D01*
X-8852556Y-21039579D02*
X-8843033Y-21020531D01*
X-8843033Y-21020531D02*
X-8833509Y-21011008D01*
X-8833509Y-21011008D02*
X-8814461Y-21001484D01*
X-8662080Y-21201484D02*
X-8662080Y-21068150D01*
X-8662080Y-21087198D02*
X-8652556Y-21077674D01*
X-8652556Y-21077674D02*
X-8633509Y-21068150D01*
X-8633509Y-21068150D02*
X-8604937Y-21068150D01*
X-8604937Y-21068150D02*
X-8585890Y-21077674D01*
X-8585890Y-21077674D02*
X-8576366Y-21096722D01*
X-8576366Y-21096722D02*
X-8576366Y-21201484D01*
X-8576366Y-21096722D02*
X-8566842Y-21077674D01*
X-8566842Y-21077674D02*
X-8547795Y-21068150D01*
X-8547795Y-21068150D02*
X-8519223Y-21068150D01*
X-8519223Y-21068150D02*
X-8500175Y-21077674D01*
X-8500175Y-21077674D02*
X-8490652Y-21096722D01*
X-8490652Y-21096722D02*
X-8490652Y-21201484D01*
X-8395414Y-21201484D02*
X-8395414Y-21068150D01*
X-8395414Y-21087198D02*
X-8385890Y-21077674D01*
X-8385890Y-21077674D02*
X-8366842Y-21068150D01*
X-8366842Y-21068150D02*
X-8338271Y-21068150D01*
X-8338271Y-21068150D02*
X-8319223Y-21077674D01*
X-8319223Y-21077674D02*
X-8309699Y-21096722D01*
X-8309699Y-21096722D02*
X-8309699Y-21201484D01*
X-8309699Y-21096722D02*
X-8300175Y-21077674D01*
X-8300175Y-21077674D02*
X-8281128Y-21068150D01*
X-8281128Y-21068150D02*
X-8252556Y-21068150D01*
X-8252556Y-21068150D02*
X-8233509Y-21077674D01*
X-8233509Y-21077674D02*
X-8223985Y-21096722D01*
X-8223985Y-21096722D02*
X-8223985Y-21201484D01*
X-7833509Y-20991960D02*
X-8004937Y-21249103D01*
X-7576366Y-21001484D02*
X-7557318Y-21001484D01*
X-7557318Y-21001484D02*
X-7538270Y-21011008D01*
X-7538270Y-21011008D02*
X-7528747Y-21020531D01*
X-7528747Y-21020531D02*
X-7519223Y-21039579D01*
X-7519223Y-21039579D02*
X-7509699Y-21077674D01*
X-7509699Y-21077674D02*
X-7509699Y-21125293D01*
X-7509699Y-21125293D02*
X-7519223Y-21163389D01*
X-7519223Y-21163389D02*
X-7528747Y-21182436D01*
X-7528747Y-21182436D02*
X-7538270Y-21191960D01*
X-7538270Y-21191960D02*
X-7557318Y-21201484D01*
X-7557318Y-21201484D02*
X-7576366Y-21201484D01*
X-7576366Y-21201484D02*
X-7595413Y-21191960D01*
X-7595413Y-21191960D02*
X-7604937Y-21182436D01*
X-7604937Y-21182436D02*
X-7614461Y-21163389D01*
X-7614461Y-21163389D02*
X-7623985Y-21125293D01*
X-7623985Y-21125293D02*
X-7623985Y-21077674D01*
X-7623985Y-21077674D02*
X-7614461Y-21039579D01*
X-7614461Y-21039579D02*
X-7604937Y-21020531D01*
X-7604937Y-21020531D02*
X-7595413Y-21011008D01*
X-7595413Y-21011008D02*
X-7576366Y-21001484D01*
X-7423985Y-21182436D02*
X-7414461Y-21191960D01*
X-7414461Y-21191960D02*
X-7423985Y-21201484D01*
X-7423985Y-21201484D02*
X-7433509Y-21191960D01*
X-7433509Y-21191960D02*
X-7423985Y-21182436D01*
X-7423985Y-21182436D02*
X-7423985Y-21201484D01*
X-7223985Y-21201484D02*
X-7338270Y-21201484D01*
X-7281128Y-21201484D02*
X-7281128Y-21001484D01*
X-7281128Y-21001484D02*
X-7300175Y-21030055D01*
X-7300175Y-21030055D02*
X-7319223Y-21049103D01*
X-7319223Y-21049103D02*
X-7338270Y-21058627D01*
X-7033509Y-21201484D02*
X-7147794Y-21201484D01*
X-7090651Y-21201484D02*
X-7090651Y-21001484D01*
X-7090651Y-21001484D02*
X-7109699Y-21030055D01*
X-7109699Y-21030055D02*
X-7128747Y-21049103D01*
X-7128747Y-21049103D02*
X-7147794Y-21058627D01*
X-6919223Y-21087198D02*
X-6938270Y-21077674D01*
X-6938270Y-21077674D02*
X-6947794Y-21068150D01*
X-6947794Y-21068150D02*
X-6957318Y-21049103D01*
X-6957318Y-21049103D02*
X-6957318Y-21039579D01*
X-6957318Y-21039579D02*
X-6947794Y-21020531D01*
X-6947794Y-21020531D02*
X-6938270Y-21011008D01*
X-6938270Y-21011008D02*
X-6919223Y-21001484D01*
X-6919223Y-21001484D02*
X-6881128Y-21001484D01*
X-6881128Y-21001484D02*
X-6862080Y-21011008D01*
X-6862080Y-21011008D02*
X-6852556Y-21020531D01*
X-6852556Y-21020531D02*
X-6843032Y-21039579D01*
X-6843032Y-21039579D02*
X-6843032Y-21049103D01*
X-6843032Y-21049103D02*
X-6852556Y-21068150D01*
X-6852556Y-21068150D02*
X-6862080Y-21077674D01*
X-6862080Y-21077674D02*
X-6881128Y-21087198D01*
X-6881128Y-21087198D02*
X-6919223Y-21087198D01*
X-6919223Y-21087198D02*
X-6938270Y-21096722D01*
X-6938270Y-21096722D02*
X-6947794Y-21106246D01*
X-6947794Y-21106246D02*
X-6957318Y-21125293D01*
X-6957318Y-21125293D02*
X-6957318Y-21163389D01*
X-6957318Y-21163389D02*
X-6947794Y-21182436D01*
X-6947794Y-21182436D02*
X-6938270Y-21191960D01*
X-6938270Y-21191960D02*
X-6919223Y-21201484D01*
X-6919223Y-21201484D02*
X-6881128Y-21201484D01*
X-6881128Y-21201484D02*
X-6862080Y-21191960D01*
X-6862080Y-21191960D02*
X-6852556Y-21182436D01*
X-6852556Y-21182436D02*
X-6843032Y-21163389D01*
X-6843032Y-21163389D02*
X-6843032Y-21125293D01*
X-6843032Y-21125293D02*
X-6852556Y-21106246D01*
X-6852556Y-21106246D02*
X-6862080Y-21096722D01*
X-6862080Y-21096722D02*
X-6881128Y-21087198D01*
X-6652556Y-21201484D02*
X-6766842Y-21201484D01*
X-6709699Y-21201484D02*
X-6709699Y-21001484D01*
X-6709699Y-21001484D02*
X-6728747Y-21030055D01*
X-6728747Y-21030055D02*
X-6747794Y-21049103D01*
X-6747794Y-21049103D02*
X-6766842Y-21058627D01*
X-6576366Y-21001484D02*
X-6576366Y-21039579D01*
X-6500175Y-21001484D02*
X-6500175Y-21039579D01*
X-6204937Y-21277674D02*
X-6214461Y-21268150D01*
X-6214461Y-21268150D02*
X-6233508Y-21239579D01*
X-6233508Y-21239579D02*
X-6243032Y-21220531D01*
X-6243032Y-21220531D02*
X-6252556Y-21191960D01*
X-6252556Y-21191960D02*
X-6262080Y-21144341D01*
X-6262080Y-21144341D02*
X-6262080Y-21106246D01*
X-6262080Y-21106246D02*
X-6252556Y-21058627D01*
X-6252556Y-21058627D02*
X-6243032Y-21030055D01*
X-6243032Y-21030055D02*
X-6233508Y-21011008D01*
X-6233508Y-21011008D02*
X-6214461Y-20982436D01*
X-6214461Y-20982436D02*
X-6204937Y-20972912D01*
X-6138270Y-21020531D02*
X-6128747Y-21011008D01*
X-6128747Y-21011008D02*
X-6109699Y-21001484D01*
X-6109699Y-21001484D02*
X-6062080Y-21001484D01*
X-6062080Y-21001484D02*
X-6043032Y-21011008D01*
X-6043032Y-21011008D02*
X-6033508Y-21020531D01*
X-6033508Y-21020531D02*
X-6023985Y-21039579D01*
X-6023985Y-21039579D02*
X-6023985Y-21058627D01*
X-6023985Y-21058627D02*
X-6033508Y-21087198D01*
X-6033508Y-21087198D02*
X-6147794Y-21201484D01*
X-6147794Y-21201484D02*
X-6023985Y-21201484D01*
X-5909699Y-21087198D02*
X-5928747Y-21077674D01*
X-5928747Y-21077674D02*
X-5938270Y-21068150D01*
X-5938270Y-21068150D02*
X-5947794Y-21049103D01*
X-5947794Y-21049103D02*
X-5947794Y-21039579D01*
X-5947794Y-21039579D02*
X-5938270Y-21020531D01*
X-5938270Y-21020531D02*
X-5928747Y-21011008D01*
X-5928747Y-21011008D02*
X-5909699Y-21001484D01*
X-5909699Y-21001484D02*
X-5871604Y-21001484D01*
X-5871604Y-21001484D02*
X-5852556Y-21011008D01*
X-5852556Y-21011008D02*
X-5843032Y-21020531D01*
X-5843032Y-21020531D02*
X-5833508Y-21039579D01*
X-5833508Y-21039579D02*
X-5833508Y-21049103D01*
X-5833508Y-21049103D02*
X-5843032Y-21068150D01*
X-5843032Y-21068150D02*
X-5852556Y-21077674D01*
X-5852556Y-21077674D02*
X-5871604Y-21087198D01*
X-5871604Y-21087198D02*
X-5909699Y-21087198D01*
X-5909699Y-21087198D02*
X-5928747Y-21096722D01*
X-5928747Y-21096722D02*
X-5938270Y-21106246D01*
X-5938270Y-21106246D02*
X-5947794Y-21125293D01*
X-5947794Y-21125293D02*
X-5947794Y-21163389D01*
X-5947794Y-21163389D02*
X-5938270Y-21182436D01*
X-5938270Y-21182436D02*
X-5928747Y-21191960D01*
X-5928747Y-21191960D02*
X-5909699Y-21201484D01*
X-5909699Y-21201484D02*
X-5871604Y-21201484D01*
X-5871604Y-21201484D02*
X-5852556Y-21191960D01*
X-5852556Y-21191960D02*
X-5843032Y-21182436D01*
X-5843032Y-21182436D02*
X-5833508Y-21163389D01*
X-5833508Y-21163389D02*
X-5833508Y-21125293D01*
X-5833508Y-21125293D02*
X-5843032Y-21106246D01*
X-5843032Y-21106246D02*
X-5852556Y-21096722D01*
X-5852556Y-21096722D02*
X-5871604Y-21087198D01*
X-5595413Y-21201484D02*
X-5595413Y-21001484D01*
X-5509699Y-21201484D02*
X-5509699Y-21096722D01*
X-5509699Y-21096722D02*
X-5519223Y-21077674D01*
X-5519223Y-21077674D02*
X-5538270Y-21068150D01*
X-5538270Y-21068150D02*
X-5566842Y-21068150D01*
X-5566842Y-21068150D02*
X-5585889Y-21077674D01*
X-5585889Y-21077674D02*
X-5595413Y-21087198D01*
X-5385889Y-21201484D02*
X-5404937Y-21191960D01*
X-5404937Y-21191960D02*
X-5414461Y-21182436D01*
X-5414461Y-21182436D02*
X-5423985Y-21163389D01*
X-5423985Y-21163389D02*
X-5423985Y-21106246D01*
X-5423985Y-21106246D02*
X-5414461Y-21087198D01*
X-5414461Y-21087198D02*
X-5404937Y-21077674D01*
X-5404937Y-21077674D02*
X-5385889Y-21068150D01*
X-5385889Y-21068150D02*
X-5357318Y-21068150D01*
X-5357318Y-21068150D02*
X-5338270Y-21077674D01*
X-5338270Y-21077674D02*
X-5328747Y-21087198D01*
X-5328747Y-21087198D02*
X-5319223Y-21106246D01*
X-5319223Y-21106246D02*
X-5319223Y-21163389D01*
X-5319223Y-21163389D02*
X-5328747Y-21182436D01*
X-5328747Y-21182436D02*
X-5338270Y-21191960D01*
X-5338270Y-21191960D02*
X-5357318Y-21201484D01*
X-5357318Y-21201484D02*
X-5385889Y-21201484D01*
X-5204937Y-21201484D02*
X-5223985Y-21191960D01*
X-5223985Y-21191960D02*
X-5233508Y-21172912D01*
X-5233508Y-21172912D02*
X-5233508Y-21001484D01*
X-5052556Y-21191960D02*
X-5071604Y-21201484D01*
X-5071604Y-21201484D02*
X-5109699Y-21201484D01*
X-5109699Y-21201484D02*
X-5128747Y-21191960D01*
X-5128747Y-21191960D02*
X-5138270Y-21172912D01*
X-5138270Y-21172912D02*
X-5138270Y-21096722D01*
X-5138270Y-21096722D02*
X-5128747Y-21077674D01*
X-5128747Y-21077674D02*
X-5109699Y-21068150D01*
X-5109699Y-21068150D02*
X-5071604Y-21068150D01*
X-5071604Y-21068150D02*
X-5052556Y-21077674D01*
X-5052556Y-21077674D02*
X-5043032Y-21096722D01*
X-5043032Y-21096722D02*
X-5043032Y-21115770D01*
X-5043032Y-21115770D02*
X-5138270Y-21134817D01*
X-4966842Y-21191960D02*
X-4947794Y-21201484D01*
X-4947794Y-21201484D02*
X-4909699Y-21201484D01*
X-4909699Y-21201484D02*
X-4890651Y-21191960D01*
X-4890651Y-21191960D02*
X-4881127Y-21172912D01*
X-4881127Y-21172912D02*
X-4881127Y-21163389D01*
X-4881127Y-21163389D02*
X-4890651Y-21144341D01*
X-4890651Y-21144341D02*
X-4909699Y-21134817D01*
X-4909699Y-21134817D02*
X-4938270Y-21134817D01*
X-4938270Y-21134817D02*
X-4957318Y-21125293D01*
X-4957318Y-21125293D02*
X-4966842Y-21106246D01*
X-4966842Y-21106246D02*
X-4966842Y-21096722D01*
X-4966842Y-21096722D02*
X-4957318Y-21077674D01*
X-4957318Y-21077674D02*
X-4938270Y-21068150D01*
X-4938270Y-21068150D02*
X-4909699Y-21068150D01*
X-4909699Y-21068150D02*
X-4890651Y-21077674D01*
X-4814461Y-21277674D02*
X-4804937Y-21268150D01*
X-4804937Y-21268150D02*
X-4785889Y-21239579D01*
X-4785889Y-21239579D02*
X-4776366Y-21220531D01*
X-4776366Y-21220531D02*
X-4766842Y-21191960D01*
X-4766842Y-21191960D02*
X-4757318Y-21144341D01*
X-4757318Y-21144341D02*
X-4757318Y-21106246D01*
X-4757318Y-21106246D02*
X-4766842Y-21058627D01*
X-4766842Y-21058627D02*
X-4776366Y-21030055D01*
X-4776366Y-21030055D02*
X-4785889Y-21011008D01*
X-4785889Y-21011008D02*
X-4804937Y-20982436D01*
X-4804937Y-20982436D02*
X-4814461Y-20972912D01*
X-4452556Y-21277674D02*
X-4462080Y-21268150D01*
X-4462080Y-21268150D02*
X-4481127Y-21239579D01*
X-4481127Y-21239579D02*
X-4490651Y-21220531D01*
X-4490651Y-21220531D02*
X-4500175Y-21191960D01*
X-4500175Y-21191960D02*
X-4509699Y-21144341D01*
X-4509699Y-21144341D02*
X-4509699Y-21106246D01*
X-4509699Y-21106246D02*
X-4500175Y-21058627D01*
X-4500175Y-21058627D02*
X-4490651Y-21030055D01*
X-4490651Y-21030055D02*
X-4481127Y-21011008D01*
X-4481127Y-21011008D02*
X-4462080Y-20982436D01*
X-4462080Y-20982436D02*
X-4452556Y-20972912D01*
X-4376366Y-21068150D02*
X-4376366Y-21201484D01*
X-4376366Y-21087198D02*
X-4366842Y-21077674D01*
X-4366842Y-21077674D02*
X-4347794Y-21068150D01*
X-4347794Y-21068150D02*
X-4319223Y-21068150D01*
X-4319223Y-21068150D02*
X-4300175Y-21077674D01*
X-4300175Y-21077674D02*
X-4290651Y-21096722D01*
X-4290651Y-21096722D02*
X-4290651Y-21201484D01*
X-4166842Y-21201484D02*
X-4185889Y-21191960D01*
X-4185889Y-21191960D02*
X-4195413Y-21182436D01*
X-4195413Y-21182436D02*
X-4204937Y-21163389D01*
X-4204937Y-21163389D02*
X-4204937Y-21106246D01*
X-4204937Y-21106246D02*
X-4195413Y-21087198D01*
X-4195413Y-21087198D02*
X-4185889Y-21077674D01*
X-4185889Y-21077674D02*
X-4166842Y-21068150D01*
X-4166842Y-21068150D02*
X-4138270Y-21068150D01*
X-4138270Y-21068150D02*
X-4119223Y-21077674D01*
X-4119223Y-21077674D02*
X-4109699Y-21087198D01*
X-4109699Y-21087198D02*
X-4100175Y-21106246D01*
X-4100175Y-21106246D02*
X-4100175Y-21163389D01*
X-4100175Y-21163389D02*
X-4109699Y-21182436D01*
X-4109699Y-21182436D02*
X-4119223Y-21191960D01*
X-4119223Y-21191960D02*
X-4138270Y-21201484D01*
X-4138270Y-21201484D02*
X-4166842Y-21201484D01*
X-4043032Y-21068150D02*
X-3966842Y-21068150D01*
X-4014461Y-21001484D02*
X-4014461Y-21172912D01*
X-4014461Y-21172912D02*
X-4004937Y-21191960D01*
X-4004937Y-21191960D02*
X-3985889Y-21201484D01*
X-3985889Y-21201484D02*
X-3966842Y-21201484D01*
X-3747794Y-21068150D02*
X-3747794Y-21268150D01*
X-3747794Y-21077674D02*
X-3728746Y-21068150D01*
X-3728746Y-21068150D02*
X-3690651Y-21068150D01*
X-3690651Y-21068150D02*
X-3671603Y-21077674D01*
X-3671603Y-21077674D02*
X-3662080Y-21087198D01*
X-3662080Y-21087198D02*
X-3652556Y-21106246D01*
X-3652556Y-21106246D02*
X-3652556Y-21163389D01*
X-3652556Y-21163389D02*
X-3662080Y-21182436D01*
X-3662080Y-21182436D02*
X-3671603Y-21191960D01*
X-3671603Y-21191960D02*
X-3690651Y-21201484D01*
X-3690651Y-21201484D02*
X-3728746Y-21201484D01*
X-3728746Y-21201484D02*
X-3747794Y-21191960D01*
X-3538270Y-21201484D02*
X-3557318Y-21191960D01*
X-3557318Y-21191960D02*
X-3566842Y-21172912D01*
X-3566842Y-21172912D02*
X-3566842Y-21001484D01*
X-3376365Y-21201484D02*
X-3376365Y-21096722D01*
X-3376365Y-21096722D02*
X-3385889Y-21077674D01*
X-3385889Y-21077674D02*
X-3404937Y-21068150D01*
X-3404937Y-21068150D02*
X-3443032Y-21068150D01*
X-3443032Y-21068150D02*
X-3462080Y-21077674D01*
X-3376365Y-21191960D02*
X-3395413Y-21201484D01*
X-3395413Y-21201484D02*
X-3443032Y-21201484D01*
X-3443032Y-21201484D02*
X-3462080Y-21191960D01*
X-3462080Y-21191960D02*
X-3471603Y-21172912D01*
X-3471603Y-21172912D02*
X-3471603Y-21153865D01*
X-3471603Y-21153865D02*
X-3462080Y-21134817D01*
X-3462080Y-21134817D02*
X-3443032Y-21125293D01*
X-3443032Y-21125293D02*
X-3395413Y-21125293D01*
X-3395413Y-21125293D02*
X-3376365Y-21115770D01*
X-3309699Y-21068150D02*
X-3233508Y-21068150D01*
X-3281127Y-21001484D02*
X-3281127Y-21172912D01*
X-3281127Y-21172912D02*
X-3271603Y-21191960D01*
X-3271603Y-21191960D02*
X-3252556Y-21201484D01*
X-3252556Y-21201484D02*
X-3233508Y-21201484D01*
X-3090651Y-21191960D02*
X-3109699Y-21201484D01*
X-3109699Y-21201484D02*
X-3147794Y-21201484D01*
X-3147794Y-21201484D02*
X-3166842Y-21191960D01*
X-3166842Y-21191960D02*
X-3176365Y-21172912D01*
X-3176365Y-21172912D02*
X-3176365Y-21096722D01*
X-3176365Y-21096722D02*
X-3166842Y-21077674D01*
X-3166842Y-21077674D02*
X-3147794Y-21068150D01*
X-3147794Y-21068150D02*
X-3109699Y-21068150D01*
X-3109699Y-21068150D02*
X-3090651Y-21077674D01*
X-3090651Y-21077674D02*
X-3081127Y-21096722D01*
X-3081127Y-21096722D02*
X-3081127Y-21115770D01*
X-3081127Y-21115770D02*
X-3176365Y-21134817D01*
X-2909699Y-21201484D02*
X-2909699Y-21001484D01*
X-2909699Y-21191960D02*
X-2928746Y-21201484D01*
X-2928746Y-21201484D02*
X-2966842Y-21201484D01*
X-2966842Y-21201484D02*
X-2985889Y-21191960D01*
X-2985889Y-21191960D02*
X-2995413Y-21182436D01*
X-2995413Y-21182436D02*
X-3004937Y-21163389D01*
X-3004937Y-21163389D02*
X-3004937Y-21106246D01*
X-3004937Y-21106246D02*
X-2995413Y-21087198D01*
X-2995413Y-21087198D02*
X-2985889Y-21077674D01*
X-2985889Y-21077674D02*
X-2966842Y-21068150D01*
X-2966842Y-21068150D02*
X-2928746Y-21068150D01*
X-2928746Y-21068150D02*
X-2909699Y-21077674D01*
X-2833508Y-21277674D02*
X-2823984Y-21268150D01*
X-2823984Y-21268150D02*
X-2804937Y-21239579D01*
X-2804937Y-21239579D02*
X-2795413Y-21220531D01*
X-2795413Y-21220531D02*
X-2785889Y-21191960D01*
X-2785889Y-21191960D02*
X-2776365Y-21144341D01*
X-2776365Y-21144341D02*
X-2776365Y-21106246D01*
X-2776365Y-21106246D02*
X-2785889Y-21058627D01*
X-2785889Y-21058627D02*
X-2795413Y-21030055D01*
X-2795413Y-21030055D02*
X-2804937Y-21011008D01*
X-2804937Y-21011008D02*
X-2823984Y-20982436D01*
X-2823984Y-20982436D02*
X-2833508Y-20972912D01*
X-9880000Y-21330000D02*
X-9880000Y-21530000D01*
X-9980000Y-21430000D02*
X-9780000Y-21430000D01*
X-9538271Y-21321484D02*
X-9414461Y-21321484D01*
X-9414461Y-21321484D02*
X-9481128Y-21397674D01*
X-9481128Y-21397674D02*
X-9452556Y-21397674D01*
X-9452556Y-21397674D02*
X-9433509Y-21407198D01*
X-9433509Y-21407198D02*
X-9423985Y-21416722D01*
X-9423985Y-21416722D02*
X-9414461Y-21435770D01*
X-9414461Y-21435770D02*
X-9414461Y-21483389D01*
X-9414461Y-21483389D02*
X-9423985Y-21502436D01*
X-9423985Y-21502436D02*
X-9433509Y-21511960D01*
X-9433509Y-21511960D02*
X-9452556Y-21521484D01*
X-9452556Y-21521484D02*
X-9509699Y-21521484D01*
X-9509699Y-21521484D02*
X-9528747Y-21511960D01*
X-9528747Y-21511960D02*
X-9538271Y-21502436D01*
X-9328747Y-21502436D02*
X-9319223Y-21511960D01*
X-9319223Y-21511960D02*
X-9328747Y-21521484D01*
X-9328747Y-21521484D02*
X-9338271Y-21511960D01*
X-9338271Y-21511960D02*
X-9328747Y-21502436D01*
X-9328747Y-21502436D02*
X-9328747Y-21521484D01*
X-9243033Y-21340531D02*
X-9233509Y-21331008D01*
X-9233509Y-21331008D02*
X-9214461Y-21321484D01*
X-9214461Y-21321484D02*
X-9166842Y-21321484D01*
X-9166842Y-21321484D02*
X-9147795Y-21331008D01*
X-9147795Y-21331008D02*
X-9138271Y-21340531D01*
X-9138271Y-21340531D02*
X-9128747Y-21359579D01*
X-9128747Y-21359579D02*
X-9128747Y-21378627D01*
X-9128747Y-21378627D02*
X-9138271Y-21407198D01*
X-9138271Y-21407198D02*
X-9252556Y-21521484D01*
X-9252556Y-21521484D02*
X-9128747Y-21521484D01*
X-9004937Y-21321484D02*
X-8985890Y-21321484D01*
X-8985890Y-21321484D02*
X-8966842Y-21331008D01*
X-8966842Y-21331008D02*
X-8957318Y-21340531D01*
X-8957318Y-21340531D02*
X-8947795Y-21359579D01*
X-8947795Y-21359579D02*
X-8938271Y-21397674D01*
X-8938271Y-21397674D02*
X-8938271Y-21445293D01*
X-8938271Y-21445293D02*
X-8947795Y-21483389D01*
X-8947795Y-21483389D02*
X-8957318Y-21502436D01*
X-8957318Y-21502436D02*
X-8966842Y-21511960D01*
X-8966842Y-21511960D02*
X-8985890Y-21521484D01*
X-8985890Y-21521484D02*
X-9004937Y-21521484D01*
X-9004937Y-21521484D02*
X-9023985Y-21511960D01*
X-9023985Y-21511960D02*
X-9033509Y-21502436D01*
X-9033509Y-21502436D02*
X-9043033Y-21483389D01*
X-9043033Y-21483389D02*
X-9052556Y-21445293D01*
X-9052556Y-21445293D02*
X-9052556Y-21397674D01*
X-9052556Y-21397674D02*
X-9043033Y-21359579D01*
X-9043033Y-21359579D02*
X-9033509Y-21340531D01*
X-9033509Y-21340531D02*
X-9023985Y-21331008D01*
X-9023985Y-21331008D02*
X-9004937Y-21321484D01*
X-8814461Y-21321484D02*
X-8795414Y-21321484D01*
X-8795414Y-21321484D02*
X-8776366Y-21331008D01*
X-8776366Y-21331008D02*
X-8766842Y-21340531D01*
X-8766842Y-21340531D02*
X-8757318Y-21359579D01*
X-8757318Y-21359579D02*
X-8747795Y-21397674D01*
X-8747795Y-21397674D02*
X-8747795Y-21445293D01*
X-8747795Y-21445293D02*
X-8757318Y-21483389D01*
X-8757318Y-21483389D02*
X-8766842Y-21502436D01*
X-8766842Y-21502436D02*
X-8776366Y-21511960D01*
X-8776366Y-21511960D02*
X-8795414Y-21521484D01*
X-8795414Y-21521484D02*
X-8814461Y-21521484D01*
X-8814461Y-21521484D02*
X-8833509Y-21511960D01*
X-8833509Y-21511960D02*
X-8843033Y-21502436D01*
X-8843033Y-21502436D02*
X-8852556Y-21483389D01*
X-8852556Y-21483389D02*
X-8862080Y-21445293D01*
X-8862080Y-21445293D02*
X-8862080Y-21397674D01*
X-8862080Y-21397674D02*
X-8852556Y-21359579D01*
X-8852556Y-21359579D02*
X-8843033Y-21340531D01*
X-8843033Y-21340531D02*
X-8833509Y-21331008D01*
X-8833509Y-21331008D02*
X-8814461Y-21321484D01*
X-8662080Y-21521484D02*
X-8662080Y-21388150D01*
X-8662080Y-21407198D02*
X-8652556Y-21397674D01*
X-8652556Y-21397674D02*
X-8633509Y-21388150D01*
X-8633509Y-21388150D02*
X-8604937Y-21388150D01*
X-8604937Y-21388150D02*
X-8585890Y-21397674D01*
X-8585890Y-21397674D02*
X-8576366Y-21416722D01*
X-8576366Y-21416722D02*
X-8576366Y-21521484D01*
X-8576366Y-21416722D02*
X-8566842Y-21397674D01*
X-8566842Y-21397674D02*
X-8547795Y-21388150D01*
X-8547795Y-21388150D02*
X-8519223Y-21388150D01*
X-8519223Y-21388150D02*
X-8500175Y-21397674D01*
X-8500175Y-21397674D02*
X-8490652Y-21416722D01*
X-8490652Y-21416722D02*
X-8490652Y-21521484D01*
X-8395414Y-21521484D02*
X-8395414Y-21388150D01*
X-8395414Y-21407198D02*
X-8385890Y-21397674D01*
X-8385890Y-21397674D02*
X-8366842Y-21388150D01*
X-8366842Y-21388150D02*
X-8338271Y-21388150D01*
X-8338271Y-21388150D02*
X-8319223Y-21397674D01*
X-8319223Y-21397674D02*
X-8309699Y-21416722D01*
X-8309699Y-21416722D02*
X-8309699Y-21521484D01*
X-8309699Y-21416722D02*
X-8300175Y-21397674D01*
X-8300175Y-21397674D02*
X-8281128Y-21388150D01*
X-8281128Y-21388150D02*
X-8252556Y-21388150D01*
X-8252556Y-21388150D02*
X-8233509Y-21397674D01*
X-8233509Y-21397674D02*
X-8223985Y-21416722D01*
X-8223985Y-21416722D02*
X-8223985Y-21521484D01*
X-7833509Y-21311960D02*
X-8004937Y-21569103D01*
X-7576366Y-21321484D02*
X-7557318Y-21321484D01*
X-7557318Y-21321484D02*
X-7538270Y-21331008D01*
X-7538270Y-21331008D02*
X-7528747Y-21340531D01*
X-7528747Y-21340531D02*
X-7519223Y-21359579D01*
X-7519223Y-21359579D02*
X-7509699Y-21397674D01*
X-7509699Y-21397674D02*
X-7509699Y-21445293D01*
X-7509699Y-21445293D02*
X-7519223Y-21483389D01*
X-7519223Y-21483389D02*
X-7528747Y-21502436D01*
X-7528747Y-21502436D02*
X-7538270Y-21511960D01*
X-7538270Y-21511960D02*
X-7557318Y-21521484D01*
X-7557318Y-21521484D02*
X-7576366Y-21521484D01*
X-7576366Y-21521484D02*
X-7595413Y-21511960D01*
X-7595413Y-21511960D02*
X-7604937Y-21502436D01*
X-7604937Y-21502436D02*
X-7614461Y-21483389D01*
X-7614461Y-21483389D02*
X-7623985Y-21445293D01*
X-7623985Y-21445293D02*
X-7623985Y-21397674D01*
X-7623985Y-21397674D02*
X-7614461Y-21359579D01*
X-7614461Y-21359579D02*
X-7604937Y-21340531D01*
X-7604937Y-21340531D02*
X-7595413Y-21331008D01*
X-7595413Y-21331008D02*
X-7576366Y-21321484D01*
X-7423985Y-21502436D02*
X-7414461Y-21511960D01*
X-7414461Y-21511960D02*
X-7423985Y-21521484D01*
X-7423985Y-21521484D02*
X-7433509Y-21511960D01*
X-7433509Y-21511960D02*
X-7423985Y-21502436D01*
X-7423985Y-21502436D02*
X-7423985Y-21521484D01*
X-7223985Y-21521484D02*
X-7338270Y-21521484D01*
X-7281128Y-21521484D02*
X-7281128Y-21321484D01*
X-7281128Y-21321484D02*
X-7300175Y-21350055D01*
X-7300175Y-21350055D02*
X-7319223Y-21369103D01*
X-7319223Y-21369103D02*
X-7338270Y-21378627D01*
X-7147794Y-21340531D02*
X-7138270Y-21331008D01*
X-7138270Y-21331008D02*
X-7119223Y-21321484D01*
X-7119223Y-21321484D02*
X-7071604Y-21321484D01*
X-7071604Y-21321484D02*
X-7052556Y-21331008D01*
X-7052556Y-21331008D02*
X-7043032Y-21340531D01*
X-7043032Y-21340531D02*
X-7033509Y-21359579D01*
X-7033509Y-21359579D02*
X-7033509Y-21378627D01*
X-7033509Y-21378627D02*
X-7043032Y-21407198D01*
X-7043032Y-21407198D02*
X-7157318Y-21521484D01*
X-7157318Y-21521484D02*
X-7033509Y-21521484D01*
X-6862080Y-21321484D02*
X-6900175Y-21321484D01*
X-6900175Y-21321484D02*
X-6919223Y-21331008D01*
X-6919223Y-21331008D02*
X-6928747Y-21340531D01*
X-6928747Y-21340531D02*
X-6947794Y-21369103D01*
X-6947794Y-21369103D02*
X-6957318Y-21407198D01*
X-6957318Y-21407198D02*
X-6957318Y-21483389D01*
X-6957318Y-21483389D02*
X-6947794Y-21502436D01*
X-6947794Y-21502436D02*
X-6938270Y-21511960D01*
X-6938270Y-21511960D02*
X-6919223Y-21521484D01*
X-6919223Y-21521484D02*
X-6881128Y-21521484D01*
X-6881128Y-21521484D02*
X-6862080Y-21511960D01*
X-6862080Y-21511960D02*
X-6852556Y-21502436D01*
X-6852556Y-21502436D02*
X-6843032Y-21483389D01*
X-6843032Y-21483389D02*
X-6843032Y-21435770D01*
X-6843032Y-21435770D02*
X-6852556Y-21416722D01*
X-6852556Y-21416722D02*
X-6862080Y-21407198D01*
X-6862080Y-21407198D02*
X-6881128Y-21397674D01*
X-6881128Y-21397674D02*
X-6919223Y-21397674D01*
X-6919223Y-21397674D02*
X-6938270Y-21407198D01*
X-6938270Y-21407198D02*
X-6947794Y-21416722D01*
X-6947794Y-21416722D02*
X-6957318Y-21435770D01*
X-6719223Y-21321484D02*
X-6700175Y-21321484D01*
X-6700175Y-21321484D02*
X-6681128Y-21331008D01*
X-6681128Y-21331008D02*
X-6671604Y-21340531D01*
X-6671604Y-21340531D02*
X-6662080Y-21359579D01*
X-6662080Y-21359579D02*
X-6652556Y-21397674D01*
X-6652556Y-21397674D02*
X-6652556Y-21445293D01*
X-6652556Y-21445293D02*
X-6662080Y-21483389D01*
X-6662080Y-21483389D02*
X-6671604Y-21502436D01*
X-6671604Y-21502436D02*
X-6681128Y-21511960D01*
X-6681128Y-21511960D02*
X-6700175Y-21521484D01*
X-6700175Y-21521484D02*
X-6719223Y-21521484D01*
X-6719223Y-21521484D02*
X-6738270Y-21511960D01*
X-6738270Y-21511960D02*
X-6747794Y-21502436D01*
X-6747794Y-21502436D02*
X-6757318Y-21483389D01*
X-6757318Y-21483389D02*
X-6766842Y-21445293D01*
X-6766842Y-21445293D02*
X-6766842Y-21397674D01*
X-6766842Y-21397674D02*
X-6757318Y-21359579D01*
X-6757318Y-21359579D02*
X-6747794Y-21340531D01*
X-6747794Y-21340531D02*
X-6738270Y-21331008D01*
X-6738270Y-21331008D02*
X-6719223Y-21321484D01*
X-6576366Y-21321484D02*
X-6576366Y-21359579D01*
X-6500175Y-21321484D02*
X-6500175Y-21359579D01*
X-6204937Y-21597674D02*
X-6214461Y-21588150D01*
X-6214461Y-21588150D02*
X-6233508Y-21559579D01*
X-6233508Y-21559579D02*
X-6243032Y-21540531D01*
X-6243032Y-21540531D02*
X-6252556Y-21511960D01*
X-6252556Y-21511960D02*
X-6262080Y-21464341D01*
X-6262080Y-21464341D02*
X-6262080Y-21426246D01*
X-6262080Y-21426246D02*
X-6252556Y-21378627D01*
X-6252556Y-21378627D02*
X-6243032Y-21350055D01*
X-6243032Y-21350055D02*
X-6233508Y-21331008D01*
X-6233508Y-21331008D02*
X-6214461Y-21302436D01*
X-6214461Y-21302436D02*
X-6204937Y-21292912D01*
X-6147794Y-21321484D02*
X-6014461Y-21321484D01*
X-6014461Y-21321484D02*
X-6100175Y-21521484D01*
X-5785889Y-21521484D02*
X-5785889Y-21321484D01*
X-5700175Y-21521484D02*
X-5700175Y-21416722D01*
X-5700175Y-21416722D02*
X-5709699Y-21397674D01*
X-5709699Y-21397674D02*
X-5728746Y-21388150D01*
X-5728746Y-21388150D02*
X-5757318Y-21388150D01*
X-5757318Y-21388150D02*
X-5776366Y-21397674D01*
X-5776366Y-21397674D02*
X-5785889Y-21407198D01*
X-5576366Y-21521484D02*
X-5595413Y-21511960D01*
X-5595413Y-21511960D02*
X-5604937Y-21502436D01*
X-5604937Y-21502436D02*
X-5614461Y-21483389D01*
X-5614461Y-21483389D02*
X-5614461Y-21426246D01*
X-5614461Y-21426246D02*
X-5604937Y-21407198D01*
X-5604937Y-21407198D02*
X-5595413Y-21397674D01*
X-5595413Y-21397674D02*
X-5576366Y-21388150D01*
X-5576366Y-21388150D02*
X-5547794Y-21388150D01*
X-5547794Y-21388150D02*
X-5528747Y-21397674D01*
X-5528747Y-21397674D02*
X-5519223Y-21407198D01*
X-5519223Y-21407198D02*
X-5509699Y-21426246D01*
X-5509699Y-21426246D02*
X-5509699Y-21483389D01*
X-5509699Y-21483389D02*
X-5519223Y-21502436D01*
X-5519223Y-21502436D02*
X-5528747Y-21511960D01*
X-5528747Y-21511960D02*
X-5547794Y-21521484D01*
X-5547794Y-21521484D02*
X-5576366Y-21521484D01*
X-5395413Y-21521484D02*
X-5414461Y-21511960D01*
X-5414461Y-21511960D02*
X-5423985Y-21492912D01*
X-5423985Y-21492912D02*
X-5423985Y-21321484D01*
X-5243032Y-21511960D02*
X-5262080Y-21521484D01*
X-5262080Y-21521484D02*
X-5300175Y-21521484D01*
X-5300175Y-21521484D02*
X-5319223Y-21511960D01*
X-5319223Y-21511960D02*
X-5328747Y-21492912D01*
X-5328747Y-21492912D02*
X-5328747Y-21416722D01*
X-5328747Y-21416722D02*
X-5319223Y-21397674D01*
X-5319223Y-21397674D02*
X-5300175Y-21388150D01*
X-5300175Y-21388150D02*
X-5262080Y-21388150D01*
X-5262080Y-21388150D02*
X-5243032Y-21397674D01*
X-5243032Y-21397674D02*
X-5233508Y-21416722D01*
X-5233508Y-21416722D02*
X-5233508Y-21435770D01*
X-5233508Y-21435770D02*
X-5328747Y-21454817D01*
X-5157318Y-21511960D02*
X-5138270Y-21521484D01*
X-5138270Y-21521484D02*
X-5100175Y-21521484D01*
X-5100175Y-21521484D02*
X-5081127Y-21511960D01*
X-5081127Y-21511960D02*
X-5071604Y-21492912D01*
X-5071604Y-21492912D02*
X-5071604Y-21483389D01*
X-5071604Y-21483389D02*
X-5081127Y-21464341D01*
X-5081127Y-21464341D02*
X-5100175Y-21454817D01*
X-5100175Y-21454817D02*
X-5128747Y-21454817D01*
X-5128747Y-21454817D02*
X-5147794Y-21445293D01*
X-5147794Y-21445293D02*
X-5157318Y-21426246D01*
X-5157318Y-21426246D02*
X-5157318Y-21416722D01*
X-5157318Y-21416722D02*
X-5147794Y-21397674D01*
X-5147794Y-21397674D02*
X-5128747Y-21388150D01*
X-5128747Y-21388150D02*
X-5100175Y-21388150D01*
X-5100175Y-21388150D02*
X-5081127Y-21397674D01*
X-5004937Y-21597674D02*
X-4995413Y-21588150D01*
X-4995413Y-21588150D02*
X-4976366Y-21559579D01*
X-4976366Y-21559579D02*
X-4966842Y-21540531D01*
X-4966842Y-21540531D02*
X-4957318Y-21511960D01*
X-4957318Y-21511960D02*
X-4947794Y-21464341D01*
X-4947794Y-21464341D02*
X-4947794Y-21426246D01*
X-4947794Y-21426246D02*
X-4957318Y-21378627D01*
X-4957318Y-21378627D02*
X-4966842Y-21350055D01*
X-4966842Y-21350055D02*
X-4976366Y-21331008D01*
X-4976366Y-21331008D02*
X-4995413Y-21302436D01*
X-4995413Y-21302436D02*
X-5004937Y-21292912D01*
X-4643032Y-21597674D02*
X-4652556Y-21588150D01*
X-4652556Y-21588150D02*
X-4671604Y-21559579D01*
X-4671604Y-21559579D02*
X-4681127Y-21540531D01*
X-4681127Y-21540531D02*
X-4690651Y-21511960D01*
X-4690651Y-21511960D02*
X-4700175Y-21464341D01*
X-4700175Y-21464341D02*
X-4700175Y-21426246D01*
X-4700175Y-21426246D02*
X-4690651Y-21378627D01*
X-4690651Y-21378627D02*
X-4681127Y-21350055D01*
X-4681127Y-21350055D02*
X-4671604Y-21331008D01*
X-4671604Y-21331008D02*
X-4652556Y-21302436D01*
X-4652556Y-21302436D02*
X-4643032Y-21292912D01*
X-4566842Y-21388150D02*
X-4566842Y-21521484D01*
X-4566842Y-21407198D02*
X-4557318Y-21397674D01*
X-4557318Y-21397674D02*
X-4538270Y-21388150D01*
X-4538270Y-21388150D02*
X-4509699Y-21388150D01*
X-4509699Y-21388150D02*
X-4490651Y-21397674D01*
X-4490651Y-21397674D02*
X-4481127Y-21416722D01*
X-4481127Y-21416722D02*
X-4481127Y-21521484D01*
X-4357318Y-21521484D02*
X-4376366Y-21511960D01*
X-4376366Y-21511960D02*
X-4385889Y-21502436D01*
X-4385889Y-21502436D02*
X-4395413Y-21483389D01*
X-4395413Y-21483389D02*
X-4395413Y-21426246D01*
X-4395413Y-21426246D02*
X-4385889Y-21407198D01*
X-4385889Y-21407198D02*
X-4376366Y-21397674D01*
X-4376366Y-21397674D02*
X-4357318Y-21388150D01*
X-4357318Y-21388150D02*
X-4328746Y-21388150D01*
X-4328746Y-21388150D02*
X-4309699Y-21397674D01*
X-4309699Y-21397674D02*
X-4300175Y-21407198D01*
X-4300175Y-21407198D02*
X-4290651Y-21426246D01*
X-4290651Y-21426246D02*
X-4290651Y-21483389D01*
X-4290651Y-21483389D02*
X-4300175Y-21502436D01*
X-4300175Y-21502436D02*
X-4309699Y-21511960D01*
X-4309699Y-21511960D02*
X-4328746Y-21521484D01*
X-4328746Y-21521484D02*
X-4357318Y-21521484D01*
X-4233508Y-21388150D02*
X-4157318Y-21388150D01*
X-4204937Y-21321484D02*
X-4204937Y-21492912D01*
X-4204937Y-21492912D02*
X-4195413Y-21511960D01*
X-4195413Y-21511960D02*
X-4176365Y-21521484D01*
X-4176365Y-21521484D02*
X-4157318Y-21521484D01*
X-3938270Y-21388150D02*
X-3938270Y-21588150D01*
X-3938270Y-21397674D02*
X-3919223Y-21388150D01*
X-3919223Y-21388150D02*
X-3881127Y-21388150D01*
X-3881127Y-21388150D02*
X-3862080Y-21397674D01*
X-3862080Y-21397674D02*
X-3852556Y-21407198D01*
X-3852556Y-21407198D02*
X-3843032Y-21426246D01*
X-3843032Y-21426246D02*
X-3843032Y-21483389D01*
X-3843032Y-21483389D02*
X-3852556Y-21502436D01*
X-3852556Y-21502436D02*
X-3862080Y-21511960D01*
X-3862080Y-21511960D02*
X-3881127Y-21521484D01*
X-3881127Y-21521484D02*
X-3919223Y-21521484D01*
X-3919223Y-21521484D02*
X-3938270Y-21511960D01*
X-3728746Y-21521484D02*
X-3747794Y-21511960D01*
X-3747794Y-21511960D02*
X-3757318Y-21492912D01*
X-3757318Y-21492912D02*
X-3757318Y-21321484D01*
X-3566842Y-21521484D02*
X-3566842Y-21416722D01*
X-3566842Y-21416722D02*
X-3576365Y-21397674D01*
X-3576365Y-21397674D02*
X-3595413Y-21388150D01*
X-3595413Y-21388150D02*
X-3633508Y-21388150D01*
X-3633508Y-21388150D02*
X-3652556Y-21397674D01*
X-3566842Y-21511960D02*
X-3585889Y-21521484D01*
X-3585889Y-21521484D02*
X-3633508Y-21521484D01*
X-3633508Y-21521484D02*
X-3652556Y-21511960D01*
X-3652556Y-21511960D02*
X-3662080Y-21492912D01*
X-3662080Y-21492912D02*
X-3662080Y-21473865D01*
X-3662080Y-21473865D02*
X-3652556Y-21454817D01*
X-3652556Y-21454817D02*
X-3633508Y-21445293D01*
X-3633508Y-21445293D02*
X-3585889Y-21445293D01*
X-3585889Y-21445293D02*
X-3566842Y-21435770D01*
X-3500175Y-21388150D02*
X-3423984Y-21388150D01*
X-3471603Y-21321484D02*
X-3471603Y-21492912D01*
X-3471603Y-21492912D02*
X-3462080Y-21511960D01*
X-3462080Y-21511960D02*
X-3443032Y-21521484D01*
X-3443032Y-21521484D02*
X-3423984Y-21521484D01*
X-3281127Y-21511960D02*
X-3300175Y-21521484D01*
X-3300175Y-21521484D02*
X-3338270Y-21521484D01*
X-3338270Y-21521484D02*
X-3357318Y-21511960D01*
X-3357318Y-21511960D02*
X-3366842Y-21492912D01*
X-3366842Y-21492912D02*
X-3366842Y-21416722D01*
X-3366842Y-21416722D02*
X-3357318Y-21397674D01*
X-3357318Y-21397674D02*
X-3338270Y-21388150D01*
X-3338270Y-21388150D02*
X-3300175Y-21388150D01*
X-3300175Y-21388150D02*
X-3281127Y-21397674D01*
X-3281127Y-21397674D02*
X-3271603Y-21416722D01*
X-3271603Y-21416722D02*
X-3271603Y-21435770D01*
X-3271603Y-21435770D02*
X-3366842Y-21454817D01*
X-3100175Y-21521484D02*
X-3100175Y-21321484D01*
X-3100175Y-21511960D02*
X-3119222Y-21521484D01*
X-3119222Y-21521484D02*
X-3157318Y-21521484D01*
X-3157318Y-21521484D02*
X-3176365Y-21511960D01*
X-3176365Y-21511960D02*
X-3185889Y-21502436D01*
X-3185889Y-21502436D02*
X-3195413Y-21483389D01*
X-3195413Y-21483389D02*
X-3195413Y-21426246D01*
X-3195413Y-21426246D02*
X-3185889Y-21407198D01*
X-3185889Y-21407198D02*
X-3176365Y-21397674D01*
X-3176365Y-21397674D02*
X-3157318Y-21388150D01*
X-3157318Y-21388150D02*
X-3119222Y-21388150D01*
X-3119222Y-21388150D02*
X-3100175Y-21397674D01*
X-3023984Y-21597674D02*
X-3014461Y-21588150D01*
X-3014461Y-21588150D02*
X-2995413Y-21559579D01*
X-2995413Y-21559579D02*
X-2985889Y-21540531D01*
X-2985889Y-21540531D02*
X-2976365Y-21511960D01*
X-2976365Y-21511960D02*
X-2966842Y-21464341D01*
X-2966842Y-21464341D02*
X-2966842Y-21426246D01*
X-2966842Y-21426246D02*
X-2976365Y-21378627D01*
X-2976365Y-21378627D02*
X-2985889Y-21350055D01*
X-2985889Y-21350055D02*
X-2995413Y-21331008D01*
X-2995413Y-21331008D02*
X-3014461Y-21302436D01*
X-3014461Y-21302436D02*
X-3023984Y-21292912D01*
M02*
