%TF.GenerationSoftware,KiCad,Pcbnew,8.0.0*%
%TF.CreationDate,2024-03-30T18:44:18+01:00*%
%TF.ProjectId,schematic-main _ kopia,73636865-6d61-4746-9963-2d6d61696e20,rev?*%
%TF.SameCoordinates,Original*%
%TF.FileFunction,Soldermask,Top*%
%TF.FilePolarity,Negative*%
%FSLAX46Y46*%
G04 Gerber Fmt 4.6, Leading zero omitted, Abs format (unit mm)*
G04 Created by KiCad (PCBNEW 8.0.0) date 2024-03-30 18:44:18*
%MOMM*%
%LPD*%
G01*
G04 APERTURE LIST*
G04 Aperture macros list*
%AMRoundRect*
0 Rectangle with rounded corners*
0 $1 Rounding radius*
0 $2 $3 $4 $5 $6 $7 $8 $9 X,Y pos of 4 corners*
0 Add a 4 corners polygon primitive as box body*
4,1,4,$2,$3,$4,$5,$6,$7,$8,$9,$2,$3,0*
0 Add four circle primitives for the rounded corners*
1,1,$1+$1,$2,$3*
1,1,$1+$1,$4,$5*
1,1,$1+$1,$6,$7*
1,1,$1+$1,$8,$9*
0 Add four rect primitives between the rounded corners*
20,1,$1+$1,$2,$3,$4,$5,0*
20,1,$1+$1,$4,$5,$6,$7,0*
20,1,$1+$1,$6,$7,$8,$9,0*
20,1,$1+$1,$8,$9,$2,$3,0*%
G04 Aperture macros list end*
%ADD10C,2.280000*%
%ADD11C,2.850000*%
%ADD12R,0.300000X1.100000*%
%ADD13R,0.800000X0.700000*%
%ADD14R,0.680000X0.700000*%
%ADD15R,4.320000X4.510000*%
%ADD16RoundRect,0.050000X0.050000X-0.387500X0.050000X0.387500X-0.050000X0.387500X-0.050000X-0.387500X0*%
%ADD17RoundRect,0.050000X0.387500X-0.050000X0.387500X0.050000X-0.387500X0.050000X-0.387500X-0.050000X0*%
%ADD18R,5.600000X5.600000*%
%ADD19RoundRect,0.150000X0.150000X-0.825000X0.150000X0.825000X-0.150000X0.825000X-0.150000X-0.825000X0*%
%ADD20R,0.500000X0.375000*%
%ADD21R,0.650000X0.300000*%
%ADD22R,0.350000X0.430000*%
%ADD23R,1.250000X1.100000*%
%ADD24R,0.350000X0.660000*%
%ADD25RoundRect,0.050000X0.100000X-0.285000X0.100000X0.285000X-0.100000X0.285000X-0.100000X-0.285000X0*%
%ADD26R,0.450000X1.475000*%
%ADD27R,3.550000X2.460000*%
%ADD28R,0.300000X1.400000*%
%ADD29C,3.000000*%
%ADD30RoundRect,0.250000X-0.325000X-0.650000X0.325000X-0.650000X0.325000X0.650000X-0.325000X0.650000X0*%
%ADD31RoundRect,0.250000X0.375000X0.625000X-0.375000X0.625000X-0.375000X-0.625000X0.375000X-0.625000X0*%
%ADD32RoundRect,0.250000X-0.650000X0.325000X-0.650000X-0.325000X0.650000X-0.325000X0.650000X0.325000X0*%
%ADD33RoundRect,0.250000X0.312500X0.625000X-0.312500X0.625000X-0.312500X-0.625000X0.312500X-0.625000X0*%
%ADD34RoundRect,0.250000X-0.625000X0.312500X-0.625000X-0.312500X0.625000X-0.312500X0.625000X0.312500X0*%
%ADD35RoundRect,0.250000X0.650000X-0.325000X0.650000X0.325000X-0.650000X0.325000X-0.650000X-0.325000X0*%
%ADD36RoundRect,0.250000X0.625000X-0.312500X0.625000X0.312500X-0.625000X0.312500X-0.625000X-0.312500X0*%
%ADD37R,1.200000X0.950000*%
%ADD38RoundRect,0.250000X0.325000X0.650000X-0.325000X0.650000X-0.325000X-0.650000X0.325000X-0.650000X0*%
%ADD39RoundRect,0.250000X1.425000X-0.362500X1.425000X0.362500X-1.425000X0.362500X-1.425000X-0.362500X0*%
%ADD40RoundRect,0.250000X-1.950000X-1.000000X1.950000X-1.000000X1.950000X1.000000X-1.950000X1.000000X0*%
%ADD41RoundRect,0.250000X-1.000000X1.950000X-1.000000X-1.950000X1.000000X-1.950000X1.000000X1.950000X0*%
%ADD42R,2.173999X3.200400*%
%ADD43RoundRect,0.250000X-0.312500X-0.625000X0.312500X-0.625000X0.312500X0.625000X-0.312500X0.625000X0*%
%ADD44R,0.450000X0.700000*%
%ADD45RoundRect,0.250000X0.625000X-0.375000X0.625000X0.375000X-0.625000X0.375000X-0.625000X-0.375000X0*%
%ADD46R,1.200000X1.200000*%
%ADD47R,1.500000X1.000000*%
%ADD48RoundRect,0.147500X0.172500X-0.147500X0.172500X0.147500X-0.172500X0.147500X-0.172500X-0.147500X0*%
%ADD49C,2.000000*%
%ADD50C,1.920000*%
%ADD51RoundRect,0.250000X-0.625000X0.375000X-0.625000X-0.375000X0.625000X-0.375000X0.625000X0.375000X0*%
%ADD52C,3.200000*%
%ADD53R,1.350000X1.350000*%
%ADD54R,3.000000X3.000000*%
%ADD55R,1.050000X0.450000*%
%ADD56R,4.000000X4.000000*%
%ADD57RoundRect,0.250000X-0.375000X-0.625000X0.375000X-0.625000X0.375000X0.625000X-0.375000X0.625000X0*%
%ADD58R,1.060000X2.600000*%
%ADD59R,5.632000X5.700000*%
%ADD60R,1.100000X0.300000*%
%ADD61R,1.100000X3.200000*%
%ADD62RoundRect,0.250000X1.500000X0.550000X-1.500000X0.550000X-1.500000X-0.550000X1.500000X-0.550000X0*%
%ADD63R,0.750000X1.350000*%
%ADD64R,4.000000X2.000000*%
%ADD65R,1.600000X1.600000*%
%ADD66O,1.600000X1.600000*%
%ADD67C,2.200000*%
%ADD68R,2.200000X2.150000*%
%ADD69R,3.200000X1.100000*%
%ADD70R,1.500000X1.050000*%
%ADD71O,1.500000X1.050000*%
%ADD72R,0.650000X0.350000*%
%ADD73R,1.700000X1.700000*%
%ADD74RoundRect,0.250000X-0.550000X1.500000X-0.550000X-1.500000X0.550000X-1.500000X0.550000X1.500000X0*%
%ADD75R,0.375000X0.500000*%
%ADD76R,0.300000X0.650000*%
%ADD77R,1.400000X0.300000*%
%ADD78RoundRect,0.250001X1.099999X1.599999X-1.099999X1.599999X-1.099999X-1.599999X1.099999X-1.599999X0*%
%ADD79O,2.700000X3.700000*%
%ADD80R,2.000000X4.000000*%
%ADD81RoundRect,0.050000X-0.285000X-0.100000X0.285000X-0.100000X0.285000X0.100000X-0.285000X0.100000X0*%
%ADD82RoundRect,0.147500X-0.172500X0.147500X-0.172500X-0.147500X0.172500X-0.147500X0.172500X0.147500X0*%
%ADD83RoundRect,0.249999X0.450001X1.425001X-0.450001X1.425001X-0.450001X-1.425001X0.450001X-1.425001X0*%
%ADD84R,1.120000X1.220000*%
%ADD85R,6.710000X2.730000*%
%ADD86RoundRect,0.250000X-0.362500X-1.425000X0.362500X-1.425000X0.362500X1.425000X-0.362500X1.425000X0*%
%ADD87R,1.475000X0.450000*%
%ADD88C,1.500000*%
%ADD89RoundRect,0.050000X-0.387500X-0.050000X0.387500X-0.050000X0.387500X0.050000X-0.387500X0.050000X0*%
%ADD90RoundRect,0.050000X-0.050000X-0.387500X0.050000X-0.387500X0.050000X0.387500X-0.050000X0.387500X0*%
%ADD91R,1.000000X0.400000*%
%ADD92R,2.000000X2.000000*%
%ADD93RoundRect,0.250001X1.599999X-1.099999X1.599999X1.099999X-1.599999X1.099999X-1.599999X-1.099999X0*%
%ADD94O,3.700000X2.700000*%
%ADD95R,2.300000X2.300000*%
%ADD96C,2.300000*%
%ADD97C,5.000000*%
%ADD98C,2.700000*%
%ADD99R,1.350000X0.750000*%
%ADD100RoundRect,0.249999X1.425001X-0.450001X1.425001X0.450001X-1.425001X0.450001X-1.425001X-0.450001X0*%
%ADD101RoundRect,0.250000X1.000000X-1.950000X1.000000X1.950000X-1.000000X1.950000X-1.000000X-1.950000X0*%
%ADD102RoundRect,0.112500X0.237500X-0.112500X0.237500X0.112500X-0.237500X0.112500X-0.237500X-0.112500X0*%
%ADD103RoundRect,0.150000X0.825000X0.150000X-0.825000X0.150000X-0.825000X-0.150000X0.825000X-0.150000X0*%
%ADD104R,1.220000X1.120000*%
%ADD105R,0.802000X1.505000*%
%ADD106R,3.502000X2.613000*%
%ADD107R,1.000000X1.500000*%
%ADD108RoundRect,0.150000X-0.825000X-0.150000X0.825000X-0.150000X0.825000X0.150000X-0.825000X0.150000X0*%
%ADD109RoundRect,0.250001X-1.599999X1.099999X-1.599999X-1.099999X1.599999X-1.099999X1.599999X1.099999X0*%
%ADD110RoundRect,0.250000X1.950000X1.000000X-1.950000X1.000000X-1.950000X-1.000000X1.950000X-1.000000X0*%
%ADD111R,0.430000X0.350000*%
%ADD112R,1.100000X1.250000*%
%ADD113R,0.660000X0.350000*%
%ADD114R,3.200400X2.173999*%
%ADD115R,12.320000X3.825000*%
%ADD116RoundRect,0.250000X0.362500X1.425000X-0.362500X1.425000X-0.362500X-1.425000X0.362500X-1.425000X0*%
%ADD117R,1.505000X0.802000*%
%ADD118R,2.613000X3.502000*%
%ADD119R,2.460000X3.550000*%
%ADD120R,0.700000X0.450000*%
%ADD121C,2.800000*%
%ADD122C,0.800000*%
%ADD123C,1.600000*%
%ADD124C,1.200000*%
%ADD125C,0.600000*%
G04 APERTURE END LIST*
D10*
%TO.C,P1*%
X-41020000Y-183900000D03*
D11*
X-41020000Y-187900000D03*
D12*
X-38750000Y-182750000D03*
D10*
X-29780000Y-183900000D03*
D11*
X-29780000Y-187900000D03*
D12*
X-37950000Y-182750000D03*
X-36650000Y-182750000D03*
X-35650000Y-182750000D03*
X-35150000Y-182750000D03*
X-34150000Y-182750000D03*
X-32850000Y-182750000D03*
X-32050000Y-182750000D03*
X-32350000Y-182750000D03*
X-33150000Y-182750000D03*
X-33650000Y-182750000D03*
X-34650000Y-182750000D03*
X-36150000Y-182750000D03*
X-37150000Y-182750000D03*
X-37650000Y-182750000D03*
X-38450000Y-182750000D03*
%TD*%
D10*
%TO.C,P1*%
X-80020000Y-180600000D03*
D11*
X-80020000Y-184600000D03*
D12*
X-77750000Y-179450000D03*
D10*
X-68780000Y-180600000D03*
D11*
X-68780000Y-184600000D03*
D12*
X-76950000Y-179450000D03*
X-75650000Y-179450000D03*
X-74650000Y-179450000D03*
X-74150000Y-179450000D03*
X-73150000Y-179450000D03*
X-71850000Y-179450000D03*
X-71050000Y-179450000D03*
X-71350000Y-179450000D03*
X-72150000Y-179450000D03*
X-72650000Y-179450000D03*
X-73650000Y-179450000D03*
X-75150000Y-179450000D03*
X-76150000Y-179450000D03*
X-76650000Y-179450000D03*
X-77450000Y-179450000D03*
%TD*%
D13*
%TO.C,Q4*%
X-35449000Y-157605000D03*
X-35449000Y-156335000D03*
X-35449000Y-155065000D03*
X-35449000Y-153795000D03*
D14*
X-40964000Y-153795000D03*
X-40964000Y-155065000D03*
X-40964000Y-156335000D03*
X-40964000Y-157605000D03*
D15*
X-38464000Y-155700000D03*
%TD*%
D16*
%TO.C,U4*%
X-76100000Y-155037500D03*
X-75700000Y-155037500D03*
X-75300000Y-155037500D03*
X-74900000Y-155037500D03*
X-74500000Y-155037500D03*
X-74100000Y-155037500D03*
X-73700000Y-155037500D03*
X-73300000Y-155037500D03*
X-72900000Y-155037500D03*
X-72500000Y-155037500D03*
X-72100000Y-155037500D03*
X-71700000Y-155037500D03*
X-71300000Y-155037500D03*
X-70900000Y-155037500D03*
D17*
X-70062500Y-154200000D03*
X-70062500Y-153800000D03*
X-70062500Y-153400000D03*
X-70062500Y-153000000D03*
X-70062500Y-152600000D03*
X-70062500Y-152200000D03*
X-70062500Y-151800000D03*
X-70062500Y-151400000D03*
X-70062500Y-151000000D03*
X-70062500Y-150600000D03*
X-70062500Y-150200000D03*
X-70062500Y-149800000D03*
X-70062500Y-149400000D03*
X-70062500Y-149000000D03*
D16*
X-70900000Y-148162500D03*
X-71300000Y-148162500D03*
X-71700000Y-148162500D03*
X-72100000Y-148162500D03*
X-72500000Y-148162500D03*
X-72900000Y-148162500D03*
X-73300000Y-148162500D03*
X-73700000Y-148162500D03*
X-74100000Y-148162500D03*
X-74500000Y-148162500D03*
X-74900000Y-148162500D03*
X-75300000Y-148162500D03*
X-75700000Y-148162500D03*
X-76100000Y-148162500D03*
D17*
X-76937500Y-149000000D03*
X-76937500Y-149400000D03*
X-76937500Y-149800000D03*
X-76937500Y-150200000D03*
X-76937500Y-150600000D03*
X-76937500Y-151000000D03*
X-76937500Y-151400000D03*
X-76937500Y-151800000D03*
X-76937500Y-152200000D03*
X-76937500Y-152600000D03*
X-76937500Y-153000000D03*
X-76937500Y-153400000D03*
X-76937500Y-153800000D03*
X-76937500Y-154200000D03*
D18*
X-73500000Y-151600000D03*
%TD*%
D16*
%TO.C,U4*%
X-76100000Y-136237500D03*
X-75700000Y-136237500D03*
X-75300000Y-136237500D03*
X-74900000Y-136237500D03*
X-74500000Y-136237500D03*
X-74100000Y-136237500D03*
X-73700000Y-136237500D03*
X-73300000Y-136237500D03*
X-72900000Y-136237500D03*
X-72500000Y-136237500D03*
X-72100000Y-136237500D03*
X-71700000Y-136237500D03*
X-71300000Y-136237500D03*
X-70900000Y-136237500D03*
D17*
X-70062500Y-135400000D03*
X-70062500Y-135000000D03*
X-70062500Y-134600000D03*
X-70062500Y-134200000D03*
X-70062500Y-133800000D03*
X-70062500Y-133400000D03*
X-70062500Y-133000000D03*
X-70062500Y-132600000D03*
X-70062500Y-132200000D03*
X-70062500Y-131800000D03*
X-70062500Y-131400000D03*
X-70062500Y-131000000D03*
X-70062500Y-130600000D03*
X-70062500Y-130200000D03*
D16*
X-70900000Y-129362500D03*
X-71300000Y-129362500D03*
X-71700000Y-129362500D03*
X-72100000Y-129362500D03*
X-72500000Y-129362500D03*
X-72900000Y-129362500D03*
X-73300000Y-129362500D03*
X-73700000Y-129362500D03*
X-74100000Y-129362500D03*
X-74500000Y-129362500D03*
X-74900000Y-129362500D03*
X-75300000Y-129362500D03*
X-75700000Y-129362500D03*
X-76100000Y-129362500D03*
D17*
X-76937500Y-130200000D03*
X-76937500Y-130600000D03*
X-76937500Y-131000000D03*
X-76937500Y-131400000D03*
X-76937500Y-131800000D03*
X-76937500Y-132200000D03*
X-76937500Y-132600000D03*
X-76937500Y-133000000D03*
X-76937500Y-133400000D03*
X-76937500Y-133800000D03*
X-76937500Y-134200000D03*
X-76937500Y-134600000D03*
X-76937500Y-135000000D03*
X-76937500Y-135400000D03*
D18*
X-73500000Y-132800000D03*
%TD*%
D19*
%TO.C,U5*%
X-41105000Y-137175000D03*
X-39835000Y-137175000D03*
X-38565000Y-137175000D03*
X-37295000Y-137175000D03*
X-37295000Y-132225000D03*
X-38565000Y-132225000D03*
X-39835000Y-132225000D03*
X-41105000Y-132225000D03*
%TD*%
D20*
%TO.C,U3*%
X178650000Y-174762500D03*
D21*
X178575000Y-175300000D03*
D20*
X178650000Y-175837500D03*
X180350000Y-175837500D03*
D21*
X180425000Y-175300000D03*
D20*
X180350000Y-174762500D03*
%TD*%
D22*
%TO.C,Q3*%
X163450000Y-163165000D03*
X162800000Y-163165000D03*
D23*
X163085000Y-164100000D03*
D22*
X163450000Y-165035000D03*
X162800000Y-165035000D03*
X162150000Y-163165000D03*
D24*
X162025000Y-164100000D03*
D22*
X162150000Y-165035000D03*
%TD*%
D25*
%TO.C,U2*%
X140350000Y-165740000D03*
X140850000Y-165740000D03*
X141350000Y-165740000D03*
X141850000Y-165740000D03*
X141850000Y-164260000D03*
X141350000Y-164260000D03*
X140850000Y-164260000D03*
X140350000Y-164260000D03*
%TD*%
D26*
%TO.C,IC1*%
X162375000Y-183262000D03*
X161725000Y-183262000D03*
X161075000Y-183262000D03*
X160425000Y-183262000D03*
X159775000Y-183262000D03*
X159125000Y-183262000D03*
X158475000Y-183262000D03*
X157825000Y-183262000D03*
X157825000Y-189138000D03*
X158475000Y-189138000D03*
X159125000Y-189138000D03*
X159775000Y-189138000D03*
X160425000Y-189138000D03*
X161075000Y-189138000D03*
X161725000Y-189138000D03*
X162375000Y-189138000D03*
D27*
X160100000Y-186200000D03*
%TD*%
D28*
%TO.C,IC7*%
X117800000Y-154400000D03*
X117300000Y-154400000D03*
X116800000Y-154400000D03*
X116300000Y-154400000D03*
X115800000Y-154400000D03*
X115800000Y-158800000D03*
X116300000Y-158800000D03*
X116800000Y-158800000D03*
X117300000Y-158800000D03*
X117800000Y-158800000D03*
%TD*%
D29*
%TO.C,J10*%
X15000000Y-202325000D03*
X15000000Y-195025000D03*
X15000000Y-189525000D03*
%TD*%
%TO.C,J8*%
X51600000Y-202700000D03*
X51600000Y-195400000D03*
X51600000Y-189900000D03*
%TD*%
D30*
%TO.C,C28*%
X5007000Y-126335802D03*
X7957000Y-126335802D03*
%TD*%
D31*
%TO.C,D5*%
X43200000Y-143800000D03*
X40400000Y-143800000D03*
%TD*%
D32*
%TO.C,C13*%
X72712500Y-182887500D03*
X72712500Y-185837500D03*
%TD*%
D33*
%TO.C,R32*%
X58623450Y-128654800D03*
X55698450Y-128654800D03*
%TD*%
D34*
%TO.C,R24*%
X2300000Y-115137500D03*
X2300000Y-118062500D03*
%TD*%
%TO.C,R22*%
X11550000Y-183087500D03*
X11550000Y-186012500D03*
%TD*%
D35*
%TO.C,C9*%
X-650000Y-155475000D03*
X-650000Y-152525000D03*
%TD*%
D36*
%TO.C,R38*%
X67500000Y-138162500D03*
X67500000Y-135237500D03*
%TD*%
D34*
%TO.C,R34*%
X-6875000Y-191162500D03*
X-6875000Y-194087500D03*
%TD*%
D36*
%TO.C,R33*%
X-9475000Y-184787500D03*
X-9475000Y-181862500D03*
%TD*%
D37*
%TO.C,Y1*%
X22400000Y-152975000D03*
X24600000Y-152975000D03*
X24600000Y-151225000D03*
X22400000Y-151225000D03*
%TD*%
D36*
%TO.C,R26*%
X57400000Y-146862500D03*
X57400000Y-143937500D03*
%TD*%
D38*
%TO.C,C18*%
X28775000Y-158900000D03*
X25825000Y-158900000D03*
%TD*%
D39*
%TO.C,R28*%
X47178100Y-175640600D03*
X47178100Y-169715600D03*
%TD*%
D32*
%TO.C,C22*%
X27800000Y-151225000D03*
X27800000Y-154175000D03*
%TD*%
D19*
%TO.C,U5*%
X33095000Y-141575000D03*
X34365000Y-141575000D03*
X35635000Y-141575000D03*
X36905000Y-141575000D03*
X36905000Y-136625000D03*
X35635000Y-136625000D03*
X34365000Y-136625000D03*
X33095000Y-136625000D03*
%TD*%
D35*
%TO.C,C21*%
X22400000Y-148575000D03*
X22400000Y-145625000D03*
%TD*%
D29*
%TO.C,J4*%
X45634250Y-116021900D03*
X43534250Y-123321900D03*
X47734250Y-123321900D03*
X43534250Y-128821900D03*
X47734250Y-128821900D03*
%TD*%
D40*
%TO.C,C14*%
X32300000Y-173200000D03*
X39700000Y-173200000D03*
%TD*%
D34*
%TO.C,R7*%
X24825000Y-182237500D03*
X24825000Y-185162500D03*
%TD*%
D41*
%TO.C,C7*%
X18400000Y-176800000D03*
X18400000Y-184200000D03*
%TD*%
D34*
%TO.C,R13*%
X70012500Y-182900000D03*
X70012500Y-185825000D03*
%TD*%
D42*
%TO.C,D1*%
X-8572998Y-168100000D03*
X-14827002Y-168100000D03*
%TD*%
D29*
%TO.C,J9*%
X61750000Y-202578100D03*
X61750000Y-195278100D03*
X61750000Y-189778100D03*
%TD*%
D32*
%TO.C,C12*%
X72712500Y-189687500D03*
X72712500Y-192637500D03*
%TD*%
D34*
%TO.C,R4*%
X67800000Y-165337500D03*
X67800000Y-168262500D03*
%TD*%
D43*
%TO.C,R21*%
X45837500Y-143800000D03*
X48762500Y-143800000D03*
%TD*%
D38*
%TO.C,C24*%
X32059250Y-130521900D03*
X29109250Y-130521900D03*
%TD*%
D44*
%TO.C,D3*%
X35284250Y-128421900D03*
X33984250Y-128421900D03*
X34634250Y-130421900D03*
%TD*%
D45*
%TO.C,R17*%
X58760950Y-126254800D03*
X58760950Y-123454800D03*
%TD*%
D32*
%TO.C,C8*%
X31750000Y-187375000D03*
X31750000Y-190325000D03*
%TD*%
D35*
%TO.C,C30*%
X55400000Y-138775000D03*
X55400000Y-135825000D03*
%TD*%
%TO.C,C32*%
X57200000Y-180875000D03*
X57200000Y-177925000D03*
%TD*%
D46*
%TO.C,D8*%
X58050000Y-185970000D03*
X58050000Y-183170000D03*
%TD*%
D29*
%TO.C,J2*%
X32568500Y-115834800D03*
X24168500Y-115834800D03*
X24168500Y-123134800D03*
X28368500Y-123134800D03*
X32568500Y-123134800D03*
%TD*%
D30*
%TO.C,C10*%
X41725000Y-152500000D03*
X44675000Y-152500000D03*
%TD*%
D47*
%TO.C,JP3*%
X75512500Y-176312500D03*
X75512500Y-177612500D03*
%TD*%
D36*
%TO.C,R37*%
X-1275000Y-182787500D03*
X-1275000Y-179862500D03*
%TD*%
D45*
%TO.C,D6*%
X11550000Y-180550000D03*
X11550000Y-177750000D03*
%TD*%
D30*
%TO.C,C1*%
X-4525000Y-169962000D03*
X-1575000Y-169962000D03*
%TD*%
D48*
%TO.C,L2*%
X32300000Y-162285000D03*
X32300000Y-161315000D03*
%TD*%
D29*
%TO.C,J1*%
X7200000Y-202325000D03*
X7200000Y-195025000D03*
X7200000Y-189525000D03*
%TD*%
D30*
%TO.C,C33*%
X63785950Y-128854800D03*
X66735950Y-128854800D03*
%TD*%
D34*
%TO.C,R9*%
X24825000Y-187237500D03*
X24825000Y-190162500D03*
%TD*%
D38*
%TO.C,C35*%
X-1300000Y-191625000D03*
X-4250000Y-191625000D03*
%TD*%
D40*
%TO.C,C27*%
X4969000Y-132575802D03*
X12369000Y-132575802D03*
%TD*%
D43*
%TO.C,R10*%
X1787500Y-157900000D03*
X4712500Y-157900000D03*
%TD*%
D49*
%TO.C,PS1*%
X-218000Y-137615802D03*
X-218000Y-135075802D03*
D50*
X-218000Y-132535802D03*
%TD*%
D43*
%TO.C,R11*%
X1787500Y-160600000D03*
X4712500Y-160600000D03*
%TD*%
D33*
%TO.C,R29*%
X58262500Y-167600000D03*
X55337500Y-167600000D03*
%TD*%
D38*
%TO.C,C19*%
X28675000Y-161400000D03*
X25725000Y-161400000D03*
%TD*%
D46*
%TO.C,D7*%
X49850000Y-185150000D03*
X49850000Y-182350000D03*
%TD*%
D30*
%TO.C,C15*%
X32325000Y-167200000D03*
X35275000Y-167200000D03*
%TD*%
D51*
%TO.C,D4*%
X40400000Y-136800000D03*
X40400000Y-139600000D03*
%TD*%
D38*
%TO.C,C26*%
X58635950Y-131354800D03*
X55685950Y-131354800D03*
%TD*%
%TO.C,C34*%
X-1300000Y-194245000D03*
X-4250000Y-194245000D03*
%TD*%
D52*
%TO.C,H1*%
X-15700000Y-113200000D03*
%TD*%
D30*
%TO.C,C17*%
X32325000Y-159200000D03*
X35275000Y-159200000D03*
%TD*%
D39*
%TO.C,R30*%
X57200000Y-175862500D03*
X57200000Y-169937500D03*
%TD*%
D53*
%TO.C,TP8*%
X10300000Y-174000000D03*
%TD*%
D35*
%TO.C,C20*%
X61700000Y-161575000D03*
X61700000Y-158625000D03*
%TD*%
D20*
%TO.C,U3*%
X62650000Y-164737500D03*
D21*
X62725000Y-164200000D03*
D20*
X62650000Y-163662500D03*
X60950000Y-163662500D03*
D21*
X60875000Y-164200000D03*
D20*
X60950000Y-164737500D03*
%TD*%
D38*
%TO.C,C23*%
X35675000Y-144400000D03*
X32725000Y-144400000D03*
%TD*%
D34*
%TO.C,R23*%
X70012500Y-176100000D03*
X70012500Y-179025000D03*
%TD*%
D35*
%TO.C,C31*%
X47178100Y-180753100D03*
X47178100Y-177803100D03*
%TD*%
D34*
%TO.C,R6*%
X-3850000Y-153437500D03*
X-3850000Y-156362500D03*
%TD*%
D26*
%TO.C,IC1*%
X64610950Y-131316800D03*
X63960950Y-131316800D03*
X63310950Y-131316800D03*
X62660950Y-131316800D03*
X62010950Y-131316800D03*
X61360950Y-131316800D03*
X60710950Y-131316800D03*
X60710950Y-137192800D03*
X61360950Y-137192800D03*
X62010950Y-137192800D03*
X62660950Y-137192800D03*
X63310950Y-137192800D03*
X63960950Y-137192800D03*
X64610950Y-137192800D03*
%TD*%
D22*
%TO.C,MOSFET1*%
X52178100Y-167808100D03*
X51528100Y-167808100D03*
X50878100Y-167808100D03*
X50878100Y-169678100D03*
X51528100Y-169678100D03*
X52178100Y-169678100D03*
D23*
X51813100Y-168743100D03*
D24*
X50753100Y-168743100D03*
%TD*%
D33*
%TO.C,R27*%
X48424850Y-167200000D03*
X45499850Y-167200000D03*
%TD*%
D54*
%TO.C,U6*%
X-4050000Y-187050000D03*
D55*
X-6825000Y-184775000D03*
X-6825000Y-185425000D03*
X-6825000Y-186075000D03*
X-6825000Y-186725000D03*
X-6825000Y-187375000D03*
X-6825000Y-188025000D03*
X-6825000Y-188675000D03*
X-6825000Y-189325000D03*
X-1275000Y-189325000D03*
X-1275000Y-188675000D03*
X-1275000Y-188025000D03*
X-1275000Y-187375000D03*
X-1275000Y-186725000D03*
X-1275000Y-186075000D03*
X-1275000Y-185425000D03*
X-1275000Y-184775000D03*
%TD*%
D34*
%TO.C,R1*%
X65100000Y-165337500D03*
X65100000Y-168262500D03*
%TD*%
D43*
%TO.C,R8*%
X987500Y-167262000D03*
X3912500Y-167262000D03*
%TD*%
D32*
%TO.C,C25*%
X72712500Y-176187500D03*
X72712500Y-179137500D03*
%TD*%
D34*
%TO.C,R12*%
X70012500Y-189700000D03*
X70012500Y-192625000D03*
%TD*%
D30*
%TO.C,C29*%
X-193000Y-142535802D03*
X2757000Y-142535802D03*
%TD*%
D29*
%TO.C,J3*%
X73628100Y-145484250D03*
D56*
X66328100Y-143384250D03*
D29*
X66328100Y-147584250D03*
X60828100Y-143384250D03*
X60828100Y-147584250D03*
%TD*%
D26*
%TO.C,IC2*%
X-5125000Y-164838000D03*
X-4475000Y-164838000D03*
X-3825000Y-164838000D03*
X-3175000Y-164838000D03*
X-2525000Y-164838000D03*
X-1875000Y-164838000D03*
X-1225000Y-164838000D03*
X-575000Y-164838000D03*
X-575000Y-158962000D03*
X-1225000Y-158962000D03*
X-1875000Y-158962000D03*
X-2525000Y-158962000D03*
X-3175000Y-158962000D03*
X-3825000Y-158962000D03*
X-4475000Y-158962000D03*
X-5125000Y-158962000D03*
D27*
X-2850000Y-161900000D03*
%TD*%
D57*
%TO.C,R19*%
X36200000Y-133500000D03*
X39000000Y-133500000D03*
%TD*%
D58*
%TO.C,D2*%
X31586000Y-193720500D03*
X27014000Y-193720500D03*
D59*
X29300000Y-200270500D03*
%TD*%
D60*
%TO.C,P1*%
X73050000Y-165250000D03*
X73050000Y-164450000D03*
X73050000Y-163150000D03*
X73050000Y-162150000D03*
X73050000Y-161650000D03*
X73050000Y-160650000D03*
X73050000Y-159350000D03*
X73050000Y-158550000D03*
X73050000Y-158850000D03*
X73050000Y-159650000D03*
X73050000Y-160150000D03*
X73050000Y-161150000D03*
X73050000Y-162650000D03*
X73050000Y-163650000D03*
X73050000Y-164150000D03*
X73050000Y-164950000D03*
D10*
X74200000Y-167520000D03*
D11*
X78200000Y-167520000D03*
D10*
X74200000Y-156280000D03*
D11*
X78200000Y-156280000D03*
%TD*%
D43*
%TO.C,R20*%
X42937500Y-136800000D03*
X45862500Y-136800000D03*
%TD*%
D16*
%TO.C,U4*%
X31900000Y-155237500D03*
X32300000Y-155237500D03*
X32700000Y-155237500D03*
X33100000Y-155237500D03*
X33500000Y-155237500D03*
X33900000Y-155237500D03*
X34300000Y-155237500D03*
X34700000Y-155237500D03*
X35100000Y-155237500D03*
X35500000Y-155237500D03*
X35900000Y-155237500D03*
X36300000Y-155237500D03*
X36700000Y-155237500D03*
X37100000Y-155237500D03*
D17*
X37937500Y-154400000D03*
X37937500Y-154000000D03*
X37937500Y-153600000D03*
X37937500Y-153200000D03*
X37937500Y-152800000D03*
X37937500Y-152400000D03*
X37937500Y-152000000D03*
X37937500Y-151600000D03*
X37937500Y-151200000D03*
X37937500Y-150800000D03*
X37937500Y-150400000D03*
X37937500Y-150000000D03*
X37937500Y-149600000D03*
X37937500Y-149200000D03*
D16*
X37100000Y-148362500D03*
X36700000Y-148362500D03*
X36300000Y-148362500D03*
X35900000Y-148362500D03*
X35500000Y-148362500D03*
X35100000Y-148362500D03*
X34700000Y-148362500D03*
X34300000Y-148362500D03*
X33900000Y-148362500D03*
X33500000Y-148362500D03*
X33100000Y-148362500D03*
X32700000Y-148362500D03*
X32300000Y-148362500D03*
X31900000Y-148362500D03*
D17*
X31062500Y-149200000D03*
X31062500Y-149600000D03*
X31062500Y-150000000D03*
X31062500Y-150400000D03*
X31062500Y-150800000D03*
X31062500Y-151200000D03*
X31062500Y-151600000D03*
X31062500Y-152000000D03*
X31062500Y-152400000D03*
X31062500Y-152800000D03*
X31062500Y-153200000D03*
X31062500Y-153600000D03*
X31062500Y-154000000D03*
X31062500Y-154400000D03*
D18*
X34500000Y-151800000D03*
%TD*%
D51*
%TO.C,R35*%
X2300000Y-120240000D03*
X2300000Y-123040000D03*
%TD*%
D34*
%TO.C,R16*%
X61360950Y-124692300D03*
X61360950Y-127617300D03*
%TD*%
D43*
%TO.C,R31*%
X54337500Y-141200000D03*
X57262500Y-141200000D03*
%TD*%
D25*
%TO.C,U2*%
X35425000Y-190580000D03*
X35925000Y-190580000D03*
X36425000Y-190580000D03*
X36925000Y-190580000D03*
X36925000Y-189100000D03*
X36425000Y-189100000D03*
X35925000Y-189100000D03*
X35425000Y-189100000D03*
%TD*%
D30*
%TO.C,C4*%
X33950000Y-186400000D03*
X36900000Y-186400000D03*
%TD*%
D61*
%TO.C,L1*%
X36925000Y-182300000D03*
X34825000Y-182300000D03*
%TD*%
D38*
%TO.C,C37*%
X-3700000Y-179825000D03*
X-6650000Y-179825000D03*
%TD*%
D30*
%TO.C,C16*%
X32325000Y-164400000D03*
X35275000Y-164400000D03*
%TD*%
D62*
%TO.C,C5*%
X-3850000Y-146600000D03*
X-9250000Y-146600000D03*
%TD*%
D34*
%TO.C,R14*%
X10300000Y-115600000D03*
X10300000Y-118525000D03*
%TD*%
D40*
%TO.C,C2*%
X36525000Y-199100000D03*
X43925000Y-199100000D03*
%TD*%
D30*
%TO.C,C3*%
X36450000Y-193100000D03*
X39400000Y-193100000D03*
%TD*%
D47*
%TO.C,JP1*%
X75575436Y-189729564D03*
X75575436Y-191029564D03*
%TD*%
D43*
%TO.C,R5*%
X-4512500Y-167262000D03*
X-1587500Y-167262000D03*
%TD*%
D35*
%TO.C,C11*%
X27600000Y-145975000D03*
X27600000Y-143025000D03*
%TD*%
D33*
%TO.C,R18*%
X33762500Y-133500000D03*
X30837500Y-133500000D03*
%TD*%
D53*
%TO.C,TP7*%
X15050000Y-174000000D03*
%TD*%
D51*
%TO.C,R36*%
X-1500000Y-120340000D03*
X-1500000Y-123140000D03*
%TD*%
D47*
%TO.C,JP2*%
X75512500Y-182812500D03*
X75512500Y-184112500D03*
%TD*%
D34*
%TO.C,R15*%
X5900000Y-115637500D03*
X5900000Y-118562500D03*
%TD*%
%TO.C,R25*%
X-1500000Y-115137500D03*
X-1500000Y-118062500D03*
%TD*%
D36*
%TO.C,R3*%
X69400000Y-160062500D03*
X69400000Y-157137500D03*
%TD*%
D35*
%TO.C,C36*%
X2225000Y-189100000D03*
X2225000Y-186150000D03*
%TD*%
D52*
%TO.C,H4*%
X76500000Y-113300000D03*
%TD*%
D32*
%TO.C,C6*%
X27525000Y-182225000D03*
X27525000Y-185175000D03*
%TD*%
D36*
%TO.C,R2*%
X65100000Y-162962500D03*
X65100000Y-160037500D03*
%TD*%
D22*
%TO.C,MOSFET2*%
X62025000Y-168065000D03*
X61375000Y-168065000D03*
X60725000Y-168065000D03*
X60725000Y-169935000D03*
X61375000Y-169935000D03*
X62025000Y-169935000D03*
D23*
X61660000Y-169000000D03*
D24*
X60600000Y-169000000D03*
%TD*%
D10*
%TO.C,P1*%
X105480000Y-182000000D03*
D11*
X105480000Y-186000000D03*
D12*
X107750000Y-180850000D03*
D10*
X116720000Y-182000000D03*
D11*
X116720000Y-186000000D03*
D12*
X108550000Y-180850000D03*
X109850000Y-180850000D03*
X110850000Y-180850000D03*
X111350000Y-180850000D03*
X112350000Y-180850000D03*
X113650000Y-180850000D03*
X114450000Y-180850000D03*
X114150000Y-180850000D03*
X113350000Y-180850000D03*
X112850000Y-180850000D03*
X111850000Y-180850000D03*
X110350000Y-180850000D03*
X109350000Y-180850000D03*
X108850000Y-180850000D03*
X108050000Y-180850000D03*
%TD*%
D28*
%TO.C,IC7*%
X102800000Y-154200000D03*
X102300000Y-154200000D03*
X101800000Y-154200000D03*
X101300000Y-154200000D03*
X100800000Y-154200000D03*
X100800000Y-158600000D03*
X101300000Y-158600000D03*
X101800000Y-158600000D03*
X102300000Y-158600000D03*
X102800000Y-158600000D03*
%TD*%
D13*
%TO.C,Q4*%
X113551000Y-128905000D03*
X113551000Y-127635000D03*
X113551000Y-126365000D03*
X113551000Y-125095000D03*
D14*
X108036000Y-125095000D03*
X108036000Y-126365000D03*
X108036000Y-127635000D03*
X108036000Y-128905000D03*
D15*
X110536000Y-127000000D03*
%TD*%
D63*
%TO.C,IC4*%
X93795000Y-137225000D03*
X95065000Y-137225000D03*
X96335000Y-137225000D03*
X97605000Y-137225000D03*
X97605000Y-131575000D03*
X96335000Y-131575000D03*
X95065000Y-131575000D03*
X93795000Y-131575000D03*
%TD*%
D47*
%TO.C,JP1*%
X-31300000Y-48450000D03*
X-31300000Y-49750000D03*
%TD*%
D64*
%TO.C,C15*%
X-66200000Y-87700000D03*
X-59100000Y-87700000D03*
%TD*%
D30*
%TO.C,C17*%
X-66175000Y-78300000D03*
X-63225000Y-78300000D03*
%TD*%
D65*
%TO.C,U6*%
X-48275000Y-54050000D03*
D66*
X-45735000Y-54050000D03*
X-45735000Y-46430000D03*
X-48275000Y-46430000D03*
%TD*%
D29*
%TO.C,J6*%
X-48115750Y-20921900D03*
D54*
X-50215750Y-28221900D03*
D29*
X-46015750Y-28221900D03*
X-50215750Y-33721900D03*
X-46015750Y-33721900D03*
%TD*%
D33*
%TO.C,R5*%
X-41637500Y-69300000D03*
X-44562500Y-69300000D03*
%TD*%
D32*
%TO.C,C23*%
X-70862500Y-66175000D03*
X-70862500Y-69125000D03*
%TD*%
D10*
%TO.C,P1*%
X-34600000Y-70120000D03*
D11*
X-30600000Y-70120000D03*
D60*
X-35750000Y-67850000D03*
X-35750000Y-67050000D03*
X-35750000Y-65750000D03*
X-35750000Y-64750000D03*
X-35750000Y-64250000D03*
X-35750000Y-63250000D03*
X-35750000Y-61950000D03*
X-35750000Y-61150000D03*
D10*
X-34600000Y-58880000D03*
D11*
X-30600000Y-58880000D03*
D60*
X-35750000Y-61450000D03*
X-35750000Y-62250000D03*
X-35750000Y-62750000D03*
X-35750000Y-63750000D03*
X-35750000Y-65250000D03*
X-35750000Y-66250000D03*
X-35750000Y-66750000D03*
X-35750000Y-67550000D03*
%TD*%
D34*
%TO.C,R11*%
X-52850000Y-83787500D03*
X-52850000Y-86712500D03*
%TD*%
D36*
%TO.C,R23*%
X-72600000Y-44012500D03*
X-72600000Y-41087500D03*
%TD*%
D19*
%TO.C,U5*%
X-65610000Y-55300000D03*
X-64340000Y-55300000D03*
X-63070000Y-55300000D03*
X-61800000Y-55300000D03*
X-61800000Y-50350000D03*
X-63070000Y-50350000D03*
X-64340000Y-50350000D03*
X-65610000Y-50350000D03*
%TD*%
D53*
%TO.C,TP3*%
X-66450000Y-112000000D03*
%TD*%
%TO.C,TP6*%
X-74400000Y-92025000D03*
%TD*%
D26*
%TO.C,IC1*%
X-84850000Y-49400000D03*
X-85500000Y-49400000D03*
X-86150000Y-49400000D03*
X-86800000Y-49400000D03*
X-87450000Y-49400000D03*
X-88100000Y-49400000D03*
X-88750000Y-49400000D03*
X-89400000Y-49400000D03*
X-89400000Y-55276000D03*
X-88750000Y-55276000D03*
X-88100000Y-55276000D03*
X-87450000Y-55276000D03*
X-86800000Y-55276000D03*
X-86150000Y-55276000D03*
X-85500000Y-55276000D03*
X-84850000Y-55276000D03*
D27*
X-87125000Y-52338000D03*
%TD*%
D34*
%TO.C,R35*%
X-56400000Y-95337500D03*
X-56400000Y-98262500D03*
%TD*%
D32*
%TO.C,C4*%
X-84300000Y-90875000D03*
X-84300000Y-93825000D03*
%TD*%
D36*
%TO.C,R1*%
X-43200000Y-86462500D03*
X-43200000Y-83537500D03*
%TD*%
D33*
%TO.C,R30*%
X-55837500Y-28450000D03*
X-58762500Y-28450000D03*
%TD*%
D34*
%TO.C,R13*%
X-34100000Y-48437500D03*
X-34100000Y-51362500D03*
%TD*%
D37*
%TO.C,Y1*%
X-77062500Y-67850000D03*
X-74862500Y-67850000D03*
X-74862500Y-66100000D03*
X-77062500Y-66100000D03*
%TD*%
D38*
%TO.C,C6*%
X-80325000Y-88450000D03*
X-83275000Y-88450000D03*
%TD*%
D43*
%TO.C,R17*%
X-51912500Y-43500000D03*
X-48987500Y-43500000D03*
%TD*%
D36*
%TO.C,R4*%
X-40000000Y-60262500D03*
X-40000000Y-57337500D03*
%TD*%
D33*
%TO.C,R3*%
X-40037500Y-65800000D03*
X-42962500Y-65800000D03*
%TD*%
D67*
%TO.C,H4*%
X-32800000Y-20100000D03*
%TD*%
D33*
%TO.C,R24*%
X-85287500Y-72600000D03*
X-88212500Y-72600000D03*
%TD*%
D30*
%TO.C,C18*%
X-66225000Y-73000000D03*
X-63275000Y-73000000D03*
%TD*%
D38*
%TO.C,C24*%
X-63030000Y-58200000D03*
X-65980000Y-58200000D03*
%TD*%
D34*
%TO.C,R38*%
X-72800000Y-58337500D03*
X-72800000Y-61262500D03*
%TD*%
D30*
%TO.C,C10*%
X-58225000Y-66700000D03*
X-55275000Y-66700000D03*
%TD*%
D67*
%TO.C,H2*%
X-94800000Y-112100000D03*
%TD*%
D62*
%TO.C,C27*%
X-85600000Y-65700000D03*
X-91000000Y-65700000D03*
%TD*%
D51*
%TO.C,D5*%
X-72600000Y-46750000D03*
X-72600000Y-49550000D03*
%TD*%
D65*
%TO.C,U7*%
X-56325000Y-54950000D03*
D66*
X-53785000Y-54950000D03*
X-53785000Y-47330000D03*
X-56325000Y-47330000D03*
%TD*%
D43*
%TO.C,R21*%
X-62662500Y-47275000D03*
X-59737500Y-47275000D03*
%TD*%
D53*
%TO.C,TP1*%
X-83100000Y-112100000D03*
%TD*%
D64*
%TO.C,C7*%
X-80400000Y-79300000D03*
X-87500000Y-79300000D03*
%TD*%
D35*
%TO.C,C11*%
X-75800000Y-59575000D03*
X-75800000Y-56625000D03*
%TD*%
D34*
%TO.C,R15*%
X-34100000Y-32437500D03*
X-34100000Y-35362500D03*
%TD*%
D29*
%TO.C,J4*%
X-80315750Y-21121900D03*
D54*
X-80315750Y-28421900D03*
D29*
X-80315750Y-33921900D03*
%TD*%
D38*
%TO.C,C22*%
X-75525000Y-62300000D03*
X-78475000Y-62300000D03*
%TD*%
D68*
%TO.C,D7*%
X-89600000Y-40300000D03*
X-85200000Y-40300000D03*
%TD*%
D64*
%TO.C,C2*%
X-80700000Y-103900000D03*
X-87800000Y-103900000D03*
%TD*%
D53*
%TO.C,TP4*%
X-62400000Y-112000000D03*
%TD*%
D33*
%TO.C,R6*%
X-60437500Y-95600000D03*
X-63362500Y-95600000D03*
%TD*%
%TO.C,R33*%
X-54387500Y-40150000D03*
X-57312500Y-40150000D03*
%TD*%
D53*
%TO.C,TP2*%
X-79050000Y-112100000D03*
%TD*%
D35*
%TO.C,C25*%
X-63695000Y-45025000D03*
X-63695000Y-42075000D03*
%TD*%
D30*
%TO.C,C16*%
X-66175000Y-81000000D03*
X-63225000Y-81000000D03*
%TD*%
D20*
%TO.C,U3*%
X-47250000Y-63962500D03*
D21*
X-47325000Y-64500000D03*
D20*
X-47250000Y-65037500D03*
X-45550000Y-65037500D03*
D21*
X-45475000Y-64500000D03*
D20*
X-45550000Y-63962500D03*
%TD*%
D67*
%TO.C,H3*%
X-33000000Y-112100000D03*
%TD*%
D33*
%TO.C,R27*%
X-91237500Y-52100000D03*
X-94162500Y-52100000D03*
%TD*%
%TO.C,R20*%
X-64737500Y-47275000D03*
X-67662500Y-47275000D03*
%TD*%
%TO.C,R9*%
X-60437500Y-100700000D03*
X-63362500Y-100700000D03*
%TD*%
D69*
%TO.C,L1*%
X-80350000Y-93750000D03*
X-80350000Y-91650000D03*
%TD*%
D38*
%TO.C,C12*%
X-34125000Y-46200000D03*
X-37075000Y-46200000D03*
%TD*%
%TO.C,C26*%
X-85225000Y-44100000D03*
X-88175000Y-44100000D03*
%TD*%
D47*
%TO.C,JP3*%
X-31400000Y-32450000D03*
X-31400000Y-33750000D03*
%TD*%
D32*
%TO.C,C20*%
X-69300000Y-72025000D03*
X-69300000Y-74975000D03*
%TD*%
D33*
%TO.C,R28*%
X-85537500Y-59600000D03*
X-88462500Y-59600000D03*
%TD*%
D53*
%TO.C,TP5*%
X-74400000Y-87975000D03*
%TD*%
D58*
%TO.C,D2*%
X-75486000Y-110493000D03*
X-70914000Y-110493000D03*
D59*
X-73200000Y-103943000D03*
%TD*%
D53*
%TO.C,TP11*%
X-52850000Y-89750000D03*
%TD*%
D38*
%TO.C,C28*%
X-91225000Y-58600000D03*
X-94175000Y-58600000D03*
%TD*%
D36*
%TO.C,R31*%
X-40550000Y-41512500D03*
X-40550000Y-38587500D03*
%TD*%
D43*
%TO.C,R16*%
X-51262500Y-56500000D03*
X-48337500Y-56500000D03*
%TD*%
D29*
%TO.C,J3*%
X-63915750Y-20812900D03*
X-72315750Y-20812900D03*
D54*
X-72315750Y-28112900D03*
D29*
X-68115750Y-28112900D03*
X-63915750Y-28112900D03*
%TD*%
D36*
%TO.C,R18*%
X-59450000Y-56262500D03*
X-59450000Y-53337500D03*
%TD*%
D53*
%TO.C,TP10*%
X-66300000Y-104000000D03*
%TD*%
D33*
%TO.C,R19*%
X-54237500Y-44350000D03*
X-57162500Y-44350000D03*
%TD*%
D36*
%TO.C,R32*%
X-55800000Y-36562500D03*
X-55800000Y-33637500D03*
%TD*%
D34*
%TO.C,R34*%
X-40100000Y-31837500D03*
X-40100000Y-34762500D03*
%TD*%
D67*
%TO.C,H1*%
X-94800000Y-20100000D03*
%TD*%
D29*
%TO.C,J2*%
X-35500000Y-95350000D03*
D54*
X-42800000Y-93250000D03*
D29*
X-42800000Y-97450000D03*
X-48300000Y-93250000D03*
X-48300000Y-97450000D03*
%TD*%
D53*
%TO.C,TP8*%
X-39300000Y-78700000D03*
%TD*%
D43*
%TO.C,R7*%
X-63362500Y-104000000D03*
X-60437500Y-104000000D03*
%TD*%
D70*
%TO.C,Q1*%
X-44290000Y-41320000D03*
D71*
X-44290000Y-40050000D03*
X-44290000Y-38780000D03*
%TD*%
D33*
%TO.C,R36*%
X-79837500Y-38600000D03*
X-82762500Y-38600000D03*
%TD*%
D38*
%TO.C,C14*%
X-34125000Y-30200000D03*
X-37075000Y-30200000D03*
%TD*%
%TO.C,C13*%
X-34125000Y-38300000D03*
X-37075000Y-38300000D03*
%TD*%
D33*
%TO.C,R29*%
X-91937500Y-55400000D03*
X-94862500Y-55400000D03*
%TD*%
D53*
%TO.C,TP7*%
X-39300000Y-82750000D03*
%TD*%
D72*
%TO.C,L2*%
X-66250000Y-76100000D03*
X-66250000Y-75250000D03*
%TD*%
D53*
%TO.C,TP11*%
X-55400000Y-101000000D03*
%TD*%
D33*
%TO.C,R2*%
X-40037500Y-63200000D03*
X-42962500Y-63200000D03*
%TD*%
%TO.C,R25*%
X-85237500Y-46700000D03*
X-88162500Y-46700000D03*
%TD*%
D38*
%TO.C,C3*%
X-86750000Y-97300000D03*
X-89700000Y-97300000D03*
%TD*%
D36*
%TO.C,R22*%
X-77200000Y-44162500D03*
X-77200000Y-41237500D03*
%TD*%
D34*
%TO.C,R14*%
X-34100000Y-40537500D03*
X-34100000Y-43462500D03*
%TD*%
D33*
%TO.C,R26*%
X-90237500Y-46700000D03*
X-93162500Y-46700000D03*
%TD*%
D43*
%TO.C,R12*%
X-51862500Y-40500000D03*
X-48937500Y-40500000D03*
%TD*%
D16*
%TO.C,U4*%
X-66637500Y-69537500D03*
X-66237500Y-69537500D03*
X-65837500Y-69537500D03*
X-65437500Y-69537500D03*
X-65037500Y-69537500D03*
X-64637500Y-69537500D03*
X-64237500Y-69537500D03*
X-63837500Y-69537500D03*
X-63437500Y-69537500D03*
X-63037500Y-69537500D03*
X-62637500Y-69537500D03*
X-62237500Y-69537500D03*
X-61837500Y-69537500D03*
X-61437500Y-69537500D03*
D17*
X-60600000Y-68700000D03*
X-60600000Y-68300000D03*
X-60600000Y-67900000D03*
X-60600000Y-67500000D03*
X-60600000Y-67100000D03*
X-60600000Y-66700000D03*
X-60600000Y-66300000D03*
X-60600000Y-65900000D03*
X-60600000Y-65500000D03*
X-60600000Y-65100000D03*
X-60600000Y-64700000D03*
X-60600000Y-64300000D03*
X-60600000Y-63900000D03*
X-60600000Y-63500000D03*
D16*
X-61437500Y-62662500D03*
X-61837500Y-62662500D03*
X-62237500Y-62662500D03*
X-62637500Y-62662500D03*
X-63037500Y-62662500D03*
X-63437500Y-62662500D03*
X-63837500Y-62662500D03*
X-64237500Y-62662500D03*
X-64637500Y-62662500D03*
X-65037500Y-62662500D03*
X-65437500Y-62662500D03*
X-65837500Y-62662500D03*
X-66237500Y-62662500D03*
X-66637500Y-62662500D03*
D17*
X-67475000Y-63500000D03*
X-67475000Y-63900000D03*
X-67475000Y-64300000D03*
X-67475000Y-64700000D03*
X-67475000Y-65100000D03*
X-67475000Y-65500000D03*
X-67475000Y-65900000D03*
X-67475000Y-66300000D03*
X-67475000Y-66700000D03*
X-67475000Y-67100000D03*
X-67475000Y-67500000D03*
X-67475000Y-67900000D03*
X-67475000Y-68300000D03*
X-67475000Y-68700000D03*
D18*
X-64037500Y-66100000D03*
%TD*%
D32*
%TO.C,C19*%
X-72200000Y-72025000D03*
X-72200000Y-74975000D03*
%TD*%
D38*
%TO.C,C8*%
X-87225000Y-91750000D03*
X-90175000Y-91750000D03*
%TD*%
D47*
%TO.C,JP2*%
X-31400000Y-40500000D03*
X-31400000Y-41800000D03*
%TD*%
D70*
%TO.C,Q2*%
X-60200000Y-35350000D03*
D71*
X-60200000Y-34080000D03*
X-60200000Y-32810000D03*
%TD*%
D25*
%TO.C,U2*%
X-87750000Y-95290000D03*
X-87250000Y-95290000D03*
X-86750000Y-95290000D03*
X-86250000Y-95290000D03*
X-86250000Y-93810000D03*
X-86750000Y-93810000D03*
X-87250000Y-93810000D03*
X-87750000Y-93810000D03*
%TD*%
D44*
%TO.C,D3*%
X-63045000Y-37900000D03*
X-64345000Y-37900000D03*
X-63695000Y-39900000D03*
%TD*%
D33*
%TO.C,R37*%
X-72337500Y-35000000D03*
X-75262500Y-35000000D03*
%TD*%
%TO.C,R8*%
X-80337500Y-85900000D03*
X-83262500Y-85900000D03*
%TD*%
%TO.C,R10*%
X-85287500Y-85950000D03*
X-88212500Y-85950000D03*
%TD*%
D35*
%TO.C,C21*%
X-48600000Y-62175000D03*
X-48600000Y-59225000D03*
%TD*%
D29*
%TO.C,J1*%
X-88115750Y-21121900D03*
D54*
X-88115750Y-28421900D03*
D29*
X-88115750Y-33921900D03*
%TD*%
D51*
%TO.C,D4*%
X-77200000Y-46900000D03*
X-77200000Y-49700000D03*
%TD*%
D53*
%TO.C,TP9*%
X-66380000Y-95620000D03*
%TD*%
D57*
%TO.C,D6*%
X-83250000Y-72600000D03*
X-80450000Y-72600000D03*
%TD*%
D35*
%TO.C,C20*%
X-3200000Y-74075000D03*
X-3200000Y-71125000D03*
%TD*%
D73*
%TO.C,TP2*%
X-2500000Y-68400000D03*
%TD*%
D35*
%TO.C,C17*%
X-13831250Y-86875000D03*
X-13831250Y-83925000D03*
%TD*%
D74*
%TO.C,C2*%
X1500000Y-30700000D03*
X1500000Y-36100000D03*
%TD*%
D73*
%TO.C,I/O1*%
X-6700000Y-89000000D03*
%TD*%
D41*
%TO.C,C4*%
X43500000Y-20100000D03*
X43500000Y-27500000D03*
%TD*%
D75*
%TO.C,U2*%
X237500Y-98450000D03*
D76*
X-300000Y-98375000D03*
D75*
X-837500Y-98450000D03*
X-837500Y-100150000D03*
D76*
X-300000Y-100225000D03*
D75*
X237500Y-100150000D03*
%TD*%
D31*
%TO.C,CAN D4*%
X22200000Y-78900000D03*
X19400000Y-78900000D03*
%TD*%
D30*
%TO.C,C38*%
X67825000Y-85600000D03*
X70775000Y-85600000D03*
%TD*%
D77*
%TO.C,IC6*%
X35400000Y-35900000D03*
X35400000Y-35400000D03*
X35400000Y-34900000D03*
X35400000Y-34400000D03*
X35400000Y-33900000D03*
X31000000Y-33900000D03*
X31000000Y-34400000D03*
X31000000Y-34900000D03*
X31000000Y-35400000D03*
X31000000Y-35900000D03*
%TD*%
D73*
%TO.C,TP21*%
X30100000Y-53500000D03*
%TD*%
D36*
%TO.C,R26*%
X61300000Y-84062500D03*
X61300000Y-81137500D03*
%TD*%
D29*
%TO.C,J4*%
X38012500Y-109300000D03*
D78*
X38012500Y-102000000D03*
D79*
X38012500Y-96500000D03*
%TD*%
D30*
%TO.C,C1*%
X8425000Y-44400000D03*
X11375000Y-44400000D03*
%TD*%
D32*
%TO.C,C23*%
X7700000Y-87325000D03*
X7700000Y-90275000D03*
%TD*%
D80*
%TO.C,L3*%
X77000000Y-35100000D03*
X72000000Y-35100000D03*
X67000000Y-35100000D03*
D56*
X62000000Y-35100000D03*
X57000000Y-35100000D03*
X52000000Y-35100000D03*
D80*
X77000000Y-60100000D03*
X72000000Y-60100000D03*
X67000000Y-60100000D03*
D56*
X62000000Y-60100000D03*
X57000000Y-60100000D03*
X52000000Y-60100000D03*
%TD*%
D81*
%TO.C,U1*%
X52760000Y-19650000D03*
X52760000Y-20650000D03*
X52760000Y-21150000D03*
X54240000Y-21150000D03*
X54240000Y-20650000D03*
X54240000Y-20150000D03*
X54240000Y-19650000D03*
%TD*%
D82*
%TO.C,L2*%
X-600000Y-76215000D03*
X-600000Y-77185000D03*
%TD*%
D83*
%TO.C,(R51)*%
X63950000Y-68400000D03*
X57850000Y-68400000D03*
%TD*%
D52*
%TO.C,REF\u002A\u002A*%
X-13300000Y-21400000D03*
%TD*%
D84*
%TO.C,D12*%
X20300000Y-44800000D03*
X23500000Y-44800000D03*
%TD*%
D73*
%TO.C,12V*%
X5000000Y-24700000D03*
%TD*%
D58*
%TO.C,D2*%
X-3186000Y-26879500D03*
X1386000Y-26879500D03*
D59*
X-900000Y-20329500D03*
%TD*%
D47*
%TO.C,RESET*%
X-16231250Y-80650000D03*
X-16231250Y-79350000D03*
%TD*%
D84*
%TO.C,D9*%
X23200000Y-39200000D03*
X26400000Y-39200000D03*
%TD*%
D85*
%TO.C,F1*%
X30300000Y-95690000D03*
X30300000Y-88710000D03*
%TD*%
D43*
%TO.C,R20*%
X-5362500Y-86000000D03*
X-2437500Y-86000000D03*
%TD*%
%TO.C,R6*%
X8637500Y-42000000D03*
X11562500Y-42000000D03*
%TD*%
D86*
%TO.C,R38*%
X20437500Y-35400000D03*
X26362500Y-35400000D03*
%TD*%
D87*
%TO.C,IC2*%
X20038000Y-68750000D03*
X20038000Y-68100000D03*
X20038000Y-67450000D03*
X20038000Y-66800000D03*
X20038000Y-66150000D03*
X20038000Y-65500000D03*
X20038000Y-64850000D03*
X14162000Y-64850000D03*
X14162000Y-65500000D03*
X14162000Y-66150000D03*
X14162000Y-66800000D03*
X14162000Y-67450000D03*
X14162000Y-68100000D03*
X14162000Y-68750000D03*
%TD*%
D43*
%TO.C,R18*%
X24587500Y-82000000D03*
X27512500Y-82000000D03*
%TD*%
D88*
%TO.C,J3*%
X30000000Y-105937500D03*
D29*
X27000000Y-100937500D03*
D88*
X19000000Y-105937500D03*
D29*
X22000000Y-100937500D03*
%TD*%
D36*
%TO.C,R10*%
X56900000Y-19862500D03*
X56900000Y-16937500D03*
%TD*%
D30*
%TO.C,C14*%
X7425000Y-73900000D03*
X10375000Y-73900000D03*
%TD*%
%TO.C,C46*%
X22225000Y-68800000D03*
X25175000Y-68800000D03*
%TD*%
D73*
%TO.C,SC_C*%
X58300000Y-87000000D03*
%TD*%
D30*
%TO.C,C31*%
X18825000Y-71800000D03*
X21775000Y-71800000D03*
%TD*%
D36*
%TO.C,R4*%
X-7600000Y-105662500D03*
X-7600000Y-102737500D03*
%TD*%
D85*
%TO.C,F2*%
X76100000Y-90490000D03*
X76100000Y-83510000D03*
%TD*%
D35*
%TO.C,C10*%
X59700000Y-20075000D03*
X59700000Y-17125000D03*
%TD*%
D86*
%TO.C,R34*%
X37437500Y-33800000D03*
X43362500Y-33800000D03*
%TD*%
D84*
%TO.C,D8*%
X33900000Y-38500000D03*
X37100000Y-38500000D03*
%TD*%
D13*
%TO.C,Q2*%
X51451000Y-45105000D03*
X51451000Y-43835000D03*
X51451000Y-42565000D03*
X51451000Y-41295000D03*
D14*
X45936000Y-41295000D03*
X45936000Y-42565000D03*
X45936000Y-43835000D03*
X45936000Y-45105000D03*
D15*
X48436000Y-43200000D03*
%TD*%
D35*
%TO.C,C37*%
X53600000Y-86275000D03*
X53600000Y-83325000D03*
%TD*%
D33*
%TO.C,R39*%
X24862500Y-56000000D03*
X21937500Y-56000000D03*
%TD*%
D34*
%TO.C,R12*%
X-11231250Y-80737500D03*
X-11231250Y-83662500D03*
%TD*%
D32*
%TO.C,C11*%
X24500000Y-24125000D03*
X24500000Y-27075000D03*
%TD*%
D86*
%TO.C,R47*%
X21837500Y-48500000D03*
X27762500Y-48500000D03*
%TD*%
D38*
%TO.C,C48*%
X18375000Y-39400000D03*
X15425000Y-39400000D03*
%TD*%
D35*
%TO.C,C18*%
X-13700000Y-91875000D03*
X-13700000Y-88925000D03*
%TD*%
D73*
%TO.C,TP_FC*%
X14900000Y-100400000D03*
%TD*%
D33*
%TO.C,R48*%
X32062500Y-56600000D03*
X29137500Y-56600000D03*
%TD*%
D86*
%TO.C,R45*%
X36437500Y-42200000D03*
X42362500Y-42200000D03*
%TD*%
D32*
%TO.C,C7*%
X14800000Y-28125000D03*
X14800000Y-31075000D03*
%TD*%
D89*
%TO.C,U3*%
X4962500Y-78400000D03*
X4962500Y-78800000D03*
X4962500Y-79200000D03*
X4962500Y-79600000D03*
X4962500Y-80000000D03*
X4962500Y-80400000D03*
X4962500Y-80800000D03*
X4962500Y-81200000D03*
X4962500Y-81600000D03*
X4962500Y-82000000D03*
X4962500Y-82400000D03*
X4962500Y-82800000D03*
X4962500Y-83200000D03*
X4962500Y-83600000D03*
D90*
X5800000Y-84437500D03*
X6200000Y-84437500D03*
X6600000Y-84437500D03*
X7000000Y-84437500D03*
X7400000Y-84437500D03*
X7800000Y-84437500D03*
X8200000Y-84437500D03*
X8600000Y-84437500D03*
X9000000Y-84437500D03*
X9400000Y-84437500D03*
X9800000Y-84437500D03*
X10200000Y-84437500D03*
X10600000Y-84437500D03*
X11000000Y-84437500D03*
D89*
X11837500Y-83600000D03*
X11837500Y-83200000D03*
X11837500Y-82800000D03*
X11837500Y-82400000D03*
X11837500Y-82000000D03*
X11837500Y-81600000D03*
X11837500Y-81200000D03*
X11837500Y-80800000D03*
X11837500Y-80400000D03*
X11837500Y-80000000D03*
X11837500Y-79600000D03*
X11837500Y-79200000D03*
X11837500Y-78800000D03*
X11837500Y-78400000D03*
D90*
X11000000Y-77562500D03*
X10600000Y-77562500D03*
X10200000Y-77562500D03*
X9800000Y-77562500D03*
X9400000Y-77562500D03*
X9000000Y-77562500D03*
X8600000Y-77562500D03*
X8200000Y-77562500D03*
X7800000Y-77562500D03*
X7400000Y-77562500D03*
X7000000Y-77562500D03*
X6600000Y-77562500D03*
X6200000Y-77562500D03*
X5800000Y-77562500D03*
D18*
X8400000Y-81000000D03*
%TD*%
D32*
%TO.C,C35*%
X62700000Y-86325000D03*
X62700000Y-89275000D03*
%TD*%
D43*
%TO.C,R16*%
X1637500Y-50800000D03*
X4562500Y-50800000D03*
%TD*%
D33*
%TO.C,R11*%
X54362500Y-17200000D03*
X51437500Y-17200000D03*
%TD*%
%TO.C,R44*%
X-10837500Y-97000000D03*
X-13762500Y-97000000D03*
%TD*%
D43*
%TO.C,R17*%
X24637500Y-78900000D03*
X27562500Y-78900000D03*
%TD*%
D40*
%TO.C,C12*%
X-12150000Y-33300000D03*
X-4750000Y-33300000D03*
%TD*%
D73*
%TO.C,I/O2*%
X-6700000Y-92800000D03*
%TD*%
%TO.C,3.3V*%
X-16500000Y-30800000D03*
%TD*%
D36*
%TO.C,R29*%
X50680000Y-93317500D03*
X50680000Y-90392500D03*
%TD*%
D73*
%TO.C,MC_C*%
X64800000Y-77600000D03*
%TD*%
D35*
%TO.C,C30*%
X-900000Y-52275000D03*
X-900000Y-49325000D03*
%TD*%
D73*
%TO.C,TP18*%
X26250000Y-53000000D03*
%TD*%
D43*
%TO.C,R2*%
X1537500Y-104900000D03*
X4462500Y-104900000D03*
%TD*%
D38*
%TO.C,C47*%
X17875000Y-36100000D03*
X14925000Y-36100000D03*
%TD*%
D35*
%TO.C,C25*%
X-5700000Y-74075000D03*
X-5700000Y-71125000D03*
%TD*%
D10*
%TO.C,P1*%
X-5620000Y-110040000D03*
D11*
X-5620000Y-114040000D03*
D12*
X-3350000Y-108890000D03*
D10*
X5620000Y-110040000D03*
D11*
X5620000Y-114040000D03*
D12*
X-2550000Y-108890000D03*
X-1250000Y-108890000D03*
X-250000Y-108890000D03*
X250000Y-108890000D03*
X1250000Y-108890000D03*
X2550000Y-108890000D03*
X3350000Y-108890000D03*
X3050000Y-108890000D03*
X2250000Y-108890000D03*
X1750000Y-108890000D03*
X750000Y-108890000D03*
X-750000Y-108890000D03*
X-1750000Y-108890000D03*
X-2250000Y-108890000D03*
X-3050000Y-108890000D03*
%TD*%
D32*
%TO.C,C6*%
X49900000Y-20725000D03*
X49900000Y-23675000D03*
%TD*%
D38*
%TO.C,C39*%
X8575000Y-65800000D03*
X5625000Y-65800000D03*
%TD*%
D63*
%TO.C,IC5*%
X65195000Y-93825000D03*
X66465000Y-93825000D03*
X67735000Y-93825000D03*
X69005000Y-93825000D03*
X69005000Y-88175000D03*
X67735000Y-88175000D03*
X66465000Y-88175000D03*
X65195000Y-88175000D03*
%TD*%
D37*
%TO.C,Y1*%
X8700000Y-69325000D03*
X6500000Y-69325000D03*
X6500000Y-71075000D03*
X8700000Y-71075000D03*
%TD*%
D91*
%TO.C,IC8*%
X-6400000Y-100450000D03*
X-6400000Y-99800000D03*
X-6400000Y-99150000D03*
X-8400000Y-99150000D03*
X-8400000Y-99800000D03*
X-8400000Y-100450000D03*
%TD*%
D34*
%TO.C,R30*%
X65480000Y-82957500D03*
X65480000Y-85882500D03*
%TD*%
D92*
%TO.C,C32*%
X23567677Y-89000000D03*
D49*
X18567677Y-89000000D03*
%TD*%
D32*
%TO.C,C8*%
X56900000Y-21925000D03*
X56900000Y-24875000D03*
%TD*%
D73*
%TO.C,FC_C*%
X53700000Y-89875000D03*
%TD*%
D32*
%TO.C,C36*%
X47900000Y-90400000D03*
X47900000Y-93350000D03*
%TD*%
D30*
%TO.C,C33*%
X63725000Y-80600000D03*
X66675000Y-80600000D03*
%TD*%
D43*
%TO.C,R41*%
X22237500Y-66200000D03*
X25162500Y-66200000D03*
%TD*%
D35*
%TO.C,C49*%
X32600000Y-45375000D03*
X32600000Y-42425000D03*
%TD*%
D29*
%TO.C,J1*%
X-11925000Y-41700000D03*
D93*
X-4625000Y-41700000D03*
D94*
X875000Y-41700000D03*
%TD*%
D77*
%TO.C,IC7*%
X29700000Y-44500000D03*
X29700000Y-44000000D03*
X29700000Y-43500000D03*
X29700000Y-43000000D03*
X29700000Y-42500000D03*
X25300000Y-42500000D03*
X25300000Y-43000000D03*
X25300000Y-43500000D03*
X25300000Y-44000000D03*
X25300000Y-44500000D03*
%TD*%
D43*
%TO.C,R24*%
X2337500Y-91200000D03*
X5262500Y-91200000D03*
%TD*%
D38*
%TO.C,C22*%
X1975000Y-78900000D03*
X-975000Y-78900000D03*
%TD*%
D73*
%TO.C,TP8*%
X-16500000Y-35400000D03*
%TD*%
D32*
%TO.C,C26*%
X-3400000Y-76125000D03*
X-3400000Y-79075000D03*
%TD*%
D33*
%TO.C,R43*%
X-12637500Y-94200000D03*
X-15562500Y-94200000D03*
%TD*%
D13*
%TO.C,Q4*%
X51651000Y-55005000D03*
X51651000Y-53735000D03*
X51651000Y-52465000D03*
X51651000Y-51195000D03*
D14*
X46136000Y-51195000D03*
X46136000Y-52465000D03*
X46136000Y-53735000D03*
X46136000Y-55005000D03*
D15*
X48636000Y-53100000D03*
%TD*%
D35*
%TO.C,C24*%
X12600000Y-75175000D03*
X12600000Y-72225000D03*
%TD*%
D73*
%TO.C,TP1*%
X-6300000Y-68400000D03*
%TD*%
D35*
%TO.C,C50*%
X-3900000Y-102775000D03*
X-3900000Y-99825000D03*
%TD*%
D33*
%TO.C,R3*%
X-1537500Y-105000000D03*
X-4462500Y-105000000D03*
%TD*%
D43*
%TO.C,R19*%
X23237500Y-76400000D03*
X26162500Y-76400000D03*
%TD*%
%TO.C,R37*%
X24737500Y-31700000D03*
X27662500Y-31700000D03*
%TD*%
%TO.C,R33*%
X3134664Y-63338027D03*
X6059664Y-63338027D03*
%TD*%
D29*
%TO.C,J2*%
X-12187100Y-50715750D03*
X-12187100Y-59115750D03*
D95*
X-4887100Y-59115750D03*
D96*
X-4887100Y-54915750D03*
X-4887100Y-50715750D03*
%TD*%
D52*
%TO.C,REF\u002A\u002A*%
X75700000Y-21200000D03*
%TD*%
D43*
%TO.C,R52*%
X-13762500Y-100400000D03*
X-10837500Y-100400000D03*
%TD*%
D38*
%TO.C,C15*%
X5075000Y-73900000D03*
X2125000Y-73900000D03*
%TD*%
D61*
%TO.C,L1*%
X60450000Y-23800000D03*
X62550000Y-23800000D03*
%TD*%
D84*
%TO.C,D7*%
X40200000Y-38200000D03*
X43400000Y-38200000D03*
%TD*%
D32*
%TO.C,C41*%
X30400000Y-47825000D03*
X30400000Y-50775000D03*
%TD*%
D36*
%TO.C,R1*%
X6800000Y-105562500D03*
X6800000Y-102637500D03*
%TD*%
D73*
%TO.C,5V*%
X37000000Y-21600000D03*
%TD*%
D35*
%TO.C,C21*%
X-700000Y-74075000D03*
X-700000Y-71125000D03*
%TD*%
D33*
%TO.C,R53*%
X-10977500Y-103300000D03*
X-13902500Y-103300000D03*
%TD*%
D36*
%TO.C,R42*%
X24500000Y-74062500D03*
X24500000Y-71137500D03*
%TD*%
D33*
%TO.C,R28*%
X50722500Y-88075000D03*
X47797500Y-88075000D03*
%TD*%
D43*
%TO.C,R13*%
X-11493750Y-86000000D03*
X-8568750Y-86000000D03*
%TD*%
D42*
%TO.C,D1*%
X14740002Y-49400000D03*
X8485998Y-49400000D03*
%TD*%
D97*
%TO.C,J5*%
X55200000Y-99637500D03*
D98*
X58350000Y-105637500D03*
D97*
X48000000Y-99637500D03*
D98*
X44850000Y-105637500D03*
%TD*%
D36*
%TO.C,R32*%
X8400000Y-63362500D03*
X8400000Y-60437500D03*
%TD*%
D30*
%TO.C,C29*%
X19625000Y-62000000D03*
X22575000Y-62000000D03*
%TD*%
D43*
%TO.C,R8*%
X4237500Y-28200000D03*
X7162500Y-28200000D03*
%TD*%
%TO.C,R15*%
X1637500Y-53800000D03*
X4562500Y-53800000D03*
%TD*%
D73*
%TO.C,TP17*%
X22450000Y-52950000D03*
%TD*%
D30*
%TO.C,C5*%
X62025000Y-17600000D03*
X64975000Y-17600000D03*
%TD*%
D43*
%TO.C,R22*%
X-2862500Y-91200000D03*
X62500Y-91200000D03*
%TD*%
D73*
%TO.C,I/O4*%
X-2700000Y-94200000D03*
%TD*%
D13*
%TO.C,Q3*%
X70451000Y-54905000D03*
X70451000Y-53635000D03*
X70451000Y-52365000D03*
X70451000Y-51095000D03*
D14*
X64936000Y-51095000D03*
X64936000Y-52365000D03*
X64936000Y-53635000D03*
X64936000Y-54905000D03*
D15*
X67436000Y-53000000D03*
%TD*%
D73*
%TO.C,D_Pot_A*%
X-16900000Y-102400000D03*
%TD*%
D43*
%TO.C,R46*%
X16037500Y-42400000D03*
X18962500Y-42400000D03*
%TD*%
D33*
%TO.C,R31*%
X70737500Y-83000000D03*
X67812500Y-83000000D03*
%TD*%
D43*
%TO.C,R27*%
X56037500Y-84000000D03*
X58962500Y-84000000D03*
%TD*%
%TO.C,R21*%
X-3962500Y-88600000D03*
X-1037500Y-88600000D03*
%TD*%
D36*
%TO.C,R5*%
X5500000Y-45262500D03*
X5500000Y-42337500D03*
%TD*%
D41*
%TO.C,C9*%
X30500000Y-21800000D03*
X30500000Y-29200000D03*
%TD*%
D31*
%TO.C, D6*%
X21100000Y-75800000D03*
X18300000Y-75800000D03*
%TD*%
D47*
%TO.C,BOOT*%
X-16231250Y-86250000D03*
X-16231250Y-84950000D03*
%TD*%
D36*
%TO.C,R14*%
X-10900000Y-91662500D03*
X-10900000Y-88737500D03*
%TD*%
D13*
%TO.C,Q1*%
X70351000Y-44805000D03*
X70351000Y-43535000D03*
X70351000Y-42265000D03*
X70351000Y-40995000D03*
D14*
X64836000Y-40995000D03*
X64836000Y-42265000D03*
X64836000Y-43535000D03*
X64836000Y-44805000D03*
D15*
X67336000Y-42900000D03*
%TD*%
D73*
%TO.C,D_P_W*%
X-16900000Y-97400000D03*
%TD*%
%TO.C,TP3*%
X8700000Y-24700000D03*
%TD*%
%TO.C,TP22*%
X34000000Y-53500000D03*
%TD*%
D97*
%TO.C,J6*%
X75700000Y-99637500D03*
D98*
X78850000Y-105637500D03*
D97*
X68500000Y-99637500D03*
D98*
X65350000Y-105637500D03*
%TD*%
D99*
%TO.C,IC4*%
X39675000Y-87670000D03*
X39675000Y-88940000D03*
X39675000Y-90210000D03*
X39675000Y-91480000D03*
X45325000Y-91480000D03*
X45325000Y-90210000D03*
X45325000Y-88940000D03*
X45325000Y-87670000D03*
%TD*%
D100*
%TO.C,(R50)*%
X46400000Y-38650000D03*
X46400000Y-32550000D03*
%TD*%
D73*
%TO.C,TP_SC*%
X74300000Y-94200000D03*
%TD*%
D63*
%TO.C,IC3*%
X61605000Y-73175000D03*
X60335000Y-73175000D03*
X59065000Y-73175000D03*
X57795000Y-73175000D03*
X57795000Y-78825000D03*
X59065000Y-78825000D03*
X60335000Y-78825000D03*
X61605000Y-78825000D03*
%TD*%
D34*
%TO.C,R49*%
X34500000Y-56437500D03*
X34500000Y-59362500D03*
%TD*%
D26*
%TO.C,IC1*%
X6150000Y-39506500D03*
X6800000Y-39506500D03*
X7450000Y-39506500D03*
X8100000Y-39506500D03*
X8750000Y-39506500D03*
X9400000Y-39506500D03*
X10050000Y-39506500D03*
X10700000Y-39506500D03*
X10700000Y-33630500D03*
X10050000Y-33630500D03*
X9400000Y-33630500D03*
X8750000Y-33630500D03*
X8100000Y-33630500D03*
X7450000Y-33630500D03*
X6800000Y-33630500D03*
X6150000Y-33630500D03*
D27*
X8425000Y-36568500D03*
%TD*%
D32*
%TO.C,C40*%
X33000000Y-47825000D03*
X33000000Y-50775000D03*
%TD*%
D38*
%TO.C,C27*%
X6095000Y-60720000D03*
X3145000Y-60720000D03*
%TD*%
D34*
%TO.C,R55*%
X11900000Y-93937500D03*
X11900000Y-96862500D03*
%TD*%
D38*
%TO.C,C34*%
X58975000Y-81200000D03*
X56025000Y-81200000D03*
%TD*%
D101*
%TO.C,C19*%
X-12700000Y-73300000D03*
X-12700000Y-65900000D03*
%TD*%
D33*
%TO.C,R54*%
X8942500Y-96380000D03*
X6017500Y-96380000D03*
%TD*%
D52*
%TO.C,REF\u002A\u002A*%
X75700000Y-71400000D03*
%TD*%
D49*
%TO.C,PS1*%
X14060000Y-24300000D03*
X16600000Y-24300000D03*
X19140000Y-24300000D03*
%TD*%
D38*
%TO.C,C42*%
X32075000Y-38500000D03*
X29125000Y-38500000D03*
%TD*%
D31*
%TO.C,MCU D5*%
X22300000Y-82000000D03*
X19500000Y-82000000D03*
%TD*%
D30*
%TO.C,C3*%
X8925000Y-30500000D03*
X11875000Y-30500000D03*
%TD*%
D43*
%TO.C,R7*%
X12337500Y-33400000D03*
X15262500Y-33400000D03*
%TD*%
D30*
%TO.C,C16*%
X125000Y-102300000D03*
X3075000Y-102300000D03*
%TD*%
D34*
%TO.C,R40*%
X27000000Y-55737500D03*
X27000000Y-58662500D03*
%TD*%
D43*
%TO.C,R23*%
X237500Y-94200000D03*
X3162500Y-94200000D03*
%TD*%
D73*
%TO.C,I/O3*%
X-6700000Y-96600000D03*
%TD*%
D35*
%TO.C,C13*%
X-13831250Y-81475000D03*
X-13831250Y-78525000D03*
%TD*%
D73*
%TO.C,TP5*%
X37000000Y-26600000D03*
%TD*%
D43*
%TO.C,R9*%
X9537500Y-27800000D03*
X12462500Y-27800000D03*
%TD*%
D102*
%TO.C,D3*%
X1400000Y-57645000D03*
X1400000Y-56345000D03*
X-600000Y-56995000D03*
%TD*%
D103*
%TO.C,U4*%
X12575000Y-58305000D03*
X12575000Y-57035000D03*
X12575000Y-55765000D03*
X12575000Y-54495000D03*
X7625000Y-54495000D03*
X7625000Y-55765000D03*
X7625000Y-57035000D03*
X7625000Y-58305000D03*
%TD*%
D84*
%TO.C,D10*%
X37700000Y-45700000D03*
X40900000Y-45700000D03*
%TD*%
D43*
%TO.C,R25*%
X5037500Y-93800000D03*
X7962500Y-93800000D03*
%TD*%
D104*
%TO.C,D11*%
X35600000Y-45300000D03*
X35600000Y-48500000D03*
%TD*%
D47*
%TO.C,TEST*%
X-16100000Y-91050000D03*
X-16100000Y-89750000D03*
%TD*%
D32*
%TO.C,C28*%
X15500000Y-54055000D03*
X15500000Y-57005000D03*
%TD*%
D92*
%TO.C,C45*%
X52667677Y-71400000D03*
D49*
X47667677Y-71400000D03*
%TD*%
D26*
%TO.C,IC1*%
X142075000Y-182762000D03*
X141425000Y-182762000D03*
X140775000Y-182762000D03*
X140125000Y-182762000D03*
X139475000Y-182762000D03*
X138825000Y-182762000D03*
X138175000Y-182762000D03*
X137525000Y-182762000D03*
X137525000Y-188638000D03*
X138175000Y-188638000D03*
X138825000Y-188638000D03*
X139475000Y-188638000D03*
X140125000Y-188638000D03*
X140775000Y-188638000D03*
X141425000Y-188638000D03*
X142075000Y-188638000D03*
D27*
X139800000Y-185700000D03*
%TD*%
D16*
%TO.C,U4*%
X127000000Y-130537500D03*
X127400000Y-130537500D03*
X127800000Y-130537500D03*
X128200000Y-130537500D03*
X128600000Y-130537500D03*
X129000000Y-130537500D03*
X129400000Y-130537500D03*
X129800000Y-130537500D03*
X130200000Y-130537500D03*
X130600000Y-130537500D03*
X131000000Y-130537500D03*
X131400000Y-130537500D03*
X131800000Y-130537500D03*
X132200000Y-130537500D03*
D17*
X133037500Y-129700000D03*
X133037500Y-129300000D03*
X133037500Y-128900000D03*
X133037500Y-128500000D03*
X133037500Y-128100000D03*
X133037500Y-127700000D03*
X133037500Y-127300000D03*
X133037500Y-126900000D03*
X133037500Y-126500000D03*
X133037500Y-126100000D03*
X133037500Y-125700000D03*
X133037500Y-125300000D03*
X133037500Y-124900000D03*
X133037500Y-124500000D03*
D16*
X132200000Y-123662500D03*
X131800000Y-123662500D03*
X131400000Y-123662500D03*
X131000000Y-123662500D03*
X130600000Y-123662500D03*
X130200000Y-123662500D03*
X129800000Y-123662500D03*
X129400000Y-123662500D03*
X129000000Y-123662500D03*
X128600000Y-123662500D03*
X128200000Y-123662500D03*
X127800000Y-123662500D03*
X127400000Y-123662500D03*
X127000000Y-123662500D03*
D17*
X126162500Y-124500000D03*
X126162500Y-124900000D03*
X126162500Y-125300000D03*
X126162500Y-125700000D03*
X126162500Y-126100000D03*
X126162500Y-126500000D03*
X126162500Y-126900000D03*
X126162500Y-127300000D03*
X126162500Y-127700000D03*
X126162500Y-128100000D03*
X126162500Y-128500000D03*
X126162500Y-128900000D03*
X126162500Y-129300000D03*
X126162500Y-129700000D03*
D18*
X129600000Y-127100000D03*
%TD*%
D20*
%TO.C,U3*%
X177950000Y-148762500D03*
D21*
X177875000Y-149300000D03*
D20*
X177950000Y-149837500D03*
X179650000Y-149837500D03*
D21*
X179725000Y-149300000D03*
D20*
X179650000Y-148762500D03*
%TD*%
D19*
%TO.C,U5*%
X180695000Y-130975000D03*
X181965000Y-130975000D03*
X183235000Y-130975000D03*
X184505000Y-130975000D03*
X184505000Y-126025000D03*
X183235000Y-126025000D03*
X181965000Y-126025000D03*
X180695000Y-126025000D03*
%TD*%
D25*
%TO.C,U2*%
X139750000Y-149540000D03*
X140250000Y-149540000D03*
X140750000Y-149540000D03*
X141250000Y-149540000D03*
X141250000Y-148060000D03*
X140750000Y-148060000D03*
X140250000Y-148060000D03*
X139750000Y-148060000D03*
%TD*%
D105*
%TO.C,U1*%
X152005000Y-123702500D03*
X150735000Y-123702500D03*
X149465000Y-123702500D03*
X148195000Y-123702500D03*
X148195000Y-128697500D03*
X149465000Y-128697500D03*
X150735000Y-128697500D03*
X152005000Y-128697500D03*
D106*
X150100000Y-126200000D03*
%TD*%
D22*
%TO.C,Q3*%
X163250000Y-147465000D03*
X162600000Y-147465000D03*
D23*
X162885000Y-148400000D03*
D22*
X163250000Y-149335000D03*
X162600000Y-149335000D03*
X161950000Y-147465000D03*
D24*
X161825000Y-148400000D03*
D22*
X161950000Y-149335000D03*
%TD*%
D26*
%TO.C,IC2*%
X169450000Y-123262000D03*
X168800000Y-123262000D03*
X168150000Y-123262000D03*
X167500000Y-123262000D03*
X166850000Y-123262000D03*
X166200000Y-123262000D03*
X165550000Y-123262000D03*
X165550000Y-129138000D03*
X166200000Y-129138000D03*
X166850000Y-129138000D03*
X167500000Y-129138000D03*
X168150000Y-129138000D03*
X168800000Y-129138000D03*
X169450000Y-129138000D03*
%TD*%
D32*
%TO.C,C7*%
X93500000Y-31025000D03*
X93500000Y-33975000D03*
%TD*%
D36*
%TO.C,R41*%
X155000000Y-83862500D03*
X155000000Y-80937500D03*
%TD*%
D107*
%TO.C,JP3*%
X153150000Y-112500000D03*
X151850000Y-112500000D03*
%TD*%
D73*
%TO.C,TP9*%
X156400000Y-100000000D03*
%TD*%
D36*
%TO.C,R3*%
X139500000Y-105162500D03*
X139500000Y-102237500D03*
%TD*%
D38*
%TO.C,C6*%
X152475000Y-22500000D03*
X149525000Y-22500000D03*
%TD*%
D81*
%TO.C,U2*%
X121060000Y-39950000D03*
X121060000Y-40450000D03*
X121060000Y-40950000D03*
X121060000Y-41450000D03*
X122540000Y-41450000D03*
X122540000Y-40950000D03*
X122540000Y-40450000D03*
X122540000Y-39950000D03*
%TD*%
D108*
%TO.C,U5*%
X156325000Y-92995000D03*
X156325000Y-94265000D03*
X156325000Y-95535000D03*
X156325000Y-96805000D03*
X161275000Y-96805000D03*
X161275000Y-95535000D03*
X161275000Y-94265000D03*
X161275000Y-92995000D03*
%TD*%
D43*
%TO.C,R27*%
X108237500Y-97700000D03*
X111162500Y-97700000D03*
%TD*%
D39*
%TO.C,R46*%
X110400000Y-63162500D03*
X110400000Y-57237500D03*
%TD*%
D29*
%TO.C,J2*%
X97475000Y-107000000D03*
D93*
X104775000Y-107000000D03*
D94*
X110275000Y-107000000D03*
%TD*%
D35*
%TO.C,C28*%
X105400000Y-81075000D03*
X105400000Y-78125000D03*
%TD*%
D33*
%TO.C,R17*%
X122862500Y-107100000D03*
X119937500Y-107100000D03*
%TD*%
D43*
%TO.C,R15*%
X132037500Y-52000000D03*
X134962500Y-52000000D03*
%TD*%
D30*
%TO.C,C16*%
X118525000Y-80900000D03*
X121475000Y-80900000D03*
%TD*%
D33*
%TO.C,R8*%
X95462500Y-25500000D03*
X92537500Y-25500000D03*
%TD*%
D35*
%TO.C,C27*%
X110400000Y-81075000D03*
X110400000Y-78125000D03*
%TD*%
D73*
%TO.C,TP7*%
X94000000Y-45500000D03*
%TD*%
D46*
%TO.C,D8*%
X175800000Y-90700000D03*
X173000000Y-90700000D03*
%TD*%
D43*
%TO.C,R24*%
X150737500Y-55000000D03*
X153662500Y-55000000D03*
%TD*%
%TO.C,R26*%
X104337500Y-95100000D03*
X107262500Y-95100000D03*
%TD*%
D36*
%TO.C,R43*%
X130980000Y-67742500D03*
X130980000Y-64817500D03*
%TD*%
D82*
%TO.C,L3*%
X110500000Y-83215000D03*
X110500000Y-84185000D03*
%TD*%
D29*
%TO.C,J1*%
X183525000Y-36000000D03*
D109*
X176225000Y-36000000D03*
D94*
X170725000Y-36000000D03*
%TD*%
D73*
%TO.C,TP1*%
X100900000Y-90400000D03*
%TD*%
D69*
%TO.C,L2*%
X123600000Y-46050000D03*
X123600000Y-48150000D03*
%TD*%
D32*
%TO.C,C23*%
X107700000Y-83125000D03*
X107700000Y-86075000D03*
%TD*%
D35*
%TO.C,C29*%
X166700000Y-55475000D03*
X166700000Y-52525000D03*
%TD*%
D85*
%TO.C,F1*%
X176700000Y-31090000D03*
X176700000Y-24110000D03*
%TD*%
D34*
%TO.C,R40*%
X127100000Y-67737500D03*
X127100000Y-70662500D03*
%TD*%
D30*
%TO.C,C15*%
X121625000Y-109800000D03*
X124575000Y-109800000D03*
%TD*%
D110*
%TO.C,C8*%
X125200000Y-23000000D03*
X117800000Y-23000000D03*
%TD*%
D29*
%TO.C,J4*%
X97700000Y-53000000D03*
D93*
X105000000Y-53000000D03*
D94*
X110500000Y-53000000D03*
%TD*%
D111*
%TO.C,Q2*%
X164065000Y-75350000D03*
X164065000Y-76000000D03*
D112*
X165000000Y-75715000D03*
D111*
X165935000Y-75350000D03*
X165935000Y-76000000D03*
X164065000Y-76650000D03*
D113*
X165000000Y-76775000D03*
D111*
X165935000Y-76650000D03*
%TD*%
D34*
%TO.C,R20*%
X163100000Y-67037500D03*
X163100000Y-69962500D03*
%TD*%
D41*
%TO.C,C9*%
X114500000Y-41300000D03*
X114500000Y-48700000D03*
%TD*%
D87*
%TO.C,IC2*%
X162438000Y-56950000D03*
X162438000Y-56300000D03*
X162438000Y-55650000D03*
X162438000Y-55000000D03*
X162438000Y-54350000D03*
X162438000Y-53700000D03*
X162438000Y-53050000D03*
X156562000Y-53050000D03*
X156562000Y-53700000D03*
X156562000Y-54350000D03*
X156562000Y-55000000D03*
X156562000Y-55650000D03*
X156562000Y-56300000D03*
X156562000Y-56950000D03*
%TD*%
D32*
%TO.C,C25*%
X118800000Y-93625000D03*
X118800000Y-96575000D03*
%TD*%
D73*
%TO.C,TP8*%
X161400000Y-100000000D03*
%TD*%
%TO.C,TP6*%
X99000000Y-45500000D03*
%TD*%
%TO.C,TP13*%
X106200000Y-101100000D03*
%TD*%
D111*
%TO.C,Q1*%
X163235000Y-86250000D03*
X163235000Y-85600000D03*
D112*
X162300000Y-85885000D03*
D111*
X161365000Y-86250000D03*
X161365000Y-85600000D03*
X163235000Y-84950000D03*
D113*
X162300000Y-84825000D03*
D111*
X161365000Y-84950000D03*
%TD*%
D114*
%TO.C,D1*%
X111813000Y-20059998D03*
X111813000Y-26314002D03*
%TD*%
D33*
%TO.C,R11*%
X95462500Y-28000000D03*
X92537500Y-28000000D03*
%TD*%
D115*
%TO.C,L1*%
X138600000Y-39323000D03*
X138600000Y-23077000D03*
%TD*%
D34*
%TO.C,R38*%
X157780000Y-83857500D03*
X157780000Y-86782500D03*
%TD*%
D107*
%TO.C,JP2*%
X129350000Y-112500000D03*
X130650000Y-112500000D03*
%TD*%
D43*
%TO.C,R47*%
X132937500Y-80800000D03*
X135862500Y-80800000D03*
%TD*%
D34*
%TO.C,R34*%
X165300000Y-59737500D03*
X165300000Y-62662500D03*
%TD*%
D29*
%TO.C,REF\u002A\u002A*%
X98500000Y-20500000D03*
%TD*%
D36*
%TO.C,R9*%
X96000000Y-33962500D03*
X96000000Y-31037500D03*
%TD*%
D38*
%TO.C,C17*%
X116175000Y-80900000D03*
X113225000Y-80900000D03*
%TD*%
D36*
%TO.C,R2*%
X142300000Y-105162500D03*
X142300000Y-102237500D03*
%TD*%
D110*
%TO.C,C21*%
X154800000Y-69000000D03*
X147400000Y-69000000D03*
%TD*%
D111*
%TO.C,Q3*%
X119935000Y-68150000D03*
X119935000Y-67500000D03*
D112*
X119000000Y-67785000D03*
D111*
X118065000Y-68150000D03*
X118065000Y-67500000D03*
X119935000Y-66850000D03*
D113*
X119000000Y-66725000D03*
D111*
X118065000Y-66850000D03*
%TD*%
D43*
%TO.C,R28*%
X111337500Y-101000000D03*
X114262500Y-101000000D03*
%TD*%
D33*
%TO.C,R23*%
X152142500Y-57820000D03*
X149217500Y-57820000D03*
%TD*%
D43*
%TO.C,R22*%
X130137500Y-71300000D03*
X133062500Y-71300000D03*
%TD*%
D31*
%TO.C,D7 POWER 3.3V*%
X132900000Y-57900000D03*
X130100000Y-57900000D03*
%TD*%
D116*
%TO.C,R45*%
X171862500Y-80400000D03*
X165937500Y-80400000D03*
%TD*%
D37*
%TO.C,Y1*%
X119800000Y-76325000D03*
X117600000Y-76325000D03*
X117600000Y-78075000D03*
X119800000Y-78075000D03*
%TD*%
D107*
%TO.C,JP1*%
X122550000Y-112500000D03*
X123850000Y-112500000D03*
%TD*%
D117*
%TO.C,U1*%
X159497500Y-38405000D03*
X159497500Y-37135000D03*
X159497500Y-35865000D03*
X159497500Y-34595000D03*
X154502500Y-34595000D03*
X154502500Y-35865000D03*
X154502500Y-37135000D03*
X154502500Y-38405000D03*
D118*
X157000000Y-36500000D03*
%TD*%
D73*
%TO.C,TP5*%
X113200000Y-30900000D03*
%TD*%
D33*
%TO.C,R13*%
X154962500Y-31500000D03*
X152037500Y-31500000D03*
%TD*%
D30*
%TO.C,C3*%
X149025000Y-36500000D03*
X151975000Y-36500000D03*
%TD*%
D73*
%TO.C,TP1*%
X164500000Y-34500000D03*
%TD*%
D29*
%TO.C,J5*%
X183525000Y-86000000D03*
D109*
X176225000Y-86000000D03*
D94*
X170725000Y-86000000D03*
%TD*%
D43*
%TO.C,R14*%
X129037500Y-55500000D03*
X131962500Y-55500000D03*
%TD*%
D35*
%TO.C,C11*%
X118400000Y-39325000D03*
X118400000Y-36375000D03*
%TD*%
D73*
%TO.C,TP4*%
X118200000Y-30900000D03*
%TD*%
D34*
%TO.C,R42*%
X161200000Y-77437500D03*
X161200000Y-80362500D03*
%TD*%
D38*
%TO.C,C5*%
X159975000Y-22000000D03*
X157025000Y-22000000D03*
%TD*%
D86*
%TO.C,R44*%
X179637500Y-92400000D03*
X185562500Y-92400000D03*
%TD*%
D30*
%TO.C,C19*%
X128025000Y-110000000D03*
X130975000Y-110000000D03*
%TD*%
%TO.C,C13*%
X127025000Y-51000000D03*
X129975000Y-51000000D03*
%TD*%
D62*
%TO.C,C4*%
X99200000Y-38500000D03*
X93800000Y-38500000D03*
%TD*%
D29*
%TO.C,J6*%
X97700000Y-67800000D03*
D93*
X105000000Y-67800000D03*
D94*
X110500000Y-67800000D03*
%TD*%
D87*
%TO.C,IC1*%
X104438000Y-30275000D03*
X104438000Y-29625000D03*
X104438000Y-28975000D03*
X104438000Y-28325000D03*
X104438000Y-27675000D03*
X104438000Y-27025000D03*
X104438000Y-26375000D03*
X104438000Y-25725000D03*
X98562000Y-25725000D03*
X98562000Y-26375000D03*
X98562000Y-27025000D03*
X98562000Y-27675000D03*
X98562000Y-28325000D03*
X98562000Y-28975000D03*
X98562000Y-29625000D03*
X98562000Y-30275000D03*
D119*
X101500000Y-28000000D03*
%TD*%
D30*
%TO.C,C34*%
X169125000Y-101400000D03*
X172075000Y-101400000D03*
%TD*%
D73*
%TO.C,TP3*%
X101200000Y-75000000D03*
%TD*%
D36*
%TO.C,R33*%
X165500000Y-50462500D03*
X165500000Y-47537500D03*
%TD*%
D43*
%TO.C,R35*%
X135737500Y-85900000D03*
X138662500Y-85900000D03*
%TD*%
D29*
%TO.C,REF\u002A\u002A*%
X185000000Y-21000000D03*
%TD*%
D120*
%TO.C,D4*%
X169900000Y-104950000D03*
X169900000Y-106250000D03*
X171900000Y-105600000D03*
%TD*%
D38*
%TO.C,C10*%
X123775000Y-36900000D03*
X120825000Y-36900000D03*
%TD*%
D110*
%TO.C,C14*%
X124700000Y-54500000D03*
X117300000Y-54500000D03*
%TD*%
D35*
%TO.C,C33*%
X162500000Y-50475000D03*
X162500000Y-47525000D03*
%TD*%
D32*
%TO.C,C36*%
X170500000Y-73825000D03*
X170500000Y-76775000D03*
%TD*%
D34*
%TO.C,R19*%
X165700000Y-66137500D03*
X165700000Y-69062500D03*
%TD*%
D10*
%TO.C,P1*%
X135380000Y-109800000D03*
D11*
X135380000Y-113800000D03*
D12*
X137650000Y-108650000D03*
D10*
X146620000Y-109800000D03*
D11*
X146620000Y-113800000D03*
D12*
X138450000Y-108650000D03*
X139750000Y-108650000D03*
X140750000Y-108650000D03*
X141250000Y-108650000D03*
X142250000Y-108650000D03*
X143550000Y-108650000D03*
X144350000Y-108650000D03*
X144050000Y-108650000D03*
X143250000Y-108650000D03*
X142750000Y-108650000D03*
X141750000Y-108650000D03*
X140250000Y-108650000D03*
X139250000Y-108650000D03*
X138750000Y-108650000D03*
X137950000Y-108650000D03*
%TD*%
D38*
%TO.C,C20*%
X153975000Y-110000000D03*
X151025000Y-110000000D03*
%TD*%
D33*
%TO.C,R32*%
X167462500Y-96300000D03*
X164537500Y-96300000D03*
%TD*%
D29*
%TO.C,J3*%
X183987100Y-111984250D03*
X183987100Y-103584250D03*
D95*
X176687100Y-103584250D03*
D121*
X176687100Y-107784250D03*
X176687100Y-111984250D03*
%TD*%
D36*
%TO.C,R6*%
X107000000Y-28962500D03*
X107000000Y-26037500D03*
%TD*%
D35*
%TO.C,C22*%
X107900000Y-81075000D03*
X107900000Y-78125000D03*
%TD*%
D43*
%TO.C,R37*%
X134237500Y-55000000D03*
X137162500Y-55000000D03*
%TD*%
D33*
%TO.C,R5*%
X159962500Y-31000000D03*
X157037500Y-31000000D03*
%TD*%
D52*
%TO.C,J7*%
X180425000Y-47100000D03*
X180425000Y-72900000D03*
D109*
X176225000Y-51600000D03*
D94*
X176225000Y-55800000D03*
X176225000Y-60000000D03*
X176225000Y-64200000D03*
X176225000Y-68400000D03*
X170725000Y-51600000D03*
X170725000Y-55800000D03*
X170725000Y-60000000D03*
X170725000Y-64200000D03*
X170725000Y-68400000D03*
%TD*%
D46*
%TO.C,D10*%
X106100000Y-72300000D03*
X108900000Y-72300000D03*
%TD*%
%TO.C,D9*%
X174500000Y-78400000D03*
X174500000Y-75600000D03*
%TD*%
D31*
%TO.C,D5 CAN*%
X133300000Y-85900000D03*
X130500000Y-85900000D03*
%TD*%
D35*
%TO.C,C26*%
X123700000Y-82175000D03*
X123700000Y-79225000D03*
%TD*%
D58*
%TO.C,D2*%
X140314000Y-52479500D03*
X144886000Y-52479500D03*
D59*
X142600000Y-45929500D03*
%TD*%
D31*
%TO.C,D6 MCU*%
X133400000Y-89000000D03*
X130600000Y-89000000D03*
%TD*%
D33*
%TO.C,R48*%
X130062500Y-80700000D03*
X127137500Y-80700000D03*
%TD*%
%TO.C,R4*%
X136162500Y-104400000D03*
X133237500Y-104400000D03*
%TD*%
%TO.C,R12*%
X152922500Y-28500000D03*
X149997500Y-28500000D03*
%TD*%
D36*
%TO.C,R18*%
X152600000Y-106962500D03*
X152600000Y-104037500D03*
%TD*%
D110*
%TO.C,C1*%
X169200000Y-27600000D03*
X161800000Y-27600000D03*
%TD*%
D43*
%TO.C,R36*%
X135687500Y-89000000D03*
X138612500Y-89000000D03*
%TD*%
D35*
%TO.C,C31*%
X152100000Y-98175000D03*
X152100000Y-95225000D03*
%TD*%
D38*
%TO.C,C12*%
X127575000Y-43000000D03*
X124625000Y-43000000D03*
%TD*%
D33*
%TO.C,R16*%
X118862500Y-110900000D03*
X115937500Y-110900000D03*
%TD*%
D58*
%TO.C,D3*%
X107486000Y-37520500D03*
X102914000Y-37520500D03*
D59*
X105200000Y-44070500D03*
%TD*%
D30*
%TO.C,C35*%
X174125000Y-93400000D03*
X177075000Y-93400000D03*
%TD*%
D36*
%TO.C,R7*%
X107000000Y-23962500D03*
X107000000Y-21037500D03*
%TD*%
D29*
%TO.C,REF\u002A\u002A*%
X162300000Y-109300000D03*
%TD*%
D33*
%TO.C,R39*%
X161162500Y-75000000D03*
X158237500Y-75000000D03*
%TD*%
D43*
%TO.C,R1*%
X145537500Y-104400000D03*
X148462500Y-104400000D03*
%TD*%
D75*
%TO.C,U3*%
X141237500Y-95550000D03*
D76*
X140700000Y-95475000D03*
D75*
X140162500Y-95550000D03*
X140162500Y-97250000D03*
D76*
X140700000Y-97325000D03*
D75*
X141237500Y-97250000D03*
%TD*%
D35*
%TO.C,C37*%
X114200000Y-68475000D03*
X114200000Y-65525000D03*
%TD*%
D30*
%TO.C,C18*%
X140725000Y-99400000D03*
X143675000Y-99400000D03*
%TD*%
D43*
%TO.C,R31*%
X167537500Y-98800000D03*
X170462500Y-98800000D03*
%TD*%
D73*
%TO.C,TP2*%
X100900000Y-94600000D03*
%TD*%
%TO.C,TP2*%
X96200000Y-75000000D03*
%TD*%
D32*
%TO.C,C2*%
X108300000Y-31525000D03*
X108300000Y-34475000D03*
%TD*%
D38*
%TO.C,C30*%
X156975000Y-59500000D03*
X154025000Y-59500000D03*
%TD*%
D30*
%TO.C,C32*%
X159525000Y-59500000D03*
X162475000Y-59500000D03*
%TD*%
D38*
%TO.C,C24*%
X113075000Y-85900000D03*
X110125000Y-85900000D03*
%TD*%
D33*
%TO.C,R10*%
X155962500Y-25500000D03*
X153037500Y-25500000D03*
%TD*%
D43*
%TO.C,R25*%
X104337500Y-92100000D03*
X107262500Y-92100000D03*
%TD*%
%TO.C,R30*%
X116337500Y-101100000D03*
X119262500Y-101100000D03*
%TD*%
D73*
%TO.C,TP12*%
X102200000Y-98600000D03*
%TD*%
D89*
%TO.C,U4*%
X116062500Y-85400000D03*
X116062500Y-85800000D03*
X116062500Y-86200000D03*
X116062500Y-86600000D03*
X116062500Y-87000000D03*
X116062500Y-87400000D03*
X116062500Y-87800000D03*
X116062500Y-88200000D03*
X116062500Y-88600000D03*
X116062500Y-89000000D03*
X116062500Y-89400000D03*
X116062500Y-89800000D03*
X116062500Y-90200000D03*
X116062500Y-90600000D03*
D90*
X116900000Y-91437500D03*
X117300000Y-91437500D03*
X117700000Y-91437500D03*
X118100000Y-91437500D03*
X118500000Y-91437500D03*
X118900000Y-91437500D03*
X119300000Y-91437500D03*
X119700000Y-91437500D03*
X120100000Y-91437500D03*
X120500000Y-91437500D03*
X120900000Y-91437500D03*
X121300000Y-91437500D03*
X121700000Y-91437500D03*
X122100000Y-91437500D03*
D89*
X122937500Y-90600000D03*
X122937500Y-90200000D03*
X122937500Y-89800000D03*
X122937500Y-89400000D03*
X122937500Y-89000000D03*
X122937500Y-88600000D03*
X122937500Y-88200000D03*
X122937500Y-87800000D03*
X122937500Y-87400000D03*
X122937500Y-87000000D03*
X122937500Y-86600000D03*
X122937500Y-86200000D03*
X122937500Y-85800000D03*
X122937500Y-85400000D03*
D90*
X122100000Y-84562500D03*
X121700000Y-84562500D03*
X121300000Y-84562500D03*
X120900000Y-84562500D03*
X120500000Y-84562500D03*
X120100000Y-84562500D03*
X119700000Y-84562500D03*
X119300000Y-84562500D03*
X118900000Y-84562500D03*
X118500000Y-84562500D03*
X118100000Y-84562500D03*
X117700000Y-84562500D03*
X117300000Y-84562500D03*
X116900000Y-84562500D03*
D18*
X119500000Y-88000000D03*
%TD*%
D43*
%TO.C,R29*%
X113437500Y-98100000D03*
X116362500Y-98100000D03*
%TD*%
D122*
X119700000Y-43600000D03*
X112000000Y-91650000D03*
D123*
X112700000Y-103700000D03*
X115400000Y-17400000D03*
X166900000Y-45200000D03*
X159100000Y-109900000D03*
X136500000Y-17500000D03*
X125900000Y-17400000D03*
X184500000Y-17500000D03*
X182400000Y-96600000D03*
X134000000Y-99400000D03*
X121500000Y-98500000D03*
D124*
X117800000Y-86300000D03*
D123*
X157100000Y-109900000D03*
X111400000Y-17400000D03*
X142600000Y-80100000D03*
X107400000Y-17400000D03*
X93200000Y-23500000D03*
X166900000Y-41200000D03*
X159100000Y-113900000D03*
X182500000Y-17500000D03*
X157200000Y-41900000D03*
X103400000Y-17400000D03*
X182900000Y-61100000D03*
X138500000Y-17500000D03*
X145500000Y-57100000D03*
X94600000Y-40900000D03*
X180500000Y-17500000D03*
X95200000Y-17400000D03*
D122*
X126300000Y-35900000D03*
D123*
X167800000Y-109800000D03*
X180400000Y-99200000D03*
X174900000Y-41100000D03*
X127900000Y-17400000D03*
X143500000Y-55100000D03*
X95600000Y-64000000D03*
X133900000Y-65800000D03*
X112500000Y-76000000D03*
X126200000Y-102800000D03*
X130400000Y-99300000D03*
X105400000Y-17400000D03*
X174400000Y-99200000D03*
X132500000Y-17500000D03*
D122*
X132800000Y-107500000D03*
D123*
X95200000Y-23500000D03*
X148600000Y-73900000D03*
X148200000Y-97200000D03*
X112500000Y-78000000D03*
D122*
X118500000Y-47500000D03*
D123*
X121500000Y-73500000D03*
X188700000Y-96500000D03*
X92600000Y-40900000D03*
X135900000Y-63800000D03*
X188700000Y-109100000D03*
X188700000Y-102800000D03*
X132000000Y-97400000D03*
X123900000Y-102800000D03*
X140018019Y-86597919D03*
X135900000Y-65800000D03*
X178400000Y-96600000D03*
X159200000Y-55900000D03*
X104400000Y-85500000D03*
X137900000Y-63800000D03*
D124*
X121000000Y-86400000D03*
D123*
X188700000Y-94100000D03*
X162500000Y-105800000D03*
D122*
X101000000Y-29000000D03*
D123*
X95600000Y-56000000D03*
D124*
X149600000Y-31700000D03*
D123*
X188700000Y-106800000D03*
D122*
X112000000Y-93550000D03*
D123*
X170900000Y-41200000D03*
D122*
X117500000Y-45500000D03*
D123*
X106300000Y-88500000D03*
X133900000Y-61800000D03*
X188700000Y-100500000D03*
X176400000Y-99200000D03*
X170900000Y-43200000D03*
X135900000Y-61800000D03*
X93300000Y-20600000D03*
X121500000Y-100700000D03*
X101900000Y-110900000D03*
X97300000Y-110900000D03*
X160500000Y-105800000D03*
D124*
X121100000Y-88100000D03*
D123*
X121600000Y-102800000D03*
X147100000Y-75200000D03*
D122*
X118500000Y-44500000D03*
D123*
X182900000Y-59100000D03*
X180400000Y-96600000D03*
D124*
X118000000Y-89700000D03*
X119600000Y-89700000D03*
D123*
X165800000Y-113800000D03*
X157200000Y-39900000D03*
X165800000Y-111800000D03*
X113400000Y-17400000D03*
X158100000Y-64400000D03*
X135800000Y-97500000D03*
X104300000Y-88500000D03*
X142600000Y-80100000D03*
X172900000Y-41100000D03*
X123200000Y-63400000D03*
D122*
X117500000Y-46500000D03*
D123*
X127200000Y-63400000D03*
X188700000Y-113100000D03*
X176900000Y-41100000D03*
X95300000Y-20600000D03*
D124*
X119400000Y-86300000D03*
D123*
X155400000Y-88700000D03*
X98600000Y-40900000D03*
X188700000Y-90100000D03*
D122*
X126300000Y-111900000D03*
X131800000Y-108500000D03*
D123*
X125200000Y-63400000D03*
X134500000Y-17500000D03*
X174900000Y-45100000D03*
D122*
X102000000Y-27000000D03*
D123*
X123800000Y-100700000D03*
X109400000Y-17400000D03*
X184500000Y-75000000D03*
X95600000Y-60000000D03*
X182900000Y-65100000D03*
X158500000Y-27400000D03*
X121500000Y-71500000D03*
X145600000Y-97200000D03*
X165800000Y-109800000D03*
X144175000Y-78525000D03*
X188700000Y-111100000D03*
X186500000Y-17500000D03*
X188700000Y-104800000D03*
X157100000Y-111900000D03*
X137900000Y-65800000D03*
D122*
X118500000Y-45500000D03*
D123*
X184500000Y-71000000D03*
D124*
X121200000Y-89800000D03*
D123*
X172900000Y-43100000D03*
D122*
X120700000Y-42600000D03*
X117500000Y-44500000D03*
D123*
X123900000Y-17400000D03*
D122*
X101000000Y-28000000D03*
X116500000Y-45500000D03*
D123*
X182400000Y-99200000D03*
X123400000Y-72500000D03*
X182900000Y-57100000D03*
X188700000Y-98500000D03*
X168900000Y-45200000D03*
X176900000Y-43100000D03*
D122*
X112900000Y-92650000D03*
D123*
X176400000Y-96600000D03*
X170900000Y-45200000D03*
X128600000Y-97200000D03*
X143500000Y-57100000D03*
D124*
X117900000Y-88000000D03*
D123*
X145500000Y-55100000D03*
X188700000Y-92100000D03*
X123400000Y-70500000D03*
D122*
X101000000Y-27000000D03*
D123*
X102400000Y-85500000D03*
X167800000Y-111800000D03*
D122*
X112900000Y-91650000D03*
D124*
X119500000Y-88000000D03*
D123*
X182900000Y-63100000D03*
X159900000Y-62600000D03*
X101200000Y-23500000D03*
D122*
X102000000Y-29000000D03*
D123*
X168900000Y-41200000D03*
D122*
X117500000Y-47500000D03*
D123*
X130500000Y-17500000D03*
X184500000Y-73000000D03*
X110400000Y-103700000D03*
D122*
X116500000Y-47500000D03*
D123*
X145400000Y-76900000D03*
D122*
X112000000Y-92650000D03*
D123*
X96600000Y-40900000D03*
X150100000Y-72600000D03*
X137900000Y-61800000D03*
D122*
X127300000Y-111900000D03*
D123*
X178400000Y-99200000D03*
D122*
X112900000Y-93550000D03*
D123*
X172900000Y-45100000D03*
D122*
X118500000Y-46500000D03*
X102000000Y-28000000D03*
D123*
X174400000Y-96600000D03*
X99200000Y-23500000D03*
X119900000Y-17400000D03*
X121900000Y-17400000D03*
X166900000Y-43200000D03*
X152800000Y-88700000D03*
X159100000Y-111900000D03*
X157100000Y-113900000D03*
X184500000Y-67000000D03*
X117400000Y-17400000D03*
X168900000Y-43200000D03*
X95600000Y-58000000D03*
D122*
X126300000Y-34900000D03*
D123*
X99600000Y-110900000D03*
X137500000Y-99400000D03*
X97200000Y-23500000D03*
X133900000Y-63800000D03*
X108100000Y-103700000D03*
D122*
X116500000Y-46500000D03*
D123*
X156300000Y-66000000D03*
X167800000Y-113800000D03*
X184500000Y-69000000D03*
X188500000Y-17500000D03*
X93200000Y-17400000D03*
X174900000Y-43100000D03*
X164500000Y-105800000D03*
X176900000Y-45100000D03*
X95600000Y-62000000D03*
X188500000Y-75800000D03*
X188500000Y-77800000D03*
X188500000Y-57400000D03*
X135800000Y-27700000D03*
X188500000Y-55400000D03*
X139000000Y-27700000D03*
X129700000Y-27700000D03*
X123800000Y-29200000D03*
X188500000Y-59400000D03*
X188500000Y-53400000D03*
X188500000Y-51400000D03*
X132900000Y-27700000D03*
X126800000Y-27700000D03*
X120900000Y-29200000D03*
D122*
X99500000Y-34500000D03*
X99500000Y-35500000D03*
X99500000Y-31500000D03*
X99500000Y-36500000D03*
X98000000Y-33500000D03*
X98000000Y-31500000D03*
X98000000Y-32500000D03*
X98000000Y-36500000D03*
X99500000Y-33500000D03*
X98000000Y-34500000D03*
X99500000Y-32500000D03*
X98000000Y-35500000D03*
D123*
X166140105Y-58193309D03*
D122*
X115407107Y-84107107D03*
D123*
X163400000Y-71400000D03*
X141000000Y-59900000D03*
D125*
X140800000Y-100800000D03*
D123*
X125600000Y-57300000D03*
X122000000Y-57300000D03*
D125*
X152600000Y-100800000D03*
D123*
X127500000Y-57300000D03*
X130300000Y-106800000D03*
X102400000Y-82100000D03*
D122*
X128100000Y-79300000D03*
D123*
X123800000Y-57300000D03*
X100700000Y-80400000D03*
X156000000Y-105400000D03*
D122*
X159600000Y-87800000D03*
D125*
X127900000Y-93500000D03*
X111100000Y-88100000D03*
X124600000Y-105800000D03*
X118600000Y-105600000D03*
X110100000Y-87500000D03*
D122*
X117500000Y-42000000D03*
X117500000Y-41000000D03*
X118500000Y-41000000D03*
X119500000Y-40000000D03*
X116500000Y-42000000D03*
X117500000Y-40000000D03*
X116500000Y-41000000D03*
X119500000Y-41000000D03*
X116500000Y-40000000D03*
X118500000Y-40000000D03*
X118500000Y-42000000D03*
X123000000Y-45000000D03*
X122000000Y-45000000D03*
X122000000Y-44000000D03*
X127100000Y-46500000D03*
X127100000Y-45500000D03*
X123000000Y-44000000D03*
X123000000Y-43000000D03*
X124000000Y-45000000D03*
X124000000Y-44000000D03*
D125*
X128250000Y-39900000D03*
X125743108Y-40256892D03*
D124*
X149500000Y-40500000D03*
X156000000Y-28000000D03*
D125*
X112100000Y-88700000D03*
X150800000Y-101900000D03*
X119514320Y-83414320D03*
X127100000Y-82500000D03*
D122*
X131500000Y-80800000D03*
D125*
X131200000Y-92900000D03*
D122*
X158200000Y-77500000D03*
X165050000Y-51750000D03*
D125*
X113000000Y-89200000D03*
X162438000Y-57600000D03*
X113850000Y-89600000D03*
D122*
X161900000Y-51500000D03*
D125*
X114765774Y-89465774D03*
D122*
X156600000Y-57700000D03*
D123*
X166400000Y-72700000D03*
D122*
X125300000Y-85100000D03*
X131200000Y-82400000D03*
D125*
X132450000Y-91500000D03*
X161800000Y-67900000D03*
X134800000Y-90900000D03*
X163800000Y-64300000D03*
X155500000Y-85700000D03*
X165900000Y-84700000D03*
X148200000Y-57700000D03*
D122*
X143800000Y-107400000D03*
D124*
X132800000Y-111000000D03*
D123*
X105150000Y-38750000D03*
M02*
