M48
; DRILL file {KiCad 8.0.0} date 2024-03-30T18:44:10+0100
; FORMAT={-:-/ absolute / metric / decimal}
; #@! TF.CreationDate,2024-03-30T18:44:10+01:00
; #@! TF.GenerationSoftware,Kicad,Pcbnew,8.0.0
; #@! TF.FileFunction,NonPlated,1,2,NPTH
FMAT,2
METRIC
; #@! TA.AperFunction,NonPlated,NPTH,ComponentDrill
T1C2.200
; #@! TA.AperFunction,NonPlated,NPTH,ComponentDrill
T2C3.000
; #@! TA.AperFunction,NonPlated,NPTH,ComponentDrill
T3C3.200
%
G90
G05
T1
X-94.8Y-20.1
X-94.8Y-112.1
X-33.0Y-112.1
X-32.8Y-20.1
T2
X-88.116Y-21.122
X-80.316Y-21.122
X-72.316Y-20.813
X-63.916Y-20.813
X-48.116Y-20.922
X-35.5Y-95.35
X-12.187Y-50.716
X-12.187Y-59.116
X-11.925Y-41.7
X7.2Y-202.325
X15.0Y-202.325
X24.168Y-115.835
X32.569Y-115.835
X38.012Y-109.3
X45.634Y-116.022
X51.6Y-202.7
X61.75Y-202.578
X73.628Y-145.484
X97.475Y-107.0
X97.7Y-53.0
X97.7Y-67.8
X98.5Y-20.5
X162.3Y-109.3
X183.525Y-36.0
X183.525Y-86.0
X183.987Y-103.584
X183.987Y-111.984
X185.0Y-21.0
T3
X-15.7Y-113.2
X-13.3Y-21.4
X75.7Y-21.2
X75.7Y-71.4
X76.5Y-113.3
X180.425Y-47.1
X180.425Y-72.9
M30
